<svg width="214" height="36" viewBox="0 0 214 36" fill="none" xmlns="http://www.w3.org/2000/svg">
<rect width="214" height="36" rx="10" fill="url(#paint0_linear_2_183)"/>
<path d="M73.0391 12.7266V24H77.0156C80.375 24 82.3516 21.9062 82.3516 18.3438C82.3516 14.7891 80.3672 12.7266 77.0156 12.7266H73.0391ZM74.7891 14.2344H76.8516C79.2344 14.2344 80.5625 15.7031 80.5625 18.3594C80.5625 21.0234 79.2422 22.4844 76.8516 22.4844H74.7891V14.2344ZM87.3516 24.1562C89.7031 24.1562 91.25 22.5391 91.25 19.8906C91.25 17.25 89.6953 15.6328 87.3516 15.6328C85.0078 15.6328 83.4531 17.25 83.4531 19.8906C83.4531 22.5391 85 24.1562 87.3516 24.1562ZM87.3516 22.7656C86.0312 22.7656 85.1719 21.7188 85.1719 19.8906C85.1719 18.0703 86.0312 17.0234 87.3516 17.0234C88.6719 17.0234 89.5312 18.0703 89.5312 19.8906C89.5312 21.7188 88.6797 22.7656 87.3516 22.7656ZM103.367 15.7812H101.695L100.195 22.25H100.156L98.4375 15.7812H96.8125L95.1016 22.25H95.0703L93.5703 15.7812H91.8828L94.1406 24H95.8828L97.5938 17.8438H97.6328L99.3594 24H101.117L103.367 15.7812ZM104.398 24H106.086V19.2109C106.086 17.9375 106.852 17.0938 108.039 17.0938C109.211 17.0938 109.789 17.7734 109.789 19.0078V24H111.484V18.6797C111.484 16.7969 110.445 15.6406 108.633 15.6406C107.367 15.6406 106.492 16.2188 106.047 17.1562H106.008V15.7812H104.398V24ZM113.18 24H114.867V12.7266H113.18V24ZM120.133 24.1562C122.484 24.1562 124.031 22.5391 124.031 19.8906C124.031 17.25 122.477 15.6328 120.133 15.6328C117.789 15.6328 116.234 17.25 116.234 19.8906C116.234 22.5391 117.781 24.1562 120.133 24.1562ZM120.133 22.7656C118.812 22.7656 117.953 21.7188 117.953 19.8906C117.953 18.0703 118.812 17.0234 120.133 17.0234C121.453 17.0234 122.312 18.0703 122.312 19.8906C122.312 21.7188 121.461 22.7656 120.133 22.7656ZM128.211 22.8047C127.305 22.8047 126.711 22.3359 126.711 21.6172C126.711 20.9141 127.281 20.4688 128.289 20.3984L130.312 20.2734V20.9219C130.312 21.9922 129.391 22.8047 128.211 22.8047ZM127.742 24.1406C128.82 24.1406 129.859 23.5625 130.336 22.6484H130.375V24H131.992V18.3359C131.992 16.6875 130.719 15.6328 128.727 15.6328C126.695 15.6328 125.43 16.7266 125.336 18.2109H126.93C127.078 17.4766 127.688 17.0078 128.664 17.0078C129.695 17.0078 130.312 17.5547 130.312 18.4688V19.1016L128.062 19.2344C126.109 19.3438 125.008 20.2266 125.008 21.6641C125.008 23.1406 126.133 24.1406 127.742 24.1406ZM136.719 24.1406C137.914 24.1406 138.852 23.5391 139.336 22.6016H139.367V24H141.008V12.7266H139.312V17.1484H139.281C138.82 16.2422 137.883 15.6484 136.703 15.6484C134.641 15.6484 133.266 17.2969 133.266 19.8906C133.266 22.4844 134.641 24.1406 136.719 24.1406ZM137.164 17.0703C138.461 17.0703 139.328 18.1875 139.328 19.8906C139.328 21.6094 138.461 22.7109 137.164 22.7109C135.828 22.7109 134.992 21.625 134.992 19.8906C134.992 18.1641 135.828 17.0703 137.164 17.0703Z" fill="#D9D9D9"/>
<defs>
<linearGradient id="paint0_linear_2_183" x1="-13.7571" y1="17.6326" x2="214" y2="17.6327" gradientUnits="userSpaceOnUse">
<stop offset="0.579134" stop-color="#32323A"/>
</linearGradient>
</defs>
</svg>
