<svg width="261" height="220" viewBox="0 0 261 220" fill="none" xmlns="http://www.w3.org/2000/svg">
<g filter="url(#filter0_d_9_74)">
<path d="M8 5C8 2.23857 10.2386 0 13 0H248C250.761 0 253 2.23858 253 5V200C253 202.761 250.761 205 248 205H13C10.2386 205 8 202.761 8 200V5Z" fill="#C7BFFA"/>
<rect x="9" y="1" width="243" height="203" rx="5" fill="url(#paint0_linear_9_74)"/>
<path d="M47.2891 124V114.234H50.7344V112.727H42.0859V114.234H45.5391V124H47.2891ZM57.5078 115.781H55.8203V120.57C55.8203 121.852 55.0859 122.695 53.8672 122.695C52.7031 122.695 52.1094 122.023 52.1094 120.773V115.781H50.4219V121.102C50.4219 122.984 51.5156 124.148 53.3047 124.148C54.5625 124.148 55.3984 123.594 55.8516 122.609H55.8906V124H57.5078V115.781ZM63.5547 124.141C65.6406 124.141 66.9844 122.5 66.9844 119.891C66.9844 117.289 65.6328 115.648 63.5625 115.648C62.3984 115.648 61.4609 116.227 60.9688 117.18H60.9297V112.727H59.2422V124H60.8828V122.602H60.9141C61.4219 123.555 62.3516 124.141 63.5547 124.141ZM63.1016 117.07C64.4297 117.07 65.25 118.164 65.25 119.891C65.25 121.633 64.4297 122.711 63.1016 122.711C61.8203 122.711 60.9219 121.602 60.9219 119.891C60.9219 118.195 61.8203 117.07 63.1016 117.07ZM71.7422 116.992C72.9219 116.992 73.7188 117.875 73.7578 119.133H69.6484C69.7344 117.891 70.5625 116.992 71.7422 116.992ZM73.75 121.586C73.5234 122.305 72.8125 122.789 71.8516 122.789C70.5 122.789 69.6406 121.844 69.6406 120.414V120.312H75.4453V119.734C75.4453 117.242 74.0234 115.633 71.7422 115.633C69.4219 115.633 67.9375 117.352 67.9375 119.93C67.9375 122.523 69.3984 124.156 71.8125 124.156C73.6953 124.156 75.1172 123.086 75.3516 121.586H73.75ZM83.8125 118.609C83.6641 116.992 82.375 115.633 80.2578 115.633C77.9219 115.633 76.3906 117.281 76.3906 119.891C76.3906 122.547 77.9219 124.156 80.2734 124.156C82.25 124.156 83.6484 122.969 83.8281 121.219H82.2031C82.0078 122.172 81.3281 122.742 80.2891 122.742C78.9766 122.742 78.1094 121.695 78.1094 119.891C78.1094 118.125 78.9688 117.039 80.2734 117.039C81.375 117.039 82.0312 117.734 82.2031 118.609H83.8125ZM92.0703 115.781H90.3828V120.57C90.3828 121.852 89.6484 122.695 88.4297 122.695C87.2656 122.695 86.6719 122.023 86.6719 120.773V115.781H84.9844V121.102C84.9844 122.984 86.0781 124.148 87.8672 124.148C89.125 124.148 89.9609 123.594 90.4141 122.609H90.4531V124H92.0703V115.781ZM94.2344 113.836V115.781H93.0391V117.117H94.2344V121.836C94.2344 123.422 94.8828 124.055 96.5469 124.055C96.9219 124.055 97.2969 124.023 97.4844 123.977V122.641C97.375 122.664 97.1016 122.68 96.9297 122.68C96.2422 122.68 95.9297 122.359 95.9297 121.648V117.117H97.4922V115.781H95.9297V113.836H94.2344ZM112.977 115.781H111.305L109.805 122.25H109.766L108.047 115.781H106.422L104.711 122.25H104.68L103.18 115.781H101.492L103.75 124H105.492L107.203 117.844H107.242L108.969 124H110.727L112.977 115.781ZM114.062 124H115.75V115.781H114.062V124ZM114.906 114.578C115.453 114.578 115.891 114.148 115.891 113.617C115.891 113.078 115.453 112.648 114.906 112.648C114.367 112.648 113.93 113.078 113.93 113.617C113.93 114.148 114.367 114.578 114.906 114.578ZM117.539 124H119.227V112.727H117.539V124ZM121.023 124H122.711V112.727H121.023V124ZM130.57 122.805C129.664 122.805 129.07 122.336 129.07 121.617C129.07 120.914 129.641 120.469 130.648 120.398L132.672 120.273V120.922C132.672 121.992 131.75 122.805 130.57 122.805ZM130.102 124.141C131.18 124.141 132.219 123.562 132.695 122.648H132.734V124H134.352V118.336C134.352 116.688 133.078 115.633 131.086 115.633C129.055 115.633 127.789 116.727 127.695 118.211H129.289C129.438 117.477 130.047 117.008 131.023 117.008C132.055 117.008 132.672 117.555 132.672 118.469V119.102L130.422 119.234C128.469 119.344 127.367 120.227 127.367 121.664C127.367 123.141 128.492 124.141 130.102 124.141ZM143.039 115.781H141.352V120.57C141.352 121.852 140.617 122.695 139.398 122.695C138.234 122.695 137.641 122.023 137.641 120.773V115.781H135.953V121.102C135.953 122.984 137.047 124.148 138.836 124.148C140.094 124.148 140.93 123.594 141.383 122.609H141.422V124H143.039V115.781ZM145.203 113.836V115.781H144.008V117.117H145.203V121.836C145.203 123.422 145.852 124.055 147.516 124.055C147.891 124.055 148.266 124.023 148.453 123.977V122.641C148.344 122.664 148.07 122.68 147.898 122.68C147.211 122.68 146.898 122.359 146.898 121.648V117.117H148.461V115.781H146.898V113.836H145.203ZM153.18 124.156C155.531 124.156 157.078 122.539 157.078 119.891C157.078 117.25 155.523 115.633 153.18 115.633C150.836 115.633 149.281 117.25 149.281 119.891C149.281 122.539 150.828 124.156 153.18 124.156ZM153.18 122.766C151.859 122.766 151 121.719 151 119.891C151 118.07 151.859 117.023 153.18 117.023C154.5 117.023 155.359 118.07 155.359 119.891C155.359 121.719 154.508 122.766 153.18 122.766ZM158.383 124H160.07V118.922C160.07 117.867 160.781 117.086 161.781 117.086C162.734 117.086 163.336 117.688 163.336 118.633V124H164.992V118.867C164.992 117.828 165.688 117.086 166.688 117.086C167.688 117.086 168.258 117.695 168.258 118.758V124H169.953V118.352C169.953 116.719 168.891 115.641 167.266 115.641C166.094 115.641 165.125 116.25 164.703 117.25H164.664C164.336 116.227 163.508 115.641 162.367 115.641C161.258 115.641 160.398 116.25 160.031 117.164H159.992V115.781H158.383V124ZM174.461 122.805C173.555 122.805 172.961 122.336 172.961 121.617C172.961 120.914 173.531 120.469 174.539 120.398L176.562 120.273V120.922C176.562 121.992 175.641 122.805 174.461 122.805ZM173.992 124.141C175.07 124.141 176.109 123.562 176.586 122.648H176.625V124H178.242V118.336C178.242 116.688 176.969 115.633 174.977 115.633C172.945 115.633 171.68 116.727 171.586 118.211H173.18C173.328 117.477 173.938 117.008 174.914 117.008C175.945 117.008 176.562 117.555 176.562 118.469V119.102L174.312 119.234C172.359 119.344 171.258 120.227 171.258 121.664C171.258 123.141 172.383 124.141 173.992 124.141ZM180.375 113.836V115.781H179.18V117.117H180.375V121.836C180.375 123.422 181.023 124.055 182.688 124.055C183.062 124.055 183.438 124.023 183.625 123.977V122.641C183.516 122.664 183.242 122.68 183.07 122.68C182.383 122.68 182.07 122.359 182.07 121.648V117.117H183.633V115.781H182.07V113.836H180.375ZM185.078 124H186.766V115.781H185.078V124ZM185.922 114.578C186.469 114.578 186.906 114.148 186.906 113.617C186.906 113.078 186.469 112.648 185.922 112.648C185.383 112.648 184.945 113.078 184.945 113.617C184.945 114.148 185.383 114.578 185.922 114.578ZM195.547 118.609C195.398 116.992 194.109 115.633 191.992 115.633C189.656 115.633 188.125 117.281 188.125 119.891C188.125 122.547 189.656 124.156 192.008 124.156C193.984 124.156 195.383 122.969 195.562 121.219H193.938C193.742 122.172 193.062 122.742 192.023 122.742C190.711 122.742 189.844 121.695 189.844 119.891C189.844 118.125 190.703 117.039 192.008 117.039C193.109 117.039 193.766 117.734 193.938 118.609H195.547ZM199.633 122.805C198.727 122.805 198.133 122.336 198.133 121.617C198.133 120.914 198.703 120.469 199.711 120.398L201.734 120.273V120.922C201.734 121.992 200.812 122.805 199.633 122.805ZM199.164 124.141C200.242 124.141 201.281 123.562 201.758 122.648H201.797V124H203.414V118.336C203.414 116.688 202.141 115.633 200.148 115.633C198.117 115.633 196.852 116.727 196.758 118.211H198.352C198.5 117.477 199.109 117.008 200.086 117.008C201.117 117.008 201.734 117.555 201.734 118.469V119.102L199.484 119.234C197.531 119.344 196.43 120.227 196.43 121.664C196.43 123.141 197.555 124.141 199.164 124.141ZM205.117 124H206.805V112.727H205.117V124ZM208.602 124H210.289V112.727H208.602V124ZM212.836 127.062C214.547 127.062 215.352 126.422 216.055 124.43L219.141 115.781H217.359L215.273 122.469H215.25L213.164 115.781H211.336L214.305 124.008C214.305 124.016 214.156 124.5 214.156 124.516C213.898 125.359 213.484 125.688 212.695 125.688C212.555 125.688 212.273 125.688 212.148 125.656V127.023C212.273 127.047 212.703 127.062 212.836 127.062ZM42.7266 146H44.4219V139.117H46.0625V137.797H44.3984V137.023C44.3984 136.297 44.7422 135.93 45.4766 135.93C45.7031 135.93 45.9297 135.945 46.0938 135.977V134.727C45.875 134.688 45.4922 134.648 45.1484 134.648C43.4766 134.648 42.7266 135.398 42.7266 136.992V137.797H41.5938V139.117H42.7266V146ZM47.4453 146H49.1328V137.781H47.4453V146ZM48.2891 136.578C48.8359 136.578 49.2734 136.148 49.2734 135.617C49.2734 135.078 48.8359 134.648 48.2891 134.648C47.75 134.648 47.3125 135.078 47.3125 135.617C47.3125 136.148 47.75 136.578 48.2891 136.578ZM50.9219 146H52.6094V134.727H50.9219V146ZM54.4062 146H56.0938V134.727H54.4062V146ZM61.1328 146H62.8203V137.781H61.1328V146ZM61.9766 136.578C62.5234 136.578 62.9609 136.148 62.9609 135.617C62.9609 135.078 62.5234 134.648 61.9766 134.648C61.4375 134.648 61 135.078 61 135.617C61 136.148 61.4375 136.578 61.9766 136.578ZM64.5469 146H66.2344V141.211C66.2344 139.938 67 139.094 68.1875 139.094C69.3594 139.094 69.9375 139.773 69.9375 141.008V146H71.6328V140.68C71.6328 138.797 70.5938 137.641 68.7812 137.641C67.5156 137.641 66.6406 138.219 66.1953 139.156H66.1562V137.781H64.5469V146ZM77.0078 135.836V137.781H75.8125V139.117H77.0078V143.836C77.0078 145.422 77.6562 146.055 79.3203 146.055C79.6953 146.055 80.0703 146.023 80.2578 145.977V144.641C80.1484 144.664 79.875 144.68 79.7031 144.68C79.0156 144.68 78.7031 144.359 78.7031 143.648V139.117H80.2656V137.781H78.7031V135.836H77.0078ZM81.7188 146H83.4062V141.25C83.4062 139.953 84.1719 139.094 85.4219 139.094C86.6094 139.094 87.2188 139.82 87.2188 141.031V146H88.9141V140.703C88.9141 138.844 87.8359 137.641 86.0312 137.641C84.7812 137.641 83.8828 138.195 83.4297 139.156H83.3906V134.727H81.7188V146ZM93.9844 138.992C95.1641 138.992 95.9609 139.875 96 141.133H91.8906C91.9766 139.891 92.8047 138.992 93.9844 138.992ZM95.9922 143.586C95.7656 144.305 95.0547 144.789 94.0938 144.789C92.7422 144.789 91.8828 143.844 91.8828 142.414V142.312H97.6875V141.734C97.6875 139.242 96.2656 137.633 93.9844 137.633C91.6641 137.633 90.1797 139.352 90.1797 141.93C90.1797 144.523 91.6406 146.156 94.0547 146.156C95.9375 146.156 97.3594 145.086 97.5938 143.586H95.9922ZM106.625 146.141C108.711 146.141 110.055 144.5 110.055 141.891C110.055 139.289 108.703 137.648 106.633 137.648C105.469 137.648 104.531 138.227 104.039 139.18H104V134.727H102.312V146H103.953V144.602H103.984C104.492 145.555 105.422 146.141 106.625 146.141ZM106.172 139.07C107.5 139.07 108.32 140.164 108.32 141.891C108.32 143.633 107.5 144.711 106.172 144.711C104.891 144.711 103.992 143.602 103.992 141.891C103.992 140.195 104.891 139.07 106.172 139.07ZM111.438 146H113.125V134.727H111.438V146ZM117.734 144.805C116.828 144.805 116.234 144.336 116.234 143.617C116.234 142.914 116.805 142.469 117.812 142.398L119.836 142.273V142.922C119.836 143.992 118.914 144.805 117.734 144.805ZM117.266 146.141C118.344 146.141 119.383 145.562 119.859 144.648H119.898V146H121.516V140.336C121.516 138.688 120.242 137.633 118.25 137.633C116.219 137.633 114.953 138.727 114.859 140.211H116.453C116.602 139.477 117.211 139.008 118.188 139.008C119.219 139.008 119.836 139.555 119.836 140.469V141.102L117.586 141.234C115.633 141.344 114.531 142.227 114.531 143.664C114.531 145.141 115.656 146.141 117.266 146.141ZM123.156 146H124.844V141.211C124.844 139.938 125.609 139.094 126.797 139.094C127.969 139.094 128.547 139.773 128.547 141.008V146H130.242V140.68C130.242 138.797 129.203 137.641 127.391 137.641C126.125 137.641 125.25 138.219 124.805 139.156H124.766V137.781H123.156V146ZM133.641 141.305H133.625V134.727H131.938V146H133.625V143.047L134.328 142.352L137.117 146H139.078L135.539 141.32L138.945 137.781H136.961L133.641 141.305ZM139.539 140.109C139.539 141.258 140.289 142.031 141.773 142.391L143.242 142.75C144.102 142.969 144.414 143.258 144.414 143.781C144.414 144.445 143.789 144.867 142.773 144.867C141.742 144.867 141.133 144.43 141 143.641H139.328C139.461 145.148 140.75 146.156 142.695 146.156C144.711 146.156 146.109 145.125 146.109 143.625C146.109 142.414 145.484 141.789 143.828 141.391L142.445 141.07C141.594 140.859 141.188 140.516 141.188 140.008C141.188 139.359 141.797 138.914 142.711 138.914C143.656 138.914 144.258 139.375 144.336 140.117H145.922C145.867 138.656 144.586 137.633 142.758 137.633C140.836 137.633 139.539 138.641 139.539 140.109ZM161.516 137.781H159.844L158.344 144.25H158.305L156.586 137.781H154.961L153.25 144.25H153.219L151.719 137.781H150.031L152.289 146H154.031L155.742 139.844H155.781L157.508 146H159.266L161.516 137.781ZM162.609 146H164.297V141.25C164.297 139.953 165.062 139.094 166.312 139.094C167.5 139.094 168.109 139.82 168.109 141.031V146H169.805V140.703C169.805 138.844 168.727 137.641 166.922 137.641C165.672 137.641 164.773 138.195 164.32 139.156H164.281V134.727H162.609V146ZM174.875 138.992C176.055 138.992 176.852 139.875 176.891 141.133H172.781C172.867 139.891 173.695 138.992 174.875 138.992ZM176.883 143.586C176.656 144.305 175.945 144.789 174.984 144.789C173.633 144.789 172.773 143.844 172.773 142.414V142.312H178.578V141.734C178.578 139.242 177.156 137.633 174.875 137.633C172.555 137.633 171.07 139.352 171.07 141.93C171.07 144.523 172.531 146.156 174.945 146.156C176.828 146.156 178.25 145.086 178.484 143.586H176.883ZM179.891 146H181.578V141.211C181.578 139.938 182.344 139.094 183.531 139.094C184.703 139.094 185.281 139.773 185.281 141.008V146H186.977V140.68C186.977 138.797 185.938 137.641 184.125 137.641C182.859 137.641 181.984 138.219 181.539 139.156H181.5V137.781H179.891V146ZM192.672 149.062C194.383 149.062 195.188 148.422 195.891 146.43L198.977 137.781H197.195L195.109 144.469H195.086L193 137.781H191.172L194.141 146.008C194.141 146.016 193.992 146.5 193.992 146.516C193.734 147.359 193.32 147.688 192.531 147.688C192.391 147.688 192.109 147.688 191.984 147.656V149.023C192.109 149.047 192.539 149.062 192.672 149.062ZM203.266 146.156C205.617 146.156 207.164 144.539 207.164 141.891C207.164 139.25 205.609 137.633 203.266 137.633C200.922 137.633 199.367 139.25 199.367 141.891C199.367 144.539 200.914 146.156 203.266 146.156ZM203.266 144.766C201.945 144.766 201.086 143.719 201.086 141.891C201.086 140.07 201.945 139.023 203.266 139.023C204.586 139.023 205.445 140.07 205.445 141.891C205.445 143.719 204.594 144.766 203.266 144.766ZM215.516 137.781H213.828V142.57C213.828 143.852 213.094 144.695 211.875 144.695C210.711 144.695 210.117 144.023 210.117 142.773V137.781H208.43V143.102C208.43 144.984 209.523 146.148 211.312 146.148C212.57 146.148 213.406 145.594 213.859 144.609H213.898V146H215.516V137.781ZM71.75 162.609C71.6016 160.992 70.3125 159.633 68.1953 159.633C65.8594 159.633 64.3281 161.281 64.3281 163.891C64.3281 166.547 65.8594 168.156 68.2109 168.156C70.1875 168.156 71.5859 166.969 71.7656 165.219H70.1406C69.9453 166.172 69.2656 166.742 68.2266 166.742C66.9141 166.742 66.0469 165.695 66.0469 163.891C66.0469 162.125 66.9062 161.039 68.2109 161.039C69.3125 161.039 69.9688 161.734 70.1406 162.609H71.75ZM76.4922 168.156C78.8438 168.156 80.3906 166.539 80.3906 163.891C80.3906 161.25 78.8359 159.633 76.4922 159.633C74.1484 159.633 72.5938 161.25 72.5938 163.891C72.5938 166.539 74.1406 168.156 76.4922 168.156ZM76.4922 166.766C75.1719 166.766 74.3125 165.719 74.3125 163.891C74.3125 162.07 75.1719 161.023 76.4922 161.023C77.8125 161.023 78.6719 162.07 78.6719 163.891C78.6719 165.719 77.8203 166.766 76.4922 166.766ZM85.9766 159.648C84.7891 159.648 83.8438 160.25 83.3594 161.195H83.3281V159.781H81.6953V170.719H83.3828V166.648H83.4219C83.8906 167.562 84.8281 168.141 86.0078 168.141C88.0703 168.141 89.4375 166.492 89.4375 163.891C89.4375 161.289 88.0625 159.648 85.9766 159.648ZM85.5312 166.711C84.2344 166.711 83.375 165.602 83.375 163.891C83.375 162.195 84.2422 161.07 85.5312 161.07C86.8672 161.07 87.7031 162.172 87.7031 163.891C87.7031 165.617 86.8672 166.711 85.5312 166.711ZM91.3359 171.062C93.0469 171.062 93.8516 170.422 94.5547 168.43L97.6406 159.781H95.8594L93.7734 166.469H93.75L91.6641 159.781H89.8359L92.8047 168.008C92.8047 168.016 92.6562 168.5 92.6562 168.516C92.3984 169.359 91.9844 169.688 91.1953 169.688C91.0547 169.688 90.7734 169.688 90.6484 169.656V171.023C90.7734 171.047 91.2031 171.062 91.3359 171.062ZM106.969 168V163.383L110.945 156.727H109.008L106.133 161.703H106.078L103.203 156.727H101.25L105.219 163.383V168H106.969ZM113.945 168.156C116.297 168.156 117.844 166.539 117.844 163.891C117.844 161.25 116.289 159.633 113.945 159.633C111.602 159.633 110.047 161.25 110.047 163.891C110.047 166.539 111.594 168.156 113.945 168.156ZM113.945 166.766C112.625 166.766 111.766 165.719 111.766 163.891C111.766 162.07 112.625 161.023 113.945 161.023C115.266 161.023 116.125 162.07 116.125 163.891C116.125 165.719 115.273 166.766 113.945 166.766ZM126.195 159.781H124.508V164.57C124.508 165.852 123.773 166.695 122.555 166.695C121.391 166.695 120.797 166.023 120.797 164.773V159.781H119.109V165.102C119.109 166.984 120.203 168.148 121.992 168.148C123.25 168.148 124.086 167.594 124.539 166.609H124.578V168H126.195V159.781ZM128.359 157.836V159.781H127.164V161.117H128.359V165.836C128.359 167.422 129.008 168.055 130.672 168.055C131.047 168.055 131.422 168.023 131.609 167.977V166.641C131.5 166.664 131.227 166.68 131.055 166.68C130.367 166.68 130.055 166.359 130.055 165.648V161.117H131.617V159.781H130.055V157.836H128.359ZM140.055 159.781H138.367V164.57C138.367 165.852 137.633 166.695 136.414 166.695C135.25 166.695 134.656 166.023 134.656 164.773V159.781H132.969V165.102C132.969 166.984 134.062 168.148 135.852 168.148C137.109 168.148 137.945 167.594 138.398 166.609H138.438V168H140.055V159.781ZM146.102 168.141C148.188 168.141 149.531 166.5 149.531 163.891C149.531 161.289 148.18 159.648 146.109 159.648C144.945 159.648 144.008 160.227 143.516 161.18H143.477V156.727H141.789V168H143.43V166.602H143.461C143.969 167.555 144.898 168.141 146.102 168.141ZM145.648 161.07C146.977 161.07 147.797 162.164 147.797 163.891C147.797 165.633 146.977 166.711 145.648 166.711C144.367 166.711 143.469 165.602 143.469 163.891C143.469 162.195 144.367 161.07 145.648 161.07ZM154.289 160.992C155.469 160.992 156.266 161.875 156.305 163.133H152.195C152.281 161.891 153.109 160.992 154.289 160.992ZM156.297 165.586C156.07 166.305 155.359 166.789 154.398 166.789C153.047 166.789 152.188 165.844 152.188 164.414V164.312H157.992V163.734C157.992 161.242 156.57 159.633 154.289 159.633C151.969 159.633 150.484 161.352 150.484 163.93C150.484 166.523 151.945 168.156 154.359 168.156C156.242 168.156 157.664 167.086 157.898 165.586H156.297ZM162.617 168H164.305V156.727H162.617V168ZM166.094 168H167.781V159.781H166.094V168ZM166.938 158.578C167.484 158.578 167.922 158.148 167.922 157.617C167.922 157.078 167.484 156.648 166.938 156.648C166.398 156.648 165.961 157.078 165.961 157.617C165.961 158.148 166.398 158.578 166.938 158.578ZM169.508 168H171.195V163.211C171.195 161.938 171.961 161.094 173.148 161.094C174.32 161.094 174.898 161.773 174.898 163.008V168H176.594V162.68C176.594 160.797 175.555 159.641 173.742 159.641C172.477 159.641 171.602 160.219 171.156 161.156H171.117V159.781H169.508V168ZM179.992 163.305H179.977V156.727H178.289V168H179.977V165.047L180.68 164.352L183.469 168H185.43L181.891 163.32L185.297 159.781H183.312L179.992 163.305ZM185.891 162.109C185.891 163.258 186.641 164.031 188.125 164.391L189.594 164.75C190.453 164.969 190.766 165.258 190.766 165.781C190.766 166.445 190.141 166.867 189.125 166.867C188.094 166.867 187.484 166.43 187.352 165.641H185.68C185.812 167.148 187.102 168.156 189.047 168.156C191.062 168.156 192.461 167.125 192.461 165.625C192.461 164.414 191.836 163.789 190.18 163.391L188.797 163.07C187.945 162.859 187.539 162.516 187.539 162.008C187.539 161.359 188.148 160.914 189.062 160.914C190.008 160.914 190.609 161.375 190.688 162.117H192.273C192.219 160.656 190.938 159.633 189.109 159.633C187.188 159.633 185.891 160.641 185.891 162.109ZM195.039 168.086C195.609 168.086 196.062 167.633 196.062 167.062C196.062 166.492 195.609 166.039 195.039 166.039C194.469 166.039 194.016 166.492 194.016 167.062C194.016 167.633 194.469 168.086 195.039 168.086Z" fill="#B4B5B9"/>
<path d="M66.7389 89.2812C70.6295 89.2812 73.278 87.2305 73.9225 83.7383H71.3092C70.7819 85.7773 69.1061 86.9844 66.7506 86.9844C63.6452 86.9844 61.6764 84.4883 61.6764 80.5391C61.6764 76.625 63.6686 74.1055 66.7389 74.1055C69.0358 74.1055 70.8405 75.5234 71.3092 77.6914H73.9108C73.4655 74.1641 70.5709 71.8086 66.7389 71.8086C62.0163 71.8086 58.9928 75.1836 58.9928 80.5391C58.9928 85.9297 61.9928 89.2812 66.7389 89.2812ZM81.7619 89.2344C85.2892 89.2344 87.6095 86.8086 87.6095 82.8359C87.6095 78.875 85.2775 76.4492 81.7619 76.4492C78.2463 76.4492 75.9142 78.875 75.9142 82.8359C75.9142 86.8086 78.2345 89.2344 81.7619 89.2344ZM81.7619 87.1484C79.7814 87.1484 78.4923 85.5781 78.4923 82.8359C78.4923 80.1055 79.7814 78.5352 81.7619 78.5352C83.7423 78.5352 85.0314 80.1055 85.0314 82.8359C85.0314 85.5781 83.7541 87.1484 81.7619 87.1484ZM96.4684 76.4727C94.6872 76.4727 93.2692 77.375 92.5427 78.793H92.4958V76.6719H90.0466V93.0781H92.5778V86.9727H92.6364C93.3395 88.3438 94.7458 89.2109 96.5153 89.2109C99.6091 89.2109 101.66 86.7383 101.66 82.8359C101.66 78.9336 99.5973 76.4727 96.4684 76.4727ZM95.8005 87.0664C93.8552 87.0664 92.5661 85.4023 92.5661 82.8359C92.5661 80.293 93.8669 78.6055 95.8005 78.6055C97.8044 78.6055 99.0583 80.2578 99.0583 82.8359C99.0583 85.4258 97.8044 87.0664 95.8005 87.0664ZM104.987 93.5938C107.554 93.5938 108.761 92.6328 109.816 89.6445L114.445 76.6719H111.773L108.644 86.7031H108.609L105.48 76.6719H102.737L107.191 89.0117C107.191 89.0234 106.968 89.75 106.968 89.7734C106.581 91.0391 105.96 91.5312 104.777 91.5312C104.566 91.5312 104.144 91.5312 103.956 91.4844V93.5352C104.144 93.5703 104.788 93.5938 104.987 93.5938ZM133.979 89H137.061L134.026 85.8008C134.951 84.418 135.432 82.5664 135.432 80.1758V79.4609H133.158V80.1055C133.158 81.957 132.924 83.2109 132.432 84.125L128.588 79.9883C131.084 78.6641 132.139 77.3633 132.139 75.6406C132.139 73.4141 130.299 71.832 127.709 71.832C125.155 71.832 123.256 73.4609 123.256 75.6406C123.256 76.8828 123.83 77.9492 125.354 79.5547C125.272 79.5781 124.944 79.7656 124.662 79.9062C122.459 81.0898 121.416 82.5664 121.416 84.5234C121.416 87.3594 123.737 89.293 127.17 89.293C129.186 89.293 131.143 88.6016 132.514 87.4062L133.979 89ZM126.104 81.2773C126.209 81.2188 126.49 81.0664 126.631 80.9961L131.073 85.8477C130.264 86.7148 128.823 87.2656 127.416 87.2656C125.319 87.2656 123.901 86.0938 123.901 84.3359C123.901 83.1289 124.533 82.25 126.104 81.2773ZM127.299 78.6641C126.045 77.4219 125.588 76.6602 125.588 75.7812C125.588 74.5742 126.479 73.707 127.721 73.707C128.998 73.707 129.854 74.5508 129.854 75.7695C129.854 76.9062 129.151 77.7148 127.299 78.6641ZM144.243 72.0898V89H146.868V83.2227H150.501C153.818 83.2227 156.15 80.9492 156.15 77.6445C156.15 74.3516 153.865 72.0898 150.583 72.0898H144.243ZM146.868 74.3047H149.892C152.165 74.3047 153.466 75.5234 153.466 77.6562C153.466 79.7891 152.165 81.0195 149.88 81.0195H146.868V74.3047ZM161.95 87.207C160.591 87.207 159.7 86.5039 159.7 85.4258C159.7 84.3711 160.555 83.7031 162.067 83.5977L165.102 83.4102V84.3828C165.102 85.9883 163.72 87.207 161.95 87.207ZM161.247 89.2109C162.864 89.2109 164.423 88.3438 165.137 86.9727H165.196V89H167.622V80.5039C167.622 78.0312 165.712 76.4492 162.723 76.4492C159.677 76.4492 157.778 78.0898 157.637 80.3164H160.028C160.251 79.2148 161.165 78.5117 162.63 78.5117C164.177 78.5117 165.102 79.332 165.102 80.7031V81.6523L161.727 81.8516C158.798 82.0156 157.145 83.3398 157.145 85.4961C157.145 87.7109 158.833 89.2109 161.247 89.2109ZM170.34 80.1641C170.34 81.8867 171.465 83.0469 173.692 83.5859L175.895 84.125C177.184 84.4531 177.653 84.8867 177.653 85.6719C177.653 86.668 176.715 87.3008 175.192 87.3008C173.645 87.3008 172.731 86.6445 172.532 85.4609H170.024C170.223 87.7227 172.157 89.2344 175.075 89.2344C178.098 89.2344 180.196 87.6875 180.196 85.4375C180.196 83.6211 179.258 82.6836 176.774 82.0859L174.7 81.6055C173.422 81.2891 172.813 80.7734 172.813 80.0117C172.813 79.0391 173.727 78.3711 175.098 78.3711C176.516 78.3711 177.418 79.0625 177.535 80.1758H179.914C179.832 77.9844 177.91 76.4492 175.168 76.4492C172.285 76.4492 170.34 77.9609 170.34 80.1641ZM183.383 73.7539V76.6719H181.59V78.6758H183.383V85.7539C183.383 88.1328 184.355 89.082 186.851 89.082C187.414 89.082 187.976 89.0352 188.258 88.9648V86.9609C188.094 86.9961 187.683 87.0195 187.426 87.0195C186.394 87.0195 185.926 86.5391 185.926 85.4727V78.6758H188.269V76.6719H185.926V73.7539H183.383ZM195.687 78.4883C197.456 78.4883 198.652 79.8125 198.71 81.6992H192.546C192.675 79.8359 193.917 78.4883 195.687 78.4883ZM198.699 85.3789C198.359 86.457 197.292 87.1836 195.851 87.1836C193.824 87.1836 192.535 85.7656 192.535 83.6211V83.4688H201.242V82.6016C201.242 78.8633 199.109 76.4492 195.687 76.4492C192.206 76.4492 189.98 79.0273 189.98 82.8945C189.98 86.7852 192.171 89.2344 195.792 89.2344C198.617 89.2344 200.749 87.6289 201.101 85.3789H198.699Z" fill="url(#paint1_linear_9_74)"/>
</g>
<defs>
<filter id="filter0_d_9_74" x="0.53012" y="0" width="259.94" height="219.94" filterUnits="userSpaceOnUse" color-interpolation-filters="sRGB">
<feFlood flood-opacity="0" result="BackgroundImageFix"/>
<feColorMatrix in="SourceAlpha" type="matrix" values="0 0 0 0 0 0 0 0 0 0 0 0 0 0 0 0 0 0 127 0" result="hardAlpha"/>
<feOffset dy="7.46988"/>
<feGaussianBlur stdDeviation="3.73494"/>
<feComposite in2="hardAlpha" operator="out"/>
<feColorMatrix type="matrix" values="0 0 0 0 0 0 0 0 0 0 0 0 0 0 0 0 0 0 0.25 0"/>
<feBlend mode="normal" in2="BackgroundImageFix" result="effect1_dropShadow_9_74"/>
<feBlend mode="normal" in="SourceGraphic" in2="effect1_dropShadow_9_74" result="shape"/>
</filter>
<linearGradient id="paint0_linear_9_74" x1="51.5" y1="28.5" x2="237.5" y2="204" gradientUnits="userSpaceOnUse">
<stop stop-color="#101115"/>
<stop offset="1" stop-color="#161622"/>
</linearGradient>
<linearGradient id="paint1_linear_9_74" x1="62.9827" y1="90.2303" x2="163.049" y2="85.6796" gradientUnits="userSpaceOnUse">
<stop stop-color="#F9F6F6"/>
<stop offset="1" stop-color="#9E9FA5"/>
</linearGradient>
</defs>
</svg>
