<svg width="93" height="79" viewBox="0 0 93 79" fill="none" xmlns="http://www.w3.org/2000/svg">
<g filter="url(#filter0_d_2_111)">
<rect x="22.0489" width="68" height="44" rx="5" transform="rotate(20 22.0489 0)" fill="url(#paint0_linear_2_111)"/>
<path d="M22.1235 9.33619L11.377 38.5885C11.145 39.2198 10.5177 39.6165 9.84788 39.5552C8.86721 39.4655 8.24382 38.4636 8.5938 37.5431C14.1185 23.0127 19.1416 8.21267 20.1379 5.49235C21.1451 2.74212 24.9627 1.04488 28.7591 2.1245L79.0499 20.1459C83.1868 21.8701 84.8916 23.7889 84.9352 26.3428C84.943 26.8023 84.8248 27.2528 84.6601 27.6819L71.51 61.9392C71.3309 62.4058 70.8635 62.6966 70.3657 62.6511C69.6263 62.5835 69.1575 61.8266 69.4267 61.1347C75.0964 46.5639 81.8212 29.5185 82.0272 27.2657C82.2106 25.26 80.5526 24.3906 79.4612 23.8182L79.4529 23.8139C79.1447 23.6523 78.8372 23.5125 78.5073 23.402C63.2206 18.2818 32.8641 7.23582 28.6361 6.26945C24.3629 5.29273 22.5138 7.90698 22.1235 9.33619Z" fill="url(#paint1_linear_2_111)"/>
<path d="M42.2585 34.703L45.1503 26.7578L43.7188 26.2368L38.8704 31.5743L38.8263 31.5582L38.5376 24.351L37.1115 23.832L34.2197 31.7771L35.343 32.186L37.4712 26.3386L37.5098 26.3526L37.8042 33.0132L38.7182 33.3459L43.2195 28.4308L43.2581 28.4448L41.1298 34.2922L42.2585 34.703ZM46.6149 27.2909L43.7231 35.2361L44.9565 35.685L45.9444 32.9705L47.6513 33.5918C49.2095 34.1589 50.694 33.4896 51.2591 31.9369C51.8222 30.3897 51.1354 28.9362 49.5937 28.3751L46.6149 27.2909ZM47.4695 28.7805L48.8901 29.2975C49.9582 29.6863 50.361 30.4813 49.9962 31.4834C49.6315 32.4855 48.8099 32.8412 47.7362 32.4504L46.3212 31.9354L47.4695 28.7805ZM53.3183 34.6567L54.3094 35.0174C55.3555 35.3982 55.8128 36.1633 55.5002 37.0222C55.2176 37.7986 54.3235 38.0966 53.3544 37.7439C52.3523 37.3792 51.915 36.6277 52.1145 35.8398L50.9307 35.4089C50.5088 36.808 51.2673 38.1503 52.9797 38.7736C54.637 39.3768 56.2445 38.8832 56.7496 37.4956C57.1544 36.3834 56.6501 35.3706 55.4853 34.8531L55.4933 34.8311C56.543 35.0136 57.4513 34.5398 57.812 33.5487C58.2569 32.3264 57.4718 31.0742 55.9687 30.5271C54.394 29.9539 53.0157 30.4686 52.415 31.8276L53.5768 32.2504C53.933 31.4946 54.6859 31.2075 55.5449 31.5201C56.4864 31.8628 56.8146 32.5372 56.5461 33.275C56.2735 34.0238 55.488 34.349 54.629 34.0364L53.671 33.6877L53.3183 34.6567Z" fill="#B4B5B9"/>
</g>
<defs>
<filter id="filter0_d_2_111" x="-0.46988" y="0" width="93.8878" height="79.5436" filterUnits="userSpaceOnUse" color-interpolation-filters="sRGB">
<feFlood flood-opacity="0" result="BackgroundImageFix"/>
<feColorMatrix in="SourceAlpha" type="matrix" values="0 0 0 0 0 0 0 0 0 0 0 0 0 0 0 0 0 0 127 0" result="hardAlpha"/>
<feOffset dy="7.46988"/>
<feGaussianBlur stdDeviation="3.73494"/>
<feComposite in2="hardAlpha" operator="out"/>
<feColorMatrix type="matrix" values="0 0 0 0 0 0 0 0 0 0 0 0 0 0 0 0 0 0 0.25 0"/>
<feBlend mode="normal" in2="BackgroundImageFix" result="effect1_dropShadow_2_111"/>
<feBlend mode="normal" in="SourceGraphic" in2="effect1_dropShadow_2_111" result="shape"/>
</filter>
<linearGradient id="paint0_linear_2_111" x1="55.2645" y1="19.2381" x2="68.248" y2="46.9685" gradientUnits="userSpaceOnUse">
<stop stop-color="#1C1C28"/>
<stop offset="1" stop-color="#24242E"/>
</linearGradient>
<linearGradient id="paint1_linear_2_111" x1="47.2666" y1="2.73462" x2="39.3973" y2="54.8867" gradientUnits="userSpaceOnUse">
<stop stop-color="#50505C"/>
<stop offset="1" stop-color="#50505C" stop-opacity="0"/>
</linearGradient>
</defs>
</svg>
