<svg width="261" height="220" viewBox="0 0 261 220" fill="none" xmlns="http://www.w3.org/2000/svg">
<g filter="url(#filter0_d_9_69)">
<path d="M8 5C8 2.23857 10.2386 0 13 0H248C250.761 0 253 2.23858 253 5V200C253 202.761 250.761 205 248 205H13C10.2386 205 8 202.761 8 200V5Z" fill="#C7BFFA"/>
<rect x="9" y="1" width="243" height="203" rx="5" fill="url(#paint0_linear_9_69)"/>
<path d="M51.8125 124V114.234H55.2578V112.727H46.6094V114.234H50.0625V124H51.8125ZM54.9531 124H56.6406V119.078C56.6406 117.914 57.3125 117.188 58.3984 117.188C58.7266 117.188 59.0234 117.227 59.1562 117.281V115.711C59.0312 115.688 58.8203 115.648 58.5781 115.648C57.6094 115.648 56.875 116.219 56.6016 117.18H56.5625V115.781H54.9531V124ZM60.2578 124H61.9453V115.781H60.2578V124ZM61.1016 114.578C61.6484 114.578 62.0859 114.148 62.0859 113.617C62.0859 113.078 61.6484 112.648 61.1016 112.648C60.5625 112.648 60.125 113.078 60.125 113.617C60.125 114.148 60.5625 114.578 61.1016 114.578ZM63.6719 124H65.3594V118.922C65.3594 117.867 66.0703 117.086 67.0703 117.086C68.0234 117.086 68.625 117.688 68.625 118.633V124H70.2812V118.867C70.2812 117.828 70.9766 117.086 71.9766 117.086C72.9766 117.086 73.5469 117.695 73.5469 118.758V124H75.2422V118.352C75.2422 116.719 74.1797 115.641 72.5547 115.641C71.3828 115.641 70.4141 116.25 69.9922 117.25H69.9531C69.625 116.227 68.7969 115.641 67.6562 115.641C66.5469 115.641 65.6875 116.25 65.3203 117.164H65.2812V115.781H63.6719V124ZM83 122.805C82.0938 122.805 81.5 122.336 81.5 121.617C81.5 120.914 82.0703 120.469 83.0781 120.398L85.1016 120.273V120.922C85.1016 121.992 84.1797 122.805 83 122.805ZM82.5312 124.141C83.6094 124.141 84.6484 123.562 85.125 122.648H85.1641V124H86.7812V118.336C86.7812 116.688 85.5078 115.633 83.5156 115.633C81.4844 115.633 80.2188 116.727 80.125 118.211H81.7188C81.8672 117.477 82.4766 117.008 83.4531 117.008C84.4844 117.008 85.1016 117.555 85.1016 118.469V119.102L82.8516 119.234C80.8984 119.344 79.7969 120.227 79.7969 121.664C79.7969 123.141 80.9219 124.141 82.5312 124.141ZM88.4219 124H90.1094V119.211C90.1094 117.938 90.875 117.094 92.0625 117.094C93.2344 117.094 93.8125 117.773 93.8125 119.008V124H95.5078V118.68C95.5078 116.797 94.4688 115.641 92.6562 115.641C91.3906 115.641 90.5156 116.219 90.0703 117.156H90.0312V115.781H88.4219V124ZM100.227 124.141C101.422 124.141 102.359 123.539 102.844 122.602H102.875V124H104.516V112.727H102.82V117.148H102.789C102.328 116.242 101.391 115.648 100.211 115.648C98.1484 115.648 96.7734 117.297 96.7734 119.891C96.7734 122.484 98.1484 124.141 100.227 124.141ZM100.672 117.07C101.969 117.07 102.836 118.188 102.836 119.891C102.836 121.609 101.969 122.711 100.672 122.711C99.3359 122.711 98.5 121.625 98.5 119.891C98.5 118.164 99.3359 117.07 100.672 117.07ZM112.586 124.141C113.781 124.141 114.719 123.539 115.203 122.602H115.234V124H116.875V112.727H115.18V117.148H115.148C114.688 116.242 113.75 115.648 112.57 115.648C110.508 115.648 109.133 117.297 109.133 119.891C109.133 122.484 110.508 124.141 112.586 124.141ZM113.031 117.07C114.328 117.07 115.195 118.188 115.195 119.891C115.195 121.609 114.328 122.711 113.031 122.711C111.695 122.711 110.859 121.625 110.859 119.891C110.859 118.164 111.695 117.07 113.031 117.07ZM122.141 124.156C124.492 124.156 126.039 122.539 126.039 119.891C126.039 117.25 124.484 115.633 122.141 115.633C119.797 115.633 118.242 117.25 118.242 119.891C118.242 122.539 119.789 124.156 122.141 124.156ZM122.141 122.766C120.82 122.766 119.961 121.719 119.961 119.891C119.961 118.07 120.82 117.023 122.141 117.023C123.461 117.023 124.32 118.07 124.32 119.891C124.32 121.719 123.469 122.766 122.141 122.766ZM138.156 115.781H136.484L134.984 122.25H134.945L133.227 115.781H131.602L129.891 122.25H129.859L128.359 115.781H126.672L128.93 124H130.672L132.383 117.844H132.422L134.148 124H135.906L138.156 115.781ZM139.188 124H140.875V119.211C140.875 117.938 141.641 117.094 142.828 117.094C144 117.094 144.578 117.773 144.578 119.008V124H146.273V118.68C146.273 116.797 145.234 115.641 143.422 115.641C142.156 115.641 141.281 116.219 140.836 117.156H140.797V115.781H139.188V124ZM147.969 124H149.656V112.727H147.969V124ZM154.922 124.156C157.273 124.156 158.82 122.539 158.82 119.891C158.82 117.25 157.266 115.633 154.922 115.633C152.578 115.633 151.023 117.25 151.023 119.891C151.023 122.539 152.57 124.156 154.922 124.156ZM154.922 122.766C153.602 122.766 152.742 121.719 152.742 119.891C152.742 118.07 153.602 117.023 154.922 117.023C156.242 117.023 157.102 118.07 157.102 119.891C157.102 121.719 156.25 122.766 154.922 122.766ZM163 122.805C162.094 122.805 161.5 122.336 161.5 121.617C161.5 120.914 162.07 120.469 163.078 120.398L165.102 120.273V120.922C165.102 121.992 164.18 122.805 163 122.805ZM162.531 124.141C163.609 124.141 164.648 123.562 165.125 122.648H165.164V124H166.781V118.336C166.781 116.688 165.508 115.633 163.516 115.633C161.484 115.633 160.219 116.727 160.125 118.211H161.719C161.867 117.477 162.477 117.008 163.453 117.008C164.484 117.008 165.102 117.555 165.102 118.469V119.102L162.852 119.234C160.898 119.344 159.797 120.227 159.797 121.664C159.797 123.141 160.922 124.141 162.531 124.141ZM171.508 124.141C172.703 124.141 173.641 123.539 174.125 122.602H174.156V124H175.797V112.727H174.102V117.148H174.07C173.609 116.242 172.672 115.648 171.492 115.648C169.43 115.648 168.055 117.297 168.055 119.891C168.055 122.484 169.43 124.141 171.508 124.141ZM171.953 117.07C173.25 117.07 174.117 118.188 174.117 119.891C174.117 121.609 173.25 122.711 171.953 122.711C170.617 122.711 169.781 121.625 169.781 119.891C169.781 118.164 170.617 117.07 171.953 117.07ZM181.594 127.062C183.305 127.062 184.109 126.422 184.812 124.43L187.898 115.781H186.117L184.031 122.469H184.008L181.922 115.781H180.094L183.062 124.008C183.062 124.016 182.914 124.5 182.914 124.516C182.656 125.359 182.242 125.688 181.453 125.688C181.312 125.688 181.031 125.688 180.906 125.656V127.023C181.031 127.047 181.461 127.062 181.594 127.062ZM192.188 124.156C194.539 124.156 196.086 122.539 196.086 119.891C196.086 117.25 194.531 115.633 192.188 115.633C189.844 115.633 188.289 117.25 188.289 119.891C188.289 122.539 189.836 124.156 192.188 124.156ZM192.188 122.766C190.867 122.766 190.008 121.719 190.008 119.891C190.008 118.07 190.867 117.023 192.188 117.023C193.508 117.023 194.367 118.07 194.367 119.891C194.367 121.719 193.516 122.766 192.188 122.766ZM204.438 115.781H202.75V120.57C202.75 121.852 202.016 122.695 200.797 122.695C199.633 122.695 199.039 122.023 199.039 120.773V115.781H197.352V121.102C197.352 122.984 198.445 124.148 200.234 124.148C201.492 124.148 202.328 123.594 202.781 122.609H202.82V124H204.438V115.781ZM206.109 124H207.797V119.078C207.797 117.914 208.469 117.188 209.555 117.188C209.883 117.188 210.18 117.227 210.312 117.281V115.711C210.188 115.688 209.977 115.648 209.734 115.648C208.766 115.648 208.031 116.219 207.758 117.18H207.719V115.781H206.109V124ZM58.6875 137.781H56.9219L54.8594 144.352H54.8281L52.7656 137.781H50.9688L53.9297 146H55.7422L58.6875 137.781ZM59.7109 146H61.3984V137.781H59.7109V146ZM60.5547 136.578C61.1016 136.578 61.5391 136.148 61.5391 135.617C61.5391 135.078 61.1016 134.648 60.5547 134.648C60.0156 134.648 59.5781 135.078 59.5781 135.617C59.5781 136.148 60.0156 136.578 60.5547 136.578ZM66.2109 146.141C67.4062 146.141 68.3438 145.539 68.8281 144.602H68.8594V146H70.5V134.727H68.8047V139.148H68.7734C68.3125 138.242 67.375 137.648 66.1953 137.648C64.1328 137.648 62.7578 139.297 62.7578 141.891C62.7578 144.484 64.1328 146.141 66.2109 146.141ZM66.6562 139.07C67.9531 139.07 68.8203 140.188 68.8203 141.891C68.8203 143.609 67.9531 144.711 66.6562 144.711C65.3203 144.711 64.4844 143.625 64.4844 141.891C64.4844 140.164 65.3203 139.07 66.6562 139.07ZM75.6719 138.992C76.8516 138.992 77.6484 139.875 77.6875 141.133H73.5781C73.6641 139.891 74.4922 138.992 75.6719 138.992ZM77.6797 143.586C77.4531 144.305 76.7422 144.789 75.7812 144.789C74.4297 144.789 73.5703 143.844 73.5703 142.414V142.312H79.375V141.734C79.375 139.242 77.9531 137.633 75.6719 137.633C73.3516 137.633 71.8672 139.352 71.8672 141.93C71.8672 144.523 73.3281 146.156 75.7422 146.156C77.625 146.156 79.0469 145.086 79.2812 143.586H77.6797ZM84.2188 146.156C86.5703 146.156 88.1172 144.539 88.1172 141.891C88.1172 139.25 86.5625 137.633 84.2188 137.633C81.875 137.633 80.3203 139.25 80.3203 141.891C80.3203 144.539 81.8672 146.156 84.2188 146.156ZM84.2188 144.766C82.8984 144.766 82.0391 143.719 82.0391 141.891C82.0391 140.07 82.8984 139.023 84.2188 139.023C85.5391 139.023 86.3984 140.07 86.3984 141.891C86.3984 143.719 85.5469 144.766 84.2188 144.766ZM89.2734 140.109C89.2734 141.258 90.0234 142.031 91.5078 142.391L92.9766 142.75C93.8359 142.969 94.1484 143.258 94.1484 143.781C94.1484 144.445 93.5234 144.867 92.5078 144.867C91.4766 144.867 90.8672 144.43 90.7344 143.641H89.0625C89.1953 145.148 90.4844 146.156 92.4297 146.156C94.4453 146.156 95.8438 145.125 95.8438 143.625C95.8438 142.414 95.2188 141.789 93.5625 141.391L92.1797 141.07C91.3281 140.859 90.9219 140.516 90.9219 140.008C90.9219 139.359 91.5312 138.914 92.4453 138.914C93.3906 138.914 93.9922 139.375 94.0703 140.117H95.6562C95.6016 138.656 94.3203 137.633 92.4922 137.633C90.5703 137.633 89.2734 138.641 89.2734 140.109ZM104.781 146.141C106.867 146.141 108.211 144.5 108.211 141.891C108.211 139.289 106.859 137.648 104.789 137.648C103.625 137.648 102.688 138.227 102.195 139.18H102.156V134.727H100.469V146H102.109V144.602H102.141C102.648 145.555 103.578 146.141 104.781 146.141ZM104.328 139.07C105.656 139.07 106.477 140.164 106.477 141.891C106.477 143.633 105.656 144.711 104.328 144.711C103.047 144.711 102.148 143.602 102.148 141.891C102.148 140.195 103.047 139.07 104.328 139.07ZM110.125 149.062C111.836 149.062 112.641 148.422 113.344 146.43L116.43 137.781H114.648L112.562 144.469H112.539L110.453 137.781H108.625L111.594 146.008C111.594 146.016 111.445 146.5 111.445 146.516C111.188 147.359 110.773 147.688 109.984 147.688C109.844 147.688 109.562 147.688 109.438 147.656V149.023C109.562 149.047 109.992 149.062 110.125 149.062ZM127.727 140.609C127.578 138.992 126.289 137.633 124.172 137.633C121.836 137.633 120.305 139.281 120.305 141.891C120.305 144.547 121.836 146.156 124.188 146.156C126.164 146.156 127.562 144.969 127.742 143.219H126.117C125.922 144.172 125.242 144.742 124.203 144.742C122.891 144.742 122.023 143.695 122.023 141.891C122.023 140.125 122.883 139.039 124.188 139.039C125.289 139.039 125.945 139.734 126.117 140.609H127.727ZM129 146H130.688V141.25C130.688 139.953 131.453 139.094 132.703 139.094C133.891 139.094 134.5 139.82 134.5 141.031V146H136.195V140.703C136.195 138.844 135.117 137.641 133.312 137.641C132.062 137.641 131.164 138.195 130.711 139.156H130.672V134.727H129V146ZM141.359 146.156C143.711 146.156 145.258 144.539 145.258 141.891C145.258 139.25 143.703 137.633 141.359 137.633C139.016 137.633 137.461 139.25 137.461 141.891C137.461 144.539 139.008 146.156 141.359 146.156ZM141.359 144.766C140.039 144.766 139.18 143.719 139.18 141.891C139.18 140.07 140.039 139.023 141.359 139.023C142.68 139.023 143.539 140.07 143.539 141.891C143.539 143.719 142.688 144.766 141.359 144.766ZM150.094 146.156C152.445 146.156 153.992 144.539 153.992 141.891C153.992 139.25 152.438 137.633 150.094 137.633C147.75 137.633 146.195 139.25 146.195 141.891C146.195 144.539 147.742 146.156 150.094 146.156ZM150.094 144.766C148.773 144.766 147.914 143.719 147.914 141.891C147.914 140.07 148.773 139.023 150.094 139.023C151.414 139.023 152.273 140.07 152.273 141.891C152.273 143.719 151.422 144.766 150.094 144.766ZM155.148 140.109C155.148 141.258 155.898 142.031 157.383 142.391L158.852 142.75C159.711 142.969 160.023 143.258 160.023 143.781C160.023 144.445 159.398 144.867 158.383 144.867C157.352 144.867 156.742 144.43 156.609 143.641H154.938C155.07 145.148 156.359 146.156 158.305 146.156C160.32 146.156 161.719 145.125 161.719 143.625C161.719 142.414 161.094 141.789 159.438 141.391L158.055 141.07C157.203 140.859 156.797 140.516 156.797 140.008C156.797 139.359 157.406 138.914 158.32 138.914C159.266 138.914 159.867 139.375 159.945 140.117H161.531C161.477 138.656 160.195 137.633 158.367 137.633C156.445 137.633 155.148 138.641 155.148 140.109ZM163.086 146H164.773V137.781H163.086V146ZM163.93 136.578C164.477 136.578 164.914 136.148 164.914 135.617C164.914 135.078 164.477 134.648 163.93 134.648C163.391 134.648 162.953 135.078 162.953 135.617C162.953 136.148 163.391 136.578 163.93 136.578ZM166.5 146H168.188V141.211C168.188 139.938 168.953 139.094 170.141 139.094C171.312 139.094 171.891 139.773 171.891 141.008V146H173.586V140.68C173.586 138.797 172.547 137.641 170.734 137.641C169.469 137.641 168.594 138.219 168.148 139.156H168.109V137.781H166.5V146ZM178.719 144.633C177.422 144.633 176.578 143.586 176.578 141.867C176.578 140.156 177.422 139.07 178.719 139.07C180.039 139.07 180.906 140.18 180.906 141.867C180.906 143.562 180.039 144.633 178.719 144.633ZM178.734 149.094C181.078 149.094 182.594 147.812 182.594 145.852V137.781H180.953V139.188H180.922C180.422 138.234 179.469 137.648 178.305 137.648C176.195 137.648 174.852 139.273 174.852 141.859C174.852 144.422 176.203 146.031 178.266 146.031C179.438 146.031 180.406 145.445 180.867 144.555H180.898V145.906C180.898 147.031 180.117 147.781 178.797 147.781C177.836 147.781 177.086 147.328 176.844 146.641H175.148C175.359 148.062 176.797 149.094 178.734 149.094ZM188.008 135.836V137.781H186.812V139.117H188.008V143.836C188.008 145.422 188.656 146.055 190.32 146.055C190.695 146.055 191.07 146.023 191.258 145.977V144.641C191.148 144.664 190.875 144.68 190.703 144.68C190.016 144.68 189.703 144.359 189.703 143.648V139.117H191.266V137.781H189.703V135.836H188.008ZM192.719 146H194.406V141.25C194.406 139.953 195.172 139.094 196.422 139.094C197.609 139.094 198.219 139.82 198.219 141.031V146H199.914V140.703C199.914 138.844 198.836 137.641 197.031 137.641C195.781 137.641 194.883 138.195 194.43 139.156H194.391V134.727H192.719V146ZM204.984 138.992C206.164 138.992 206.961 139.875 207 141.133H202.891C202.977 139.891 203.805 138.992 204.984 138.992ZM206.992 143.586C206.766 144.305 206.055 144.789 205.094 144.789C203.742 144.789 202.883 143.844 202.883 142.414V142.312H208.688V141.734C208.688 139.242 207.266 137.633 204.984 137.633C202.664 137.633 201.18 139.352 201.18 141.93C201.18 144.523 202.641 146.156 205.055 146.156C206.938 146.156 208.359 145.086 208.594 143.586H206.992ZM94.7734 157.836V159.781H93.5781V161.117H94.7734V165.836C94.7734 167.422 95.4219 168.055 97.0859 168.055C97.4609 168.055 97.8359 168.023 98.0234 167.977V166.641C97.9141 166.664 97.6406 166.68 97.4688 166.68C96.7812 166.68 96.4688 166.359 96.4688 165.648V161.117H98.0312V159.781H96.4688V157.836H94.7734ZM99.4766 168H101.164V159.781H99.4766V168ZM100.32 158.578C100.867 158.578 101.305 158.148 101.305 157.617C101.305 157.078 100.867 156.648 100.32 156.648C99.7812 156.648 99.3438 157.078 99.3438 157.617C99.3438 158.148 99.7812 158.578 100.32 158.578ZM102.891 168H104.578V162.922C104.578 161.867 105.289 161.086 106.289 161.086C107.242 161.086 107.844 161.688 107.844 162.633V168H109.5V162.867C109.5 161.828 110.195 161.086 111.195 161.086C112.195 161.086 112.766 161.695 112.766 162.758V168H114.461V162.352C114.461 160.719 113.398 159.641 111.773 159.641C110.602 159.641 109.633 160.25 109.211 161.25H109.172C108.844 160.227 108.016 159.641 106.875 159.641C105.766 159.641 104.906 160.25 104.539 161.164H104.5V159.781H102.891V168ZM119.531 160.992C120.711 160.992 121.508 161.875 121.547 163.133H117.438C117.523 161.891 118.352 160.992 119.531 160.992ZM121.539 165.586C121.312 166.305 120.602 166.789 119.641 166.789C118.289 166.789 117.43 165.844 117.43 164.414V164.312H123.234V163.734C123.234 161.242 121.812 159.633 119.531 159.633C117.211 159.633 115.727 161.352 115.727 163.93C115.727 166.523 117.188 168.156 119.602 168.156C121.484 168.156 122.906 167.086 123.141 165.586H121.539ZM127.797 168H129.484V163.078C129.484 161.914 130.156 161.188 131.242 161.188C131.57 161.188 131.867 161.227 132 161.281V159.711C131.875 159.688 131.664 159.648 131.422 159.648C130.453 159.648 129.719 160.219 129.445 161.18H129.406V159.781H127.797V168ZM135.75 166.805C134.844 166.805 134.25 166.336 134.25 165.617C134.25 164.914 134.82 164.469 135.828 164.398L137.852 164.273V164.922C137.852 165.992 136.93 166.805 135.75 166.805ZM135.281 168.141C136.359 168.141 137.398 167.562 137.875 166.648H137.914V168H139.531V162.336C139.531 160.688 138.258 159.633 136.266 159.633C134.234 159.633 132.969 160.727 132.875 162.211H134.469C134.617 161.477 135.227 161.008 136.203 161.008C137.234 161.008 137.852 161.555 137.852 162.469V163.102L135.602 163.234C133.648 163.344 132.547 164.227 132.547 165.664C132.547 167.141 133.672 168.141 135.281 168.141ZM141.172 168H142.859V163.211C142.859 161.938 143.625 161.094 144.812 161.094C145.984 161.094 146.562 161.773 146.562 163.008V168H148.258V162.68C148.258 160.797 147.219 159.641 145.406 159.641C144.141 159.641 143.266 160.219 142.82 161.156H142.781V159.781H141.172V168ZM153.391 166.633C152.094 166.633 151.25 165.586 151.25 163.867C151.25 162.156 152.094 161.07 153.391 161.07C154.711 161.07 155.578 162.18 155.578 163.867C155.578 165.562 154.711 166.633 153.391 166.633ZM153.406 171.094C155.75 171.094 157.266 169.812 157.266 167.852V159.781H155.625V161.188H155.594C155.094 160.234 154.141 159.648 152.977 159.648C150.867 159.648 149.523 161.273 149.523 163.859C149.523 166.422 150.875 168.031 152.938 168.031C154.109 168.031 155.078 167.445 155.539 166.555H155.57V167.906C155.57 169.031 154.789 169.781 153.469 169.781C152.508 169.781 151.758 169.328 151.516 168.641H149.82C150.031 170.062 151.469 171.094 153.406 171.094ZM162.375 160.992C163.555 160.992 164.352 161.875 164.391 163.133H160.281C160.367 161.891 161.195 160.992 162.375 160.992ZM164.383 165.586C164.156 166.305 163.445 166.789 162.484 166.789C161.133 166.789 160.273 165.844 160.273 164.414V164.312H166.078V163.734C166.078 161.242 164.656 159.633 162.375 159.633C160.055 159.633 158.57 161.352 158.57 163.93C158.57 166.523 160.031 168.156 162.445 168.156C164.328 168.156 165.75 167.086 165.984 165.586H164.383Z" fill="#B4B5B9"/>
<path d="M74.2853 84.2891C74.4494 87.3477 76.9806 89.2812 80.7306 89.2812C84.7384 89.2812 87.258 87.3008 87.258 84.1367C87.258 81.6641 85.8166 80.2695 82.3478 79.4492L80.4845 78.9922C78.3048 78.4531 77.4142 77.75 77.4142 76.5547C77.4142 75.0547 78.8088 74.0234 80.8478 74.0234C82.8869 74.0234 84.2814 75.043 84.4338 76.7305H86.9884C86.9064 73.8125 84.4572 71.8086 80.883 71.8086C77.2736 71.8086 74.7306 73.8125 74.7306 76.7305C74.7306 79.0859 76.172 80.5391 79.2775 81.2891L81.4689 81.8164C83.6603 82.3555 84.5861 83.1406 84.5861 84.4531C84.5861 85.9648 83.0509 87.0664 80.9181 87.0664C78.6916 87.0664 77.0627 85.9648 76.8752 84.2891H74.2853ZM89.8825 89H92.4137V72.0898H89.8825V89ZM95.5773 89H98.1086V76.6719H95.5773V89ZM96.843 74.8672C97.6633 74.8672 98.3195 74.2227 98.3195 73.4258C98.3195 72.6172 97.6633 71.9727 96.843 71.9727C96.0344 71.9727 95.3781 72.6172 95.3781 73.4258C95.3781 74.2227 96.0344 74.8672 96.843 74.8672ZM111.76 80.9141C111.538 78.4883 109.604 76.4492 106.428 76.4492C102.925 76.4492 100.628 78.9219 100.628 82.8359C100.628 86.8203 102.925 89.2344 106.452 89.2344C109.417 89.2344 111.514 87.4531 111.784 84.8281H109.346C109.053 86.2578 108.034 87.1133 106.475 87.1133C104.507 87.1133 103.206 85.543 103.206 82.8359C103.206 80.1875 104.495 78.5586 106.452 78.5586C108.104 78.5586 109.089 79.6016 109.346 80.9141H111.76ZM119.213 78.4883C120.983 78.4883 122.178 79.8125 122.237 81.6992H116.072C116.201 79.8359 117.444 78.4883 119.213 78.4883ZM122.225 85.3789C121.885 86.457 120.819 87.1836 119.377 87.1836C117.35 87.1836 116.061 85.7656 116.061 83.6211V83.4688H124.768V82.6016C124.768 78.8633 122.635 76.4492 119.213 76.4492C115.733 76.4492 113.506 79.0273 113.506 82.8945C113.506 86.7852 115.697 89.2344 119.319 89.2344C122.143 89.2344 124.276 87.6289 124.627 85.3789H122.225ZM144.783 89H147.865L144.829 85.8008C145.755 84.418 146.236 82.5664 146.236 80.1758V79.4609H143.962V80.1055C143.962 81.957 143.728 83.2109 143.236 84.125L139.392 79.9883C141.888 78.6641 142.943 77.3633 142.943 75.6406C142.943 73.4141 141.103 71.832 138.513 71.832C135.958 71.832 134.06 73.4609 134.06 75.6406C134.06 76.8828 134.634 77.9492 136.158 79.5547C136.075 79.5781 135.747 79.7656 135.466 79.9062C133.263 81.0898 132.22 82.5664 132.22 84.5234C132.22 87.3594 134.54 89.293 137.974 89.293C139.99 89.293 141.947 88.6016 143.318 87.4062L144.783 89ZM136.908 81.2773C137.013 81.2188 137.294 81.0664 137.435 80.9961L141.876 85.8477C141.068 86.7148 139.626 87.2656 138.22 87.2656C136.122 87.2656 134.704 86.0938 134.704 84.3359C134.704 83.1289 135.337 82.25 136.908 81.2773ZM138.103 78.6641C136.849 77.4219 136.392 76.6602 136.392 75.7812C136.392 74.5742 137.283 73.707 138.525 73.707C139.802 73.707 140.658 74.5508 140.658 75.7695C140.658 76.9062 139.954 77.7148 138.103 78.6641ZM156.782 89.2812C160.673 89.2812 163.321 87.2305 163.966 83.7383H161.352C160.825 85.7773 159.149 86.9844 156.794 86.9844C153.688 86.9844 151.72 84.4883 151.72 80.5391C151.72 76.625 153.712 74.1055 156.782 74.1055C159.079 74.1055 160.884 75.5234 161.352 77.6914H163.954C163.509 74.1641 160.614 71.8086 156.782 71.8086C152.059 71.8086 149.036 75.1836 149.036 80.5391C149.036 85.9297 152.036 89.2812 156.782 89.2812ZM177.078 76.6719H174.547V83.8555C174.547 85.7773 173.446 87.043 171.617 87.043C169.871 87.043 168.981 86.0352 168.981 84.1602V76.6719H166.45V84.6523C166.45 87.4766 168.09 89.2227 170.774 89.2227C172.66 89.2227 173.914 88.3906 174.594 86.9141H174.653V89H177.078V76.6719ZM180.805 73.7539V76.6719H179.012V78.6758H180.805V85.7539C180.805 88.1328 181.777 89.082 184.273 89.082C184.836 89.082 185.398 89.0352 185.68 88.9648V86.9609C185.515 86.9961 185.105 87.0195 184.848 87.0195C183.816 87.0195 183.348 86.5391 183.348 85.4727V78.6758H185.691V76.6719H183.348V73.7539H180.805Z" fill="url(#paint1_linear_9_69)"/>
</g>
<defs>
<filter id="filter0_d_9_69" x="0.53012" y="0" width="259.94" height="219.94" filterUnits="userSpaceOnUse" color-interpolation-filters="sRGB">
<feFlood flood-opacity="0" result="BackgroundImageFix"/>
<feColorMatrix in="SourceAlpha" type="matrix" values="0 0 0 0 0 0 0 0 0 0 0 0 0 0 0 0 0 0 127 0" result="hardAlpha"/>
<feOffset dy="7.46988"/>
<feGaussianBlur stdDeviation="3.73494"/>
<feComposite in2="hardAlpha" operator="out"/>
<feColorMatrix type="matrix" values="0 0 0 0 0 0 0 0 0 0 0 0 0 0 0 0 0 0 0.25 0"/>
<feBlend mode="normal" in2="BackgroundImageFix" result="effect1_dropShadow_9_69"/>
<feBlend mode="normal" in="SourceGraphic" in2="effect1_dropShadow_9_69" result="shape"/>
</filter>
<linearGradient id="paint0_linear_9_69" x1="51.5" y1="28.5" x2="237.5" y2="204" gradientUnits="userSpaceOnUse">
<stop stop-color="#101115"/>
<stop offset="1" stop-color="#161622"/>
</linearGradient>
<linearGradient id="paint1_linear_9_69" x1="76.9446" y1="90.2303" x2="156.225" y2="87.376" gradientUnits="userSpaceOnUse">
<stop stop-color="#F9F6F6"/>
<stop offset="1" stop-color="#9E9FA5"/>
</linearGradient>
</defs>
</svg>
