<svg width="684" height="441" viewBox="0 0 684 441" fill="none" xmlns="http://www.w3.org/2000/svg">
<rect x="0.25" y="0.25" width="683.5" height="440.5" fill="#0D0D15" fill-opacity="0.6" stroke="#D9D9D9" stroke-width="0.5"/>
<rect x="270" y="77" width="30" height="35" rx="6.60377" fill="url(#paint0_linear_9_160)"/>
<g clip-path="url(#clip0_9_160)">
<rect x="272" y="80" width="87.8302" height="29.717" rx="6.60377" fill="#10121E"/>
<path d="M289.381 92.8521C290.191 93.3592 290.148 94.5523 289.304 94.9997L283.924 97.852C283.08 98.2994 282.069 97.6656 282.103 96.7111L282.323 90.6261C282.357 89.6716 283.412 89.1124 284.221 89.6194L289.381 92.8521Z" fill="#6B6B76"/>
</g>
<path d="M313.324 87.2129V90.6172H311.232V92.9551H313.324V101.213C313.324 103.988 314.459 105.096 317.371 105.096C318.027 105.096 318.684 105.041 319.012 104.959V102.621C318.82 102.662 318.342 102.689 318.041 102.689C316.838 102.689 316.291 102.129 316.291 100.885V92.9551H319.025V90.6172H316.291V87.2129H313.324ZM333.791 90.6172H330.838V98.998C330.838 101.24 329.553 102.717 327.42 102.717C325.383 102.717 324.344 101.541 324.344 99.3535V90.6172H321.391V99.9277C321.391 103.223 323.305 105.26 326.436 105.26C328.637 105.26 330.1 104.289 330.893 102.566H330.961V105H333.791V90.6172ZM344.373 105.246C348.023 105.246 350.375 102.375 350.375 97.8086C350.375 93.2559 348.01 90.3848 344.387 90.3848C342.35 90.3848 340.709 91.3965 339.848 93.0645H339.779V85.2715H336.826V105H339.697V102.553H339.752C340.641 104.221 342.268 105.246 344.373 105.246ZM343.58 92.873C345.904 92.873 347.34 94.7871 347.34 97.8086C347.34 100.857 345.904 102.744 343.58 102.744C341.338 102.744 339.766 100.803 339.766 97.8086C339.766 94.8418 341.338 92.873 343.58 92.873ZM358.701 92.7363C360.766 92.7363 362.16 94.2812 362.229 96.4824H355.037C355.188 94.3086 356.637 92.7363 358.701 92.7363ZM362.215 100.775C361.818 102.033 360.574 102.881 358.893 102.881C356.527 102.881 355.023 101.227 355.023 98.7246V98.5469H365.182V97.5352C365.182 93.1738 362.693 90.3574 358.701 90.3574C354.641 90.3574 352.043 93.3652 352.043 97.877C352.043 102.416 354.6 105.273 358.824 105.273C362.119 105.273 364.607 103.4 365.018 100.775H362.215ZM379.824 95.5664C379.564 92.7363 377.309 90.3574 373.604 90.3574C369.516 90.3574 366.836 93.2422 366.836 97.8086C366.836 102.457 369.516 105.273 373.631 105.273C377.09 105.273 379.537 103.195 379.852 100.133H377.008C376.666 101.801 375.477 102.799 373.658 102.799C371.361 102.799 369.844 100.967 369.844 97.8086C369.844 94.7188 371.348 92.8184 373.631 92.8184C375.559 92.8184 376.707 94.0352 377.008 95.5664H379.824ZM394.275 90.6172H391.322V98.998C391.322 101.24 390.037 102.717 387.904 102.717C385.867 102.717 384.828 101.541 384.828 99.3535V90.6172H381.875V99.9277C381.875 103.223 383.789 105.26 386.92 105.26C389.121 105.26 390.584 104.289 391.377 102.566H391.445V105H394.275V90.6172ZM398.062 87.2129V90.6172H395.971V92.9551H398.062V101.213C398.062 103.988 399.197 105.096 402.109 105.096C402.766 105.096 403.422 105.041 403.75 104.959V102.621C403.559 102.662 403.08 102.689 402.779 102.689C401.576 102.689 401.029 102.129 401.029 100.885V92.9551H403.764V90.6172H401.029V87.2129H398.062ZM408.412 105.15C409.41 105.15 410.203 104.357 410.203 103.359C410.203 102.361 409.41 101.568 408.412 101.568C407.414 101.568 406.621 102.361 406.621 103.359C406.621 104.357 407.414 105.15 408.412 105.15Z" fill="url(#paint1_linear_9_160)"/>
<line x1="-0.000366211" y1="48.25" x2="684" y2="48.25" stroke="#D9D9D9" stroke-width="0.5"/>
<path d="M187.328 19.8359V21.7812H186.133V23.1172H187.328V27.8359C187.328 29.4219 187.977 30.0547 189.641 30.0547C190.016 30.0547 190.391 30.0234 190.578 29.9766V28.6406C190.469 28.6641 190.195 28.6797 190.023 28.6797C189.336 28.6797 189.023 28.3594 189.023 27.6484V23.1172H190.586V21.7812H189.023V19.8359H187.328ZM199.023 21.7812H197.336V26.5703C197.336 27.8516 196.602 28.6953 195.383 28.6953C194.219 28.6953 193.625 28.0234 193.625 26.7734V21.7812H191.938V27.1016C191.938 28.9844 193.031 30.1484 194.82 30.1484C196.078 30.1484 196.914 29.5938 197.367 28.6094H197.406V30H199.023V21.7812ZM205.07 30.1406C207.156 30.1406 208.5 28.5 208.5 25.8906C208.5 23.2891 207.148 21.6484 205.078 21.6484C203.914 21.6484 202.977 22.2266 202.484 23.1797H202.445V18.7266H200.758V30H202.398V28.6016H202.43C202.938 29.5547 203.867 30.1406 205.07 30.1406ZM204.617 23.0703C205.945 23.0703 206.766 24.1641 206.766 25.8906C206.766 27.6328 205.945 28.7109 204.617 28.7109C203.336 28.7109 202.438 27.6016 202.438 25.8906C202.438 24.1953 203.336 23.0703 204.617 23.0703ZM213.258 22.9922C214.438 22.9922 215.234 23.875 215.273 25.1328H211.164C211.25 23.8906 212.078 22.9922 213.258 22.9922ZM215.266 27.5859C215.039 28.3047 214.328 28.7891 213.367 28.7891C212.016 28.7891 211.156 27.8438 211.156 26.4141V26.3125H216.961V25.7344C216.961 23.2422 215.539 21.6328 213.258 21.6328C210.938 21.6328 209.453 23.3516 209.453 25.9297C209.453 28.5234 210.914 30.1562 213.328 30.1562C215.211 30.1562 216.633 29.0859 216.867 27.5859H215.266ZM225.328 24.6094C225.18 22.9922 223.891 21.6328 221.773 21.6328C219.438 21.6328 217.906 23.2812 217.906 25.8906C217.906 28.5469 219.438 30.1562 221.789 30.1562C223.766 30.1562 225.164 28.9688 225.344 27.2188H223.719C223.523 28.1719 222.844 28.7422 221.805 28.7422C220.492 28.7422 219.625 27.6953 219.625 25.8906C219.625 24.125 220.484 23.0391 221.789 23.0391C222.891 23.0391 223.547 23.7344 223.719 24.6094H225.328ZM233.586 21.7812H231.898V26.5703C231.898 27.8516 231.164 28.6953 229.945 28.6953C228.781 28.6953 228.188 28.0234 228.188 26.7734V21.7812H226.5V27.1016C226.5 28.9844 227.594 30.1484 229.383 30.1484C230.641 30.1484 231.477 29.5938 231.93 28.6094H231.969V30H233.586V21.7812ZM235.75 19.8359V21.7812H234.555V23.1172H235.75V27.8359C235.75 29.4219 236.398 30.0547 238.062 30.0547C238.438 30.0547 238.812 30.0234 239 29.9766V28.6406C238.891 28.6641 238.617 28.6797 238.445 28.6797C237.758 28.6797 237.445 28.3594 237.445 27.6484V23.1172H239.008V21.7812H237.445V19.8359H235.75ZM248.844 26.1875V24.6641H243.719V26.1875H248.844ZM258.586 30V20.2344H262.031V18.7266H253.383V20.2344H256.836V30H258.586ZM261.727 30H263.414V25.0781C263.414 23.9141 264.086 23.1875 265.172 23.1875C265.5 23.1875 265.797 23.2266 265.93 23.2812V21.7109C265.805 21.6875 265.594 21.6484 265.352 21.6484C264.383 21.6484 263.648 22.2188 263.375 23.1797H263.336V21.7812H261.727V30ZM267.031 30H268.719V21.7812H267.031V30ZM267.875 20.5781C268.422 20.5781 268.859 20.1484 268.859 19.6172C268.859 19.0781 268.422 18.6484 267.875 18.6484C267.336 18.6484 266.898 19.0781 266.898 19.6172C266.898 20.1484 267.336 20.5781 267.875 20.5781ZM270.445 30H272.133V24.9219C272.133 23.8672 272.844 23.0859 273.844 23.0859C274.797 23.0859 275.398 23.6875 275.398 24.6328V30H277.055V24.8672C277.055 23.8281 277.75 23.0859 278.75 23.0859C279.75 23.0859 280.32 23.6953 280.32 24.7578V30H282.016V24.3516C282.016 22.7188 280.953 21.6406 279.328 21.6406C278.156 21.6406 277.188 22.25 276.766 23.25H276.727C276.398 22.2266 275.57 21.6406 274.43 21.6406C273.32 21.6406 272.461 22.25 272.094 23.1641H272.055V21.7812H270.445V30ZM289.773 28.8047C288.867 28.8047 288.273 28.3359 288.273 27.6172C288.273 26.9141 288.844 26.4688 289.852 26.3984L291.875 26.2734V26.9219C291.875 27.9922 290.953 28.8047 289.773 28.8047ZM289.305 30.1406C290.383 30.1406 291.422 29.5625 291.898 28.6484H291.938V30H293.555V24.3359C293.555 22.6875 292.281 21.6328 290.289 21.6328C288.258 21.6328 286.992 22.7266 286.898 24.2109H288.492C288.641 23.4766 289.25 23.0078 290.227 23.0078C291.258 23.0078 291.875 23.5547 291.875 24.4688V25.1016L289.625 25.2344C287.672 25.3438 286.57 26.2266 286.57 27.6641C286.57 29.1406 287.695 30.1406 289.305 30.1406ZM295.195 30H296.883V25.2109C296.883 23.9375 297.648 23.0938 298.836 23.0938C300.008 23.0938 300.586 23.7734 300.586 25.0078V30H302.281V24.6797C302.281 22.7969 301.242 21.6406 299.43 21.6406C298.164 21.6406 297.289 22.2188 296.844 23.1562H296.805V21.7812H295.195V30ZM307 30.1406C308.195 30.1406 309.133 29.5391 309.617 28.6016H309.648V30H311.289V18.7266H309.594V23.1484H309.562C309.102 22.2422 308.164 21.6484 306.984 21.6484C304.922 21.6484 303.547 23.2969 303.547 25.8906C303.547 28.4844 304.922 30.1406 307 30.1406ZM307.445 23.0703C308.742 23.0703 309.609 24.1875 309.609 25.8906C309.609 27.6094 308.742 28.7109 307.445 28.7109C306.109 28.7109 305.273 27.625 305.273 25.8906C305.273 24.1641 306.109 23.0703 307.445 23.0703ZM316.477 18.7266V30H320.453C323.812 30 325.789 27.9062 325.789 24.3438C325.789 20.7891 323.805 18.7266 320.453 18.7266H316.477ZM318.227 20.2344H320.289C322.672 20.2344 324 21.7031 324 24.3594C324 27.0234 322.68 28.4844 320.289 28.4844H318.227V20.2344ZM330.789 30.1562C333.141 30.1562 334.688 28.5391 334.688 25.8906C334.688 23.25 333.133 21.6328 330.789 21.6328C328.445 21.6328 326.891 23.25 326.891 25.8906C326.891 28.5391 328.438 30.1562 330.789 30.1562ZM330.789 28.7656C329.469 28.7656 328.609 27.7188 328.609 25.8906C328.609 24.0703 329.469 23.0234 330.789 23.0234C332.109 23.0234 332.969 24.0703 332.969 25.8906C332.969 27.7188 332.117 28.7656 330.789 28.7656ZM346.805 21.7812H345.133L343.633 28.25H343.594L341.875 21.7812H340.25L338.539 28.25H338.508L337.008 21.7812H335.32L337.578 30H339.32L341.031 23.8438H341.07L342.797 30H344.555L346.805 21.7812ZM347.836 30H349.523V25.2109C349.523 23.9375 350.289 23.0938 351.477 23.0938C352.648 23.0938 353.227 23.7734 353.227 25.0078V30H354.922V24.6797C354.922 22.7969 353.883 21.6406 352.07 21.6406C350.805 21.6406 349.93 22.2188 349.484 23.1562H349.445V21.7812H347.836V30ZM356.617 30H358.305V18.7266H356.617V30ZM363.57 30.1562C365.922 30.1562 367.469 28.5391 367.469 25.8906C367.469 23.25 365.914 21.6328 363.57 21.6328C361.227 21.6328 359.672 23.25 359.672 25.8906C359.672 28.5391 361.219 30.1562 363.57 30.1562ZM363.57 28.7656C362.25 28.7656 361.391 27.7188 361.391 25.8906C361.391 24.0703 362.25 23.0234 363.57 23.0234C364.891 23.0234 365.75 24.0703 365.75 25.8906C365.75 27.7188 364.898 28.7656 363.57 28.7656ZM371.648 28.8047C370.742 28.8047 370.148 28.3359 370.148 27.6172C370.148 26.9141 370.719 26.4688 371.727 26.3984L373.75 26.2734V26.9219C373.75 27.9922 372.828 28.8047 371.648 28.8047ZM371.18 30.1406C372.258 30.1406 373.297 29.5625 373.773 28.6484H373.812V30H375.43V24.3359C375.43 22.6875 374.156 21.6328 372.164 21.6328C370.133 21.6328 368.867 22.7266 368.773 24.2109H370.367C370.516 23.4766 371.125 23.0078 372.102 23.0078C373.133 23.0078 373.75 23.5547 373.75 24.4688V25.1016L371.5 25.2344C369.547 25.3438 368.445 26.2266 368.445 27.6641C368.445 29.1406 369.57 30.1406 371.18 30.1406ZM380.156 30.1406C381.352 30.1406 382.289 29.5391 382.773 28.6016H382.805V30H384.445V18.7266H382.75V23.1484H382.719C382.258 22.2422 381.32 21.6484 380.141 21.6484C378.078 21.6484 376.703 23.2969 376.703 25.8906C376.703 28.4844 378.078 30.1406 380.156 30.1406ZM380.602 23.0703C381.898 23.0703 382.766 24.1875 382.766 25.8906C382.766 27.6094 381.898 28.7109 380.602 28.7109C379.266 28.7109 378.43 27.625 378.43 25.8906C378.43 24.1641 379.266 23.0703 380.602 23.0703ZM394.516 30V25.3828L398.492 18.7266H396.555L393.68 23.7031H393.625L390.75 18.7266H388.797L392.766 25.3828V30H394.516ZM401.492 30.1562C403.844 30.1562 405.391 28.5391 405.391 25.8906C405.391 23.25 403.836 21.6328 401.492 21.6328C399.148 21.6328 397.594 23.25 397.594 25.8906C397.594 28.5391 399.141 30.1562 401.492 30.1562ZM401.492 28.7656C400.172 28.7656 399.312 27.7188 399.312 25.8906C399.312 24.0703 400.172 23.0234 401.492 23.0234C402.812 23.0234 403.672 24.0703 403.672 25.8906C403.672 27.7188 402.82 28.7656 401.492 28.7656ZM413.742 21.7812H412.055V26.5703C412.055 27.8516 411.32 28.6953 410.102 28.6953C408.938 28.6953 408.344 28.0234 408.344 26.7734V21.7812H406.656V27.1016C406.656 28.9844 407.75 30.1484 409.539 30.1484C410.797 30.1484 411.633 29.5938 412.086 28.6094H412.125V30H413.742V21.7812ZM415.906 19.8359V21.7812H414.711V23.1172H415.906V27.8359C415.906 29.4219 416.555 30.0547 418.219 30.0547C418.594 30.0547 418.969 30.0234 419.156 29.9766V28.6406C419.047 28.6641 418.773 28.6797 418.602 28.6797C417.914 28.6797 417.602 28.3594 417.602 27.6484V23.1172H419.164V21.7812H417.602V19.8359H415.906ZM427.602 21.7812H425.914V26.5703C425.914 27.8516 425.18 28.6953 423.961 28.6953C422.797 28.6953 422.203 28.0234 422.203 26.7734V21.7812H420.516V27.1016C420.516 28.9844 421.609 30.1484 423.398 30.1484C424.656 30.1484 425.492 29.5938 425.945 28.6094H425.984V30H427.602V21.7812ZM433.648 30.1406C435.734 30.1406 437.078 28.5 437.078 25.8906C437.078 23.2891 435.727 21.6484 433.656 21.6484C432.492 21.6484 431.555 22.2266 431.062 23.1797H431.023V18.7266H429.336V30H430.977V28.6016H431.008C431.516 29.5547 432.445 30.1406 433.648 30.1406ZM433.195 23.0703C434.523 23.0703 435.344 24.1641 435.344 25.8906C435.344 27.6328 434.523 28.7109 433.195 28.7109C431.914 28.7109 431.016 27.6016 431.016 25.8906C431.016 24.1953 431.914 23.0703 433.195 23.0703ZM441.836 22.9922C443.016 22.9922 443.812 23.875 443.852 25.1328H439.742C439.828 23.8906 440.656 22.9922 441.836 22.9922ZM443.844 27.5859C443.617 28.3047 442.906 28.7891 441.945 28.7891C440.594 28.7891 439.734 27.8438 439.734 26.4141V26.3125H445.539V25.7344C445.539 23.2422 444.117 21.6328 441.836 21.6328C439.516 21.6328 438.031 23.3516 438.031 25.9297C438.031 28.5234 439.492 30.1562 441.906 30.1562C443.789 30.1562 445.211 29.0859 445.445 27.5859H443.844ZM455.406 30L459.43 18.7266H457.562L454.484 28.0312H454.438L451.367 18.7266H449.469L453.492 30H455.406ZM460.328 30H462.016V21.7812H460.328V30ZM461.172 20.5781C461.719 20.5781 462.156 20.1484 462.156 19.6172C462.156 19.0781 461.719 18.6484 461.172 18.6484C460.633 18.6484 460.195 19.0781 460.195 19.6172C460.195 20.1484 460.633 20.5781 461.172 20.5781ZM466.828 30.1406C468.023 30.1406 468.961 29.5391 469.445 28.6016H469.477V30H471.117V18.7266H469.422V23.1484H469.391C468.93 22.2422 467.992 21.6484 466.812 21.6484C464.75 21.6484 463.375 23.2969 463.375 25.8906C463.375 28.4844 464.75 30.1406 466.828 30.1406ZM467.273 23.0703C468.57 23.0703 469.438 24.1875 469.438 25.8906C469.438 27.6094 468.57 28.7109 467.273 28.7109C465.938 28.7109 465.102 27.625 465.102 25.8906C465.102 24.1641 465.938 23.0703 467.273 23.0703ZM476.289 22.9922C477.469 22.9922 478.266 23.875 478.305 25.1328H474.195C474.281 23.8906 475.109 22.9922 476.289 22.9922ZM478.297 27.5859C478.07 28.3047 477.359 28.7891 476.398 28.7891C475.047 28.7891 474.188 27.8438 474.188 26.4141V26.3125H479.992V25.7344C479.992 23.2422 478.57 21.6328 476.289 21.6328C473.969 21.6328 472.484 23.3516 472.484 25.9297C472.484 28.5234 473.945 30.1562 476.359 30.1562C478.242 30.1562 479.664 29.0859 479.898 27.5859H478.297ZM484.836 30.1562C487.188 30.1562 488.734 28.5391 488.734 25.8906C488.734 23.25 487.18 21.6328 484.836 21.6328C482.492 21.6328 480.938 23.25 480.938 25.8906C480.938 28.5391 482.484 30.1562 484.836 30.1562ZM484.836 28.7656C483.516 28.7656 482.656 27.7188 482.656 25.8906C482.656 24.0703 483.516 23.0234 484.836 23.0234C486.156 23.0234 487.016 24.0703 487.016 25.8906C487.016 27.7188 486.164 28.7656 484.836 28.7656ZM489.891 24.1094C489.891 25.2578 490.641 26.0312 492.125 26.3906L493.594 26.75C494.453 26.9688 494.766 27.2578 494.766 27.7812C494.766 28.4453 494.141 28.8672 493.125 28.8672C492.094 28.8672 491.484 28.4297 491.352 27.6406H489.68C489.812 29.1484 491.102 30.1562 493.047 30.1562C495.062 30.1562 496.461 29.125 496.461 27.625C496.461 26.4141 495.836 25.7891 494.18 25.3906L492.797 25.0703C491.945 24.8594 491.539 24.5156 491.539 24.0078C491.539 23.3594 492.148 22.9141 493.062 22.9141C494.008 22.9141 494.609 23.375 494.688 24.1172H496.273C496.219 22.6562 494.938 21.6328 493.109 21.6328C491.188 21.6328 489.891 22.6406 489.891 24.1094Z" fill="#D9D9D9"/>
<circle cx="28" cy="25" r="6" fill="#F6615A"/>
<circle cx="47" cy="25" r="6" fill="#F6BC45"/>
<circle cx="66" cy="25" r="6" fill="#2EC641"/>
<path d="M238.819 180V165.352H243.987V163.09H231.014V165.352H236.194V180H238.819ZM247.549 178.207C246.19 178.207 245.299 177.504 245.299 176.426C245.299 175.371 246.154 174.703 247.666 174.598L250.701 174.41V175.383C250.701 176.988 249.318 178.207 247.549 178.207ZM246.846 180.211C248.463 180.211 250.022 179.344 250.736 177.973H250.795V180H253.221V171.504C253.221 169.031 251.311 167.449 248.322 167.449C245.275 167.449 243.377 169.09 243.236 171.316H245.627C245.85 170.215 246.764 169.512 248.229 169.512C249.775 169.512 250.701 170.332 250.701 171.703V172.652L247.326 172.852C244.397 173.016 242.744 174.34 242.744 176.496C242.744 178.711 244.432 180.211 246.846 180.211ZM258.81 172.957H258.787V163.09H256.255V180H258.787V175.57L259.841 174.527L264.025 180H266.966L261.658 172.98L266.767 167.672H263.791L258.81 172.957ZM273.329 169.488C275.099 169.488 276.294 170.812 276.353 172.699H270.189C270.318 170.836 271.56 169.488 273.329 169.488ZM276.341 176.379C276.001 177.457 274.935 178.184 273.493 178.184C271.466 178.184 270.177 176.766 270.177 174.621V174.469H278.884V173.602C278.884 169.863 276.751 167.449 273.329 167.449C269.849 167.449 267.622 170.027 267.622 173.895C267.622 177.785 269.814 180.234 273.435 180.234C276.259 180.234 278.392 178.629 278.743 176.379H276.341ZM294.317 180V173.074L300.281 163.09H297.375L293.063 170.555H292.981L288.668 163.09H285.738L291.692 173.074V180H294.317ZM305.261 180.234C308.789 180.234 311.109 177.809 311.109 173.836C311.109 169.875 308.777 167.449 305.261 167.449C301.746 167.449 299.414 169.875 299.414 173.836C299.414 177.809 301.734 180.234 305.261 180.234ZM305.261 178.148C303.281 178.148 301.992 176.578 301.992 173.836C301.992 171.105 303.281 169.535 305.261 169.535C307.242 169.535 308.531 171.105 308.531 173.836C308.531 176.578 307.254 178.148 305.261 178.148ZM324.116 167.672H321.585V174.855C321.585 176.777 320.484 178.043 318.655 178.043C316.909 178.043 316.019 177.035 316.019 175.16V167.672H313.488V175.652C313.488 178.477 315.128 180.223 317.812 180.223C319.698 180.223 320.952 179.391 321.632 177.914H321.691V180H324.116V167.672ZM327.842 164.754V167.672H326.05V169.676H327.842V176.754C327.842 179.133 328.815 180.082 331.311 180.082C331.874 180.082 332.436 180.035 332.717 179.965V177.961C332.553 177.996 332.143 178.02 331.885 178.02C330.854 178.02 330.385 177.539 330.385 176.473V169.676H332.729V167.672H330.385V164.754H327.842ZM345.865 167.672H343.334V174.855C343.334 176.777 342.233 178.043 340.405 178.043C338.658 178.043 337.768 177.035 337.768 175.16V167.672H335.237V175.652C335.237 178.477 336.877 180.223 339.561 180.223C341.448 180.223 342.701 179.391 343.381 177.914H343.44V180H345.865V167.672ZM355.416 180.211C358.545 180.211 360.56 177.75 360.56 173.836C360.56 169.934 358.533 167.473 355.428 167.473C353.681 167.473 352.275 168.34 351.537 169.77H351.478V163.09H348.947V180H351.408V177.902H351.455C352.217 179.332 353.611 180.211 355.416 180.211ZM354.736 169.605C356.728 169.605 357.959 171.246 357.959 173.836C357.959 176.449 356.728 178.066 354.736 178.066C352.814 178.066 351.467 176.402 351.467 173.836C351.467 171.293 352.814 169.605 354.736 169.605ZM368.177 169.488C369.947 169.488 371.142 170.812 371.2 172.699H365.036C365.165 170.836 366.408 169.488 368.177 169.488ZM371.189 176.379C370.849 177.457 369.783 178.184 368.341 178.184C366.314 178.184 365.025 176.766 365.025 174.621V174.469H373.732V173.602C373.732 169.863 371.599 167.449 368.177 167.449C364.697 167.449 362.47 170.027 362.47 173.895C362.47 177.785 364.661 180.234 368.283 180.234C371.107 180.234 373.24 178.629 373.591 176.379H371.189ZM389.153 162.809C384.278 162.809 381.231 166.172 381.231 171.551C381.231 176.93 384.278 180.281 389.153 180.281C394.016 180.281 397.075 176.93 397.075 171.551C397.075 166.172 394.016 162.809 389.153 162.809ZM389.153 165.117C392.364 165.117 394.379 167.602 394.379 171.551C394.379 175.488 392.364 177.973 389.153 177.973C385.942 177.973 383.914 175.488 383.914 171.551C383.914 167.602 385.942 165.117 389.153 165.117ZM400.496 180H403.039V169.676H405.5V167.695H403.004V166.535C403.004 165.445 403.519 164.895 404.621 164.895C404.961 164.895 405.301 164.918 405.547 164.965V163.09C405.219 163.031 404.644 162.973 404.129 162.973C401.621 162.973 400.496 164.098 400.496 166.488V167.695H398.797V169.676H400.496V180ZM408.71 180H411.253V169.676H413.714V167.695H411.218V166.535C411.218 165.445 411.734 164.895 412.835 164.895C413.175 164.895 413.515 164.918 413.761 164.965V163.09C413.433 163.031 412.859 162.973 412.343 162.973C409.835 162.973 408.71 164.098 408.71 166.488V167.695H407.011V169.676H408.71V180ZM416.28 180H418.811V163.09H416.28V180ZM421.975 180H424.506V167.672H421.975V180ZM423.241 165.867C424.061 165.867 424.717 165.223 424.717 164.426C424.717 163.617 424.061 162.973 423.241 162.973C422.432 162.973 421.776 163.617 421.776 164.426C421.776 165.223 422.432 165.867 423.241 165.867ZM427.576 180H430.107V172.816C430.107 170.906 431.256 169.641 433.037 169.641C434.795 169.641 435.662 170.66 435.662 172.512V180H438.205V172.02C438.205 169.195 436.646 167.461 433.928 167.461C432.029 167.461 430.717 168.328 430.049 169.734H429.99V167.672H427.576V180ZM446.29 169.488C448.06 169.488 449.255 170.812 449.314 172.699H443.15C443.279 170.836 444.521 169.488 446.29 169.488ZM449.302 176.379C448.962 177.457 447.896 178.184 446.455 178.184C444.427 178.184 443.138 176.766 443.138 174.621V174.469H451.845V173.602C451.845 169.863 449.712 167.449 446.29 167.449C442.81 167.449 440.583 170.027 440.583 173.895C440.583 177.785 442.775 180.234 446.396 180.234C449.22 180.234 451.353 178.629 451.705 176.379H449.302Z" fill="url(#paint2_linear_9_160)"/>
<path d="M208.164 209V198.992H211.719V197.727H203.203V198.992H206.758V209H208.164ZM217.898 200.875H216.539V205.648C216.539 207.031 215.742 207.938 214.422 207.938C213.164 207.938 212.547 207.227 212.547 205.906V200.875H211.188V206.148C211.188 207.992 212.227 209.141 214 209.141C215.25 209.141 216.094 208.617 216.578 207.68H216.609V209H217.898V200.875ZM223.703 209.141C225.781 209.141 227.156 207.492 227.156 204.938C227.156 202.391 225.773 200.734 223.727 200.734C222.578 200.734 221.633 201.305 221.125 202.234H221.094V197.727H219.734V209H221.031V207.625H221.062C221.586 208.562 222.516 209.141 223.703 209.141ZM223.438 201.93C224.875 201.93 225.766 203.094 225.766 204.938C225.766 206.797 224.875 207.945 223.438 207.945C222.062 207.945 221.086 206.75 221.086 204.938C221.086 203.133 222.062 201.93 223.438 201.93ZM231.797 201.914C233.078 201.914 233.93 202.883 233.961 204.242H229.547C229.633 202.891 230.523 201.914 231.797 201.914ZM233.93 206.672C233.703 207.438 232.945 207.961 231.914 207.961C230.453 207.961 229.539 206.938 229.539 205.383V205.305H235.367V204.789C235.367 202.328 234.016 200.734 231.82 200.734C229.578 200.734 228.141 202.445 228.141 204.969C228.141 207.523 229.555 209.141 231.883 209.141C233.656 209.141 235.031 208.094 235.266 206.672H233.93ZM243.492 203.539C243.32 202.078 242.109 200.734 240.078 200.734C237.836 200.734 236.344 202.375 236.344 204.938C236.344 207.555 237.844 209.141 240.094 209.141C241.938 209.141 243.297 208 243.508 206.383H242.172C241.938 207.359 241.211 207.945 240.102 207.945C238.695 207.945 237.727 206.828 237.727 204.938C237.727 203.094 238.68 201.93 240.086 201.93C241.281 201.93 241.969 202.656 242.164 203.539H243.492ZM251.43 200.875H250.07V205.648C250.07 207.031 249.273 207.938 247.953 207.938C246.695 207.938 246.078 207.227 246.078 205.906V200.875H244.719V206.148C244.719 207.992 245.758 209.141 247.531 209.141C248.781 209.141 249.625 208.617 250.109 207.68H250.141V209H251.43V200.875ZM253.633 198.914V200.875H252.422V201.992H253.633V206.891C253.633 208.453 254.211 209.062 255.703 209.062C256.023 209.062 256.398 209.039 256.562 209V207.859C256.469 207.875 256.156 207.898 256 207.898C255.305 207.898 254.992 207.562 254.992 206.82V201.992H256.57V200.875H254.992V198.914H253.633ZM261.375 209H262.734V197.727H261.375V209ZM267.828 201.914C269.109 201.914 269.961 202.883 269.992 204.242H265.578C265.664 202.891 266.555 201.914 267.828 201.914ZM269.961 206.672C269.734 207.438 268.977 207.961 267.945 207.961C266.484 207.961 265.57 206.938 265.57 205.383V205.305H271.398V204.789C271.398 202.328 270.047 200.734 267.852 200.734C265.609 200.734 264.172 202.445 264.172 204.969C264.172 207.523 265.586 209.141 267.914 209.141C269.688 209.141 271.062 208.094 271.297 206.672H269.961ZM273.211 198.914V200.875H272V201.992H273.211V206.891C273.211 208.453 273.789 209.062 275.281 209.062C275.602 209.062 275.977 209.039 276.141 209V207.859C276.047 207.875 275.734 207.898 275.578 207.898C274.883 207.898 274.57 207.562 274.57 206.82V201.992H276.148V200.875H274.57V198.914H273.211ZM277.461 203.117C277.461 204.227 278.164 204.961 279.594 205.328L281.023 205.695C281.938 205.938 282.273 206.25 282.273 206.828C282.273 207.562 281.594 208.031 280.492 208.031C279.391 208.031 278.75 207.578 278.602 206.734H277.242C277.383 208.172 278.625 209.141 280.406 209.141C282.305 209.141 283.641 208.141 283.641 206.727C283.641 205.531 283.047 204.938 281.406 204.523L280.148 204.219C279.227 203.984 278.797 203.609 278.797 203.047C278.797 202.336 279.453 201.844 280.445 201.844C281.445 201.844 282.078 202.328 282.172 203.109H283.469C283.406 201.734 282.172 200.734 280.492 200.734C278.703 200.734 277.461 201.727 277.461 203.117ZM289.008 212.039C290.477 212.039 291.148 211.469 291.844 209.57L295.039 200.875H293.609L291.359 207.641H291.336L289.086 200.875H287.633L290.633 209.008L290.445 209.578C290.133 210.523 289.711 210.891 288.953 210.891C288.781 210.891 288.57 210.883 288.422 210.852V211.992C288.57 212.023 288.844 212.039 289.008 212.039ZM299.25 209.141C301.492 209.141 303.008 207.523 303.008 204.938C303.008 202.344 301.492 200.734 299.25 200.734C297 200.734 295.484 202.344 295.484 204.938C295.484 207.523 297 209.141 299.25 209.141ZM299.25 207.945C297.812 207.945 296.867 206.852 296.867 204.938C296.867 203.023 297.812 201.93 299.25 201.93C300.688 201.93 301.625 203.023 301.625 204.938C301.625 206.852 300.688 207.945 299.25 207.945ZM311.055 200.875H309.695V205.648C309.695 207.031 308.898 207.938 307.578 207.938C306.32 207.938 305.703 207.227 305.703 205.906V200.875H304.344V206.148C304.344 207.992 305.383 209.141 307.156 209.141C308.406 209.141 309.25 208.617 309.734 207.68H309.766V209H311.055V200.875ZM319.359 201.914C320.641 201.914 321.492 202.883 321.523 204.242H317.109C317.195 202.891 318.086 201.914 319.359 201.914ZM321.492 206.672C321.266 207.438 320.508 207.961 319.477 207.961C318.016 207.961 317.102 206.938 317.102 205.383V205.305H322.93V204.789C322.93 202.328 321.578 200.734 319.383 200.734C317.141 200.734 315.703 202.445 315.703 204.969C315.703 207.523 317.117 209.141 319.445 209.141C321.219 209.141 322.594 208.094 322.828 206.672H321.492ZM326.984 207.984C326.008 207.984 325.359 207.477 325.359 206.703C325.359 205.938 325.984 205.453 327.078 205.383L329.25 205.25V205.914C329.25 207.086 328.266 207.984 326.984 207.984ZM326.68 209.141C327.773 209.141 328.805 208.531 329.289 207.602H329.32V209H330.609V203.383C330.609 201.766 329.406 200.734 327.5 200.734C325.578 200.734 324.375 201.812 324.281 203.219H325.594C325.766 202.422 326.422 201.93 327.469 201.93C328.594 201.93 329.25 202.523 329.25 203.516V204.195L326.922 204.328C325.047 204.438 323.977 205.312 323.977 206.703C323.977 208.164 325.062 209.141 326.68 209.141ZM332.195 203.117C332.195 204.227 332.898 204.961 334.328 205.328L335.758 205.695C336.672 205.938 337.008 206.25 337.008 206.828C337.008 207.562 336.328 208.031 335.227 208.031C334.125 208.031 333.484 207.578 333.336 206.734H331.977C332.117 208.172 333.359 209.141 335.141 209.141C337.039 209.141 338.375 208.141 338.375 206.727C338.375 205.531 337.781 204.938 336.141 204.523L334.883 204.219C333.961 203.984 333.531 203.609 333.531 203.047C333.531 202.336 334.188 201.844 335.18 201.844C336.18 201.844 336.812 202.328 336.906 203.109H338.203C338.141 201.734 336.906 200.734 335.227 200.734C333.438 200.734 332.195 201.727 332.195 203.117ZM339.859 209H341.219V200.875H339.859V209ZM340.539 199.508C341.008 199.508 341.391 199.125 341.391 198.664C341.391 198.195 341.008 197.82 340.539 197.82C340.078 197.82 339.695 198.195 339.695 198.664C339.695 199.125 340.078 199.508 340.539 199.508ZM343.125 209H344.484V197.727H343.125V209ZM346.992 212.039C348.461 212.039 349.133 211.469 349.828 209.57L353.023 200.875H351.594L349.344 207.641H349.32L347.07 200.875H345.617L348.617 209.008L348.43 209.578C348.117 210.523 347.695 210.891 346.938 210.891C346.766 210.891 346.555 210.883 346.406 210.852V211.992C346.555 212.023 346.828 212.039 346.992 212.039ZM360.461 209.141C361.633 209.141 362.562 208.562 363.086 207.625H363.109V209H364.406V197.727H363.047V202.195H363.016C362.531 201.305 361.594 200.734 360.43 200.734C358.383 200.734 356.984 202.391 356.984 204.938C356.984 207.484 358.391 209.141 360.461 209.141ZM360.719 201.93C362.117 201.93 363.055 203.125 363.055 204.938C363.055 206.758 362.117 207.945 360.719 207.945C359.281 207.945 358.375 206.781 358.375 204.938C358.375 203.102 359.281 201.93 360.719 201.93ZM369.609 209.141C371.852 209.141 373.367 207.523 373.367 204.938C373.367 202.344 371.852 200.734 369.609 200.734C367.359 200.734 365.844 202.344 365.844 204.938C365.844 207.523 367.359 209.141 369.609 209.141ZM369.609 207.945C368.172 207.945 367.227 206.852 367.227 204.938C367.227 203.023 368.172 201.93 369.609 201.93C371.047 201.93 371.984 203.023 371.984 204.938C371.984 206.852 371.047 207.945 369.609 207.945ZM385.078 200.875H383.734L382.109 207.484H382.078L380.234 200.875H378.922L377.086 207.484H377.055L375.43 200.875H374.078L376.352 209H377.734L379.562 202.711H379.594L381.43 209H382.812L385.078 200.875ZM386.195 209H387.555V204.219C387.555 202.844 388.391 201.938 389.672 201.938C390.922 201.938 391.539 202.656 391.539 203.969V209H392.898V203.727C392.898 201.883 391.867 200.734 390.086 200.734C388.828 200.734 387.961 201.297 387.508 202.172H387.477V200.875H386.195V209ZM394.703 209H396.062V197.727H394.703V209ZM401.266 209.141C403.508 209.141 405.023 207.523 405.023 204.938C405.023 202.344 403.508 200.734 401.266 200.734C399.016 200.734 397.5 202.344 397.5 204.938C397.5 207.523 399.016 209.141 401.266 209.141ZM401.266 207.945C399.828 207.945 398.883 206.852 398.883 204.938C398.883 203.023 399.828 201.93 401.266 201.93C402.703 201.93 403.641 203.023 403.641 204.938C403.641 206.852 402.703 207.945 401.266 207.945ZM409.078 207.984C408.102 207.984 407.453 207.477 407.453 206.703C407.453 205.938 408.078 205.453 409.172 205.383L411.344 205.25V205.914C411.344 207.086 410.359 207.984 409.078 207.984ZM408.773 209.141C409.867 209.141 410.898 208.531 411.383 207.602H411.414V209H412.703V203.383C412.703 201.766 411.5 200.734 409.594 200.734C407.672 200.734 406.469 201.812 406.375 203.219H407.688C407.859 202.422 408.516 201.93 409.562 201.93C410.688 201.93 411.344 202.523 411.344 203.516V204.195L409.016 204.328C407.141 204.438 406.07 205.312 406.07 206.703C406.07 208.164 407.156 209.141 408.773 209.141ZM417.508 209.141C418.68 209.141 419.609 208.562 420.133 207.625H420.156V209H421.453V197.727H420.094V202.195H420.062C419.578 201.305 418.641 200.734 417.477 200.734C415.43 200.734 414.031 202.391 414.031 204.938C414.031 207.484 415.438 209.141 417.508 209.141ZM417.766 201.93C419.164 201.93 420.102 203.125 420.102 204.938C420.102 206.758 419.164 207.945 417.766 207.945C416.328 207.945 415.422 206.781 415.422 204.938C415.422 203.102 416.328 201.93 417.766 201.93ZM429.25 207.984C428.273 207.984 427.625 207.477 427.625 206.703C427.625 205.938 428.25 205.453 429.344 205.383L431.516 205.25V205.914C431.516 207.086 430.531 207.984 429.25 207.984ZM428.945 209.141C430.039 209.141 431.07 208.531 431.555 207.602H431.586V209H432.875V203.383C432.875 201.766 431.672 200.734 429.766 200.734C427.844 200.734 426.641 201.812 426.547 203.219H427.859C428.031 202.422 428.688 201.93 429.734 201.93C430.859 201.93 431.516 202.523 431.516 203.516V204.195L429.188 204.328C427.312 204.438 426.242 205.312 426.242 206.703C426.242 208.164 427.328 209.141 428.945 209.141ZM434.602 209H435.961V204.219C435.961 202.844 436.797 201.938 438.078 201.938C439.328 201.938 439.945 202.656 439.945 203.969V209H441.305V203.727C441.305 201.883 440.273 200.734 438.492 200.734C437.234 200.734 436.367 201.297 435.914 202.172H435.883V200.875H434.602V209ZM446.117 209.141C447.289 209.141 448.219 208.562 448.742 207.625H448.766V209H450.062V197.727H448.703V202.195H448.672C448.188 201.305 447.25 200.734 446.086 200.734C444.039 200.734 442.641 202.391 442.641 204.938C442.641 207.484 444.047 209.141 446.117 209.141ZM446.375 201.93C447.773 201.93 448.711 203.125 448.711 204.938C448.711 206.758 447.773 207.945 446.375 207.945C444.938 207.945 444.031 206.781 444.031 204.938C444.031 203.102 444.938 201.93 446.375 201.93ZM455.617 198.914V200.875H454.406V201.992H455.617V206.891C455.617 208.453 456.195 209.062 457.688 209.062C458.008 209.062 458.383 209.039 458.547 209V207.859C458.453 207.875 458.141 207.898 457.984 207.898C457.289 207.898 456.977 207.562 456.977 206.82V201.992H458.555V200.875H456.977V198.914H455.617ZM460.008 209H461.367V203.938C461.367 202.789 462.055 202.031 463.109 202.031C463.438 202.031 463.727 202.07 463.836 202.109V200.789C463.727 200.773 463.523 200.734 463.289 200.734C462.336 200.734 461.586 201.305 461.32 202.203H461.289V200.875H460.008V209ZM465.016 209H466.375V200.875H465.016V209ZM465.695 199.508C466.164 199.508 466.547 199.125 466.547 198.664C466.547 198.195 466.164 197.82 465.695 197.82C465.234 197.82 464.852 198.195 464.852 198.664C464.852 199.125 465.234 199.508 465.695 199.508ZM468.211 209H469.57V203.906C469.57 202.781 470.352 201.938 471.43 201.938C472.438 201.938 473.094 202.578 473.094 203.555V209H474.453V203.836C474.453 202.734 475.211 201.938 476.289 201.938C477.359 201.938 477.977 202.594 477.977 203.703V209H479.336V203.391C479.336 201.781 478.297 200.734 476.688 200.734C475.547 200.734 474.594 201.312 474.141 202.281H474.109C473.758 201.297 472.938 200.734 471.828 200.734C470.734 200.734 469.906 201.312 469.523 202.172H469.492V200.875H468.211V209ZM228.438 231V226.148L232.438 219.727H230.836L227.758 224.789H227.711L224.633 219.727H223.031L227.031 226.148V231H228.438ZM235.398 231.141C237.641 231.141 239.156 229.523 239.156 226.938C239.156 224.344 237.641 222.734 235.398 222.734C233.148 222.734 231.633 224.344 231.633 226.938C231.633 229.523 233.148 231.141 235.398 231.141ZM235.398 229.945C233.961 229.945 233.016 228.852 233.016 226.938C233.016 225.023 233.961 223.93 235.398 223.93C236.836 223.93 237.773 225.023 237.773 226.938C237.773 228.852 236.836 229.945 235.398 229.945ZM247.203 222.875H245.844V227.648C245.844 229.031 245.047 229.938 243.727 229.938C242.469 229.938 241.852 229.227 241.852 227.906V222.875H240.492V228.148C240.492 229.992 241.531 231.141 243.305 231.141C244.555 231.141 245.398 230.617 245.883 229.68H245.914V231H247.203V222.875ZM251.719 231V220.992H255.273V219.727H246.758V220.992H250.312V231H251.719ZM261.453 222.875H260.094V227.648C260.094 229.031 259.297 229.938 257.977 229.938C256.719 229.938 256.102 229.227 256.102 227.906V222.875H254.742V228.148C254.742 229.992 255.781 231.141 257.555 231.141C258.805 231.141 259.648 230.617 260.133 229.68H260.164V231H261.453V222.875ZM267.258 231.141C269.336 231.141 270.711 229.492 270.711 226.938C270.711 224.391 269.328 222.734 267.281 222.734C266.133 222.734 265.188 223.305 264.68 224.234H264.648V219.727H263.289V231H264.586V229.625H264.617C265.141 230.562 266.07 231.141 267.258 231.141ZM266.992 223.93C268.43 223.93 269.32 225.094 269.32 226.938C269.32 228.797 268.43 229.945 266.992 229.945C265.617 229.945 264.641 228.75 264.641 226.938C264.641 225.133 265.617 223.93 266.992 223.93ZM275.352 223.914C276.633 223.914 277.484 224.883 277.516 226.242H273.102C273.188 224.891 274.078 223.914 275.352 223.914ZM277.484 228.672C277.258 229.438 276.5 229.961 275.469 229.961C274.008 229.961 273.094 228.938 273.094 227.383V227.305H278.922V226.789C278.922 224.328 277.57 222.734 275.375 222.734C273.133 222.734 271.695 224.445 271.695 226.969C271.695 229.523 273.109 231.141 275.438 231.141C277.211 231.141 278.586 230.094 278.82 228.672H277.484ZM290.242 222.875H288.828L286.578 229.555H286.547L284.305 222.875H282.875L285.867 231H287.258L290.242 222.875ZM291.383 231H292.742V222.875H291.383V231ZM292.062 221.508C292.531 221.508 292.914 221.125 292.914 220.664C292.914 220.195 292.531 219.82 292.062 219.82C291.602 219.82 291.219 220.195 291.219 220.664C291.219 221.125 291.602 221.508 292.062 221.508ZM297.656 231.141C298.828 231.141 299.758 230.562 300.281 229.625H300.305V231H301.602V219.727H300.242V224.195H300.211C299.727 223.305 298.789 222.734 297.625 222.734C295.578 222.734 294.18 224.391 294.18 226.938C294.18 229.484 295.586 231.141 297.656 231.141ZM297.914 223.93C299.312 223.93 300.25 225.125 300.25 226.938C300.25 228.758 299.312 229.945 297.914 229.945C296.477 229.945 295.57 228.781 295.57 226.938C295.57 225.102 296.477 223.93 297.914 223.93ZM306.695 223.914C307.977 223.914 308.828 224.883 308.859 226.242H304.445C304.531 224.891 305.422 223.914 306.695 223.914ZM308.828 228.672C308.602 229.438 307.844 229.961 306.812 229.961C305.352 229.961 304.438 228.938 304.438 227.383V227.305H310.266V226.789C310.266 224.328 308.914 222.734 306.719 222.734C304.477 222.734 303.039 224.445 303.039 226.969C303.039 229.523 304.453 231.141 306.781 231.141C308.555 231.141 309.93 230.094 310.164 228.672H308.828ZM315.008 231.141C317.25 231.141 318.766 229.523 318.766 226.938C318.766 224.344 317.25 222.734 315.008 222.734C312.758 222.734 311.242 224.344 311.242 226.938C311.242 229.523 312.758 231.141 315.008 231.141ZM315.008 229.945C313.57 229.945 312.625 228.852 312.625 226.938C312.625 225.023 313.57 223.93 315.008 223.93C316.445 223.93 317.383 225.023 317.383 226.938C317.383 228.852 316.445 229.945 315.008 229.945ZM320 225.117C320 226.227 320.703 226.961 322.133 227.328L323.562 227.695C324.477 227.938 324.812 228.25 324.812 228.828C324.812 229.562 324.133 230.031 323.031 230.031C321.93 230.031 321.289 229.578 321.141 228.734H319.781C319.922 230.172 321.164 231.141 322.945 231.141C324.844 231.141 326.18 230.141 326.18 228.727C326.18 227.531 325.586 226.938 323.945 226.523L322.688 226.219C321.766 225.984 321.336 225.609 321.336 225.047C321.336 224.336 321.992 223.844 322.984 223.844C323.984 223.844 324.617 224.328 324.711 225.109H326.008C325.945 223.734 324.711 222.734 323.031 222.734C321.242 222.734 320 223.727 320 225.117ZM331.312 231H332.672V223.992H334.328V222.875H332.664V221.977C332.664 221.172 333.016 220.781 333.75 220.781C333.977 220.781 334.203 220.805 334.367 220.828V219.727C334.172 219.695 333.844 219.664 333.539 219.664C332.039 219.664 331.312 220.406 331.312 221.969V222.875H330.18V223.992H331.312V231ZM338.711 231.141C340.953 231.141 342.469 229.523 342.469 226.938C342.469 224.344 340.953 222.734 338.711 222.734C336.461 222.734 334.945 224.344 334.945 226.938C334.945 229.523 336.461 231.141 338.711 231.141ZM338.711 229.945C337.273 229.945 336.328 228.852 336.328 226.938C336.328 225.023 337.273 223.93 338.711 223.93C340.148 223.93 341.086 225.023 341.086 226.938C341.086 228.852 340.148 229.945 338.711 229.945ZM343.844 231H345.203V225.938C345.203 224.789 345.891 224.031 346.945 224.031C347.273 224.031 347.562 224.07 347.672 224.109V222.789C347.562 222.773 347.359 222.734 347.125 222.734C346.172 222.734 345.422 223.305 345.156 224.203H345.125V222.875H343.844V231ZM352.5 231H353.859V223.992H355.516V222.875H353.852V221.977C353.852 221.172 354.203 220.781 354.938 220.781C355.164 220.781 355.391 220.805 355.555 220.828V219.727C355.359 219.695 355.031 219.664 354.727 219.664C353.227 219.664 352.5 220.406 352.5 221.969V222.875H351.367V223.992H352.5V231ZM356.922 231H358.281V225.938C358.281 224.789 358.969 224.031 360.023 224.031C360.352 224.031 360.641 224.07 360.75 224.109V222.789C360.641 222.773 360.438 222.734 360.203 222.734C359.25 222.734 358.5 223.305 358.234 224.203H358.203V222.875H356.922V231ZM364.727 223.914C366.008 223.914 366.859 224.883 366.891 226.242H362.477C362.562 224.891 363.453 223.914 364.727 223.914ZM366.859 228.672C366.633 229.438 365.875 229.961 364.844 229.961C363.383 229.961 362.469 228.938 362.469 227.383V227.305H368.297V226.789C368.297 224.328 366.945 222.734 364.75 222.734C362.508 222.734 361.07 224.445 361.07 226.969C361.07 229.523 362.484 231.141 364.812 231.141C366.586 231.141 367.961 230.094 368.195 228.672H366.859ZM372.93 223.914C374.211 223.914 375.062 224.883 375.094 226.242H370.68C370.766 224.891 371.656 223.914 372.93 223.914ZM375.062 228.672C374.836 229.438 374.078 229.961 373.047 229.961C371.586 229.961 370.672 228.938 370.672 227.383V227.305H376.5V226.789C376.5 224.328 375.148 222.734 372.953 222.734C370.711 222.734 369.273 224.445 369.273 226.969C369.273 229.523 370.688 231.141 373.016 231.141C374.789 231.141 376.164 230.094 376.398 228.672H375.062ZM381.227 231H382.586V226.266C382.586 224.859 383.422 223.938 384.773 223.938C386.047 223.938 386.695 224.711 386.695 226V231H388.055V225.75C388.055 223.938 386.977 222.734 385.195 222.734C383.961 222.734 383.07 223.266 382.617 224.172H382.586V219.727H381.227V231ZM389.852 231H391.211V222.875H389.852V231ZM390.531 221.508C391 221.508 391.383 221.125 391.383 220.664C391.383 220.195 391 219.82 390.531 219.82C390.07 219.82 389.688 220.195 389.688 220.664C389.688 221.125 390.07 221.508 390.531 221.508ZM396.352 229.867C394.953 229.867 394.039 228.727 394.039 226.906C394.039 225.086 394.953 223.93 396.352 223.93C397.766 223.93 398.711 225.117 398.711 226.906C398.711 228.695 397.766 229.867 396.352 229.867ZM396.398 234.062C398.641 234.062 400.07 232.773 400.07 230.836V222.875H398.773V224.242H398.75C398.211 223.297 397.258 222.734 396.109 222.734C394.008 222.734 392.648 224.359 392.648 226.906C392.648 229.43 394.008 231.062 396.078 231.062C397.219 231.062 398.18 230.484 398.68 229.602H398.711V230.883C398.711 232.094 397.859 232.906 396.453 232.906C395.438 232.906 394.633 232.414 394.367 231.672H392.969C393.195 233.055 394.609 234.062 396.398 234.062ZM401.914 231H403.273V226.266C403.273 224.859 404.109 223.938 405.461 223.938C406.734 223.938 407.383 224.711 407.383 226V231H408.742V225.75C408.742 223.938 407.664 222.734 405.883 222.734C404.648 222.734 403.758 223.266 403.305 224.172H403.273V219.727H401.914V231ZM416.812 222.734C414.727 222.734 413.352 224.383 413.352 226.938C413.352 229.484 414.727 231.141 416.781 231.141C417.93 231.141 418.875 230.57 419.383 229.641H419.414V233.711H420.773V222.875H419.477V224.25H419.445C418.922 223.312 417.992 222.734 416.812 222.734ZM417.055 229.945C415.633 229.945 414.742 228.789 414.742 226.938C414.742 225.078 415.633 223.93 417.055 223.93C418.445 223.93 419.414 225.125 419.414 226.938C419.414 228.75 418.445 229.945 417.055 229.945ZM429.219 222.875H427.859V227.648C427.859 229.031 427.062 229.938 425.742 229.938C424.484 229.938 423.867 229.227 423.867 227.906V222.875H422.508V228.148C422.508 229.992 423.547 231.141 425.32 231.141C426.57 231.141 427.414 230.617 427.898 229.68H427.93V231H429.219V222.875ZM433.664 229.984C432.688 229.984 432.039 229.477 432.039 228.703C432.039 227.938 432.664 227.453 433.758 227.383L435.93 227.25V227.914C435.93 229.086 434.945 229.984 433.664 229.984ZM433.359 231.141C434.453 231.141 435.484 230.531 435.969 229.602H436V231H437.289V225.383C437.289 223.766 436.086 222.734 434.18 222.734C432.258 222.734 431.055 223.812 430.961 225.219H432.273C432.445 224.422 433.102 223.93 434.148 223.93C435.273 223.93 435.93 224.523 435.93 225.516V226.195L433.602 226.328C431.727 226.438 430.656 227.312 430.656 228.703C430.656 230.164 431.742 231.141 433.359 231.141ZM439.086 231H440.445V219.727H439.086V231ZM442.352 231H443.711V222.875H442.352V231ZM443.031 221.508C443.5 221.508 443.883 221.125 443.883 220.664C443.883 220.195 443.5 219.82 443.031 219.82C442.57 219.82 442.188 220.195 442.188 220.664C442.188 221.125 442.57 221.508 443.031 221.508ZM445.984 220.914V222.875H444.773V223.992H445.984V228.891C445.984 230.453 446.562 231.062 448.055 231.062C448.375 231.062 448.75 231.039 448.914 231V229.859C448.82 229.875 448.508 229.898 448.352 229.898C447.656 229.898 447.344 229.562 447.344 228.82V223.992H448.922V222.875H447.344V220.914H445.984ZM451.047 234.039C452.516 234.039 453.188 233.469 453.883 231.57L457.078 222.875H455.648L453.398 229.641H453.375L451.125 222.875H449.672L452.672 231.008L452.484 231.578C452.172 232.523 451.75 232.891 450.992 232.891C450.82 232.891 450.609 232.883 450.461 232.852V233.992C450.609 234.023 450.883 234.039 451.047 234.039ZM458.133 231.078C458.633 231.078 459.023 230.688 459.023 230.188C459.023 229.688 458.633 229.297 458.133 229.297C457.633 229.297 457.242 229.688 457.242 230.188C457.242 230.688 457.633 231.078 458.133 231.078Z" fill="#53515E"/>
<rect x="132" y="338" width="419" height="42" rx="10" fill="url(#paint3_linear_9_160)"/>
<rect x="132.25" y="278.25" width="418.5" height="41.5" rx="9.75" fill="url(#paint4_linear_9_160)"/>
<path d="M144.898 305H146.586V300.25C146.586 298.953 147.352 298.094 148.602 298.094C149.789 298.094 150.398 298.82 150.398 300.031V305H152.094V299.703C152.094 297.844 151.016 296.641 149.211 296.641C147.961 296.641 147.062 297.195 146.609 298.156H146.57V293.727H144.898V305ZM154.219 294.836V296.781H153.023V298.117H154.219V302.836C154.219 304.422 154.867 305.055 156.531 305.055C156.906 305.055 157.281 305.023 157.469 304.977V303.641C157.359 303.664 157.086 303.68 156.914 303.68C156.227 303.68 155.914 303.359 155.914 302.648V298.117H157.477V296.781H155.914V294.836H154.219ZM159.359 294.836V296.781H158.164V298.117H159.359V302.836C159.359 304.422 160.008 305.055 161.672 305.055C162.047 305.055 162.422 305.023 162.609 304.977V303.641C162.5 303.664 162.227 303.68 162.055 303.68C161.367 303.68 161.055 303.359 161.055 302.648V298.117H162.617V296.781H161.055V294.836H159.359ZM168.289 296.648C167.102 296.648 166.156 297.25 165.672 298.195H165.641V296.781H164.008V307.719H165.695V303.648H165.734C166.203 304.562 167.141 305.141 168.32 305.141C170.383 305.141 171.75 303.492 171.75 300.891C171.75 298.289 170.375 296.648 168.289 296.648ZM167.844 303.711C166.547 303.711 165.688 302.602 165.688 300.891C165.688 299.195 166.555 298.07 167.844 298.07C169.18 298.07 170.016 299.172 170.016 300.891C170.016 302.617 169.18 303.711 167.844 303.711ZM172.906 299.109C172.906 300.258 173.656 301.031 175.141 301.391L176.609 301.75C177.469 301.969 177.781 302.258 177.781 302.781C177.781 303.445 177.156 303.867 176.141 303.867C175.109 303.867 174.5 303.43 174.367 302.641H172.695C172.828 304.148 174.117 305.156 176.062 305.156C178.078 305.156 179.477 304.125 179.477 302.625C179.477 301.414 178.852 300.789 177.195 300.391L175.812 300.07C174.961 299.859 174.555 299.516 174.555 299.008C174.555 298.359 175.164 297.914 176.078 297.914C177.023 297.914 177.625 298.375 177.703 299.117H179.289C179.234 297.656 177.953 296.633 176.125 296.633C174.203 296.633 172.906 297.641 172.906 299.109ZM182.055 305.086C182.625 305.086 183.078 304.633 183.078 304.062C183.078 303.492 182.625 303.039 182.055 303.039C181.484 303.039 181.031 303.492 181.031 304.062C181.031 304.633 181.484 305.086 182.055 305.086ZM182.055 299.391C182.625 299.391 183.078 298.945 183.078 298.367C183.078 297.797 182.625 297.344 182.055 297.344C181.484 297.344 181.031 297.797 181.031 298.367C181.031 298.945 181.484 299.391 182.055 299.391ZM195.836 296.781H194.164L192.664 303.25H192.625L190.906 296.781H189.281L187.57 303.25H187.539L186.039 296.781H184.352L186.609 305H188.352L190.062 298.844H190.102L191.828 305H193.586L195.836 296.781ZM207.711 296.781H206.039L204.539 303.25H204.5L202.781 296.781H201.156L199.445 303.25H199.414L197.914 296.781H196.227L198.484 305H200.227L201.938 298.844H201.977L203.703 305H205.461L207.711 296.781ZM219.586 296.781H217.914L216.414 303.25H216.375L214.656 296.781H213.031L211.32 303.25H211.289L209.789 296.781H208.102L210.359 305H212.102L213.812 298.844H213.852L215.578 305H217.336L219.586 296.781ZM220.945 305.086C221.516 305.086 221.969 304.633 221.969 304.062C221.969 303.492 221.516 303.039 220.945 303.039C220.375 303.039 219.922 303.492 219.922 304.062C219.922 304.633 220.375 305.086 220.945 305.086ZM223.555 308.062C225.266 308.062 226.07 307.422 226.773 305.43L229.859 296.781H228.078L225.992 303.469H225.969L223.883 296.781H222.055L225.023 305.008C225.023 305.016 224.875 305.5 224.875 305.516C224.617 306.359 224.203 306.688 223.414 306.688C223.273 306.688 222.992 306.688 222.867 306.656V308.023C222.992 308.047 223.422 308.062 223.555 308.062ZM234.148 305.156C236.5 305.156 238.047 303.539 238.047 300.891C238.047 298.25 236.492 296.633 234.148 296.633C231.805 296.633 230.25 298.25 230.25 300.891C230.25 303.539 231.797 305.156 234.148 305.156ZM234.148 303.766C232.828 303.766 231.969 302.719 231.969 300.891C231.969 299.07 232.828 298.023 234.148 298.023C235.469 298.023 236.328 299.07 236.328 300.891C236.328 302.719 235.477 303.766 234.148 303.766ZM246.398 296.781H244.711V301.57C244.711 302.852 243.977 303.695 242.758 303.695C241.594 303.695 241 303.023 241 301.773V296.781H239.312V302.102C239.312 303.984 240.406 305.148 242.195 305.148C243.453 305.148 244.289 304.594 244.742 303.609H244.781V305H246.398V296.781ZM248.562 294.836V296.781H247.367V298.117H248.562V302.836C248.562 304.422 249.211 305.055 250.875 305.055C251.25 305.055 251.625 305.023 251.812 304.977V303.641C251.703 303.664 251.43 303.68 251.258 303.68C250.57 303.68 250.258 303.359 250.258 302.648V298.117H251.82V296.781H250.258V294.836H248.562ZM260.258 296.781H258.57V301.57C258.57 302.852 257.836 303.695 256.617 303.695C255.453 303.695 254.859 303.023 254.859 301.773V296.781H253.172V302.102C253.172 303.984 254.266 305.148 256.055 305.148C257.312 305.148 258.148 304.594 258.602 303.609H258.641V305H260.258V296.781ZM266.305 305.141C268.391 305.141 269.734 303.5 269.734 300.891C269.734 298.289 268.383 296.648 266.312 296.648C265.148 296.648 264.211 297.227 263.719 298.18H263.68V293.727H261.992V305H263.633V303.602H263.664C264.172 304.555 265.102 305.141 266.305 305.141ZM265.852 298.07C267.18 298.07 268 299.164 268 300.891C268 302.633 267.18 303.711 265.852 303.711C264.57 303.711 263.672 302.602 263.672 300.891C263.672 299.195 264.57 298.07 265.852 298.07ZM274.492 297.992C275.672 297.992 276.469 298.875 276.508 300.133H272.398C272.484 298.891 273.312 297.992 274.492 297.992ZM276.5 302.586C276.273 303.305 275.562 303.789 274.602 303.789C273.25 303.789 272.391 302.844 272.391 301.414V301.312H278.195V300.734C278.195 298.242 276.773 296.633 274.492 296.633C272.172 296.633 270.688 298.352 270.688 300.93C270.688 303.523 272.148 305.156 274.562 305.156C276.445 305.156 277.867 304.086 278.102 302.586H276.5ZM280.172 307.406L284.172 293.727H282.672L278.672 307.406H280.172ZM292.031 299.609C291.883 297.992 290.594 296.633 288.477 296.633C286.141 296.633 284.609 298.281 284.609 300.891C284.609 303.547 286.141 305.156 288.492 305.156C290.469 305.156 291.867 303.969 292.047 302.219H290.422C290.227 303.172 289.547 303.742 288.508 303.742C287.195 303.742 286.328 302.695 286.328 300.891C286.328 299.125 287.188 298.039 288.492 298.039C289.594 298.039 290.25 298.734 290.422 299.609H292.031ZM296.117 303.805C295.211 303.805 294.617 303.336 294.617 302.617C294.617 301.914 295.188 301.469 296.195 301.398L298.219 301.273V301.922C298.219 302.992 297.297 303.805 296.117 303.805ZM295.648 305.141C296.727 305.141 297.766 304.562 298.242 303.648H298.281V305H299.898V299.336C299.898 297.688 298.625 296.633 296.633 296.633C294.602 296.633 293.336 297.727 293.242 299.211H294.836C294.984 298.477 295.594 298.008 296.57 298.008C297.602 298.008 298.219 298.555 298.219 299.469V300.102L295.969 300.234C294.016 300.344 292.914 301.227 292.914 302.664C292.914 304.141 294.039 305.141 295.648 305.141ZM301.539 305H303.227V300.211C303.227 298.938 303.992 298.094 305.18 298.094C306.352 298.094 306.93 298.773 306.93 300.008V305H308.625V299.68C308.625 297.797 307.586 296.641 305.773 296.641C304.508 296.641 303.633 297.219 303.188 298.156H303.148V296.781H301.539V305ZM317.312 299.609C317.164 297.992 315.875 296.633 313.758 296.633C311.422 296.633 309.891 298.281 309.891 300.891C309.891 303.547 311.422 305.156 313.773 305.156C315.75 305.156 317.148 303.969 317.328 302.219H315.703C315.508 303.172 314.828 303.742 313.789 303.742C312.477 303.742 311.609 302.695 311.609 300.891C311.609 299.125 312.469 298.039 313.773 298.039C314.875 298.039 315.531 298.734 315.703 299.609H317.312ZM321.398 303.805C320.492 303.805 319.898 303.336 319.898 302.617C319.898 301.914 320.469 301.469 321.477 301.398L323.5 301.273V301.922C323.5 302.992 322.578 303.805 321.398 303.805ZM320.93 305.141C322.008 305.141 323.047 304.562 323.523 303.648H323.562V305H325.18V299.336C325.18 297.688 323.906 296.633 321.914 296.633C319.883 296.633 318.617 297.727 318.523 299.211H320.117C320.266 298.477 320.875 298.008 321.852 298.008C322.883 298.008 323.5 298.555 323.5 299.469V300.102L321.25 300.234C319.297 300.344 318.195 301.227 318.195 302.664C318.195 304.141 319.32 305.141 320.93 305.141ZM326.672 299.109C326.672 300.258 327.422 301.031 328.906 301.391L330.375 301.75C331.234 301.969 331.547 302.258 331.547 302.781C331.547 303.445 330.922 303.867 329.906 303.867C328.875 303.867 328.266 303.43 328.133 302.641H326.461C326.594 304.148 327.883 305.156 329.828 305.156C331.844 305.156 333.242 304.125 333.242 302.625C333.242 301.414 332.617 300.789 330.961 300.391L329.578 300.07C328.727 299.859 328.32 299.516 328.32 299.008C328.32 298.359 328.93 297.914 329.844 297.914C330.789 297.914 331.391 298.375 331.469 299.117H333.055C333 297.656 331.719 296.633 329.891 296.633C327.969 296.633 326.672 297.641 326.672 299.109ZM345.398 296.781H343.727L342.227 303.25H342.188L340.469 296.781H338.844L337.133 303.25H337.102L335.602 296.781H333.914L336.172 305H337.914L339.625 298.844H339.664L341.391 305H343.148L345.398 296.781ZM346.484 305H348.172V296.781H346.484V305ZM347.328 295.578C347.875 295.578 348.312 295.148 348.312 294.617C348.312 294.078 347.875 293.648 347.328 293.648C346.789 293.648 346.352 294.078 346.352 294.617C346.352 295.148 346.789 295.578 347.328 295.578ZM350.391 294.836V296.781H349.195V298.117H350.391V302.836C350.391 304.422 351.039 305.055 352.703 305.055C353.078 305.055 353.453 305.023 353.641 304.977V303.641C353.531 303.664 353.258 303.68 353.086 303.68C352.398 303.68 352.086 303.359 352.086 302.648V298.117H353.648V296.781H352.086V294.836H350.391ZM361.891 299.609C361.742 297.992 360.453 296.633 358.336 296.633C356 296.633 354.469 298.281 354.469 300.891C354.469 303.547 356 305.156 358.352 305.156C360.328 305.156 361.727 303.969 361.906 302.219H360.281C360.086 303.172 359.406 303.742 358.367 303.742C357.055 303.742 356.188 302.695 356.188 300.891C356.188 299.125 357.047 298.039 358.352 298.039C359.453 298.039 360.109 298.734 360.281 299.609H361.891ZM363.164 305H364.852V300.25C364.852 298.953 365.617 298.094 366.867 298.094C368.055 298.094 368.664 298.82 368.664 300.031V305H370.359V299.703C370.359 297.844 369.281 296.641 367.477 296.641C366.227 296.641 365.328 297.195 364.875 298.156H364.836V293.727H363.164V305ZM371.586 296.75H373.203C373.273 295.719 373.969 295.07 375.047 295.07C376.117 295.07 376.812 295.719 376.812 296.602C376.812 297.406 376.477 297.859 375.531 298.43C374.461 299.07 373.984 299.773 374.023 300.875L374.031 301.5H375.648V301.023C375.648 300.219 375.938 299.805 376.945 299.211C377.977 298.594 378.586 297.742 378.586 296.531C378.586 294.859 377.195 293.633 375.133 293.633C372.867 293.633 371.656 294.977 371.586 296.75ZM374.852 305.117C375.438 305.117 375.883 304.68 375.883 304.109C375.883 303.539 375.438 303.102 374.852 303.102C374.281 303.102 373.828 303.539 373.828 304.109C373.828 304.68 374.281 305.117 374.852 305.117ZM384.461 305.141C386.547 305.141 387.891 303.5 387.891 300.891C387.891 298.289 386.539 296.648 384.469 296.648C383.305 296.648 382.367 297.227 381.875 298.18H381.836V293.727H380.148V305H381.789V303.602H381.82C382.328 304.555 383.258 305.141 384.461 305.141ZM384.008 298.07C385.336 298.07 386.156 299.164 386.156 300.891C386.156 302.633 385.336 303.711 384.008 303.711C382.727 303.711 381.828 302.602 381.828 300.891C381.828 299.195 382.727 298.07 384.008 298.07ZM390.953 296.781H389.266V305.383C389.266 306.211 388.953 306.523 388.117 306.523C388.086 306.523 387.906 306.516 387.875 306.516V307.844C387.922 307.859 388.188 307.859 388.266 307.859C390.086 307.859 390.953 307.062 390.953 305.391V296.781ZM390.109 295.578C390.656 295.578 391.094 295.148 391.094 294.617C391.094 294.078 390.656 293.648 390.109 293.648C389.57 293.648 389.133 294.078 389.133 294.617C389.133 295.148 389.57 295.578 390.109 295.578ZM393.172 305H394.867V298.117H396.508V296.797H394.844V296.023C394.844 295.297 395.188 294.93 395.922 294.93C396.148 294.93 396.375 294.945 396.539 294.977V293.727C396.32 293.688 395.938 293.648 395.594 293.648C393.922 293.648 393.172 294.398 393.172 295.992V296.797H392.039V298.117H393.172V305ZM398.328 305H400.023V298.117H401.664V296.797H400V296.023C400 295.297 400.344 294.93 401.078 294.93C401.305 294.93 401.531 294.945 401.695 294.977V293.727C401.477 293.688 401.094 293.648 400.75 293.648C399.078 293.648 398.328 294.398 398.328 295.992V296.797H397.195V298.117H398.328V305ZM402.992 305H404.68V300.211C404.68 298.938 405.445 298.094 406.633 298.094C407.805 298.094 408.383 298.773 408.383 300.008V305H410.078V299.68C410.078 297.797 409.039 296.641 407.227 296.641C405.961 296.641 405.086 297.219 404.641 298.156H404.602V296.781H402.992V305ZM415.148 297.992C416.328 297.992 417.125 298.875 417.164 300.133H413.055C413.141 298.891 413.969 297.992 415.148 297.992ZM417.156 302.586C416.93 303.305 416.219 303.789 415.258 303.789C413.906 303.789 413.047 302.844 413.047 301.414V301.312H418.852V300.734C418.852 298.242 417.43 296.633 415.148 296.633C412.828 296.633 411.344 298.352 411.344 300.93C411.344 303.523 412.805 305.156 415.219 305.156C417.102 305.156 418.523 304.086 418.758 302.586H417.156ZM420.656 305H422.352V298.117H423.992V296.797H422.328V296.023C422.328 295.297 422.672 294.93 423.406 294.93C423.633 294.93 423.859 294.945 424.023 294.977V293.727C423.805 293.688 423.422 293.648 423.078 293.648C421.406 293.648 420.656 294.398 420.656 295.992V296.797H419.523V298.117H420.656V305ZM425.375 305H427.062V296.781H425.375V305ZM426.219 295.578C426.766 295.578 427.203 295.148 427.203 294.617C427.203 294.078 426.766 293.648 426.219 293.648C425.68 293.648 425.242 294.078 425.242 294.617C425.242 295.148 425.68 295.578 426.219 295.578ZM430.555 300.305H430.539V293.727H428.852V305H430.539V302.047L431.242 301.352L434.031 305H435.992L432.453 300.32L435.859 296.781H433.875L430.555 300.305ZM436.867 305H438.555V300.078C438.555 298.914 439.227 298.188 440.312 298.188C440.641 298.188 440.938 298.227 441.07 298.281V296.711C440.945 296.688 440.734 296.648 440.492 296.648C439.523 296.648 438.789 297.219 438.516 298.18H438.477V296.781H436.867V305Z" fill="#50505C"/>
<rect x="132.25" y="278.25" width="418.5" height="41.5" rx="9.75" stroke="white" stroke-width="0.5"/>
<g filter="url(#filter0_d_9_160)">
<rect x="507.325" y="109.592" width="44" height="44" rx="5" transform="rotate(-17.5488 507.325 109.592)" fill="url(#paint5_linear_9_160)"/>
<path d="M511.197 114.837L521.152 145.496C521.288 145.915 521.121 146.374 520.747 146.608C520.212 146.942 519.507 146.683 519.318 146.081C515.92 135.207 509.213 115.403 508.599 113.513C507.982 111.611 509.022 108.531 511.406 107.629L544.316 97.0709C547.061 96.4073 548.876 97.2659 549.989 98.665C550.254 98.9983 550.423 99.3946 550.55 99.8009L560.856 132.679C560.954 132.992 560.829 133.333 560.55 133.507C560.147 133.759 559.616 133.562 559.478 133.108C556.223 122.433 550.018 102.416 549.193 101.097C548.515 100.013 547.295 99.6695 546.454 99.6113C546.09 99.5862 545.739 99.6689 545.392 99.7816C535.411 103.025 515.804 109.471 513.262 110.597C510.676 111.742 510.808 113.901 511.197 114.837Z" fill="url(#paint6_linear_9_160)"/>
<path d="M525.429 123.135L524.422 123.456C524.27 123.185 524.085 122.964 523.866 122.792C523.65 122.619 523.413 122.492 523.154 122.411C522.898 122.325 522.63 122.285 522.352 122.291C522.073 122.296 521.796 122.342 521.519 122.43C521.016 122.591 520.6 122.863 520.273 123.248C519.948 123.631 519.743 124.109 519.66 124.681C519.58 125.253 519.654 125.898 519.883 126.618C520.112 127.338 520.425 127.908 520.821 128.328C521.22 128.746 521.662 129.018 522.15 129.144C522.639 129.268 523.136 129.25 523.639 129.09C523.916 129.002 524.169 128.879 524.399 128.723C524.629 128.566 524.825 128.38 524.986 128.164C525.149 127.946 525.269 127.703 525.345 127.438C525.423 127.168 525.447 126.88 525.415 126.575L526.422 126.254C526.481 126.703 526.464 127.127 526.371 127.527C526.277 127.926 526.119 128.291 525.896 128.622C525.673 128.949 525.395 129.233 525.063 129.473C524.733 129.712 524.359 129.898 523.939 130.032C523.23 130.257 522.544 130.285 521.882 130.114C521.219 129.944 520.628 129.589 520.108 129.051C519.588 128.513 519.188 127.806 518.909 126.928C518.629 126.051 518.547 125.243 518.66 124.503C518.773 123.764 519.051 123.133 519.493 122.61C519.935 122.088 520.51 121.714 521.22 121.488C521.639 121.355 522.052 121.29 522.459 121.295C522.869 121.299 523.26 121.371 523.633 121.511C524.005 121.649 524.344 121.854 524.652 122.126C524.958 122.396 525.217 122.732 525.429 123.135ZM529.473 121.276L529.732 122.088L526.5 123.117L526.241 122.305L529.473 121.276ZM526.707 120.51L527.666 120.205L529.558 126.15C529.644 126.421 529.748 126.611 529.87 126.722C529.993 126.828 530.125 126.885 530.264 126.891C530.405 126.894 530.546 126.873 530.686 126.828C530.792 126.795 530.877 126.762 530.941 126.729C531.005 126.694 531.055 126.666 531.093 126.645L531.562 127.444C531.505 127.489 531.422 127.542 531.313 127.604C531.206 127.668 531.062 127.728 530.884 127.785C530.613 127.871 530.329 127.898 530.032 127.864C529.738 127.829 529.468 127.72 529.221 127.536C528.978 127.351 528.798 127.078 528.683 126.715L526.707 120.51ZM532.9 127.054L530.915 120.817L531.841 120.522L532.141 121.464L532.205 121.443C532.221 121.098 532.347 120.783 532.584 120.496C532.82 120.209 533.125 120.006 533.499 119.887C533.569 119.864 533.658 119.838 533.764 119.807C533.87 119.776 533.952 119.754 534.007 119.743L534.318 120.717C534.283 120.719 534.204 120.731 534.083 120.752C533.963 120.769 533.84 120.798 533.712 120.838C533.409 120.935 533.159 121.085 532.961 121.288C532.765 121.487 532.633 121.72 532.566 121.986C532.501 122.248 532.513 122.52 532.602 122.802L533.859 126.749L532.9 127.054ZM535.466 117.078L538.113 125.394L537.155 125.699L534.507 117.383L535.466 117.078ZM548.086 115.923L547.079 116.243C546.927 115.973 546.742 115.751 546.523 115.579C546.307 115.407 546.07 115.279 545.811 115.198C545.555 115.113 545.287 115.073 545.008 115.078C544.73 115.083 544.453 115.129 544.176 115.217C543.673 115.378 543.257 115.65 542.93 116.035C542.604 116.418 542.4 116.896 542.317 117.468C542.237 118.04 542.311 118.685 542.54 119.405C542.769 120.125 543.082 120.695 543.478 121.115C543.877 121.534 544.319 121.805 544.806 121.931C545.296 122.055 545.793 122.037 546.296 121.877C546.573 121.789 546.826 121.666 547.056 121.51C547.286 121.353 547.482 121.167 547.643 120.952C547.806 120.733 547.926 120.49 548.002 120.225C548.08 119.955 548.103 119.668 548.072 119.362L549.079 119.041C549.138 119.49 549.121 119.915 549.028 120.314C548.934 120.713 548.776 121.078 548.553 121.409C548.33 121.736 548.052 122.02 547.72 122.26C547.39 122.499 547.016 122.685 546.596 122.819C545.887 123.045 545.201 123.072 544.539 122.901C543.876 122.731 543.285 122.376 542.765 121.838C542.245 121.3 541.845 120.593 541.566 119.716C541.286 118.839 541.203 118.03 541.317 117.29C541.43 116.551 541.708 115.92 542.15 115.397C542.592 114.875 543.167 114.501 543.877 114.275C544.296 114.142 544.709 114.077 545.116 114.082C545.526 114.086 545.917 114.158 546.29 114.299C546.662 114.437 547.001 114.642 547.308 114.913C547.615 115.183 547.874 115.519 548.086 115.923Z" fill="#D9D9D9"/>
</g>
<g filter="url(#filter1_d_9_160)">
<rect x="551.999" y="115" width="44" height="44" rx="5" transform="rotate(14.4762 551.999 115)" fill="url(#paint7_linear_9_160)"/>
<path d="M552.5 121.5L544.682 152.772C544.575 153.2 544.191 153.5 543.75 153.5C543.119 153.5 542.658 152.906 542.818 152.296C545.702 141.274 550.518 120.927 551 119C551.485 117.06 554 115 556.5 115.5L590 124C592.679 124.893 593.763 126.584 593.965 128.36C594.012 128.783 593.946 129.209 593.838 129.621L585.141 162.96C585.058 163.278 584.771 163.5 584.442 163.5C583.967 163.5 583.621 163.052 583.745 162.593C586.646 151.817 592 131.555 592 130C592 128.721 591.148 127.783 590.466 127.288C590.171 127.074 589.829 126.957 589.475 126.869C579.294 124.326 559.252 119.393 556.5 119C553.7 118.6 552.667 120.5 552.5 121.5Z" fill="url(#paint8_linear_9_160)"/>
<path d="M560.516 139.963L559.505 139.655C559.534 139.346 559.507 139.059 559.424 138.793C559.345 138.529 559.221 138.289 559.055 138.075C558.892 137.859 558.694 137.674 558.462 137.52C558.23 137.367 557.975 137.247 557.698 137.163C557.192 137.009 556.696 136.997 556.207 137.128C555.722 137.259 555.283 137.537 554.889 137.96C554.499 138.385 554.193 138.959 553.973 139.682C553.753 140.404 553.687 141.051 553.775 141.621C553.865 142.192 554.075 142.667 554.405 143.047C554.738 143.427 555.157 143.695 555.662 143.849C555.939 143.933 556.217 143.976 556.496 143.978C556.775 143.979 557.041 143.937 557.296 143.852C557.554 143.764 557.791 143.632 558.004 143.457C558.222 143.28 558.404 143.056 558.552 142.786L559.563 143.094C559.357 143.497 559.102 143.837 558.798 144.113C558.494 144.389 558.157 144.599 557.786 144.745C557.416 144.887 557.026 144.963 556.616 144.972C556.21 144.982 555.796 144.923 555.374 144.794C554.662 144.578 554.082 144.211 553.633 143.694C553.185 143.177 552.899 142.55 552.777 141.812C552.654 141.074 552.727 140.264 552.995 139.384C553.263 138.503 553.654 137.791 554.167 137.246C554.68 136.701 555.267 136.34 555.927 136.161C556.588 135.982 557.274 136 557.986 136.217C558.407 136.345 558.784 136.527 559.116 136.762C559.451 136.998 559.732 137.279 559.959 137.607C560.187 137.931 560.35 138.293 560.449 138.691C560.548 139.087 560.571 139.511 560.516 139.963ZM564.901 140.728L564.653 141.544L561.408 140.556L561.656 139.74L564.901 140.728ZM563.059 138.528L564.021 138.821L562.204 144.789C562.121 145.061 562.098 145.277 562.136 145.437C562.177 145.595 562.253 145.716 562.364 145.8C562.478 145.882 562.606 145.945 562.747 145.988C562.853 146.02 562.942 146.041 563.013 146.051C563.085 146.058 563.143 146.064 563.186 146.068L563.119 146.992C563.046 146.997 562.947 146.993 562.823 146.982C562.698 146.974 562.546 146.942 562.366 146.888C562.095 146.805 561.846 146.665 561.621 146.469C561.398 146.274 561.238 146.03 561.139 145.739C561.044 145.448 561.051 145.121 561.162 144.757L563.059 138.528ZM564.442 147.431L566.348 141.169L567.278 141.452L566.99 142.398L567.055 142.418C567.264 142.142 567.547 141.954 567.904 141.852C568.262 141.75 568.628 141.756 569.003 141.87C569.074 141.892 569.162 141.92 569.267 141.955C569.372 141.99 569.451 142.019 569.504 142.041L569.206 143.019C569.176 143.001 569.105 142.966 568.993 142.914C568.885 142.86 568.767 142.814 568.639 142.775C568.334 142.682 568.043 142.663 567.765 142.718C567.491 142.771 567.25 142.888 567.044 143.069C566.841 143.248 566.696 143.478 566.61 143.761L565.404 147.723L564.442 147.431ZM572.217 140.675L569.675 149.024L568.713 148.731L571.255 140.382L572.217 140.675ZM577.681 142.339L578.019 150.121L578.117 150.151L582.736 143.878L583.796 144.201L578.188 151.616L577.144 151.298L576.621 142.016L577.681 142.339Z" fill="#D9D9D9"/>
</g>
<defs>
<filter id="filter0_d_9_160" x="490.53" y="87.0001" width="88.8091" height="88.8091" filterUnits="userSpaceOnUse" color-interpolation-filters="sRGB">
<feFlood flood-opacity="0" result="BackgroundImageFix"/>
<feColorMatrix in="SourceAlpha" type="matrix" values="0 0 0 0 0 0 0 0 0 0 0 0 0 0 0 0 0 0 127 0" result="hardAlpha"/>
<feOffset dy="7.46988"/>
<feGaussianBlur stdDeviation="3.73494"/>
<feComposite in2="hardAlpha" operator="out"/>
<feColorMatrix type="matrix" values="0 0 0 0 0 0 0 0 0 0 0 0 0 0 0 0 0 0 0.25 0"/>
<feBlend mode="normal" in2="BackgroundImageFix" result="effect1_dropShadow_9_160"/>
<feBlend mode="normal" in="SourceGraphic" in2="effect1_dropShadow_9_160" result="shape"/>
</filter>
<filter id="filter1_d_9_160" x="533.53" y="115" width="68.5419" height="68.5419" filterUnits="userSpaceOnUse" color-interpolation-filters="sRGB">
<feFlood flood-opacity="0" result="BackgroundImageFix"/>
<feColorMatrix in="SourceAlpha" type="matrix" values="0 0 0 0 0 0 0 0 0 0 0 0 0 0 0 0 0 0 127 0" result="hardAlpha"/>
<feOffset dy="7.46988"/>
<feGaussianBlur stdDeviation="3.73494"/>
<feComposite in2="hardAlpha" operator="out"/>
<feColorMatrix type="matrix" values="0 0 0 0 0 0 0 0 0 0 0 0 0 0 0 0 0 0 0.25 0"/>
<feBlend mode="normal" in2="BackgroundImageFix" result="effect1_dropShadow_9_160"/>
<feBlend mode="normal" in="SourceGraphic" in2="effect1_dropShadow_9_160" result="shape"/>
</filter>
<linearGradient id="paint0_linear_9_160" x1="270" y1="94.1698" x2="301.935" y2="94.1698" gradientUnits="userSpaceOnUse">
<stop stop-color="#7978F6"/>
<stop offset="0.507385" stop-color="#8079AB"/>
<stop offset="1" stop-color="#D3B2E5"/>
</linearGradient>
<linearGradient id="paint1_linear_9_160" x1="319.353" y1="105.053" x2="404.179" y2="95.2621" gradientUnits="userSpaceOnUse">
<stop stop-color="#BBBFC0"/>
<stop offset="1" stop-color="#7B7C80"/>
</linearGradient>
<linearGradient id="paint2_linear_9_160" x1="237.716" y1="181.23" x2="392.235" y2="170.348" gradientUnits="userSpaceOnUse">
<stop stop-color="#F9F6F6"/>
<stop offset="1" stop-color="#9E9FA5"/>
</linearGradient>
<linearGradient id="paint3_linear_9_160" x1="105.064" y1="358.571" x2="551" y2="358.571" gradientUnits="userSpaceOnUse">
<stop stop-color="#4C497E"/>
<stop offset="0.0885417" stop-color="#9E9DFC"/>
<stop offset="0.233923" stop-color="#9494FE"/>
<stop offset="0.563354" stop-color="#B7AAFA"/>
<stop offset="1" stop-color="#C7BFFA"/>
</linearGradient>
<linearGradient id="paint4_linear_9_160" x1="341.5" y1="278" x2="341.5" y2="320" gradientUnits="userSpaceOnUse">
<stop offset="0.0256434" stop-color="#181822"/>
<stop offset="0.890742" stop-color="#202028"/>
</linearGradient>
<linearGradient id="paint5_linear_9_160" x1="528.818" y1="128.83" x2="544.875" y2="151.021" gradientUnits="userSpaceOnUse">
<stop stop-color="#1C1C28"/>
<stop offset="1" stop-color="#24242E"/>
</linearGradient>
<linearGradient id="paint6_linear_9_160" x1="521.328" y1="101.334" x2="538.551" y2="133.113" gradientUnits="userSpaceOnUse">
<stop stop-color="#50505C"/>
<stop offset="1" stop-color="#50505C" stop-opacity="0"/>
</linearGradient>
<linearGradient id="paint7_linear_9_160" x1="573.491" y1="134.238" x2="589.548" y2="156.429" gradientUnits="userSpaceOnUse">
<stop stop-color="#1C1C28"/>
<stop offset="1" stop-color="#24242E"/>
</linearGradient>
<linearGradient id="paint8_linear_9_160" x1="568.25" y1="115.424" x2="566" y2="151.5" gradientUnits="userSpaceOnUse">
<stop stop-color="#50505C"/>
<stop offset="1" stop-color="#50505C" stop-opacity="0"/>
</linearGradient>
<clipPath id="clip0_9_160">
<rect x="272" y="80" width="26" height="29" rx="6.51056" fill="white"/>
</clipPath>
</defs>
</svg>
