<svg width="171" height="66" viewBox="0 0 171 66" fill="none" xmlns="http://www.w3.org/2000/svg">
<g filter="url(#filter0_d_2_100)">
<path d="M8.38052 9.70324C8.17282 4.40692 12.4103 0 17.7107 0H153.297C158.594 0 162.831 4.40251 162.627 9.69621L161.48 39.5201C161.286 44.556 157.131 48.5295 152.092 48.4984L18.7903 47.6756C13.7982 47.6447 9.71344 43.6927 9.51781 38.7043L8.38052 9.70324Z" fill="#686870"/>
</g>
<g filter="url(#filter1_d_2_100)">
<rect x="9.86743" y="1.86749" width="151.265" height="48.5542" rx="9.33735" fill="#0E0F13"/>
</g>
<path d="M39.624 28.5107C39.7734 30.752 41.6367 32.2109 44.3262 32.2109C47.2441 32.2109 49.0723 30.7607 49.0723 28.4404C49.0723 26.6211 48.0088 25.6104 45.3809 24.9512L44.0537 24.5996C42.3311 24.1514 41.6279 23.5801 41.6279 22.6221C41.6279 21.3828 42.7705 20.5303 44.4141 20.5303C46.0664 20.5303 47.165 21.3652 47.3057 22.7275H48.8877C48.8174 20.6006 46.9893 19.1064 44.4668 19.1064C41.8301 19.1064 39.9844 20.583 39.9844 22.6924C39.9844 24.415 41.0215 25.4434 43.3594 26.041L44.9854 26.4629C46.6904 26.9023 47.4375 27.5615 47.4375 28.6338C47.4375 29.8818 46.1895 30.7871 44.4756 30.7871C42.665 30.7871 41.3643 29.8818 41.2148 28.5107H39.624ZM51.1729 20.6533V22.8594H49.8105V24.1162H51.1729V29.627C51.1729 31.3848 51.8232 32.0703 53.502 32.0703C53.8623 32.0703 54.2842 32.0439 54.4688 32V30.7168C54.3633 30.7344 54.0117 30.7607 53.8359 30.7607C53.0537 30.7607 52.7021 30.3828 52.7021 29.5479V24.1162H54.4775V22.8594H52.7021V20.6533H51.1729ZM58.9512 30.8574C57.8525 30.8574 57.123 30.2861 57.123 29.416C57.123 28.5547 57.8262 28.0098 59.0566 27.9307L61.5 27.7812V28.5283C61.5 29.8467 60.3926 30.8574 58.9512 30.8574ZM58.6084 32.1582C59.8389 32.1582 60.999 31.4727 61.5439 30.4268H61.5791V32H63.0293V25.6807C63.0293 23.8613 61.6758 22.7012 59.5312 22.7012C57.3691 22.7012 56.0156 23.9141 55.9102 25.4961H57.3867C57.5801 24.5996 58.3184 24.0459 59.4961 24.0459C60.7617 24.0459 61.5 24.7139 61.5 25.8301V26.5947L58.8809 26.7441C56.7715 26.8672 55.5674 27.8516 55.5674 29.416C55.5674 31.0596 56.7891 32.1582 58.6084 32.1582ZM64.9717 32H66.501V26.3047C66.501 25.0127 67.2744 24.1602 68.4609 24.1602C68.8301 24.1602 69.1553 24.2041 69.2783 24.248V22.7627C69.1553 22.7451 68.9268 22.7012 68.6631 22.7012C67.5908 22.7012 66.7471 23.3428 66.4482 24.3535H66.4131V22.8594H64.9717V32ZM71.0186 20.6533V22.8594H69.6562V24.1162H71.0186V29.627C71.0186 31.3848 71.6689 32.0703 73.3477 32.0703C73.708 32.0703 74.1299 32.0439 74.3145 32V30.7168C74.209 30.7344 73.8574 30.7607 73.6816 30.7607C72.8994 30.7607 72.5479 30.3828 72.5479 29.5479V24.1162H74.3232V22.8594H72.5479V20.6533H71.0186Z" fill="#6A6B6F"/>
<path d="M93.6074 32.2373C96.6484 32.2373 98.4326 29.6797 98.4326 25.6367C98.4326 21.6201 96.6396 19.0801 93.6074 19.0801C90.584 19.0801 88.7646 21.6289 88.7646 25.6455C88.7646 29.6885 90.5664 32.2373 93.6074 32.2373ZM93.6074 30.585C91.7969 30.585 90.7598 28.7041 90.7598 25.6455C90.7598 22.6309 91.8145 20.7324 93.6074 20.7324C95.4004 20.7324 96.4463 22.6221 96.4463 25.6455C96.4463 28.7129 95.418 30.585 93.6074 30.585ZM103.267 32H105.191V19.3174H103.249L99.9092 21.6904V23.624L103.223 21.2686H103.267V32ZM109.665 30.04C110.307 30.04 110.816 29.5303 110.816 28.8887C110.816 28.2471 110.307 27.7373 109.665 27.7373C109.023 27.7373 108.514 28.2471 108.514 28.8887C108.514 29.5303 109.023 30.04 109.665 30.04ZM109.665 23.6328C110.307 23.6328 110.816 23.1318 110.816 22.4814C110.816 21.8398 110.307 21.3301 109.665 21.3301C109.023 21.3301 108.514 21.8398 108.514 22.4814C108.514 23.1318 109.023 23.6328 109.665 23.6328ZM112.908 23.0352V23.0527H114.771V23.0264C114.771 21.708 115.817 20.7061 117.206 20.7061C118.524 20.7061 119.544 21.6025 119.544 22.7275C119.544 23.7207 119.14 24.3887 117.593 25.9971L113.014 30.6641V32H121.688V30.3389H115.668V30.2949L118.841 27.1045C120.695 25.2061 121.486 24.1074 121.486 22.6309C121.486 20.6182 119.685 19.0801 117.268 19.0801C114.745 19.0801 112.908 20.75 112.908 23.0352ZM128.21 32.2461C130.899 32.2461 132.842 30.4004 132.842 27.8604C132.842 25.4521 131.049 23.668 128.632 23.668C127.05 23.668 125.705 24.4941 125.151 25.7246H125.116C125.125 22.5342 126.285 20.7236 128.28 20.7236C129.44 20.7236 130.39 21.4004 130.697 22.4375H132.666C132.279 20.416 130.539 19.0713 128.298 19.0713C125.125 19.0713 123.227 21.585 123.227 25.8301C123.227 27.3154 123.49 28.5635 124.009 29.5742C124.835 31.2881 126.338 32.2461 128.21 32.2461ZM128.192 30.585C126.681 30.585 125.512 29.3896 125.512 27.8867C125.512 26.3838 126.663 25.2764 128.21 25.2764C129.766 25.2764 130.882 26.3838 130.882 27.9219C130.882 29.4072 129.687 30.585 128.192 30.585ZM135.892 30.04C136.533 30.04 137.043 29.5303 137.043 28.8887C137.043 28.2471 136.533 27.7373 135.892 27.7373C135.25 27.7373 134.74 28.2471 134.74 28.8887C134.74 29.5303 135.25 30.04 135.892 30.04ZM135.892 23.6328C136.533 23.6328 137.043 23.1318 137.043 22.4814C137.043 21.8398 136.533 21.3301 135.892 21.3301C135.25 21.3301 134.74 21.8398 134.74 22.4814C134.74 23.1318 135.25 23.6328 135.892 23.6328ZM143.749 32.2373C146.482 32.2373 148.398 30.4355 148.398 27.834C148.398 25.373 146.649 23.5889 144.215 23.5889C142.976 23.5889 141.938 24.0723 141.385 24.8721H141.341L141.692 20.9785H147.66V19.3174H140.11L139.442 26.4893H141.244C141.736 25.6543 142.686 25.1533 143.784 25.1533C145.366 25.1533 146.474 26.2959 146.474 27.8867C146.474 29.4775 145.366 30.5938 143.767 30.5938C142.352 30.5938 141.271 29.7324 141.13 28.4756H139.249C139.363 30.6904 141.218 32.2373 143.749 32.2373Z" fill="#A0A1A5"/>
<defs>
<filter id="filter0_d_2_100" x="0.903289" y="0" width="169.201" height="63.4384" filterUnits="userSpaceOnUse" color-interpolation-filters="sRGB">
<feFlood flood-opacity="0" result="BackgroundImageFix"/>
<feColorMatrix in="SourceAlpha" type="matrix" values="0 0 0 0 0 0 0 0 0 0 0 0 0 0 0 0 0 0 127 0" result="hardAlpha"/>
<feOffset dy="7.46988"/>
<feGaussianBlur stdDeviation="3.73494"/>
<feComposite in2="hardAlpha" operator="out"/>
<feColorMatrix type="matrix" values="0 0 0 0 0 0 0 0 0 0 0 0 0 0 0 0 0 0 0.25 0"/>
<feBlend mode="normal" in2="BackgroundImageFix" result="effect1_dropShadow_2_100"/>
<feBlend mode="normal" in="SourceGraphic" in2="effect1_dropShadow_2_100" result="shape"/>
</filter>
<filter id="filter1_d_2_100" x="2.39755" y="1.86749" width="166.205" height="63.494" filterUnits="userSpaceOnUse" color-interpolation-filters="sRGB">
<feFlood flood-opacity="0" result="BackgroundImageFix"/>
<feColorMatrix in="SourceAlpha" type="matrix" values="0 0 0 0 0 0 0 0 0 0 0 0 0 0 0 0 0 0 127 0" result="hardAlpha"/>
<feOffset dy="7.46988"/>
<feGaussianBlur stdDeviation="3.73494"/>
<feComposite in2="hardAlpha" operator="out"/>
<feColorMatrix type="matrix" values="0 0 0 0 0 0 0 0 0 0 0 0 0 0 0 0 0 0 0.25 0"/>
<feBlend mode="normal" in2="BackgroundImageFix" result="effect1_dropShadow_2_100"/>
<feBlend mode="normal" in="SourceGraphic" in2="effect1_dropShadow_2_100" result="shape"/>
</filter>
</defs>
</svg>
