<svg width="86" height="63" viewBox="0 0 86 63" fill="none" xmlns="http://www.w3.org/2000/svg">
<g filter="url(#filter0_d_2_124)">
<rect x="10.286" y="0.129608" width="68" height="44" rx="5" transform="rotate(3.21184 10.286 0.129608)" fill="url(#paint0_linear_2_124)"/>
<path d="M13.054 9.04633L11.2146 40.1558C11.1749 40.8273 10.6889 41.3882 10.0299 41.523C9.06513 41.7204 8.1789 40.9412 8.2481 39.9589C9.34049 24.4521 9.87471 8.83197 10.0428 5.93983C10.2128 3.01588 13.3774 0.288349 17.3238 0.225426L70.6765 2.95304C75.1351 3.4089 77.3214 4.75353 78.1007 7.18595C78.2409 7.62364 78.2579 8.08907 78.2241 8.54743L75.5292 45.1428C75.4925 45.6413 75.129 46.0547 74.6393 46.1549C73.9119 46.3038 73.2444 45.7146 73.3023 44.9743C74.5218 29.387 76.0367 11.1257 75.5832 8.90942C75.1795 6.93623 73.3411 6.58275 72.1308 6.35005L72.1217 6.34829C71.78 6.28258 71.4452 6.23757 71.0974 6.22707C54.9834 5.74043 22.7302 3.93323 18.4033 4.22923C14.0301 4.52839 13.0149 7.56528 13.054 9.04633Z" fill="url(#paint1_linear_2_124)"/>
<path d="M30.7541 20.9341L30.8126 20.9374L32.2807 27.4048L33.5151 27.474L36.2704 19.1603L34.9073 19.0838L32.9743 25.6068L32.9275 25.6042L31.5083 18.8931L30.2915 18.8248L28.1362 25.3353L28.0894 25.3327L26.8984 18.6344L25.5353 18.5579L27.3373 27.1274L28.5775 27.197L30.7541 20.9341ZM42.2604 26.8263L38.2121 26.5991L38.3592 23.9782L42.191 24.1933L42.2521 23.1051L38.4202 22.8901L38.5588 20.4213L42.6071 20.6485L42.6705 19.5194L37.3117 19.2187L36.838 27.6605L42.1967 27.9612L42.2604 26.8263ZM46.9295 28.2268C48.7255 28.3276 49.8584 27.4874 49.9417 26.0015C50.0048 24.8782 49.2782 24.0217 48.1388 23.8287L48.1414 23.7819C48.9917 23.6887 49.6978 22.9244 49.748 22.0293C49.8195 20.7539 48.8833 19.8681 47.3857 19.784L44.016 19.5949L43.5423 28.0367L46.9295 28.2268ZM45.2664 20.7391L47.0097 20.8369C47.9574 20.8901 48.4714 21.3532 48.4274 22.1371C48.3804 22.9737 47.7282 23.4066 46.5933 23.3429L45.1249 23.2605L45.2664 20.7391ZM44.9128 27.0397L45.0687 24.2609L46.8004 24.358C48.0406 24.4276 48.6579 24.9318 48.6067 25.8444C48.5554 26.757 47.9022 27.2074 46.7205 27.1411L44.9128 27.0397ZM59.4781 28.931L59.9519 20.4892L58.4308 20.4038L55.3307 26.9142L55.2839 26.9116L52.9258 20.0949L51.4106 20.0099L50.9369 28.4517L52.1303 28.5187L52.479 22.3058L52.5199 22.3081L54.7256 28.5997L55.6967 28.6542L58.5865 22.6485L58.6275 22.6508L58.2789 28.8637L59.4781 28.931Z" fill="#B4B5B9"/>
</g>
<defs>
<filter id="filter0_d_2_124" x="0.350921" y="0.129608" width="85.3579" height="62.6805" filterUnits="userSpaceOnUse" color-interpolation-filters="sRGB">
<feFlood flood-opacity="0" result="BackgroundImageFix"/>
<feColorMatrix in="SourceAlpha" type="matrix" values="0 0 0 0 0 0 0 0 0 0 0 0 0 0 0 0 0 0 127 0" result="hardAlpha"/>
<feOffset dy="7.46988"/>
<feGaussianBlur stdDeviation="3.73494"/>
<feComposite in2="hardAlpha" operator="out"/>
<feColorMatrix type="matrix" values="0 0 0 0 0 0 0 0 0 0 0 0 0 0 0 0 0 0 0.25 0"/>
<feBlend mode="normal" in2="BackgroundImageFix" result="effect1_dropShadow_2_124"/>
<feBlend mode="normal" in="SourceGraphic" in2="effect1_dropShadow_2_124" result="shape"/>
</filter>
<linearGradient id="paint0_linear_2_124" x1="43.5016" y1="19.3677" x2="56.4851" y2="47.0981" gradientUnits="userSpaceOnUse">
<stop stop-color="#1C1C28"/>
<stop offset="1" stop-color="#24242E"/>
</linearGradient>
<linearGradient id="paint1_linear_2_124" x1="35.2187" y1="-4.53605" x2="42.7481" y2="47.6662" gradientUnits="userSpaceOnUse">
<stop stop-color="#50505C"/>
<stop offset="1" stop-color="#50505C" stop-opacity="0"/>
</linearGradient>
</defs>
</svg>
