<svg width="532" height="343" viewBox="0 0 532 343" fill="none" xmlns="http://www.w3.org/2000/svg">
<rect x="0.194444" y="0.194444" width="531.611" height="342.611" fill="#0D0D15" fill-opacity="0.6" stroke="#D9D9D9" stroke-width="0.388889"/>
<line x1="-0.000244141" y1="37.5277" x2="532" y2="37.5277" stroke="#D9D9D9" stroke-width="0.388889"/>
<path d="M145.7 15.7612V17.2743H144.77V18.3133H145.7V21.9835C145.7 23.217 146.204 23.7092 147.498 23.7092C147.79 23.7092 148.082 23.6849 148.228 23.6484V22.6093C148.142 22.6276 147.93 22.6397 147.796 22.6397C147.261 22.6397 147.018 22.3906 147.018 21.8376V18.3133H148.234V17.2743H147.018V15.7612H145.7ZM154.796 17.2743H153.484V20.9991C153.484 21.9956 152.912 22.6519 151.964 22.6519C151.059 22.6519 150.597 22.1293 150.597 21.1571V17.2743H149.285V21.4123C149.285 22.8767 150.135 23.7821 151.527 23.7821C152.505 23.7821 153.155 23.3507 153.508 22.585H153.538V23.6666H154.796V17.2743ZM159.499 23.776C161.122 23.776 162.167 22.5 162.167 20.4704C162.167 18.447 161.116 17.171 159.505 17.171C158.6 17.171 157.871 17.6206 157.488 18.3619H157.458V14.8984H156.145V23.6666H157.421V22.579H157.445C157.84 23.3203 158.563 23.776 159.499 23.776ZM159.147 18.2769C160.18 18.2769 160.818 19.1276 160.818 20.4704C160.818 21.8255 160.18 22.664 159.147 22.664C158.15 22.664 157.451 21.8012 157.451 20.4704C157.451 19.1519 158.15 18.2769 159.147 18.2769ZM165.867 18.2161C166.785 18.2161 167.405 18.9027 167.435 19.881H164.239C164.306 18.9149 164.95 18.2161 165.867 18.2161ZM167.429 21.789C167.253 22.348 166.7 22.7248 165.952 22.7248C164.901 22.7248 164.233 21.9895 164.233 20.8776V20.7986H168.747V20.3489C168.747 18.4105 167.642 17.1588 165.867 17.1588C164.063 17.1588 162.908 18.4956 162.908 20.5008C162.908 22.5182 164.044 23.7882 165.922 23.7882C167.386 23.7882 168.492 22.9557 168.675 21.789H167.429ZM175.255 19.4739C175.14 18.2161 174.137 17.1588 172.491 17.1588C170.674 17.1588 169.483 18.4409 169.483 20.4704C169.483 22.5364 170.674 23.7882 172.503 23.7882C174.04 23.7882 175.128 22.8645 175.267 21.5034H174.004C173.852 22.2448 173.323 22.6883 172.515 22.6883C171.494 22.6883 170.82 21.8741 170.82 20.4704C170.82 19.0972 171.488 18.2526 172.503 18.2526C173.359 18.2526 173.87 18.7934 174.004 19.4739H175.255ZM181.678 17.2743H180.366V20.9991C180.366 21.9956 179.794 22.6519 178.846 22.6519C177.941 22.6519 177.479 22.1293 177.479 21.1571V17.2743H176.167V21.4123C176.167 22.8767 177.017 23.7821 178.409 23.7821C179.387 23.7821 180.037 23.3507 180.39 22.585H180.42V23.6666H181.678V17.2743ZM183.361 15.7612V17.2743H182.432V18.3133H183.361V21.9835C183.361 23.217 183.866 23.7092 185.16 23.7092C185.451 23.7092 185.743 23.6849 185.889 23.6484V22.6093C185.804 22.6276 185.591 22.6397 185.458 22.6397C184.923 22.6397 184.68 22.3906 184.68 21.8376V18.3133H185.895V17.2743H184.68V15.7612H183.361ZM193.545 20.7013V19.5165H189.559V20.7013H193.545ZM201.122 23.6666V16.0711H203.802V14.8984H197.076V16.0711H199.761V23.6666H201.122ZM203.565 23.6666H204.878V19.8385C204.878 18.9331 205.4 18.368 206.245 18.368C206.5 18.368 206.731 18.3984 206.834 18.4409V17.2196C206.737 17.2013 206.573 17.171 206.385 17.171C205.631 17.171 205.06 17.6145 204.847 18.3619H204.817V17.2743H203.565V23.6666ZM207.691 23.6666H209.004V17.2743H207.691V23.6666ZM208.347 16.3385C208.773 16.3385 209.113 16.0043 209.113 15.5911C209.113 15.1718 208.773 14.8376 208.347 14.8376C207.928 14.8376 207.588 15.1718 207.588 15.5911C207.588 16.0043 207.928 16.3385 208.347 16.3385ZM210.346 23.6666H211.659V19.717C211.659 18.8967 212.212 18.289 212.99 18.289C213.731 18.289 214.199 18.7569 214.199 19.4921V23.6666H215.487V19.6744C215.487 18.8663 216.028 18.289 216.806 18.289C217.583 18.289 218.027 18.763 218.027 19.5894V23.6666H219.346V19.2734C219.346 18.0034 218.519 17.1649 217.255 17.1649C216.344 17.1649 215.59 17.6388 215.262 18.4166H215.232C214.977 17.6206 214.333 17.1649 213.445 17.1649C212.583 17.1649 211.914 17.6388 211.629 18.3498H211.598V17.2743H210.346V23.6666ZM225.379 22.7369C224.675 22.7369 224.213 22.3724 224.213 21.8133C224.213 21.2665 224.656 20.9201 225.44 20.8654L227.014 20.7682V21.2725C227.014 22.105 226.297 22.7369 225.379 22.7369ZM225.015 23.776C225.853 23.776 226.662 23.3263 227.032 22.6154H227.063V23.6666H228.32V19.2612C228.32 17.9791 227.33 17.1588 225.78 17.1588C224.201 17.1588 223.216 18.0095 223.143 19.164H224.383C224.498 18.5928 224.972 18.2283 225.732 18.2283C226.534 18.2283 227.014 18.6536 227.014 19.3645V19.8567L225.264 19.96C223.745 20.0451 222.888 20.7317 222.888 21.8498C222.888 22.9982 223.763 23.776 225.015 23.776ZM229.596 23.6666H230.909V19.9418C230.909 18.9513 231.504 18.2951 232.428 18.2951C233.339 18.2951 233.789 18.8237 233.789 19.7838V23.6666H235.108V19.5286C235.108 18.0642 234.3 17.1649 232.89 17.1649C231.905 17.1649 231.225 17.6145 230.879 18.3437H230.848V17.2743H229.596V23.6666ZM238.778 23.776C239.708 23.776 240.437 23.3081 240.813 22.579H240.838V23.6666H242.114V14.8984H240.795V18.3376H240.771C240.412 17.6328 239.683 17.171 238.766 17.171C237.162 17.171 236.092 18.4531 236.092 20.4704C236.092 22.4878 237.162 23.776 238.778 23.776ZM239.124 18.2769C240.133 18.2769 240.807 19.1458 240.807 20.4704C240.807 21.8073 240.133 22.664 239.124 22.664C238.085 22.664 237.435 21.8194 237.435 20.4704C237.435 19.1276 238.085 18.2769 239.124 18.2769ZM246.149 14.8984V23.6666H249.241C251.854 23.6666 253.392 22.0382 253.392 19.2673C253.392 16.5026 251.848 14.8984 249.241 14.8984H246.149ZM247.51 16.0711H249.114C250.967 16.0711 252 17.2135 252 19.2795C252 21.3515 250.973 22.4878 249.114 22.4878H247.51V16.0711ZM257.28 23.7882C259.109 23.7882 260.313 22.5303 260.313 20.4704C260.313 18.4166 259.103 17.1588 257.28 17.1588C255.458 17.1588 254.248 18.4166 254.248 20.4704C254.248 22.5303 255.451 23.7882 257.28 23.7882ZM257.28 22.7066C256.254 22.7066 255.585 21.8923 255.585 20.4704C255.585 19.0546 256.254 18.2404 257.28 18.2404C258.307 18.2404 258.976 19.0546 258.976 20.4704C258.976 21.8923 258.313 22.7066 257.28 22.7066ZM269.737 17.2743H268.437L267.27 22.3055H267.24L265.903 17.2743H264.639L263.308 22.3055H263.284L262.117 17.2743H260.805L262.561 23.6666H263.916L265.247 18.8784H265.277L266.62 23.6666H267.987L269.737 17.2743ZM270.539 23.6666H271.852V19.9418C271.852 18.9513 272.447 18.2951 273.371 18.2951C274.282 18.2951 274.732 18.8237 274.732 19.7838V23.6666H276.05V19.5286C276.05 18.0642 275.242 17.1649 273.833 17.1649C272.848 17.1649 272.168 17.6145 271.821 18.3437H271.791V17.2743H270.539V23.6666ZM277.369 23.6666H278.682V14.8984H277.369V23.6666ZM282.777 23.7882C284.606 23.7882 285.809 22.5303 285.809 20.4704C285.809 18.4166 284.6 17.1588 282.777 17.1588C280.954 17.1588 279.745 18.4166 279.745 20.4704C279.745 22.5303 280.948 23.7882 282.777 23.7882ZM282.777 22.7066C281.75 22.7066 281.082 21.8923 281.082 20.4704C281.082 19.0546 281.75 18.2404 282.777 18.2404C283.804 18.2404 284.472 19.0546 284.472 20.4704C284.472 21.8923 283.81 22.7066 282.777 22.7066ZM289.06 22.7369C288.355 22.7369 287.893 22.3724 287.893 21.8133C287.893 21.2665 288.337 20.9201 289.121 20.8654L290.695 20.7682V21.2725C290.695 22.105 289.978 22.7369 289.06 22.7369ZM288.695 23.776C289.534 23.776 290.342 23.3263 290.713 22.6154H290.743V23.6666H292.001V19.2612C292.001 17.9791 291.01 17.1588 289.461 17.1588C287.881 17.1588 286.897 18.0095 286.824 19.164H288.063C288.179 18.5928 288.653 18.2283 289.412 18.2283C290.214 18.2283 290.695 18.6536 290.695 19.3645V19.8567L288.945 19.96C287.425 20.0451 286.569 20.7317 286.569 21.8498C286.569 22.9982 287.444 23.776 288.695 23.776ZM295.677 23.776C296.607 23.776 297.336 23.3081 297.713 22.579H297.737V23.6666H299.013V14.8984H297.695V18.3376H297.67C297.312 17.6328 296.583 17.171 295.665 17.171C294.061 17.171 292.991 18.4531 292.991 20.4704C292.991 22.4878 294.061 23.776 295.677 23.776ZM296.024 18.2769C297.032 18.2769 297.707 19.1458 297.707 20.4704C297.707 21.8073 297.032 22.664 296.024 22.664C294.984 22.664 294.334 21.8194 294.334 20.4704C294.334 19.1276 294.984 18.2769 296.024 18.2769ZM306.846 23.6666V20.0755L309.938 14.8984H308.432L306.195 18.7691H306.153L303.917 14.8984H302.398L305.484 20.0755V23.6666H306.846ZM312.272 23.7882C314.101 23.7882 315.304 22.5303 315.304 20.4704C315.304 18.4166 314.095 17.1588 312.272 17.1588C310.449 17.1588 309.24 18.4166 309.24 20.4704C309.24 22.5303 310.443 23.7882 312.272 23.7882ZM312.272 22.7066C311.245 22.7066 310.576 21.8923 310.576 20.4704C310.576 19.0546 311.245 18.2404 312.272 18.2404C313.299 18.2404 313.967 19.0546 313.967 20.4704C313.967 21.8923 313.305 22.7066 312.272 22.7066ZM321.8 17.2743H320.487V20.9991C320.487 21.9956 319.916 22.6519 318.968 22.6519C318.063 22.6519 317.601 22.1293 317.601 21.1571V17.2743H316.288V21.4123C316.288 22.8767 317.139 23.7821 318.53 23.7821C319.509 23.7821 320.159 23.3507 320.511 22.585H320.542V23.6666H321.8V17.2743ZM323.483 15.7612V17.2743H322.553V18.3133H323.483V21.9835C323.483 23.217 323.987 23.7092 325.281 23.7092C325.573 23.7092 325.865 23.6849 326.011 23.6484V22.6093C325.925 22.6276 325.713 22.6397 325.579 22.6397C325.044 22.6397 324.801 22.3906 324.801 21.8376V18.3133H326.017V17.2743H324.801V15.7612H323.483ZM332.579 17.2743H331.267V20.9991C331.267 21.9956 330.695 22.6519 329.747 22.6519C328.842 22.6519 328.38 22.1293 328.38 21.1571V17.2743H327.068V21.4123C327.068 22.8767 327.918 23.7821 329.31 23.7821C330.288 23.7821 330.938 23.3507 331.291 22.585H331.321V23.6666H332.579V17.2743ZM337.282 23.776C338.905 23.776 339.95 22.5 339.95 20.4704C339.95 18.447 338.899 17.171 337.288 17.171C336.383 17.171 335.654 17.6206 335.271 18.3619H335.241V14.8984H333.928V23.6666H335.204V22.579H335.228C335.623 23.3203 336.346 23.776 337.282 23.776ZM336.93 18.2769C337.963 18.2769 338.601 19.1276 338.601 20.4704C338.601 21.8255 337.963 22.664 336.93 22.664C335.933 22.664 335.234 21.8012 335.234 20.4704C335.234 19.1519 335.933 18.2769 336.93 18.2769ZM343.65 18.2161C344.568 18.2161 345.188 18.9027 345.218 19.881H342.022C342.089 18.9149 342.733 18.2161 343.65 18.2161ZM345.212 21.789C345.036 22.348 344.483 22.7248 343.735 22.7248C342.684 22.7248 342.016 21.9895 342.016 20.8776V20.7986H346.53V20.3489C346.53 18.4105 345.425 17.1588 343.65 17.1588C341.846 17.1588 340.691 18.4956 340.691 20.5008C340.691 22.5182 341.827 23.7882 343.705 23.7882C345.169 23.7882 346.275 22.9557 346.458 21.789H345.212ZM354.205 23.6666L357.334 14.8984H355.882L353.488 22.1354H353.451L351.063 14.8984H349.587L352.716 23.6666H354.205ZM358.033 23.6666H359.346V17.2743H358.033V23.6666ZM358.689 16.3385C359.115 16.3385 359.455 16.0043 359.455 15.5911C359.455 15.1718 359.115 14.8376 358.689 14.8376C358.27 14.8376 357.93 15.1718 357.93 15.5911C357.93 16.0043 358.27 16.3385 358.689 16.3385ZM363.089 23.776C364.018 23.776 364.747 23.3081 365.124 22.579H365.149V23.6666H366.425V14.8984H365.106V18.3376H365.082C364.723 17.6328 363.994 17.171 363.076 17.171C361.472 17.171 360.403 18.4531 360.403 20.4704C360.403 22.4878 361.472 23.776 363.089 23.776ZM363.435 18.2769C364.444 18.2769 365.118 19.1458 365.118 20.4704C365.118 21.8073 364.444 22.664 363.435 22.664C362.396 22.664 361.746 21.8194 361.746 20.4704C361.746 19.1276 362.396 18.2769 363.435 18.2769ZM370.447 18.2161C371.365 18.2161 371.984 18.9027 372.015 19.881H368.819C368.886 18.9149 369.53 18.2161 370.447 18.2161ZM372.009 21.789C371.833 22.348 371.28 22.7248 370.532 22.7248C369.481 22.7248 368.813 21.9895 368.813 20.8776V20.7986H373.327V20.3489C373.327 18.4105 372.221 17.1588 370.447 17.1588C368.642 17.1588 367.488 18.4956 367.488 20.5008C367.488 22.5182 368.624 23.7882 370.502 23.7882C371.966 23.7882 373.072 22.9557 373.254 21.789H372.009ZM377.095 23.7882C378.924 23.7882 380.127 22.5303 380.127 20.4704C380.127 18.4166 378.918 17.1588 377.095 17.1588C375.272 17.1588 374.063 18.4166 374.063 20.4704C374.063 22.5303 375.266 23.7882 377.095 23.7882ZM377.095 22.7066C376.068 22.7066 375.399 21.8923 375.399 20.4704C375.399 19.0546 376.068 18.2404 377.095 18.2404C378.122 18.2404 378.79 19.0546 378.79 20.4704C378.79 21.8923 378.128 22.7066 377.095 22.7066ZM381.026 19.085C381.026 19.9783 381.609 20.5798 382.764 20.8593L383.906 21.1388C384.575 21.309 384.818 21.5338 384.818 21.9409C384.818 22.4574 384.332 22.7855 383.542 22.7855C382.74 22.7855 382.266 22.4453 382.162 21.8316H380.862C380.965 23.0043 381.968 23.7882 383.481 23.7882C385.049 23.7882 386.136 22.9861 386.136 21.8194C386.136 20.8776 385.65 20.3915 384.362 20.0816L383.287 19.8324C382.624 19.6684 382.308 19.401 382.308 19.006C382.308 18.5017 382.782 18.1553 383.493 18.1553C384.228 18.1553 384.696 18.5138 384.757 19.0911H385.991C385.948 17.9548 384.951 17.1588 383.53 17.1588C382.035 17.1588 381.026 17.9427 381.026 19.085Z" fill="#50505C"/>
<path d="M106.889 59H104.096V49.9495H107.013C107.891 49.9495 108.642 50.1307 109.266 50.4931C109.891 50.8525 110.37 51.3695 110.703 52.0442C111.036 52.7159 111.202 53.5202 111.202 54.4571C111.202 55.3998 111.034 56.2115 110.698 56.892C110.362 57.5697 109.873 58.0911 109.231 58.4564C108.589 58.8188 107.808 59 106.889 59ZM105.192 58.0278H106.818C107.566 58.0278 108.187 57.8834 108.679 57.5947C109.171 57.306 109.537 56.895 109.779 56.3617C110.021 55.8285 110.141 55.1936 110.141 54.4571C110.141 53.7264 110.022 53.0974 109.783 52.5701C109.545 52.0398 109.188 51.6332 108.714 51.3504C108.24 51.0646 107.649 50.9217 106.942 50.9217H105.192V58.0278ZM115.657 59.1414C115.044 59.1414 114.506 58.9956 114.044 58.7039C113.584 58.4122 113.225 58.0042 112.965 57.4798C112.709 56.9554 112.581 56.3426 112.581 55.6414C112.581 54.9343 112.709 54.3171 112.965 53.7898C113.225 53.2624 113.584 52.8529 114.044 52.5612C114.506 52.2696 115.044 52.1237 115.657 52.1237C116.269 52.1237 116.806 52.2696 117.265 52.5612C117.728 52.8529 118.087 53.2624 118.343 53.7898C118.603 54.3171 118.732 54.9343 118.732 55.6414C118.732 56.3426 118.603 56.9554 118.343 57.4798C118.087 58.0042 117.728 58.4122 117.265 58.7039C116.806 58.9956 116.269 59.1414 115.657 59.1414ZM115.657 58.2045C116.122 58.2045 116.505 58.0852 116.806 57.8466C117.106 57.608 117.328 57.2942 117.473 56.9053C117.617 56.5164 117.689 56.0951 117.689 55.6414C117.689 55.1877 117.617 54.7649 117.473 54.3731C117.328 53.9813 117.106 53.6646 116.806 53.423C116.505 53.1814 116.122 53.0606 115.657 53.0606C115.191 53.0606 114.808 53.1814 114.508 53.423C114.207 53.6646 113.985 53.9813 113.84 54.3731C113.696 54.7649 113.624 55.1877 113.624 55.6414C113.624 56.0951 113.696 56.5164 113.84 56.9053C113.985 57.2942 114.207 57.608 114.508 57.8466C114.808 58.0852 115.191 58.2045 115.657 58.2045ZM121.631 59L119.563 52.2121H120.659L122.126 57.4091H122.197L123.646 52.2121H124.76L126.192 57.3914H126.263L127.73 52.2121H128.826L126.758 59H125.732L124.247 53.7854H124.141L122.657 59H121.631ZM131.247 54.9167V59H130.205V52.2121H131.212V53.2727H131.301C131.46 52.928 131.701 52.6511 132.025 52.4419C132.349 52.2298 132.768 52.1237 133.28 52.1237C133.74 52.1237 134.142 52.218 134.487 52.4066C134.831 52.5922 135.1 52.875 135.291 53.2551C135.483 53.6322 135.578 54.1094 135.578 54.6869V59H134.535V54.7576C134.535 54.2243 134.397 53.8089 134.12 53.5114C133.843 53.2109 133.463 53.0606 132.98 53.0606C132.647 53.0606 132.349 53.1328 132.087 53.2771C131.828 53.4215 131.623 53.6322 131.473 53.9091C131.323 54.186 131.247 54.5219 131.247 54.9167ZM138.527 49.9495V59H137.484V49.9495H138.527ZM143.195 59.1414C142.582 59.1414 142.044 58.9956 141.582 58.7039C141.122 58.4122 140.763 58.0042 140.503 57.4798C140.247 56.9554 140.119 56.3426 140.119 55.6414C140.119 54.9343 140.247 54.3171 140.503 53.7898C140.763 53.2624 141.122 52.8529 141.582 52.5612C142.044 52.2696 142.582 52.1237 143.195 52.1237C143.808 52.1237 144.344 52.2696 144.803 52.5612C145.266 52.8529 145.625 53.2624 145.882 53.7898C146.141 54.3171 146.271 54.9343 146.271 55.6414C146.271 56.3426 146.141 56.9554 145.882 57.4798C145.625 58.0042 145.266 58.4122 144.803 58.7039C144.344 58.9956 143.808 59.1414 143.195 59.1414ZM143.195 58.2045C143.66 58.2045 144.043 58.0852 144.344 57.8466C144.644 57.608 144.867 57.2942 145.011 56.9053C145.155 56.5164 145.228 56.0951 145.228 55.6414C145.228 55.1877 145.155 54.7649 145.011 54.3731C144.867 53.9813 144.644 53.6646 144.344 53.423C144.043 53.1814 143.66 53.0606 143.195 53.0606C142.729 53.0606 142.346 53.1814 142.046 53.423C141.745 53.6646 141.523 53.9813 141.378 54.3731C141.234 54.7649 141.162 55.1877 141.162 55.6414C141.162 56.0951 141.234 56.5164 141.378 56.9053C141.523 57.2942 141.745 57.608 142.046 57.8466C142.346 58.0852 142.729 58.2045 143.195 58.2045ZM149.86 59.1591C149.43 59.1591 149.04 59.0781 148.689 58.916C148.338 58.7511 148.06 58.5139 147.854 58.2045C147.647 57.8923 147.544 57.5152 147.544 57.0732C147.544 56.6843 147.621 56.3691 147.774 56.1275C147.927 55.883 148.132 55.6915 148.388 55.553C148.645 55.4146 148.928 55.3114 149.237 55.2437C149.549 55.173 149.863 55.117 150.178 55.0758C150.591 55.0227 150.925 54.983 151.181 54.9564C151.441 54.927 151.629 54.8784 151.747 54.8106C151.868 54.7428 151.928 54.625 151.928 54.4571V54.4217C151.928 53.9857 151.809 53.6469 151.57 53.4053C151.335 53.1637 150.977 53.0429 150.496 53.0429C149.998 53.0429 149.608 53.1519 149.325 53.3699C149.042 53.588 148.844 53.8207 148.729 54.0682L147.739 53.7146C147.916 53.3022 148.151 52.9811 148.446 52.7513C148.743 52.5185 149.067 52.3565 149.418 52.2652C149.772 52.1709 150.119 52.1237 150.461 52.1237C150.679 52.1237 150.929 52.1503 151.212 52.2033C151.498 52.2534 151.774 52.358 152.039 52.517C152.307 52.6761 152.529 52.9162 152.706 53.2374C152.883 53.5585 152.971 53.9886 152.971 54.5278V59H151.928V58.0808H151.875C151.804 58.2281 151.687 58.3857 151.522 58.5537C151.357 58.7216 151.137 58.8645 150.863 58.9823C150.589 59.1002 150.255 59.1591 149.86 59.1591ZM150.019 58.2222C150.432 58.2222 150.779 58.1412 151.062 57.9792C151.348 57.8171 151.563 57.608 151.707 57.3516C151.855 57.0953 151.928 56.8258 151.928 56.5429V55.5884C151.884 55.6414 151.787 55.69 151.637 55.7342C151.489 55.7755 151.318 55.8123 151.124 55.8447C150.932 55.8742 150.745 55.9007 150.563 55.9242C150.383 55.9449 150.237 55.9625 150.125 55.9773C149.854 56.0126 149.601 56.0701 149.365 56.1496C149.132 56.2262 148.944 56.3426 148.799 56.4987C148.658 56.6519 148.587 56.8611 148.587 57.1263C148.587 57.4886 148.721 57.7626 148.989 57.9482C149.26 58.1309 149.604 58.2222 150.019 58.2222ZM157.438 59.1414C156.872 59.1414 156.373 58.9985 155.94 58.7128C155.507 58.424 155.168 58.0175 154.923 57.4931C154.679 56.9657 154.557 56.3426 154.557 55.6237C154.557 54.9108 154.679 54.2921 154.923 53.7677C155.168 53.2433 155.508 52.8382 155.944 52.5524C156.38 52.2666 156.884 52.1237 157.455 52.1237C157.897 52.1237 158.247 52.1974 158.503 52.3447C158.762 52.4891 158.959 52.654 159.095 52.8396C159.233 53.0223 159.341 53.1726 159.418 53.2904H159.506V49.9495H160.549V59H159.541V57.9571H159.418C159.341 58.0808 159.232 58.237 159.091 58.4255C158.949 58.6111 158.747 58.7776 158.485 58.9249C158.223 59.0692 157.874 59.1414 157.438 59.1414ZM157.579 58.2045C157.998 58.2045 158.351 58.0955 158.64 57.8775C158.929 57.6566 159.148 57.3516 159.298 56.9628C159.449 56.5709 159.524 56.1187 159.524 55.6061C159.524 55.0993 159.45 54.6559 159.303 54.2759C159.155 53.8929 158.937 53.5953 158.649 53.3832C158.36 53.1681 158.003 53.0606 157.579 53.0606C157.137 53.0606 156.769 53.174 156.474 53.4009C156.183 53.6248 155.963 53.9297 155.816 54.3157C155.672 54.6987 155.599 55.1288 155.599 55.6061C155.599 56.0892 155.673 56.5282 155.82 56.923C155.971 57.3148 156.192 57.6271 156.483 57.8598C156.778 58.0896 157.143 58.2045 157.579 58.2045Z" fill="#50505C"/>
<path d="M21.3264 59C23.1918 59 24.316 58.0642 24.316 56.5208C24.316 55.3542 23.5139 54.5095 22.3229 54.3759V54.3273C23.1979 54.1814 23.8845 53.349 23.8845 52.4193C23.8845 51.0946 22.8637 50.2318 21.3082 50.2318H17.8082V59H21.3264ZM19.1693 51.3437H20.98C21.9644 51.3437 22.5234 51.7934 22.5234 52.6076C22.5234 53.4766 21.8733 53.9627 20.6944 53.9627H19.1693V51.3437ZM19.1693 57.888V55.0017H20.9679C22.2561 55.0017 22.9245 55.4878 22.9245 56.4358C22.9245 57.3837 22.2743 57.888 21.0469 57.888H19.1693ZM27.5668 58.0703C26.862 58.0703 26.4002 57.7057 26.4002 57.1467C26.4002 56.5998 26.8438 56.2535 27.6276 56.1988L29.2014 56.1016V56.6059C29.2014 57.4384 28.4844 58.0703 27.5668 58.0703ZM27.2023 59.1094C28.0408 59.1094 28.849 58.6597 29.2196 57.9488H29.25V59H30.5078V54.5946C30.5078 53.3125 29.5174 52.4922 27.9679 52.4922C26.388 52.4922 25.4036 53.3429 25.3307 54.4974H26.5703C26.6858 53.9262 27.1597 53.5616 27.9193 53.5616C28.7214 53.5616 29.2014 53.987 29.2014 54.6979V55.1901L27.4514 55.2934C25.9323 55.3785 25.0755 56.0651 25.0755 57.1832C25.0755 58.3316 25.9505 59.1094 27.2023 59.1094ZM37.2708 54.8073C37.1554 53.5495 36.1528 52.4922 34.5061 52.4922C32.6892 52.4922 31.4983 53.7743 31.4983 55.8038C31.4983 57.8698 32.6892 59.1215 34.5182 59.1215C36.0556 59.1215 37.1432 58.1979 37.283 56.8368H36.0191C35.8672 57.5781 35.3385 58.0217 34.5304 58.0217C33.5095 58.0217 32.8351 57.2075 32.8351 55.8038C32.8351 54.4306 33.5035 53.5859 34.5182 53.5859C35.375 53.5859 35.8854 54.1267 36.0191 54.8073H37.2708ZM39.5859 55.3481H39.5738V50.2318H38.2613V59H39.5738V56.7031L40.1207 56.1623L42.2899 59H43.8151L41.0625 55.3602L43.7118 52.6076H42.1684L39.5859 55.3481Z" fill="#50505C"/>
<circle cx="21.7778" cy="19.4445" r="4.66667" fill="#F6615A"/>
<circle cx="36.5556" cy="19.4445" r="4.66667" fill="#F6BC45"/>
<circle cx="51.3333" cy="19.4445" r="4.66667" fill="#2EC641"/>
<rect x="103" y="287.889" width="325.889" height="32.6667" rx="7.77778" fill="url(#paint0_linear_9_119)"/>
<rect x="104" y="79" width="212" height="29" rx="9" fill="#0D0E12" stroke="#17181C" stroke-width="2"/>
<path d="M115.795 97H117.078V88.5449H115.783L113.557 90.127V91.416L115.766 89.8457H115.795V97ZM123.16 97H124.42V95.3301H125.58V94.2285H124.42V88.5449H122.521C120.617 91.2988 119.656 92.8164 118.93 94.1816V95.3301H123.16V97ZM120.154 94.2168C120.828 92.9922 121.684 91.6738 123.148 89.5586H123.172V94.2461H120.154V94.2168ZM130.613 97H131.873V95.3301H133.033V94.2285H131.873V88.5449H129.975C128.07 91.2988 127.109 92.8164 126.383 94.1816V95.3301H130.613V97ZM127.607 94.2168C128.281 92.9922 129.137 91.6738 130.602 89.5586H130.625V94.2461H127.607V94.2168ZM137.229 90.7363C136.338 90.7363 135.629 91.1875 135.266 91.8965H135.242V90.8359H134.018V99.0391H135.283V95.9863H135.312C135.664 96.6719 136.367 97.1055 137.252 97.1055C138.799 97.1055 139.824 95.8691 139.824 93.918C139.824 91.9668 138.793 90.7363 137.229 90.7363ZM136.895 96.0332C135.922 96.0332 135.277 95.2012 135.277 93.918C135.277 92.6465 135.928 91.8027 136.895 91.8027C137.896 91.8027 138.523 92.6289 138.523 93.918C138.523 95.2129 137.896 96.0332 136.895 96.0332Z" fill="#D9D9D9"/>
<path d="M143.82 88.5449V98.7988H146.363V98.0078H144.805V89.3418H146.363V88.5449H143.82ZM149.322 97H150.342V88.5449H149.311L147.061 90.1621V91.2754L149.299 89.6641H149.322V97ZM152.973 97H154.08L157.842 89.5234V88.5449H152.246V89.4824H156.799V89.5059L152.973 97ZM161.99 97.1465C163.725 97.1465 164.984 95.9277 164.984 94.2578C164.984 92.6523 163.789 91.4629 162.178 91.4629C161.129 91.4629 160.197 92.0078 159.816 92.834H159.799C159.834 90.584 160.637 89.3301 162.049 89.3301C162.887 89.3301 163.566 89.8223 163.795 90.5898H164.867C164.598 89.2598 163.496 88.3984 162.061 88.3984C159.992 88.3984 158.779 90.0684 158.779 92.916C158.779 93.8301 158.914 94.5918 159.195 95.2422C159.717 96.4609 160.725 97.1465 161.99 97.1465ZM161.979 96.209C160.895 96.209 160.051 95.3477 160.051 94.2637C160.051 93.1855 160.877 92.3887 161.996 92.3887C163.115 92.3887 163.912 93.1855 163.912 94.293C163.912 95.3594 163.057 96.209 161.979 96.209ZM170.082 91.8262L170.463 91.1348L168.975 90.3848L170.463 89.623L170.088 88.9434L168.658 89.834L168.717 88.1582H167.955L168.014 89.8281L166.578 88.9434L166.215 89.623L167.686 90.3789L166.209 91.1289L166.572 91.832L168.014 90.9297L167.949 92.6113H168.717L168.658 90.9297L170.082 91.8262ZM174.061 97H175.08V88.5449H174.049L171.799 90.1621V91.2754L174.037 89.6641H174.061V97ZM181.244 97H182.264V95.2422H183.459V94.3164H182.264V88.5449H180.705C178.707 91.4102 177.717 92.9512 176.996 94.2871V95.2422H181.244V97ZM178.039 94.293C178.707 93.1211 179.627 91.709 181.227 89.4238H181.244V94.3164H178.039V94.293ZM188.51 97H189.529V95.2422H190.725V94.3164H189.529V88.5449H187.971C185.973 91.4102 184.982 92.9512 184.262 94.2871V95.2422H188.51V97ZM185.305 94.293C185.973 93.1211 186.893 91.709 188.492 89.4238H188.51V94.3164H185.305V94.293ZM193.865 93.7422C193.016 93.8242 192.582 94.2695 192.582 95.125V96.6602C192.582 97.5859 192.242 97.9727 191.422 97.9727H191.188V98.7988H191.51C192.887 98.7988 193.543 98.1309 193.543 96.7305V95.4648C193.543 94.5391 193.859 94.2285 194.82 94.2285V93.1152C193.865 93.1152 193.543 92.8047 193.543 91.8672V90.5605C193.543 89.1953 192.893 88.5449 191.51 88.5449H191.188V89.3711H191.422C192.248 89.3711 192.582 89.752 192.582 90.6895V92.2305C192.582 93.0742 193.004 93.5137 193.865 93.6016V93.7422Z" fill="#50505C"/>
<path d="M283.633 90.9824V90.9883H284.652V90.9824C284.652 90.0391 285.402 89.3242 286.393 89.3242C287.324 89.3242 288.068 89.9746 288.068 90.7891C288.068 91.4922 287.799 91.9434 286.662 93.1387L283.686 96.2734V97H289.264V96.0625H285.145V96.0391L287.283 93.8301C288.695 92.3711 289.123 91.668 289.123 90.7246C289.123 89.4297 287.934 88.4043 286.422 88.4043C284.828 88.4043 283.633 89.5059 283.633 90.9824ZM298.949 97V88.5449H297.725L294.807 95.5996H294.76L291.842 88.5449H290.617V97H291.602V90.4844H291.643L294.338 96.9414H295.229L297.924 90.4844H297.965V97H298.949ZM303.461 97.1055C305.02 97.1055 306.051 95.8691 306.051 93.9531C306.051 92.043 305.014 90.8008 303.479 90.8008C302.617 90.8008 301.908 91.2285 301.527 91.9258H301.504V88.5449H300.484V97H301.457V95.9688H301.48C301.873 96.6719 302.57 97.1055 303.461 97.1055ZM303.262 91.6973C304.34 91.6973 305.008 92.5703 305.008 93.9531C305.008 95.3477 304.34 96.209 303.262 96.209C302.23 96.209 301.498 95.3125 301.498 93.9531C301.498 92.5996 302.23 91.6973 303.262 91.6973Z" fill="#50505C"/>
<rect x="104" y="118" width="212" height="29" rx="9" fill="#0D0E12" stroke="#17181C" stroke-width="2"/>
<path d="M115.795 136H117.078V127.545H115.783L113.557 129.127V130.416L115.766 128.846H115.795V136ZM123.16 136H124.42V134.33H125.58V133.229H124.42V127.545H122.521C120.617 130.299 119.656 131.816 118.93 133.182V134.33H123.16V136ZM120.154 133.217C120.828 131.992 121.684 130.674 123.148 128.559H123.172V133.246H120.154V133.217ZM130.613 136H131.873V134.33H133.033V133.229H131.873V127.545H129.975C128.07 130.299 127.109 131.816 126.383 133.182V134.33H130.613V136ZM127.607 133.217C128.281 131.992 129.137 130.674 130.602 128.559H130.625V133.246H127.607V133.217ZM137.229 129.736C136.338 129.736 135.629 130.188 135.266 130.896H135.242V129.836H134.018V138.039H135.283V134.986H135.312C135.664 135.672 136.367 136.105 137.252 136.105C138.799 136.105 139.824 134.869 139.824 132.918C139.824 130.967 138.793 129.736 137.229 129.736ZM136.895 135.033C135.922 135.033 135.277 134.201 135.277 132.918C135.277 131.646 135.928 130.803 136.895 130.803C137.896 130.803 138.523 131.629 138.523 132.918C138.523 134.213 137.896 135.033 136.895 135.033Z" fill="#D9D9D9"/>
<path d="M143.82 127.545V137.799H146.363V137.008H144.805V128.342H146.363V127.545H143.82ZM149.322 136H150.342V127.545H149.311L147.061 129.162V130.275L149.299 128.664H149.322V136ZM152.973 136H154.08L157.842 128.523V127.545H152.246V128.482H156.799V128.506L152.973 136ZM161.99 136.146C163.725 136.146 164.984 134.928 164.984 133.258C164.984 131.652 163.789 130.463 162.178 130.463C161.129 130.463 160.197 131.008 159.816 131.834H159.799C159.834 129.584 160.637 128.33 162.049 128.33C162.887 128.33 163.566 128.822 163.795 129.59H164.867C164.598 128.26 163.496 127.398 162.061 127.398C159.992 127.398 158.779 129.068 158.779 131.916C158.779 132.83 158.914 133.592 159.195 134.242C159.717 135.461 160.725 136.146 161.99 136.146ZM161.979 135.209C160.895 135.209 160.051 134.348 160.051 133.264C160.051 132.186 160.877 131.389 161.996 131.389C163.115 131.389 163.912 132.186 163.912 133.293C163.912 134.359 163.057 135.209 161.979 135.209ZM170.082 130.826L170.463 130.135L168.975 129.385L170.463 128.623L170.088 127.943L168.658 128.834L168.717 127.158H167.955L168.014 128.828L166.578 127.943L166.215 128.623L167.686 129.379L166.209 130.129L166.572 130.832L168.014 129.93L167.949 131.611H168.717L168.658 129.93L170.082 130.826ZM174.061 136H175.08V127.545H174.049L171.799 129.162V130.275L174.037 128.664H174.061V136ZM181.244 136H182.264V134.242H183.459V133.316H182.264V127.545H180.705C178.707 130.41 177.717 131.951 176.996 133.287V134.242H181.244V136ZM178.039 133.293C178.707 132.121 179.627 130.709 181.227 128.424H181.244V133.316H178.039V133.293ZM188.51 136H189.529V134.242H190.725V133.316H189.529V127.545H187.971C185.973 130.41 184.982 131.951 184.262 133.287V134.242H188.51V136ZM185.305 133.293C185.973 132.121 186.893 130.709 188.492 128.424H188.51V133.316H185.305V133.293ZM193.865 132.742C193.016 132.824 192.582 133.27 192.582 134.125V135.66C192.582 136.586 192.242 136.973 191.422 136.973H191.188V137.799H191.51C192.887 137.799 193.543 137.131 193.543 135.73V134.465C193.543 133.539 193.859 133.229 194.82 133.229V132.115C193.865 132.115 193.543 131.805 193.543 130.867V129.561C193.543 128.195 192.893 127.545 191.51 127.545H191.188V128.371H191.422C192.248 128.371 192.582 128.752 192.582 129.689V131.23C192.582 132.074 193.004 132.514 193.865 132.602V132.742Z" fill="#50505C"/>
<path d="M283.633 129.982V129.988H284.652V129.982C284.652 129.039 285.402 128.324 286.393 128.324C287.324 128.324 288.068 128.975 288.068 129.789C288.068 130.492 287.799 130.943 286.662 132.139L283.686 135.273V136H289.264V135.062H285.145V135.039L287.283 132.83C288.695 131.371 289.123 130.668 289.123 129.725C289.123 128.43 287.934 127.404 286.422 127.404C284.828 127.404 283.633 128.506 283.633 129.982ZM298.949 136V127.545H297.725L294.807 134.6H294.76L291.842 127.545H290.617V136H291.602V129.484H291.643L294.338 135.941H295.229L297.924 129.484H297.965V136H298.949ZM303.461 136.105C305.02 136.105 306.051 134.869 306.051 132.953C306.051 131.043 305.014 129.801 303.479 129.801C302.617 129.801 301.908 130.229 301.527 130.926H301.504V127.545H300.484V136H301.457V134.969H301.48C301.873 135.672 302.57 136.105 303.461 136.105ZM303.262 130.697C304.34 130.697 305.008 131.57 305.008 132.953C305.008 134.348 304.34 135.209 303.262 135.209C302.23 135.209 301.498 134.312 301.498 132.953C301.498 131.6 302.23 130.697 303.262 130.697Z" fill="#50505C"/>
<rect x="104" y="157" width="212" height="29" rx="9" fill="#0D0E12" stroke="#17181C" stroke-width="2"/>
<path d="M115.795 175H117.078V166.545H115.783L113.557 168.127V169.416L115.766 167.846H115.795V175ZM123.16 175H124.42V173.33H125.58V172.229H124.42V166.545H122.521C120.617 169.299 119.656 170.816 118.93 172.182V173.33H123.16V175ZM120.154 172.217C120.828 170.992 121.684 169.674 123.148 167.559H123.172V172.246H120.154V172.217ZM130.613 175H131.873V173.33H133.033V172.229H131.873V166.545H129.975C128.07 169.299 127.109 170.816 126.383 172.182V173.33H130.613V175ZM127.607 172.217C128.281 170.992 129.137 169.674 130.602 167.559H130.625V172.246H127.607V172.217ZM137.229 168.736C136.338 168.736 135.629 169.188 135.266 169.896H135.242V168.836H134.018V177.039H135.283V173.986H135.312C135.664 174.672 136.367 175.105 137.252 175.105C138.799 175.105 139.824 173.869 139.824 171.918C139.824 169.967 138.793 168.736 137.229 168.736ZM136.895 174.033C135.922 174.033 135.277 173.201 135.277 171.918C135.277 170.646 135.928 169.803 136.895 169.803C137.896 169.803 138.523 170.629 138.523 171.918C138.523 173.213 137.896 174.033 136.895 174.033Z" fill="#D9D9D9"/>
<path d="M143.82 166.545V176.799H146.363V176.008H144.805V167.342H146.363V166.545H143.82ZM149.322 175H150.342V166.545H149.311L147.061 168.162V169.275L149.299 167.664H149.322V175ZM152.973 175H154.08L157.842 167.523V166.545H152.246V167.482H156.799V167.506L152.973 175ZM161.99 175.146C163.725 175.146 164.984 173.928 164.984 172.258C164.984 170.652 163.789 169.463 162.178 169.463C161.129 169.463 160.197 170.008 159.816 170.834H159.799C159.834 168.584 160.637 167.33 162.049 167.33C162.887 167.33 163.566 167.822 163.795 168.59H164.867C164.598 167.26 163.496 166.398 162.061 166.398C159.992 166.398 158.779 168.068 158.779 170.916C158.779 171.83 158.914 172.592 159.195 173.242C159.717 174.461 160.725 175.146 161.99 175.146ZM161.979 174.209C160.895 174.209 160.051 173.348 160.051 172.264C160.051 171.186 160.877 170.389 161.996 170.389C163.115 170.389 163.912 171.186 163.912 172.293C163.912 173.359 163.057 174.209 161.979 174.209ZM170.082 169.826L170.463 169.135L168.975 168.385L170.463 167.623L170.088 166.943L168.658 167.834L168.717 166.158H167.955L168.014 167.828L166.578 166.943L166.215 167.623L167.686 168.379L166.209 169.129L166.572 169.832L168.014 168.93L167.949 170.611H168.717L168.658 168.93L170.082 169.826ZM174.061 175H175.08V166.545H174.049L171.799 168.162V169.275L174.037 167.664H174.061V175ZM181.244 175H182.264V173.242H183.459V172.316H182.264V166.545H180.705C178.707 169.41 177.717 170.951 176.996 172.287V173.242H181.244V175ZM178.039 172.293C178.707 171.121 179.627 169.709 181.227 167.424H181.244V172.316H178.039V172.293ZM188.51 175H189.529V173.242H190.725V172.316H189.529V166.545H187.971C185.973 169.41 184.982 170.951 184.262 172.287V173.242H188.51V175ZM185.305 172.293C185.973 171.121 186.893 169.709 188.492 167.424H188.51V172.316H185.305V172.293ZM193.865 171.742C193.016 171.824 192.582 172.27 192.582 173.125V174.66C192.582 175.586 192.242 175.973 191.422 175.973H191.188V176.799H191.51C192.887 176.799 193.543 176.131 193.543 174.73V173.465C193.543 172.539 193.859 172.229 194.82 172.229V171.115C193.865 171.115 193.543 170.805 193.543 169.867V168.561C193.543 167.195 192.893 166.545 191.51 166.545H191.188V167.371H191.422C192.248 167.371 192.582 167.752 192.582 168.689V170.23C192.582 171.074 193.004 171.514 193.865 171.602V171.742Z" fill="#50505C"/>
<path d="M283.633 168.982V168.988H284.652V168.982C284.652 168.039 285.402 167.324 286.393 167.324C287.324 167.324 288.068 167.975 288.068 168.789C288.068 169.492 287.799 169.943 286.662 171.139L283.686 174.273V175H289.264V174.062H285.145V174.039L287.283 171.83C288.695 170.371 289.123 169.668 289.123 168.725C289.123 167.43 287.934 166.404 286.422 166.404C284.828 166.404 283.633 167.506 283.633 168.982ZM298.949 175V166.545H297.725L294.807 173.6H294.76L291.842 166.545H290.617V175H291.602V168.484H291.643L294.338 174.941H295.229L297.924 168.484H297.965V175H298.949ZM303.461 175.105C305.02 175.105 306.051 173.869 306.051 171.953C306.051 170.043 305.014 168.801 303.479 168.801C302.617 168.801 301.908 169.229 301.527 169.926H301.504V166.545H300.484V175H301.457V173.969H301.48C301.873 174.672 302.57 175.105 303.461 175.105ZM303.262 169.697C304.34 169.697 305.008 170.57 305.008 171.953C305.008 173.348 304.34 174.209 303.262 174.209C302.23 174.209 301.498 173.312 301.498 171.953C301.498 170.6 302.23 169.697 303.262 169.697Z" fill="#50505C"/>
<rect x="104" y="196" width="212" height="29" rx="9" fill="#0D0E12" stroke="#17181C" stroke-width="2"/>
<path d="M115.795 214H117.078V205.545H115.783L113.557 207.127V208.416L115.766 206.846H115.795V214ZM123.16 214H124.42V212.33H125.58V211.229H124.42V205.545H122.521C120.617 208.299 119.656 209.816 118.93 211.182V212.33H123.16V214ZM120.154 211.217C120.828 209.992 121.684 208.674 123.148 206.559H123.172V211.246H120.154V211.217ZM130.613 214H131.873V212.33H133.033V211.229H131.873V205.545H129.975C128.07 208.299 127.109 209.816 126.383 211.182V212.33H130.613V214ZM127.607 211.217C128.281 209.992 129.137 208.674 130.602 206.559H130.625V211.246H127.607V211.217ZM137.229 207.736C136.338 207.736 135.629 208.188 135.266 208.896H135.242V207.836H134.018V216.039H135.283V212.986H135.312C135.664 213.672 136.367 214.105 137.252 214.105C138.799 214.105 139.824 212.869 139.824 210.918C139.824 208.967 138.793 207.736 137.229 207.736ZM136.895 213.033C135.922 213.033 135.277 212.201 135.277 210.918C135.277 209.646 135.928 208.803 136.895 208.803C137.896 208.803 138.523 209.629 138.523 210.918C138.523 212.213 137.896 213.033 136.895 213.033Z" fill="#D9D9D9"/>
<path d="M143.82 205.545V215.799H146.363V215.008H144.805V206.342H146.363V205.545H143.82ZM149.322 214H150.342V205.545H149.311L147.061 207.162V208.275L149.299 206.664H149.322V214ZM152.973 214H154.08L157.842 206.523V205.545H152.246V206.482H156.799V206.506L152.973 214ZM161.99 214.146C163.725 214.146 164.984 212.928 164.984 211.258C164.984 209.652 163.789 208.463 162.178 208.463C161.129 208.463 160.197 209.008 159.816 209.834H159.799C159.834 207.584 160.637 206.33 162.049 206.33C162.887 206.33 163.566 206.822 163.795 207.59H164.867C164.598 206.26 163.496 205.398 162.061 205.398C159.992 205.398 158.779 207.068 158.779 209.916C158.779 210.83 158.914 211.592 159.195 212.242C159.717 213.461 160.725 214.146 161.99 214.146ZM161.979 213.209C160.895 213.209 160.051 212.348 160.051 211.264C160.051 210.186 160.877 209.389 161.996 209.389C163.115 209.389 163.912 210.186 163.912 211.293C163.912 212.359 163.057 213.209 161.979 213.209ZM170.082 208.826L170.463 208.135L168.975 207.385L170.463 206.623L170.088 205.943L168.658 206.834L168.717 205.158H167.955L168.014 206.828L166.578 205.943L166.215 206.623L167.686 207.379L166.209 208.129L166.572 208.832L168.014 207.93L167.949 209.611H168.717L168.658 207.93L170.082 208.826ZM174.061 214H175.08V205.545H174.049L171.799 207.162V208.275L174.037 206.664H174.061V214ZM181.244 214H182.264V212.242H183.459V211.316H182.264V205.545H180.705C178.707 208.41 177.717 209.951 176.996 211.287V212.242H181.244V214ZM178.039 211.293C178.707 210.121 179.627 208.709 181.227 206.424H181.244V211.316H178.039V211.293ZM188.51 214H189.529V212.242H190.725V211.316H189.529V205.545H187.971C185.973 208.41 184.982 209.951 184.262 211.287V212.242H188.51V214ZM185.305 211.293C185.973 210.121 186.893 208.709 188.492 206.424H188.51V211.316H185.305V211.293ZM193.865 210.742C193.016 210.824 192.582 211.27 192.582 212.125V213.66C192.582 214.586 192.242 214.973 191.422 214.973H191.188V215.799H191.51C192.887 215.799 193.543 215.131 193.543 213.73V212.465C193.543 211.539 193.859 211.229 194.82 211.229V210.115C193.865 210.115 193.543 209.805 193.543 208.867V207.561C193.543 206.195 192.893 205.545 191.51 205.545H191.188V206.371H191.422C192.248 206.371 192.582 206.752 192.582 207.689V209.23C192.582 210.074 193.004 210.514 193.865 210.602V210.742Z" fill="#50505C"/>
<path d="M283.633 207.982V207.988H284.652V207.982C284.652 207.039 285.402 206.324 286.393 206.324C287.324 206.324 288.068 206.975 288.068 207.789C288.068 208.492 287.799 208.943 286.662 210.139L283.686 213.273V214H289.264V213.062H285.145V213.039L287.283 210.83C288.695 209.371 289.123 208.668 289.123 207.725C289.123 206.43 287.934 205.404 286.422 205.404C284.828 205.404 283.633 206.506 283.633 207.982ZM298.949 214V205.545H297.725L294.807 212.6H294.76L291.842 205.545H290.617V214H291.602V207.484H291.643L294.338 213.941H295.229L297.924 207.484H297.965V214H298.949ZM303.461 214.105C305.02 214.105 306.051 212.869 306.051 210.953C306.051 209.043 305.014 207.801 303.479 207.801C302.617 207.801 301.908 208.229 301.527 208.926H301.504V205.545H300.484V214H301.457V212.969H301.48C301.873 213.672 302.57 214.105 303.461 214.105ZM303.262 208.697C304.34 208.697 305.008 209.57 305.008 210.953C305.008 212.348 304.34 213.209 303.262 213.209C302.23 213.209 301.498 212.312 301.498 210.953C301.498 209.6 302.23 208.697 303.262 208.697Z" fill="#50505C"/>
<rect x="104" y="235" width="212" height="29" rx="9" fill="#0D0E12" stroke="#17181C" stroke-width="2"/>
<path d="M115.795 253H117.078V244.545H115.783L113.557 246.127V247.416L115.766 245.846H115.795V253ZM123.16 253H124.42V251.33H125.58V250.229H124.42V244.545H122.521C120.617 247.299 119.656 248.816 118.93 250.182V251.33H123.16V253ZM120.154 250.217C120.828 248.992 121.684 247.674 123.148 245.559H123.172V250.246H120.154V250.217ZM130.613 253H131.873V251.33H133.033V250.229H131.873V244.545H129.975C128.07 247.299 127.109 248.816 126.383 250.182V251.33H130.613V253ZM127.607 250.217C128.281 248.992 129.137 247.674 130.602 245.559H130.625V250.246H127.607V250.217ZM137.229 246.736C136.338 246.736 135.629 247.188 135.266 247.896H135.242V246.836H134.018V255.039H135.283V251.986H135.312C135.664 252.672 136.367 253.105 137.252 253.105C138.799 253.105 139.824 251.869 139.824 249.918C139.824 247.967 138.793 246.736 137.229 246.736ZM136.895 252.033C135.922 252.033 135.277 251.201 135.277 249.918C135.277 248.646 135.928 247.803 136.895 247.803C137.896 247.803 138.523 248.629 138.523 249.918C138.523 251.213 137.896 252.033 136.895 252.033Z" fill="#D9D9D9"/>
<path d="M143.82 244.545V254.799H146.363V254.008H144.805V245.342H146.363V244.545H143.82ZM149.322 253H150.342V244.545H149.311L147.061 246.162V247.275L149.299 245.664H149.322V253ZM152.973 253H154.08L157.842 245.523V244.545H152.246V245.482H156.799V245.506L152.973 253ZM161.99 253.146C163.725 253.146 164.984 251.928 164.984 250.258C164.984 248.652 163.789 247.463 162.178 247.463C161.129 247.463 160.197 248.008 159.816 248.834H159.799C159.834 246.584 160.637 245.33 162.049 245.33C162.887 245.33 163.566 245.822 163.795 246.59H164.867C164.598 245.26 163.496 244.398 162.061 244.398C159.992 244.398 158.779 246.068 158.779 248.916C158.779 249.83 158.914 250.592 159.195 251.242C159.717 252.461 160.725 253.146 161.99 253.146ZM161.979 252.209C160.895 252.209 160.051 251.348 160.051 250.264C160.051 249.186 160.877 248.389 161.996 248.389C163.115 248.389 163.912 249.186 163.912 250.293C163.912 251.359 163.057 252.209 161.979 252.209ZM170.082 247.826L170.463 247.135L168.975 246.385L170.463 245.623L170.088 244.943L168.658 245.834L168.717 244.158H167.955L168.014 245.828L166.578 244.943L166.215 245.623L167.686 246.379L166.209 247.129L166.572 247.832L168.014 246.93L167.949 248.611H168.717L168.658 246.93L170.082 247.826ZM174.061 253H175.08V244.545H174.049L171.799 246.162V247.275L174.037 245.664H174.061V253ZM181.244 253H182.264V251.242H183.459V250.316H182.264V244.545H180.705C178.707 247.41 177.717 248.951 176.996 250.287V251.242H181.244V253ZM178.039 250.293C178.707 249.121 179.627 247.709 181.227 245.424H181.244V250.316H178.039V250.293ZM188.51 253H189.529V251.242H190.725V250.316H189.529V244.545H187.971C185.973 247.41 184.982 248.951 184.262 250.287V251.242H188.51V253ZM185.305 250.293C185.973 249.121 186.893 247.709 188.492 245.424H188.51V250.316H185.305V250.293ZM193.865 249.742C193.016 249.824 192.582 250.27 192.582 251.125V252.66C192.582 253.586 192.242 253.973 191.422 253.973H191.188V254.799H191.51C192.887 254.799 193.543 254.131 193.543 252.73V251.465C193.543 250.539 193.859 250.229 194.82 250.229V249.115C193.865 249.115 193.543 248.805 193.543 247.867V246.561C193.543 245.195 192.893 244.545 191.51 244.545H191.188V245.371H191.422C192.248 245.371 192.582 245.752 192.582 246.689V248.23C192.582 249.074 193.004 249.514 193.865 249.602V249.742Z" fill="#50505C"/>
<path d="M283.633 246.982V246.988H284.652V246.982C284.652 246.039 285.402 245.324 286.393 245.324C287.324 245.324 288.068 245.975 288.068 246.789C288.068 247.492 287.799 247.943 286.662 249.139L283.686 252.273V253H289.264V252.062H285.145V252.039L287.283 249.83C288.695 248.371 289.123 247.668 289.123 246.725C289.123 245.43 287.934 244.404 286.422 244.404C284.828 244.404 283.633 245.506 283.633 246.982ZM298.949 253V244.545H297.725L294.807 251.6H294.76L291.842 244.545H290.617V253H291.602V246.484H291.643L294.338 252.941H295.229L297.924 246.484H297.965V253H298.949ZM303.461 253.105C305.02 253.105 306.051 251.869 306.051 249.953C306.051 248.043 305.014 246.801 303.479 246.801C302.617 246.801 301.908 247.229 301.527 247.926H301.504V244.545H300.484V253H301.457V251.969H301.48C301.873 252.672 302.57 253.105 303.461 253.105ZM303.262 247.697C304.34 247.697 305.008 248.57 305.008 249.953C305.008 251.348 304.34 252.209 303.262 252.209C302.23 252.209 301.498 251.312 301.498 249.953C301.498 248.6 302.23 247.697 303.262 247.697Z" fill="#50505C"/>
<rect x="331" y="78" width="112" height="31" rx="10" fill="url(#paint1_linear_9_119)"/>
<path d="M353.039 88.2266V99.5H357.016C360.375 99.5 362.352 97.4062 362.352 93.8438C362.352 90.2891 360.367 88.2266 357.016 88.2266H353.039ZM354.789 89.7344H356.852C359.234 89.7344 360.562 91.2031 360.562 93.8594C360.562 96.5234 359.242 97.9844 356.852 97.9844H354.789V89.7344ZM367.352 99.6562C369.703 99.6562 371.25 98.0391 371.25 95.3906C371.25 92.75 369.695 91.1328 367.352 91.1328C365.008 91.1328 363.453 92.75 363.453 95.3906C363.453 98.0391 365 99.6562 367.352 99.6562ZM367.352 98.2656C366.031 98.2656 365.172 97.2188 365.172 95.3906C365.172 93.5703 366.031 92.5234 367.352 92.5234C368.672 92.5234 369.531 93.5703 369.531 95.3906C369.531 97.2188 368.68 98.2656 367.352 98.2656ZM383.367 91.2812H381.695L380.195 97.75H380.156L378.438 91.2812H376.812L375.102 97.75H375.07L373.57 91.2812H371.883L374.141 99.5H375.883L377.594 93.3438H377.633L379.359 99.5H381.117L383.367 91.2812ZM384.398 99.5H386.086V94.7109C386.086 93.4375 386.852 92.5938 388.039 92.5938C389.211 92.5938 389.789 93.2734 389.789 94.5078V99.5H391.484V94.1797C391.484 92.2969 390.445 91.1406 388.633 91.1406C387.367 91.1406 386.492 91.7188 386.047 92.6562H386.008V91.2812H384.398V99.5ZM393.18 99.5H394.867V88.2266H393.18V99.5ZM400.133 99.6562C402.484 99.6562 404.031 98.0391 404.031 95.3906C404.031 92.75 402.477 91.1328 400.133 91.1328C397.789 91.1328 396.234 92.75 396.234 95.3906C396.234 98.0391 397.781 99.6562 400.133 99.6562ZM400.133 98.2656C398.812 98.2656 397.953 97.2188 397.953 95.3906C397.953 93.5703 398.812 92.5234 400.133 92.5234C401.453 92.5234 402.312 93.5703 402.312 95.3906C402.312 97.2188 401.461 98.2656 400.133 98.2656ZM408.211 98.3047C407.305 98.3047 406.711 97.8359 406.711 97.1172C406.711 96.4141 407.281 95.9688 408.289 95.8984L410.312 95.7734V96.4219C410.312 97.4922 409.391 98.3047 408.211 98.3047ZM407.742 99.6406C408.82 99.6406 409.859 99.0625 410.336 98.1484H410.375V99.5H411.992V93.8359C411.992 92.1875 410.719 91.1328 408.727 91.1328C406.695 91.1328 405.43 92.2266 405.336 93.7109H406.93C407.078 92.9766 407.688 92.5078 408.664 92.5078C409.695 92.5078 410.312 93.0547 410.312 93.9688V94.6016L408.062 94.7344C406.109 94.8438 405.008 95.7266 405.008 97.1641C405.008 98.6406 406.133 99.6406 407.742 99.6406ZM416.719 99.6406C417.914 99.6406 418.852 99.0391 419.336 98.1016H419.367V99.5H421.008V88.2266H419.312V92.6484H419.281C418.82 91.7422 417.883 91.1484 416.703 91.1484C414.641 91.1484 413.266 92.7969 413.266 95.3906C413.266 97.9844 414.641 99.6406 416.719 99.6406ZM417.164 92.5703C418.461 92.5703 419.328 93.6875 419.328 95.3906C419.328 97.1094 418.461 98.2109 417.164 98.2109C415.828 98.2109 414.992 97.125 414.992 95.3906C414.992 93.6641 415.828 92.5703 417.164 92.5703Z" fill="#D9D9D9"/>
<rect x="331" y="117" width="112" height="31" rx="10" fill="url(#paint2_linear_9_119)"/>
<path d="M353.039 127.227V138.5H357.016C360.375 138.5 362.352 136.406 362.352 132.844C362.352 129.289 360.367 127.227 357.016 127.227H353.039ZM354.789 128.734H356.852C359.234 128.734 360.562 130.203 360.562 132.859C360.562 135.523 359.242 136.984 356.852 136.984H354.789V128.734ZM367.352 138.656C369.703 138.656 371.25 137.039 371.25 134.391C371.25 131.75 369.695 130.133 367.352 130.133C365.008 130.133 363.453 131.75 363.453 134.391C363.453 137.039 365 138.656 367.352 138.656ZM367.352 137.266C366.031 137.266 365.172 136.219 365.172 134.391C365.172 132.57 366.031 131.523 367.352 131.523C368.672 131.523 369.531 132.57 369.531 134.391C369.531 136.219 368.68 137.266 367.352 137.266ZM383.367 130.281H381.695L380.195 136.75H380.156L378.438 130.281H376.812L375.102 136.75H375.07L373.57 130.281H371.883L374.141 138.5H375.883L377.594 132.344H377.633L379.359 138.5H381.117L383.367 130.281ZM384.398 138.5H386.086V133.711C386.086 132.438 386.852 131.594 388.039 131.594C389.211 131.594 389.789 132.273 389.789 133.508V138.5H391.484V133.18C391.484 131.297 390.445 130.141 388.633 130.141C387.367 130.141 386.492 130.719 386.047 131.656H386.008V130.281H384.398V138.5ZM393.18 138.5H394.867V127.227H393.18V138.5ZM400.133 138.656C402.484 138.656 404.031 137.039 404.031 134.391C404.031 131.75 402.477 130.133 400.133 130.133C397.789 130.133 396.234 131.75 396.234 134.391C396.234 137.039 397.781 138.656 400.133 138.656ZM400.133 137.266C398.812 137.266 397.953 136.219 397.953 134.391C397.953 132.57 398.812 131.523 400.133 131.523C401.453 131.523 402.312 132.57 402.312 134.391C402.312 136.219 401.461 137.266 400.133 137.266ZM408.211 137.305C407.305 137.305 406.711 136.836 406.711 136.117C406.711 135.414 407.281 134.969 408.289 134.898L410.312 134.773V135.422C410.312 136.492 409.391 137.305 408.211 137.305ZM407.742 138.641C408.82 138.641 409.859 138.062 410.336 137.148H410.375V138.5H411.992V132.836C411.992 131.188 410.719 130.133 408.727 130.133C406.695 130.133 405.43 131.227 405.336 132.711H406.93C407.078 131.977 407.688 131.508 408.664 131.508C409.695 131.508 410.312 132.055 410.312 132.969V133.602L408.062 133.734C406.109 133.844 405.008 134.727 405.008 136.164C405.008 137.641 406.133 138.641 407.742 138.641ZM416.719 138.641C417.914 138.641 418.852 138.039 419.336 137.102H419.367V138.5H421.008V127.227H419.312V131.648H419.281C418.82 130.742 417.883 130.148 416.703 130.148C414.641 130.148 413.266 131.797 413.266 134.391C413.266 136.984 414.641 138.641 416.719 138.641ZM417.164 131.57C418.461 131.57 419.328 132.688 419.328 134.391C419.328 136.109 418.461 137.211 417.164 137.211C415.828 137.211 414.992 136.125 414.992 134.391C414.992 132.664 415.828 131.57 417.164 131.57Z" fill="#D9D9D9"/>
<rect x="331" y="156" width="112" height="31" rx="10" fill="url(#paint3_linear_9_119)"/>
<path d="M353.039 166.227V177.5H357.016C360.375 177.5 362.352 175.406 362.352 171.844C362.352 168.289 360.367 166.227 357.016 166.227H353.039ZM354.789 167.734H356.852C359.234 167.734 360.562 169.203 360.562 171.859C360.562 174.523 359.242 175.984 356.852 175.984H354.789V167.734ZM367.352 177.656C369.703 177.656 371.25 176.039 371.25 173.391C371.25 170.75 369.695 169.133 367.352 169.133C365.008 169.133 363.453 170.75 363.453 173.391C363.453 176.039 365 177.656 367.352 177.656ZM367.352 176.266C366.031 176.266 365.172 175.219 365.172 173.391C365.172 171.57 366.031 170.523 367.352 170.523C368.672 170.523 369.531 171.57 369.531 173.391C369.531 175.219 368.68 176.266 367.352 176.266ZM383.367 169.281H381.695L380.195 175.75H380.156L378.438 169.281H376.812L375.102 175.75H375.07L373.57 169.281H371.883L374.141 177.5H375.883L377.594 171.344H377.633L379.359 177.5H381.117L383.367 169.281ZM384.398 177.5H386.086V172.711C386.086 171.438 386.852 170.594 388.039 170.594C389.211 170.594 389.789 171.273 389.789 172.508V177.5H391.484V172.18C391.484 170.297 390.445 169.141 388.633 169.141C387.367 169.141 386.492 169.719 386.047 170.656H386.008V169.281H384.398V177.5ZM393.18 177.5H394.867V166.227H393.18V177.5ZM400.133 177.656C402.484 177.656 404.031 176.039 404.031 173.391C404.031 170.75 402.477 169.133 400.133 169.133C397.789 169.133 396.234 170.75 396.234 173.391C396.234 176.039 397.781 177.656 400.133 177.656ZM400.133 176.266C398.812 176.266 397.953 175.219 397.953 173.391C397.953 171.57 398.812 170.523 400.133 170.523C401.453 170.523 402.312 171.57 402.312 173.391C402.312 175.219 401.461 176.266 400.133 176.266ZM408.211 176.305C407.305 176.305 406.711 175.836 406.711 175.117C406.711 174.414 407.281 173.969 408.289 173.898L410.312 173.773V174.422C410.312 175.492 409.391 176.305 408.211 176.305ZM407.742 177.641C408.82 177.641 409.859 177.062 410.336 176.148H410.375V177.5H411.992V171.836C411.992 170.188 410.719 169.133 408.727 169.133C406.695 169.133 405.43 170.227 405.336 171.711H406.93C407.078 170.977 407.688 170.508 408.664 170.508C409.695 170.508 410.312 171.055 410.312 171.969V172.602L408.062 172.734C406.109 172.844 405.008 173.727 405.008 175.164C405.008 176.641 406.133 177.641 407.742 177.641ZM416.719 177.641C417.914 177.641 418.852 177.039 419.336 176.102H419.367V177.5H421.008V166.227H419.312V170.648H419.281C418.82 169.742 417.883 169.148 416.703 169.148C414.641 169.148 413.266 170.797 413.266 173.391C413.266 175.984 414.641 177.641 416.719 177.641ZM417.164 170.57C418.461 170.57 419.328 171.688 419.328 173.391C419.328 175.109 418.461 176.211 417.164 176.211C415.828 176.211 414.992 175.125 414.992 173.391C414.992 171.664 415.828 170.57 417.164 170.57Z" fill="#D9D9D9"/>
<rect x="331" y="195" width="112" height="31" rx="10" fill="url(#paint4_linear_9_119)"/>
<path d="M353.039 205.227V216.5H357.016C360.375 216.5 362.352 214.406 362.352 210.844C362.352 207.289 360.367 205.227 357.016 205.227H353.039ZM354.789 206.734H356.852C359.234 206.734 360.562 208.203 360.562 210.859C360.562 213.523 359.242 214.984 356.852 214.984H354.789V206.734ZM367.352 216.656C369.703 216.656 371.25 215.039 371.25 212.391C371.25 209.75 369.695 208.133 367.352 208.133C365.008 208.133 363.453 209.75 363.453 212.391C363.453 215.039 365 216.656 367.352 216.656ZM367.352 215.266C366.031 215.266 365.172 214.219 365.172 212.391C365.172 210.57 366.031 209.523 367.352 209.523C368.672 209.523 369.531 210.57 369.531 212.391C369.531 214.219 368.68 215.266 367.352 215.266ZM383.367 208.281H381.695L380.195 214.75H380.156L378.438 208.281H376.812L375.102 214.75H375.07L373.57 208.281H371.883L374.141 216.5H375.883L377.594 210.344H377.633L379.359 216.5H381.117L383.367 208.281ZM384.398 216.5H386.086V211.711C386.086 210.438 386.852 209.594 388.039 209.594C389.211 209.594 389.789 210.273 389.789 211.508V216.5H391.484V211.18C391.484 209.297 390.445 208.141 388.633 208.141C387.367 208.141 386.492 208.719 386.047 209.656H386.008V208.281H384.398V216.5ZM393.18 216.5H394.867V205.227H393.18V216.5ZM400.133 216.656C402.484 216.656 404.031 215.039 404.031 212.391C404.031 209.75 402.477 208.133 400.133 208.133C397.789 208.133 396.234 209.75 396.234 212.391C396.234 215.039 397.781 216.656 400.133 216.656ZM400.133 215.266C398.812 215.266 397.953 214.219 397.953 212.391C397.953 210.57 398.812 209.523 400.133 209.523C401.453 209.523 402.312 210.57 402.312 212.391C402.312 214.219 401.461 215.266 400.133 215.266ZM408.211 215.305C407.305 215.305 406.711 214.836 406.711 214.117C406.711 213.414 407.281 212.969 408.289 212.898L410.312 212.773V213.422C410.312 214.492 409.391 215.305 408.211 215.305ZM407.742 216.641C408.82 216.641 409.859 216.062 410.336 215.148H410.375V216.5H411.992V210.836C411.992 209.188 410.719 208.133 408.727 208.133C406.695 208.133 405.43 209.227 405.336 210.711H406.93C407.078 209.977 407.688 209.508 408.664 209.508C409.695 209.508 410.312 210.055 410.312 210.969V211.602L408.062 211.734C406.109 211.844 405.008 212.727 405.008 214.164C405.008 215.641 406.133 216.641 407.742 216.641ZM416.719 216.641C417.914 216.641 418.852 216.039 419.336 215.102H419.367V216.5H421.008V205.227H419.312V209.648H419.281C418.82 208.742 417.883 208.148 416.703 208.148C414.641 208.148 413.266 209.797 413.266 212.391C413.266 214.984 414.641 216.641 416.719 216.641ZM417.164 209.57C418.461 209.57 419.328 210.688 419.328 212.391C419.328 214.109 418.461 215.211 417.164 215.211C415.828 215.211 414.992 214.125 414.992 212.391C414.992 210.664 415.828 209.57 417.164 209.57Z" fill="#D9D9D9"/>
<rect x="331" y="234" width="112" height="31" rx="10" fill="url(#paint5_linear_9_119)"/>
<path d="M353.039 244.227V255.5H357.016C360.375 255.5 362.352 253.406 362.352 249.844C362.352 246.289 360.367 244.227 357.016 244.227H353.039ZM354.789 245.734H356.852C359.234 245.734 360.562 247.203 360.562 249.859C360.562 252.523 359.242 253.984 356.852 253.984H354.789V245.734ZM367.352 255.656C369.703 255.656 371.25 254.039 371.25 251.391C371.25 248.75 369.695 247.133 367.352 247.133C365.008 247.133 363.453 248.75 363.453 251.391C363.453 254.039 365 255.656 367.352 255.656ZM367.352 254.266C366.031 254.266 365.172 253.219 365.172 251.391C365.172 249.57 366.031 248.523 367.352 248.523C368.672 248.523 369.531 249.57 369.531 251.391C369.531 253.219 368.68 254.266 367.352 254.266ZM383.367 247.281H381.695L380.195 253.75H380.156L378.438 247.281H376.812L375.102 253.75H375.07L373.57 247.281H371.883L374.141 255.5H375.883L377.594 249.344H377.633L379.359 255.5H381.117L383.367 247.281ZM384.398 255.5H386.086V250.711C386.086 249.438 386.852 248.594 388.039 248.594C389.211 248.594 389.789 249.273 389.789 250.508V255.5H391.484V250.18C391.484 248.297 390.445 247.141 388.633 247.141C387.367 247.141 386.492 247.719 386.047 248.656H386.008V247.281H384.398V255.5ZM393.18 255.5H394.867V244.227H393.18V255.5ZM400.133 255.656C402.484 255.656 404.031 254.039 404.031 251.391C404.031 248.75 402.477 247.133 400.133 247.133C397.789 247.133 396.234 248.75 396.234 251.391C396.234 254.039 397.781 255.656 400.133 255.656ZM400.133 254.266C398.812 254.266 397.953 253.219 397.953 251.391C397.953 249.57 398.812 248.523 400.133 248.523C401.453 248.523 402.312 249.57 402.312 251.391C402.312 253.219 401.461 254.266 400.133 254.266ZM408.211 254.305C407.305 254.305 406.711 253.836 406.711 253.117C406.711 252.414 407.281 251.969 408.289 251.898L410.312 251.773V252.422C410.312 253.492 409.391 254.305 408.211 254.305ZM407.742 255.641C408.82 255.641 409.859 255.062 410.336 254.148H410.375V255.5H411.992V249.836C411.992 248.188 410.719 247.133 408.727 247.133C406.695 247.133 405.43 248.227 405.336 249.711H406.93C407.078 248.977 407.688 248.508 408.664 248.508C409.695 248.508 410.312 249.055 410.312 249.969V250.602L408.062 250.734C406.109 250.844 405.008 251.727 405.008 253.164C405.008 254.641 406.133 255.641 407.742 255.641ZM416.719 255.641C417.914 255.641 418.852 255.039 419.336 254.102H419.367V255.5H421.008V244.227H419.312V248.648H419.281C418.82 247.742 417.883 247.148 416.703 247.148C414.641 247.148 413.266 248.797 413.266 251.391C413.266 253.984 414.641 255.641 416.719 255.641ZM417.164 248.57C418.461 248.57 419.328 249.688 419.328 251.391C419.328 253.109 418.461 254.211 417.164 254.211C415.828 254.211 414.992 253.125 414.992 251.391C414.992 249.664 415.828 248.57 417.164 248.57Z" fill="#D9D9D9"/>
<defs>
<linearGradient id="paint0_linear_9_119" x1="82.05" y1="303.889" x2="428.889" y2="303.889" gradientUnits="userSpaceOnUse">
<stop stop-color="#4C497E"/>
<stop offset="0.0885417" stop-color="#9E9DFC"/>
<stop offset="0.233923" stop-color="#9494FE"/>
<stop offset="0.563354" stop-color="#B7AAFA"/>
<stop offset="1" stop-color="#C7BFFA"/>
</linearGradient>
<linearGradient id="paint1_linear_9_119" x1="323.8" y1="93.1837" x2="443" y2="93.1837" gradientUnits="userSpaceOnUse">
<stop offset="0.579134" stop-color="#32323A"/>
</linearGradient>
<linearGradient id="paint2_linear_9_119" x1="323.8" y1="132.184" x2="443" y2="132.184" gradientUnits="userSpaceOnUse">
<stop offset="0.579134" stop-color="#32323A"/>
</linearGradient>
<linearGradient id="paint3_linear_9_119" x1="323.8" y1="171.184" x2="443" y2="171.184" gradientUnits="userSpaceOnUse">
<stop offset="0.579134" stop-color="#32323A"/>
</linearGradient>
<linearGradient id="paint4_linear_9_119" x1="323.8" y1="210.184" x2="443" y2="210.184" gradientUnits="userSpaceOnUse">
<stop offset="0.579134" stop-color="#32323A"/>
</linearGradient>
<linearGradient id="paint5_linear_9_119" x1="323.8" y1="249.184" x2="443" y2="249.184" gradientUnits="userSpaceOnUse">
<stop offset="0.579134" stop-color="#32323A"/>
</linearGradient>
</defs>
</svg>
