<svg width="261" height="220" viewBox="0 0 261 220" fill="none" xmlns="http://www.w3.org/2000/svg">
<g filter="url(#filter0_d_9_59)">
<path d="M8 5C8 2.23857 10.2386 0 13 0H248C250.761 0 253 2.23858 253 5V200C253 202.761 250.761 205 248 205H13C10.2386 205 8 202.761 8 200V5Z" fill="#C7BFFA"/>
<rect x="9" y="1" width="243" height="203" rx="5" fill="url(#paint0_linear_9_59)"/>
<path d="M34.742 89H37.2616V85.6602H39.5819V83.457H37.2616V72.0898H33.4647C29.6561 77.5977 27.7342 80.6328 26.2811 83.3633V85.6602H34.742V89ZM28.7303 83.4336C30.078 80.9844 31.7889 78.3477 34.7186 74.1172H34.7655V83.4922H28.7303V83.4336ZM44.6791 81.957H44.6556V72.0898H42.1244V89H44.6556V84.5703L45.7103 83.5273L49.8939 89H52.8353L47.5267 81.9805L52.6361 76.6719H49.6595L44.6791 81.957ZM67.9398 89L73.975 72.0898H71.1742L66.557 86.0469H66.4867L61.8813 72.0898H59.0336L65.0688 89H67.9398ZM75.8027 89H78.3339V76.6719H75.8027V89ZM77.0683 74.8672C77.8886 74.8672 78.5448 74.2227 78.5448 73.4258C78.5448 72.6172 77.8886 71.9727 77.0683 71.9727C76.2597 71.9727 75.6034 72.6172 75.6034 73.4258C75.6034 74.2227 76.2597 74.8672 77.0683 74.8672ZM86.0327 89.2109C87.8256 89.2109 89.2319 88.3086 89.9584 86.9023H90.0053V89H92.4663V72.0898H89.9233V78.7227H89.8764C89.185 77.3633 87.7788 76.4727 86.0092 76.4727C82.9155 76.4727 80.853 78.9453 80.853 82.8359C80.853 86.7266 82.9155 89.2109 86.0327 89.2109ZM86.7006 78.6055C88.6459 78.6055 89.9467 80.2812 89.9467 82.8359C89.9467 85.4141 88.6459 87.0664 86.7006 87.0664C84.6967 87.0664 83.4428 85.4375 83.4428 82.8359C83.4428 80.2461 84.6967 78.6055 86.7006 78.6055ZM100.704 78.4883C102.474 78.4883 103.669 79.8125 103.728 81.6992H97.5634C97.6923 79.8359 98.9345 78.4883 100.704 78.4883ZM103.716 85.3789C103.376 86.457 102.31 87.1836 100.868 87.1836C98.8408 87.1836 97.5517 85.7656 97.5517 83.6211V83.4688H106.259V82.6016C106.259 78.8633 104.126 76.4492 100.704 76.4492C97.2236 76.4492 94.997 79.0273 94.997 82.8945C94.997 86.7852 97.1884 89.2344 100.81 89.2344C103.634 89.2344 105.767 87.6289 106.118 85.3789H103.716ZM114.004 89.2344C117.532 89.2344 119.852 86.8086 119.852 82.8359C119.852 78.875 117.52 76.4492 114.004 76.4492C110.489 76.4492 108.157 78.875 108.157 82.8359C108.157 86.8086 110.477 89.2344 114.004 89.2344ZM114.004 87.1484C112.024 87.1484 110.735 85.5781 110.735 82.8359C110.735 80.1055 112.024 78.5352 114.004 78.5352C115.985 78.5352 117.274 80.1055 117.274 82.8359C117.274 85.5781 115.997 87.1484 114.004 87.1484ZM127.949 72.0898V89H133.914C138.953 89 141.918 85.8594 141.918 80.5156C141.918 75.1836 138.941 72.0898 133.914 72.0898H127.949ZM130.574 74.3516H133.668C137.242 74.3516 139.234 76.5547 139.234 80.5391C139.234 84.5352 137.253 86.7266 133.668 86.7266H130.574V74.3516ZM149.898 89.2344C153.425 89.2344 155.745 86.8086 155.745 82.8359C155.745 78.875 153.413 76.4492 149.898 76.4492C146.382 76.4492 144.05 78.875 144.05 82.8359C144.05 86.8086 146.37 89.2344 149.898 89.2344ZM149.898 87.1484C147.917 87.1484 146.628 85.5781 146.628 82.8359C146.628 80.1055 147.917 78.5352 149.898 78.5352C151.878 78.5352 153.167 80.1055 153.167 82.8359C153.167 85.5781 151.89 87.1484 149.898 87.1484ZM174.401 76.6719H171.893L169.643 86.375H169.585L167.006 76.6719H164.569L162.003 86.375H161.956L159.706 76.6719H157.174L160.561 89H163.174L165.741 79.7656H165.799L168.389 89H171.026L174.401 76.6719ZM176.428 89H178.959V81.8164C178.959 79.9062 180.107 78.6406 181.889 78.6406C183.647 78.6406 184.514 79.6602 184.514 81.5117V89H187.057V81.0195C187.057 78.1953 185.498 76.4609 182.779 76.4609C180.881 76.4609 179.568 77.3281 178.9 78.7344H178.842V76.6719H176.428V89ZM190.08 89H192.611V72.0898H190.08V89ZM200.989 89.2344C204.517 89.2344 206.837 86.8086 206.837 82.8359C206.837 78.875 204.505 76.4492 200.989 76.4492C197.474 76.4492 195.142 78.875 195.142 82.8359C195.142 86.8086 197.462 89.2344 200.989 89.2344ZM200.989 87.1484C199.009 87.1484 197.72 85.5781 197.72 82.8359C197.72 80.1055 199.009 78.5352 200.989 78.5352C202.97 78.5352 204.259 80.1055 204.259 82.8359C204.259 85.5781 202.982 87.1484 200.989 87.1484ZM213.587 87.207C212.227 87.207 211.337 86.5039 211.337 85.4258C211.337 84.3711 212.192 83.7031 213.704 83.5977L216.739 83.4102V84.3828C216.739 85.9883 215.356 87.207 213.587 87.207ZM212.883 89.2109C214.501 89.2109 216.059 88.3438 216.774 86.9727H216.833V89H219.258V80.5039C219.258 78.0312 217.348 76.4492 214.36 76.4492C211.313 76.4492 209.415 78.0898 209.274 80.3164H211.665C211.887 79.2148 212.801 78.5117 214.266 78.5117C215.813 78.5117 216.739 79.332 216.739 80.7031V81.6523L213.364 81.8516C210.434 82.0156 208.782 83.3398 208.782 85.4961C208.782 87.7109 210.469 89.2109 212.883 89.2109ZM226.828 89.2109C228.621 89.2109 230.027 88.3086 230.754 86.9023H230.801V89H233.262V72.0898H230.719V78.7227H230.672C229.981 77.3633 228.574 76.4727 226.805 76.4727C223.711 76.4727 221.649 78.9453 221.649 82.8359C221.649 86.7266 223.711 89.2109 226.828 89.2109ZM227.496 78.6055C229.442 78.6055 230.742 80.2812 230.742 82.8359C230.742 85.4141 229.442 87.0664 227.496 87.0664C225.492 87.0664 224.238 85.4375 224.238 82.8359C224.238 80.2461 225.492 78.6055 227.496 78.6055Z" fill="url(#paint1_linear_9_59)"/>
<path d="M43.9531 124V114.234H47.3984V112.727H38.75V114.234H42.2031V124H43.9531ZM54.1719 115.781H52.4844V120.57C52.4844 121.852 51.75 122.695 50.5312 122.695C49.3672 122.695 48.7734 122.023 48.7734 120.773V115.781H47.0859V121.102C47.0859 122.984 48.1797 124.148 49.9688 124.148C51.2266 124.148 52.0625 123.594 52.5156 122.609H52.5547V124H54.1719V115.781ZM60.2188 124.141C62.3047 124.141 63.6484 122.5 63.6484 119.891C63.6484 117.289 62.2969 115.648 60.2266 115.648C59.0625 115.648 58.125 116.227 57.6328 117.18H57.5938V112.727H55.9062V124H57.5469V122.602H57.5781C58.0859 123.555 59.0156 124.141 60.2188 124.141ZM59.7656 117.07C61.0938 117.07 61.9141 118.164 61.9141 119.891C61.9141 121.633 61.0938 122.711 59.7656 122.711C58.4844 122.711 57.5859 121.602 57.5859 119.891C57.5859 118.195 58.4844 117.07 59.7656 117.07ZM68.4062 116.992C69.5859 116.992 70.3828 117.875 70.4219 119.133H66.3125C66.3984 117.891 67.2266 116.992 68.4062 116.992ZM70.4141 121.586C70.1875 122.305 69.4766 122.789 68.5156 122.789C67.1641 122.789 66.3047 121.844 66.3047 120.414V120.312H72.1094V119.734C72.1094 117.242 70.6875 115.633 68.4062 115.633C66.0859 115.633 64.6016 117.352 64.6016 119.93C64.6016 122.523 66.0625 124.156 68.4766 124.156C70.3594 124.156 71.7812 123.086 72.0156 121.586H70.4141ZM80.4766 118.609C80.3281 116.992 79.0391 115.633 76.9219 115.633C74.5859 115.633 73.0547 117.281 73.0547 119.891C73.0547 122.547 74.5859 124.156 76.9375 124.156C78.9141 124.156 80.3125 122.969 80.4922 121.219H78.8672C78.6719 122.172 77.9922 122.742 76.9531 122.742C75.6406 122.742 74.7734 121.695 74.7734 119.891C74.7734 118.125 75.6328 117.039 76.9375 117.039C78.0391 117.039 78.6953 117.734 78.8672 118.609H80.4766ZM88.7344 115.781H87.0469V120.57C87.0469 121.852 86.3125 122.695 85.0938 122.695C83.9297 122.695 83.3359 122.023 83.3359 120.773V115.781H81.6484V121.102C81.6484 122.984 82.7422 124.148 84.5312 124.148C85.7891 124.148 86.625 123.594 87.0781 122.609H87.1172V124H88.7344V115.781ZM90.8984 113.836V115.781H89.7031V117.117H90.8984V121.836C90.8984 123.422 91.5469 124.055 93.2109 124.055C93.5859 124.055 93.9609 124.023 94.1484 123.977V122.641C94.0391 122.664 93.7656 122.68 93.5938 122.68C92.9062 122.68 92.5938 122.359 92.5938 121.648V117.117H94.1562V115.781H92.5938V113.836H90.8984ZM98.6484 118.109C98.6484 119.258 99.3984 120.031 100.883 120.391L102.352 120.75C103.211 120.969 103.523 121.258 103.523 121.781C103.523 122.445 102.898 122.867 101.883 122.867C100.852 122.867 100.242 122.43 100.109 121.641H98.4375C98.5703 123.148 99.8594 124.156 101.805 124.156C103.82 124.156 105.219 123.125 105.219 121.625C105.219 120.414 104.594 119.789 102.938 119.391L101.555 119.07C100.703 118.859 100.297 118.516 100.297 118.008C100.297 117.359 100.906 116.914 101.82 116.914C102.766 116.914 103.367 117.375 103.445 118.117H105.031C104.977 116.656 103.695 115.633 101.867 115.633C99.9453 115.633 98.6484 116.641 98.6484 118.109ZM113.578 115.781H111.891V120.57C111.891 121.852 111.156 122.695 109.938 122.695C108.773 122.695 108.18 122.023 108.18 120.773V115.781H106.492V121.102C106.492 122.984 107.586 124.148 109.375 124.148C110.633 124.148 111.469 123.594 111.922 122.609H111.961V124H113.578V115.781ZM119.531 115.648C118.344 115.648 117.398 116.25 116.914 117.195H116.883V115.781H115.25V126.719H116.938V122.648H116.977C117.445 123.562 118.383 124.141 119.562 124.141C121.625 124.141 122.992 122.492 122.992 119.891C122.992 117.289 121.617 115.648 119.531 115.648ZM119.086 122.711C117.789 122.711 116.93 121.602 116.93 119.891C116.93 118.195 117.797 117.07 119.086 117.07C120.422 117.07 121.258 118.172 121.258 119.891C121.258 121.617 120.422 122.711 119.086 122.711ZM128.578 115.648C127.391 115.648 126.445 116.25 125.961 117.195H125.93V115.781H124.297V126.719H125.984V122.648H126.023C126.492 123.562 127.43 124.141 128.609 124.141C130.672 124.141 132.039 122.492 132.039 119.891C132.039 117.289 130.664 115.648 128.578 115.648ZM128.133 122.711C126.836 122.711 125.977 121.602 125.977 119.891C125.977 118.195 126.844 117.07 128.133 117.07C129.469 117.07 130.305 118.172 130.305 119.891C130.305 121.617 129.469 122.711 128.133 122.711ZM136.875 124.156C139.227 124.156 140.773 122.539 140.773 119.891C140.773 117.25 139.219 115.633 136.875 115.633C134.531 115.633 132.977 117.25 132.977 119.891C132.977 122.539 134.523 124.156 136.875 124.156ZM136.875 122.766C135.555 122.766 134.695 121.719 134.695 119.891C134.695 118.07 135.555 117.023 136.875 117.023C138.195 117.023 139.055 118.07 139.055 119.891C139.055 121.719 138.203 122.766 136.875 122.766ZM142.078 124H143.766V119.078C143.766 117.914 144.438 117.188 145.523 117.188C145.852 117.188 146.148 117.227 146.281 117.281V115.711C146.156 115.688 145.945 115.648 145.703 115.648C144.734 115.648 144 116.219 143.727 117.18H143.688V115.781H142.078V124ZM147.82 113.836V115.781H146.625V117.117H147.82V121.836C147.82 123.422 148.469 124.055 150.133 124.055C150.508 124.055 150.883 124.023 151.07 123.977V122.641C150.961 122.664 150.688 122.68 150.516 122.68C149.828 122.68 149.516 122.359 149.516 121.648V117.117H151.078V115.781H149.516V113.836H147.82ZM152.32 118.109C152.32 119.258 153.07 120.031 154.555 120.391L156.023 120.75C156.883 120.969 157.195 121.258 157.195 121.781C157.195 122.445 156.57 122.867 155.555 122.867C154.523 122.867 153.914 122.43 153.781 121.641H152.109C152.242 123.148 153.531 124.156 155.477 124.156C157.492 124.156 158.891 123.125 158.891 121.625C158.891 120.414 158.266 119.789 156.609 119.391L155.227 119.07C154.375 118.859 153.969 118.516 153.969 118.008C153.969 117.359 154.578 116.914 155.492 116.914C156.438 116.914 157.039 117.375 157.117 118.117H158.703C158.648 116.656 157.367 115.633 155.539 115.633C153.617 115.633 152.32 116.641 152.32 118.109ZM168.852 124H170.531V121.773H172.078V120.305H170.531V112.727H168C165.461 116.398 164.18 118.422 163.211 120.242V121.773H168.852V124ZM164.844 120.289C165.742 118.656 166.883 116.898 168.836 114.078H168.867V120.328H164.844V120.289ZM175.156 119.305H175.141V112.727H173.453V124H175.141V121.047L175.844 120.352L178.633 124H180.594L177.055 119.32L180.461 115.781H178.477L175.156 119.305ZM191.734 115.781H189.969L187.906 122.352H187.875L185.812 115.781H184.016L186.977 124H188.789L191.734 115.781ZM192.758 124H194.445V115.781H192.758V124ZM193.602 114.578C194.148 114.578 194.586 114.148 194.586 113.617C194.586 113.078 194.148 112.648 193.602 112.648C193.062 112.648 192.625 113.078 192.625 113.617C192.625 114.148 193.062 114.578 193.602 114.578ZM199.258 124.141C200.453 124.141 201.391 123.539 201.875 122.602H201.906V124H203.547V112.727H201.852V117.148H201.82C201.359 116.242 200.422 115.648 199.242 115.648C197.18 115.648 195.805 117.297 195.805 119.891C195.805 122.484 197.18 124.141 199.258 124.141ZM199.703 117.07C201 117.07 201.867 118.188 201.867 119.891C201.867 121.609 201 122.711 199.703 122.711C198.367 122.711 197.531 121.625 197.531 119.891C197.531 118.164 198.367 117.07 199.703 117.07ZM208.719 116.992C209.898 116.992 210.695 117.875 210.734 119.133H206.625C206.711 117.891 207.539 116.992 208.719 116.992ZM210.727 121.586C210.5 122.305 209.789 122.789 208.828 122.789C207.477 122.789 206.617 121.844 206.617 120.414V120.312H212.422V119.734C212.422 117.242 211 115.633 208.719 115.633C206.398 115.633 204.914 117.352 204.914 119.93C204.914 122.523 206.375 124.156 208.789 124.156C210.672 124.156 212.094 123.086 212.328 121.586H210.727ZM217.266 124.156C219.617 124.156 221.164 122.539 221.164 119.891C221.164 117.25 219.609 115.633 217.266 115.633C214.922 115.633 213.367 117.25 213.367 119.891C213.367 122.539 214.914 124.156 217.266 124.156ZM217.266 122.766C215.945 122.766 215.086 121.719 215.086 119.891C215.086 118.07 215.945 117.023 217.266 117.023C218.586 117.023 219.445 118.07 219.445 119.891C219.445 121.719 218.594 122.766 217.266 122.766ZM51.2188 146.156C53.5703 146.156 55.1172 144.539 55.1172 141.891C55.1172 139.25 53.5625 137.633 51.2188 137.633C48.875 137.633 47.3203 139.25 47.3203 141.891C47.3203 144.539 48.8672 146.156 51.2188 146.156ZM51.2188 144.766C49.8984 144.766 49.0391 143.719 49.0391 141.891C49.0391 140.07 49.8984 139.023 51.2188 139.023C52.5391 139.023 53.3984 140.07 53.3984 141.891C53.3984 143.719 52.5469 144.766 51.2188 144.766ZM56.4219 146H58.1094V141.211C58.1094 139.938 58.875 139.094 60.0625 139.094C61.2344 139.094 61.8125 139.773 61.8125 141.008V146H63.5078V140.68C63.5078 138.797 62.4688 137.641 60.6562 137.641C59.3906 137.641 58.5156 138.219 58.0703 139.156H58.0312V137.781H56.4219V146ZM73.4766 146V141.383L77.4531 134.727H75.5156L72.6406 139.703H72.5859L69.7109 134.727H67.7578L71.7266 141.383V146H73.4766ZM80.4531 146.156C82.8047 146.156 84.3516 144.539 84.3516 141.891C84.3516 139.25 82.7969 137.633 80.4531 137.633C78.1094 137.633 76.5547 139.25 76.5547 141.891C76.5547 144.539 78.1016 146.156 80.4531 146.156ZM80.4531 144.766C79.1328 144.766 78.2734 143.719 78.2734 141.891C78.2734 140.07 79.1328 139.023 80.4531 139.023C81.7734 139.023 82.6328 140.07 82.6328 141.891C82.6328 143.719 81.7812 144.766 80.4531 144.766ZM92.7031 137.781H91.0156V142.57C91.0156 143.852 90.2812 144.695 89.0625 144.695C87.8984 144.695 87.3047 144.023 87.3047 142.773V137.781H85.6172V143.102C85.6172 144.984 86.7109 146.148 88.5 146.148C89.7578 146.148 90.5938 145.594 91.0469 144.609H91.0859V146H92.7031V137.781ZM97.6562 146V136.234H101.102V134.727H92.4531V136.234H95.9062V146H97.6562ZM107.875 137.781H106.188V142.57C106.188 143.852 105.453 144.695 104.234 144.695C103.07 144.695 102.477 144.023 102.477 142.773V137.781H100.789V143.102C100.789 144.984 101.883 146.148 103.672 146.148C104.93 146.148 105.766 145.594 106.219 144.609H106.258V146H107.875V137.781ZM113.922 146.141C116.008 146.141 117.352 144.5 117.352 141.891C117.352 139.289 116 137.648 113.93 137.648C112.766 137.648 111.828 138.227 111.336 139.18H111.297V134.727H109.609V146H111.25V144.602H111.281C111.789 145.555 112.719 146.141 113.922 146.141ZM113.469 139.07C114.797 139.07 115.617 140.164 115.617 141.891C115.617 143.633 114.797 144.711 113.469 144.711C112.188 144.711 111.289 143.602 111.289 141.891C111.289 140.195 112.188 139.07 113.469 139.07ZM122.109 138.992C123.289 138.992 124.086 139.875 124.125 141.133H120.016C120.102 139.891 120.93 138.992 122.109 138.992ZM124.117 143.586C123.891 144.305 123.18 144.789 122.219 144.789C120.867 144.789 120.008 143.844 120.008 142.414V142.312H125.812V141.734C125.812 139.242 124.391 137.633 122.109 137.633C119.789 137.633 118.305 139.352 118.305 141.93C118.305 144.523 119.766 146.156 122.18 146.156C124.062 146.156 125.484 145.086 125.719 143.586H124.117ZM128.32 148.32L129.383 144.195H127.68L126.977 148.32H128.32ZM140.781 137.781H139.094V142.57C139.094 143.852 138.359 144.695 137.141 144.695C135.977 144.695 135.383 144.023 135.383 142.773V137.781H133.695V143.102C133.695 144.984 134.789 146.148 136.578 146.148C137.836 146.148 138.672 145.594 139.125 144.609H139.164V146H140.781V137.781ZM142.453 146H144.141V141.211C144.141 139.938 144.906 139.094 146.094 139.094C147.266 139.094 147.844 139.773 147.844 141.008V146H149.539V140.68C149.539 138.797 148.5 137.641 146.688 137.641C145.422 137.641 144.547 138.219 144.102 139.156H144.062V137.781H142.453V146ZM151.234 146H152.922V134.727H151.234V146ZM154.711 146H156.398V137.781H154.711V146ZM155.555 136.578C156.102 136.578 156.539 136.148 156.539 135.617C156.539 135.078 156.102 134.648 155.555 134.648C155.016 134.648 154.578 135.078 154.578 135.617C154.578 136.148 155.016 136.578 155.555 136.578ZM159.891 141.305H159.875V134.727H158.188V146H159.875V143.047L160.578 142.352L163.367 146H165.328L161.789 141.32L165.195 137.781H163.211L159.891 141.305ZM169.25 138.992C170.43 138.992 171.227 139.875 171.266 141.133H167.156C167.242 139.891 168.07 138.992 169.25 138.992ZM171.258 143.586C171.031 144.305 170.32 144.789 169.359 144.789C168.008 144.789 167.148 143.844 167.148 142.414V142.312H172.953V141.734C172.953 139.242 171.531 137.633 169.25 137.633C166.93 137.633 165.445 139.352 165.445 141.93C165.445 144.523 166.906 146.156 169.32 146.156C171.203 146.156 172.625 145.086 172.859 143.586H171.258ZM181.047 146.156C183.398 146.156 184.945 144.539 184.945 141.891C184.945 139.25 183.391 137.633 181.047 137.633C178.703 137.633 177.148 139.25 177.148 141.891C177.148 144.539 178.695 146.156 181.047 146.156ZM181.047 144.766C179.727 144.766 178.867 143.719 178.867 141.891C178.867 140.07 179.727 139.023 181.047 139.023C182.367 139.023 183.227 140.07 183.227 141.891C183.227 143.719 182.375 144.766 181.047 144.766ZM186.742 135.836V137.781H185.547V139.117H186.742V143.836C186.742 145.422 187.391 146.055 189.055 146.055C189.43 146.055 189.805 146.023 189.992 145.977V144.641C189.883 144.664 189.609 144.68 189.438 144.68C188.75 144.68 188.438 144.359 188.438 143.648V139.117H190V137.781H188.438V135.836H186.742ZM191.453 146H193.141V141.25C193.141 139.953 193.906 139.094 195.156 139.094C196.344 139.094 196.953 139.82 196.953 141.031V146H198.648V140.703C198.648 138.844 197.57 137.641 195.766 137.641C194.516 137.641 193.617 138.195 193.164 139.156H193.125V134.727H191.453V146ZM203.719 138.992C204.898 138.992 205.695 139.875 205.734 141.133H201.625C201.711 139.891 202.539 138.992 203.719 138.992ZM205.727 143.586C205.5 144.305 204.789 144.789 203.828 144.789C202.477 144.789 201.617 143.844 201.617 142.414V142.312H207.422V141.734C207.422 139.242 206 137.633 203.719 137.633C201.398 137.633 199.914 139.352 199.914 141.93C199.914 144.523 201.375 146.156 203.789 146.156C205.672 146.156 207.094 145.086 207.328 143.586H205.727ZM208.734 146H210.422V141.078C210.422 139.914 211.094 139.188 212.18 139.188C212.508 139.188 212.805 139.227 212.938 139.281V137.711C212.812 137.688 212.602 137.648 212.359 137.648C211.391 137.648 210.656 138.219 210.383 139.18H210.344V137.781H208.734V146ZM89.1875 168.141C90.3828 168.141 91.3203 167.539 91.8047 166.602H91.8359V168H93.4766V156.727H91.7812V161.148H91.75C91.2891 160.242 90.3516 159.648 89.1719 159.648C87.1094 159.648 85.7344 161.297 85.7344 163.891C85.7344 166.484 87.1094 168.141 89.1875 168.141ZM89.6328 161.07C90.9297 161.07 91.7969 162.188 91.7969 163.891C91.7969 165.609 90.9297 166.711 89.6328 166.711C88.2969 166.711 87.4609 165.625 87.4609 163.891C87.4609 162.164 88.2969 161.07 89.6328 161.07ZM98.7422 168.156C101.094 168.156 102.641 166.539 102.641 163.891C102.641 161.25 101.086 159.633 98.7422 159.633C96.3984 159.633 94.8438 161.25 94.8438 163.891C94.8438 166.539 96.3906 168.156 98.7422 168.156ZM98.7422 166.766C97.4219 166.766 96.5625 165.719 96.5625 163.891C96.5625 162.07 97.4219 161.023 98.7422 161.023C100.062 161.023 100.922 162.07 100.922 163.891C100.922 165.719 100.07 166.766 98.7422 166.766ZM114.758 159.781H113.086L111.586 166.25H111.547L109.828 159.781H108.203L106.492 166.25H106.461L104.961 159.781H103.273L105.531 168H107.273L108.984 161.844H109.023L110.75 168H112.508L114.758 159.781ZM115.789 168H117.477V163.211C117.477 161.938 118.242 161.094 119.43 161.094C120.602 161.094 121.18 161.773 121.18 163.008V168H122.875V162.68C122.875 160.797 121.836 159.641 120.023 159.641C118.758 159.641 117.883 160.219 117.438 161.156H117.398V159.781H115.789V168ZM124.57 168H126.258V156.727H124.57V168ZM131.523 168.156C133.875 168.156 135.422 166.539 135.422 163.891C135.422 161.25 133.867 159.633 131.523 159.633C129.18 159.633 127.625 161.25 127.625 163.891C127.625 166.539 129.172 168.156 131.523 168.156ZM131.523 166.766C130.203 166.766 129.344 165.719 129.344 163.891C129.344 162.07 130.203 161.023 131.523 161.023C132.844 161.023 133.703 162.07 133.703 163.891C133.703 165.719 132.852 166.766 131.523 166.766ZM139.602 166.805C138.695 166.805 138.102 166.336 138.102 165.617C138.102 164.914 138.672 164.469 139.68 164.398L141.703 164.273V164.922C141.703 165.992 140.781 166.805 139.602 166.805ZM139.133 168.141C140.211 168.141 141.25 167.562 141.727 166.648H141.766V168H143.383V162.336C143.383 160.688 142.109 159.633 140.117 159.633C138.086 159.633 136.82 160.727 136.727 162.211H138.32C138.469 161.477 139.078 161.008 140.055 161.008C141.086 161.008 141.703 161.555 141.703 162.469V163.102L139.453 163.234C137.5 163.344 136.398 164.227 136.398 165.664C136.398 167.141 137.523 168.141 139.133 168.141ZM148.109 168.141C149.305 168.141 150.242 167.539 150.727 166.602H150.758V168H152.398V156.727H150.703V161.148H150.672C150.211 160.242 149.273 159.648 148.094 159.648C146.031 159.648 144.656 161.297 144.656 163.891C144.656 166.484 146.031 168.141 148.109 168.141ZM148.555 161.07C149.852 161.07 150.719 162.188 150.719 163.891C150.719 165.609 149.852 166.711 148.555 166.711C147.219 166.711 146.383 165.625 146.383 163.891C146.383 162.164 147.219 161.07 148.555 161.07ZM157.57 160.992C158.75 160.992 159.547 161.875 159.586 163.133H155.477C155.562 161.891 156.391 160.992 157.57 160.992ZM159.578 165.586C159.352 166.305 158.641 166.789 157.68 166.789C156.328 166.789 155.469 165.844 155.469 164.414V164.312H161.273V163.734C161.273 161.242 159.852 159.633 157.57 159.633C155.25 159.633 153.766 161.352 153.766 163.93C153.766 166.523 155.227 168.156 157.641 168.156C159.523 168.156 160.945 167.086 161.18 165.586H159.578ZM162.586 168H164.273V163.078C164.273 161.914 164.945 161.188 166.031 161.188C166.359 161.188 166.656 161.227 166.789 161.281V159.711C166.664 159.688 166.453 159.648 166.211 159.648C165.242 159.648 164.508 160.219 164.234 161.18H164.195V159.781H162.586V168ZM167.688 162.109C167.688 163.258 168.438 164.031 169.922 164.391L171.391 164.75C172.25 164.969 172.562 165.258 172.562 165.781C172.562 166.445 171.938 166.867 170.922 166.867C169.891 166.867 169.281 166.43 169.148 165.641H167.477C167.609 167.148 168.898 168.156 170.844 168.156C172.859 168.156 174.258 167.125 174.258 165.625C174.258 164.414 173.633 163.789 171.977 163.391L170.594 163.07C169.742 162.859 169.336 162.516 169.336 162.008C169.336 161.359 169.945 160.914 170.859 160.914C171.805 160.914 172.406 161.375 172.484 162.117H174.07C174.016 160.656 172.734 159.633 170.906 159.633C168.984 159.633 167.688 160.641 167.688 162.109Z" fill="#B4B5B9"/>
</g>
<defs>
<filter id="filter0_d_9_59" x="0.53012" y="0" width="259.94" height="219.94" filterUnits="userSpaceOnUse" color-interpolation-filters="sRGB">
<feFlood flood-opacity="0" result="BackgroundImageFix"/>
<feColorMatrix in="SourceAlpha" type="matrix" values="0 0 0 0 0 0 0 0 0 0 0 0 0 0 0 0 0 0 127 0" result="hardAlpha"/>
<feOffset dy="7.46988"/>
<feGaussianBlur stdDeviation="3.73494"/>
<feComposite in2="hardAlpha" operator="out"/>
<feColorMatrix type="matrix" values="0 0 0 0 0 0 0 0 0 0 0 0 0 0 0 0 0 0 0.25 0"/>
<feBlend mode="normal" in2="BackgroundImageFix" result="effect1_dropShadow_9_59"/>
<feBlend mode="normal" in="SourceGraphic" in2="effect1_dropShadow_9_59" result="shape"/>
</filter>
<linearGradient id="paint0_linear_9_59" x1="51.5" y1="28.5" x2="237.5" y2="204" gradientUnits="userSpaceOnUse">
<stop stop-color="#101115"/>
<stop offset="1" stop-color="#161622"/>
</linearGradient>
<linearGradient id="paint1_linear_9_59" x1="32.2664" y1="90.2303" x2="177.859" y2="80.5747" gradientUnits="userSpaceOnUse">
<stop stop-color="#F9F6F6"/>
<stop offset="1" stop-color="#9E9FA5"/>
</linearGradient>
</defs>
</svg>
