<svg width="106" height="128" viewBox="0 0 106 128" fill="none" xmlns="http://www.w3.org/2000/svg">
<g filter="url(#filter0_d_2_209)">
<path fill-rule="evenodd" clip-rule="evenodd" d="M68.0214 11.6641C67.3505 10.5698 66.2845 9.77546 65.0441 9.4455L35.6989 1.63931C33.0303 0.92942 30.2915 2.51729 29.5816 5.18591L7.66746 87.566C6.95757 90.2346 8.54544 92.9734 11.2141 93.6833L80.3028 112.062C82.9715 112.772 85.7103 111.184 86.4202 108.515L98.2693 63.9718C98.6212 62.6491 98.4154 61.2399 97.7 60.0731L68.0214 11.6641Z" fill="#2F3034"/>
<path fill-rule="evenodd" clip-rule="evenodd" d="M67.5083 13.3507C66.8374 12.2564 65.7714 11.4621 64.531 11.1321L36.4823 3.67078C33.8136 2.96089 31.0748 4.54875 30.3649 7.21737L9.32989 86.2927C8.62 88.9613 10.2079 91.7002 12.8765 92.41L79.1377 110.036C81.8064 110.746 84.5452 109.158 85.2551 106.49L96.6128 63.7935C96.9647 62.4708 96.7589 61.0616 96.0435 59.8948L67.5083 13.3507Z" fill="url(#paint0_linear_2_209)"/>
<path d="M52.9311 66.4162L55.4548 55.4289L53.4751 54.9741L47.9348 62.8318L47.8739 62.8178L46.3101 53.3284L44.338 52.8754L41.8143 63.8628L43.3676 64.2196L45.225 56.1332L45.2783 56.1455L46.76 64.9106L48.0239 65.2009L53.1742 57.9591L53.2275 57.9713L51.3702 66.0577L52.9311 66.4162ZM57.4801 55.8941L54.9565 66.8814L56.6621 67.2731L57.5243 63.5193L59.8847 64.0615C62.0395 64.5564 63.894 63.4273 64.3872 61.2801C64.8787 59.1405 63.7314 57.3299 61.5994 56.8402L57.4801 55.8941ZM58.8552 57.7249L60.8197 58.1761C62.2968 58.5154 62.9601 59.5014 62.6418 60.8872C62.3235 62.273 61.2947 62.8784 59.8099 62.5373L57.8531 62.0879L58.8552 57.7249ZM67.5579 64.5414L68.9285 64.8562C70.3752 65.1885 71.1058 66.1258 70.8329 67.3137C70.5863 68.3873 69.4521 68.9283 68.112 68.6205C66.7262 68.3022 66.0243 67.3795 66.159 66.3042L64.522 65.9282C64.1931 67.8487 65.4169 69.5005 67.7849 70.0444C70.0768 70.5708 72.123 69.654 72.5637 67.7353C72.917 66.1972 72.0836 64.9396 70.4576 64.4459L70.4646 64.4155C71.8835 64.4849 73.0076 63.709 73.3224 62.3384C73.7106 60.6481 72.4665 59.1198 70.3878 58.6424C68.2101 58.1422 66.4707 59.0493 65.8988 60.9459L67.5054 61.315C67.8528 60.2565 68.802 59.7531 69.9899 60.0259C71.2919 60.325 71.8367 61.1635 71.6024 62.1838C71.3645 63.2194 70.3784 63.7784 69.1906 63.5056L67.8657 63.2013L67.5579 64.5414Z" fill="#B4B5B9"/>
</g>
<defs>
<filter id="filter0_d_2_209" x="-1.34915" y="0.471008" width="108.037" height="127.868" filterUnits="userSpaceOnUse" color-interpolation-filters="sRGB">
<feFlood flood-opacity="0" result="BackgroundImageFix"/>
<feColorMatrix in="SourceAlpha" type="matrix" values="0 0 0 0 0 0 0 0 0 0 0 0 0 0 0 0 0 0 127 0" result="hardAlpha"/>
<feOffset dy="7.46988"/>
<feGaussianBlur stdDeviation="3.73494"/>
<feComposite in2="hardAlpha" operator="out"/>
<feColorMatrix type="matrix" values="0 0 0 0 0 0 0 0 0 0 0 0 0 0 0 0 0 0 0.25 0"/>
<feBlend mode="normal" in2="BackgroundImageFix" result="effect1_dropShadow_2_209"/>
<feBlend mode="normal" in="SourceGraphic" in2="effect1_dropShadow_2_209" result="shape"/>
</filter>
<linearGradient id="paint0_linear_2_209" x1="62.5185" y1="15.0696" x2="42.3671" y2="100.399" gradientUnits="userSpaceOnUse">
<stop stop-color="#101115"/>
<stop offset="1" stop-color="#24272E"/>
</linearGradient>
</defs>
</svg>
