<svg width="214" height="31" viewBox="0 0 214 31" fill="none" xmlns="http://www.w3.org/2000/svg">
<rect x="1" y="1" width="212" height="29" rx="9" fill="#0D0E12" stroke="#17181C" stroke-width="2"/>
<path d="M12.7949 19H14.0781V10.5449H12.7832L10.5566 12.127V13.416L12.7656 11.8457H12.7949V19ZM20.1602 19H21.4199V17.3301H22.5801V16.2285H21.4199V10.5449H19.5215C17.6172 13.2988 16.6562 14.8164 15.9297 16.1816V17.3301H20.1602V19ZM17.1543 16.2168C17.8281 14.9922 18.6836 13.6738 20.1484 11.5586H20.1719V16.2461H17.1543V16.2168ZM27.6133 19H28.873V17.3301H30.0332V16.2285H28.873V10.5449H26.9746C25.0703 13.2988 24.1094 14.8164 23.3828 16.1816V17.3301H27.6133V19ZM24.6074 16.2168C25.2812 14.9922 26.1367 13.6738 27.6016 11.5586H27.625V16.2461H24.6074V16.2168ZM34.2285 12.7363C33.3379 12.7363 32.6289 13.1875 32.2656 13.8965H32.2422V12.8359H31.0176V21.0391H32.2832V17.9863H32.3125C32.6641 18.6719 33.3672 19.1055 34.252 19.1055C35.7988 19.1055 36.8242 17.8691 36.8242 15.918C36.8242 13.9668 35.793 12.7363 34.2285 12.7363ZM33.8945 18.0332C32.9219 18.0332 32.2773 17.2012 32.2773 15.918C32.2773 14.6465 32.9277 13.8027 33.8945 13.8027C34.8965 13.8027 35.5234 14.6289 35.5234 15.918C35.5234 17.2129 34.8965 18.0332 33.8945 18.0332Z" fill="#D9D9D9"/>
<path d="M40.8203 10.5449V20.7988H43.3633V20.0078H41.8047V11.3418H43.3633V10.5449H40.8203ZM46.3223 19H47.3418V10.5449H46.3105L44.0605 12.1621V13.2754L46.2988 11.6641H46.3223V19ZM49.9727 19H51.0801L54.8418 11.5234V10.5449H49.2461V11.4824H53.7988V11.5059L49.9727 19ZM58.9902 19.1465C60.7246 19.1465 61.9844 17.9277 61.9844 16.2578C61.9844 14.6523 60.7891 13.4629 59.1777 13.4629C58.1289 13.4629 57.1973 14.0078 56.8164 14.834H56.7988C56.834 12.584 57.6367 11.3301 59.0488 11.3301C59.8867 11.3301 60.5664 11.8223 60.7949 12.5898H61.8672C61.5977 11.2598 60.4961 10.3984 59.0605 10.3984C56.9922 10.3984 55.7793 12.0684 55.7793 14.916C55.7793 15.8301 55.9141 16.5918 56.1953 17.2422C56.7168 18.4609 57.7246 19.1465 58.9902 19.1465ZM58.9785 18.209C57.8945 18.209 57.0508 17.3477 57.0508 16.2637C57.0508 15.1855 57.877 14.3887 58.9961 14.3887C60.1152 14.3887 60.9121 15.1855 60.9121 16.293C60.9121 17.3594 60.0566 18.209 58.9785 18.209ZM67.082 13.8262L67.4629 13.1348L65.9746 12.3848L67.4629 11.623L67.0879 10.9434L65.6582 11.834L65.7168 10.1582H64.9551L65.0137 11.8281L63.5781 10.9434L63.2148 11.623L64.6855 12.3789L63.209 13.1289L63.5723 13.832L65.0137 12.9297L64.9492 14.6113H65.7168L65.6582 12.9297L67.082 13.8262ZM71.0605 19H72.0801V10.5449H71.0488L68.7988 12.1621V13.2754L71.0371 11.6641H71.0605V19ZM78.2441 19H79.2637V17.2422H80.459V16.3164H79.2637V10.5449H77.7051C75.707 13.4102 74.7168 14.9512 73.9961 16.2871V17.2422H78.2441V19ZM75.0391 16.293C75.707 15.1211 76.627 13.709 78.2266 11.4238H78.2441V16.3164H75.0391V16.293ZM85.5098 19H86.5293V17.2422H87.7246V16.3164H86.5293V10.5449H84.9707C82.9727 13.4102 81.9824 14.9512 81.2617 16.2871V17.2422H85.5098V19ZM82.3047 16.293C82.9727 15.1211 83.8926 13.709 85.4922 11.4238H85.5098V16.3164H82.3047V16.293ZM90.8652 15.7422C90.0156 15.8242 89.582 16.2695 89.582 17.125V18.6602C89.582 19.5859 89.2422 19.9727 88.4219 19.9727H88.1875V20.7988H88.5098C89.8867 20.7988 90.543 20.1309 90.543 18.7305V17.4648C90.543 16.5391 90.8594 16.2285 91.8203 16.2285V15.1152C90.8652 15.1152 90.543 14.8047 90.543 13.8672V12.5605C90.543 11.1953 89.8926 10.5449 88.5098 10.5449H88.1875V11.3711H88.4219C89.248 11.3711 89.582 11.752 89.582 12.6895V14.2305C89.582 15.0742 90.0039 15.5137 90.8652 15.6016V15.7422Z" fill="#50505C"/>
<path d="M180.633 12.9824V12.9883H181.652V12.9824C181.652 12.0391 182.402 11.3242 183.393 11.3242C184.324 11.3242 185.068 11.9746 185.068 12.7891C185.068 13.4922 184.799 13.9434 183.662 15.1387L180.686 18.2734V19H186.264V18.0625H182.145V18.0391L184.283 15.8301C185.695 14.3711 186.123 13.668 186.123 12.7246C186.123 11.4297 184.934 10.4043 183.422 10.4043C181.828 10.4043 180.633 11.5059 180.633 12.9824ZM195.949 19V10.5449H194.725L191.807 17.5996H191.76L188.842 10.5449H187.617V19H188.602V12.4844H188.643L191.338 18.9414H192.229L194.924 12.4844H194.965V19H195.949ZM200.461 19.1055C202.02 19.1055 203.051 17.8691 203.051 15.9531C203.051 14.043 202.014 12.8008 200.479 12.8008C199.617 12.8008 198.908 13.2285 198.527 13.9258H198.504V10.5449H197.484V19H198.457V17.9688H198.48C198.873 18.6719 199.57 19.1055 200.461 19.1055ZM200.262 13.6973C201.34 13.6973 202.008 14.5703 202.008 15.9531C202.008 17.3477 201.34 18.209 200.262 18.209C199.23 18.209 198.498 17.3125 198.498 15.9531C198.498 14.5996 199.23 13.6973 200.262 13.6973Z" fill="#50505C"/>
</svg>
