<svg width="532" height="343" viewBox="0 0 532 343" fill="none" xmlns="http://www.w3.org/2000/svg">
<rect x="0.194444" y="0.194444" width="531.611" height="342.611" fill="#0D0D15" fill-opacity="0.6" stroke="#D9D9D9" stroke-width="0.388889"/>
<line x1="-0.000274658" y1="37.5277" x2="532" y2="37.5277" stroke="#D9D9D9" stroke-width="0.388889"/>
<path d="M145.7 15.7612V17.2743H144.77V18.3133H145.7V21.9835C145.7 23.217 146.204 23.7092 147.498 23.7092C147.79 23.7092 148.082 23.6849 148.227 23.6484V22.6093C148.142 22.6276 147.93 22.6397 147.796 22.6397C147.261 22.6397 147.018 22.3906 147.018 21.8376V18.3133H148.234V17.2743H147.018V15.7612H145.7ZM154.796 17.2743H153.484V20.9991C153.484 21.9956 152.912 22.6519 151.964 22.6519C151.059 22.6519 150.597 22.1293 150.597 21.1571V17.2743H149.285V21.4123C149.285 22.8767 150.135 23.7821 151.527 23.7821C152.505 23.7821 153.155 23.3507 153.508 22.585H153.538V23.6666H154.796V17.2743ZM159.499 23.776C161.122 23.776 162.167 22.5 162.167 20.4704C162.167 18.447 161.115 17.171 159.505 17.171C158.6 17.171 157.871 17.6206 157.488 18.3619H157.457V14.8984H156.145V23.6666H157.421V22.579H157.445C157.84 23.3203 158.563 23.776 159.499 23.776ZM159.147 18.2769C160.18 18.2769 160.818 19.1276 160.818 20.4704C160.818 21.8255 160.18 22.664 159.147 22.664C158.15 22.664 157.451 21.8012 157.451 20.4704C157.451 19.1519 158.15 18.2769 159.147 18.2769ZM165.867 18.2161C166.785 18.2161 167.405 18.9027 167.435 19.881H164.239C164.306 18.9149 164.95 18.2161 165.867 18.2161ZM167.429 21.789C167.253 22.348 166.7 22.7248 165.952 22.7248C164.901 22.7248 164.233 21.9895 164.233 20.8776V20.7986H168.747V20.3489C168.747 18.4105 167.642 17.1588 165.867 17.1588C164.063 17.1588 162.908 18.4956 162.908 20.5008C162.908 22.5182 164.044 23.7882 165.922 23.7882C167.386 23.7882 168.492 22.9557 168.674 21.789H167.429ZM175.255 19.4739C175.14 18.2161 174.137 17.1588 172.49 17.1588C170.674 17.1588 169.483 18.4409 169.483 20.4704C169.483 22.5364 170.674 23.7882 172.503 23.7882C174.04 23.7882 175.128 22.8645 175.267 21.5034H174.003C173.852 22.2448 173.323 22.6883 172.515 22.6883C171.494 22.6883 170.819 21.8741 170.819 20.4704C170.819 19.0972 171.488 18.2526 172.503 18.2526C173.359 18.2526 173.87 18.7934 174.003 19.4739H175.255ZM181.678 17.2743H180.365V20.9991C180.365 21.9956 179.794 22.6519 178.846 22.6519C177.941 22.6519 177.479 22.1293 177.479 21.1571V17.2743H176.167V21.4123C176.167 22.8767 177.017 23.7821 178.409 23.7821C179.387 23.7821 180.037 23.3507 180.39 22.585H180.42V23.6666H181.678V17.2743ZM183.361 15.7612V17.2743H182.431V18.3133H183.361V21.9835C183.361 23.217 183.865 23.7092 185.16 23.7092C185.451 23.7092 185.743 23.6849 185.889 23.6484V22.6093C185.804 22.6276 185.591 22.6397 185.457 22.6397C184.923 22.6397 184.68 22.3906 184.68 21.8376V18.3133H185.895V17.2743H184.68V15.7612H183.361ZM193.545 20.7013V19.5165H189.559V20.7013H193.545ZM201.122 23.6666V16.0711H203.802V14.8984H197.076V16.0711H199.761V23.6666H201.122ZM203.565 23.6666H204.878V19.8385C204.878 18.9331 205.4 18.368 206.245 18.368C206.5 18.368 206.731 18.3984 206.834 18.4409V17.2196C206.737 17.2013 206.573 17.171 206.385 17.171C205.631 17.171 205.06 17.6145 204.847 18.3619H204.817V17.2743H203.565V23.6666ZM207.691 23.6666H209.003V17.2743H207.691V23.6666ZM208.347 16.3385C208.773 16.3385 209.113 16.0043 209.113 15.5911C209.113 15.1718 208.773 14.8376 208.347 14.8376C207.928 14.8376 207.588 15.1718 207.588 15.5911C207.588 16.0043 207.928 16.3385 208.347 16.3385ZM210.346 23.6666H211.659V19.717C211.659 18.8967 212.212 18.289 212.99 18.289C213.731 18.289 214.199 18.7569 214.199 19.4921V23.6666H215.487V19.6744C215.487 18.8663 216.028 18.289 216.806 18.289C217.583 18.289 218.027 18.763 218.027 19.5894V23.6666H219.346V19.2734C219.346 18.0034 218.519 17.1649 217.255 17.1649C216.344 17.1649 215.59 17.6388 215.262 18.4166H215.232C214.977 17.6206 214.332 17.1649 213.445 17.1649C212.582 17.1649 211.914 17.6388 211.628 18.3498H211.598V17.2743H210.346V23.6666ZM225.379 22.7369C224.675 22.7369 224.213 22.3724 224.213 21.8133C224.213 21.2665 224.656 20.9201 225.44 20.8654L227.014 20.7682V21.2725C227.014 22.105 226.297 22.7369 225.379 22.7369ZM225.015 23.776C225.853 23.776 226.661 23.3263 227.032 22.6154H227.063V23.6666H228.32V19.2612C228.32 17.9791 227.33 17.1588 225.78 17.1588C224.201 17.1588 223.216 18.0095 223.143 19.164H224.383C224.498 18.5928 224.972 18.2283 225.732 18.2283C226.534 18.2283 227.014 18.6536 227.014 19.3645V19.8567L225.264 19.96C223.745 20.0451 222.888 20.7317 222.888 21.8498C222.888 22.9982 223.763 23.776 225.015 23.776ZM229.596 23.6666H230.909V19.9418C230.909 18.9513 231.504 18.2951 232.428 18.2951C233.339 18.2951 233.789 18.8237 233.789 19.7838V23.6666H235.108V19.5286C235.108 18.0642 234.3 17.1649 232.89 17.1649C231.905 17.1649 231.225 17.6145 230.878 18.3437H230.848V17.2743H229.596V23.6666ZM238.778 23.776C239.707 23.776 240.437 23.3081 240.813 22.579H240.838V23.6666H242.114V14.8984H240.795V18.3376H240.771C240.412 17.6328 239.683 17.171 238.766 17.171C237.161 17.171 236.092 18.4531 236.092 20.4704C236.092 22.4878 237.161 23.776 238.778 23.776ZM239.124 18.2769C240.133 18.2769 240.807 19.1458 240.807 20.4704C240.807 21.8073 240.133 22.664 239.124 22.664C238.085 22.664 237.435 21.8194 237.435 20.4704C237.435 19.1276 238.085 18.2769 239.124 18.2769ZM246.148 14.8984V23.6666H249.241C251.854 23.6666 253.392 22.0382 253.392 19.2673C253.392 16.5026 251.848 14.8984 249.241 14.8984H246.148ZM247.51 16.0711H249.114C250.967 16.0711 252 17.2135 252 19.2795C252 21.3515 250.973 22.4878 249.114 22.4878H247.51V16.0711ZM257.28 23.7882C259.109 23.7882 260.313 22.5303 260.313 20.4704C260.313 18.4166 259.103 17.1588 257.28 17.1588C255.457 17.1588 254.248 18.4166 254.248 20.4704C254.248 22.5303 255.451 23.7882 257.28 23.7882ZM257.28 22.7066C256.253 22.7066 255.585 21.8923 255.585 20.4704C255.585 19.0546 256.253 18.2404 257.28 18.2404C258.307 18.2404 258.976 19.0546 258.976 20.4704C258.976 21.8923 258.313 22.7066 257.28 22.7066ZM269.737 17.2743H268.437L267.27 22.3055H267.24L265.903 17.2743H264.639L263.308 22.3055H263.284L262.117 17.2743H260.805L262.561 23.6666H263.916L265.247 18.8784H265.277L266.62 23.6666H267.987L269.737 17.2743ZM270.539 23.6666H271.852V19.9418C271.852 18.9513 272.447 18.2951 273.371 18.2951C274.282 18.2951 274.732 18.8237 274.732 19.7838V23.6666H276.05V19.5286C276.05 18.0642 275.242 17.1649 273.832 17.1649C272.848 17.1649 272.168 17.6145 271.821 18.3437H271.791V17.2743H270.539V23.6666ZM277.369 23.6666H278.681V14.8984H277.369V23.6666ZM282.777 23.7882C284.606 23.7882 285.809 22.5303 285.809 20.4704C285.809 18.4166 284.6 17.1588 282.777 17.1588C280.954 17.1588 279.745 18.4166 279.745 20.4704C279.745 22.5303 280.948 23.7882 282.777 23.7882ZM282.777 22.7066C281.75 22.7066 281.082 21.8923 281.082 20.4704C281.082 19.0546 281.75 18.2404 282.777 18.2404C283.804 18.2404 284.472 19.0546 284.472 20.4704C284.472 21.8923 283.81 22.7066 282.777 22.7066ZM289.06 22.7369C288.355 22.7369 287.893 22.3724 287.893 21.8133C287.893 21.2665 288.337 20.9201 289.121 20.8654L290.694 20.7682V21.2725C290.694 22.105 289.977 22.7369 289.06 22.7369ZM288.695 23.776C289.534 23.776 290.342 23.3263 290.713 22.6154H290.743V23.6666H292.001V19.2612C292.001 17.9791 291.01 17.1588 289.461 17.1588C287.881 17.1588 286.897 18.0095 286.824 19.164H288.063C288.179 18.5928 288.653 18.2283 289.412 18.2283C290.214 18.2283 290.694 18.6536 290.694 19.3645V19.8567L288.944 19.96C287.425 20.0451 286.569 20.7317 286.569 21.8498C286.569 22.9982 287.444 23.776 288.695 23.776ZM295.677 23.776C296.607 23.776 297.336 23.3081 297.713 22.579H297.737V23.6666H299.013V14.8984H297.694V18.3376H297.67C297.312 17.6328 296.582 17.171 295.665 17.171C294.061 17.171 292.991 18.4531 292.991 20.4704C292.991 22.4878 294.061 23.776 295.677 23.776ZM296.023 18.2769C297.032 18.2769 297.707 19.1458 297.707 20.4704C297.707 21.8073 297.032 22.664 296.023 22.664C294.984 22.664 294.334 21.8194 294.334 20.4704C294.334 19.1276 294.984 18.2769 296.023 18.2769ZM306.846 23.6666V20.0755L309.938 14.8984H308.431L306.195 18.7691H306.153L303.917 14.8984H302.398L305.484 20.0755V23.6666H306.846ZM312.272 23.7882C314.101 23.7882 315.304 22.5303 315.304 20.4704C315.304 18.4166 314.095 17.1588 312.272 17.1588C310.449 17.1588 309.24 18.4166 309.24 20.4704C309.24 22.5303 310.443 23.7882 312.272 23.7882ZM312.272 22.7066C311.245 22.7066 310.576 21.8923 310.576 20.4704C310.576 19.0546 311.245 18.2404 312.272 18.2404C313.299 18.2404 313.967 19.0546 313.967 20.4704C313.967 21.8923 313.305 22.7066 312.272 22.7066ZM321.8 17.2743H320.487V20.9991C320.487 21.9956 319.916 22.6519 318.968 22.6519C318.063 22.6519 317.601 22.1293 317.601 21.1571V17.2743H316.288V21.4123C316.288 22.8767 317.139 23.7821 318.53 23.7821C319.509 23.7821 320.159 23.3507 320.511 22.585H320.542V23.6666H321.8V17.2743ZM323.483 15.7612V17.2743H322.553V18.3133H323.483V21.9835C323.483 23.217 323.987 23.7092 325.281 23.7092C325.573 23.7092 325.865 23.6849 326.01 23.6484V22.6093C325.925 22.6276 325.713 22.6397 325.579 22.6397C325.044 22.6397 324.801 22.3906 324.801 21.8376V18.3133H326.017V17.2743H324.801V15.7612H323.483ZM332.579 17.2743H331.267V20.9991C331.267 21.9956 330.695 22.6519 329.747 22.6519C328.842 22.6519 328.38 22.1293 328.38 21.1571V17.2743H327.068V21.4123C327.068 22.8767 327.918 23.7821 329.31 23.7821C330.288 23.7821 330.938 23.3507 331.291 22.585H331.321V23.6666H332.579V17.2743ZM337.282 23.776C338.905 23.776 339.95 22.5 339.95 20.4704C339.95 18.447 338.898 17.171 337.288 17.171C336.383 17.171 335.654 17.6206 335.271 18.3619H335.24V14.8984H333.928V23.6666H335.204V22.579H335.228C335.623 23.3203 336.346 23.776 337.282 23.776ZM336.93 18.2769C337.963 18.2769 338.601 19.1276 338.601 20.4704C338.601 21.8255 337.963 22.664 336.93 22.664C335.933 22.664 335.234 21.8012 335.234 20.4704C335.234 19.1519 335.933 18.2769 336.93 18.2769ZM343.65 18.2161C344.568 18.2161 345.188 18.9027 345.218 19.881H342.022C342.089 18.9149 342.733 18.2161 343.65 18.2161ZM345.212 21.789C345.036 22.348 344.483 22.7248 343.735 22.7248C342.684 22.7248 342.016 21.9895 342.016 20.8776V20.7986H346.53V20.3489C346.53 18.4105 345.425 17.1588 343.65 17.1588C341.846 17.1588 340.691 18.4956 340.691 20.5008C340.691 22.5182 341.827 23.7882 343.705 23.7882C345.169 23.7882 346.275 22.9557 346.457 21.789H345.212ZM354.205 23.6666L357.334 14.8984H355.882L353.488 22.1354H353.451L351.063 14.8984H349.587L352.716 23.6666H354.205ZM358.033 23.6666H359.346V17.2743H358.033V23.6666ZM358.689 16.3385C359.115 16.3385 359.455 16.0043 359.455 15.5911C359.455 15.1718 359.115 14.8376 358.689 14.8376C358.27 14.8376 357.93 15.1718 357.93 15.5911C357.93 16.0043 358.27 16.3385 358.689 16.3385ZM363.089 23.776C364.018 23.776 364.747 23.3081 365.124 22.579H365.148V23.6666H366.425V14.8984H365.106V18.3376H365.082C364.723 17.6328 363.994 17.171 363.076 17.171C361.472 17.171 360.403 18.4531 360.403 20.4704C360.403 22.4878 361.472 23.776 363.089 23.776ZM363.435 18.2769C364.444 18.2769 365.118 19.1458 365.118 20.4704C365.118 21.8073 364.444 22.664 363.435 22.664C362.396 22.664 361.746 21.8194 361.746 20.4704C361.746 19.1276 362.396 18.2769 363.435 18.2769ZM370.447 18.2161C371.365 18.2161 371.984 18.9027 372.015 19.881H368.819C368.885 18.9149 369.53 18.2161 370.447 18.2161ZM372.009 21.789C371.832 22.348 371.28 22.7248 370.532 22.7248C369.481 22.7248 368.813 21.9895 368.813 20.8776V20.7986H373.327V20.3489C373.327 18.4105 372.221 17.1588 370.447 17.1588C368.642 17.1588 367.488 18.4956 367.488 20.5008C367.488 22.5182 368.624 23.7882 370.502 23.7882C371.966 23.7882 373.072 22.9557 373.254 21.789H372.009ZM377.095 23.7882C378.924 23.7882 380.127 22.5303 380.127 20.4704C380.127 18.4166 378.918 17.1588 377.095 17.1588C375.272 17.1588 374.063 18.4166 374.063 20.4704C374.063 22.5303 375.266 23.7882 377.095 23.7882ZM377.095 22.7066C376.068 22.7066 375.399 21.8923 375.399 20.4704C375.399 19.0546 376.068 18.2404 377.095 18.2404C378.122 18.2404 378.79 19.0546 378.79 20.4704C378.79 21.8923 378.128 22.7066 377.095 22.7066ZM381.026 19.085C381.026 19.9783 381.609 20.5798 382.764 20.8593L383.906 21.1388C384.575 21.309 384.818 21.5338 384.818 21.9409C384.818 22.4574 384.332 22.7855 383.542 22.7855C382.74 22.7855 382.266 22.4453 382.162 21.8316H380.862C380.965 23.0043 381.968 23.7882 383.481 23.7882C385.049 23.7882 386.136 22.9861 386.136 21.8194C386.136 20.8776 385.65 20.3915 384.362 20.0816L383.286 19.8324C382.624 19.6684 382.308 19.401 382.308 19.006C382.308 18.5017 382.782 18.1553 383.493 18.1553C384.228 18.1553 384.696 18.5138 384.757 19.0911H385.99C385.948 17.9548 384.951 17.1588 383.53 17.1588C382.035 17.1588 381.026 17.9427 381.026 19.085Z" fill="#50505C"/>
<path d="M21.3264 61C23.1918 61 24.316 60.0642 24.316 58.5208C24.316 57.3542 23.5139 56.5095 22.3229 56.3759V56.3273C23.1979 56.1814 23.8845 55.349 23.8845 54.4193C23.8845 53.0946 22.8637 52.2318 21.3082 52.2318H17.8082V61H21.3264ZM19.1693 53.3437H20.98C21.9644 53.3437 22.5234 53.7934 22.5234 54.6076C22.5234 55.4766 21.8733 55.9627 20.6944 55.9627H19.1693V53.3437ZM19.1693 59.888V57.0017H20.9679C22.2561 57.0017 22.9245 57.4878 22.9245 58.4358C22.9245 59.3837 22.2743 59.888 21.0469 59.888H19.1693ZM27.5668 60.0703C26.862 60.0703 26.4002 59.7057 26.4002 59.1467C26.4002 58.5998 26.8438 58.2535 27.6276 58.1988L29.2014 58.1016V58.6059C29.2014 59.4384 28.4844 60.0703 27.5668 60.0703ZM27.2023 61.1094C28.0408 61.1094 28.849 60.6597 29.2196 59.9488H29.25V61H30.5078V56.5946C30.5078 55.3125 29.5174 54.4922 27.9679 54.4922C26.388 54.4922 25.4036 55.3429 25.3307 56.4974H26.5703C26.6858 55.9262 27.1597 55.5616 27.9193 55.5616C28.7214 55.5616 29.2014 55.987 29.2014 56.6979V57.1901L27.4514 57.2934C25.9323 57.3785 25.0755 58.0651 25.0755 59.1832C25.0755 60.3316 25.9505 61.1094 27.2023 61.1094ZM37.2708 56.8073C37.1554 55.5495 36.1528 54.4922 34.5061 54.4922C32.6892 54.4922 31.4983 55.7743 31.4983 57.8038C31.4983 59.8698 32.6892 61.1215 34.5182 61.1215C36.0556 61.1215 37.1432 60.1979 37.283 58.8368H36.0191C35.8672 59.5781 35.3385 60.0217 34.5304 60.0217C33.5095 60.0217 32.8351 59.2075 32.8351 57.8038C32.8351 56.4306 33.5035 55.5859 34.5182 55.5859C35.375 55.5859 35.8854 56.1267 36.0191 56.8073H37.2708ZM39.5859 57.3481H39.5738V52.2318H38.2613V61H39.5738V58.7031L40.1207 58.1623L42.2899 61H43.8151L41.0625 57.3602L43.7118 54.6076H42.1684L39.5859 57.3481Z" fill="#50505C"/>
<circle cx="21.7778" cy="19.4445" r="4.66667" fill="#F6615A"/>
<circle cx="36.5556" cy="19.4445" r="4.66667" fill="#F6BC45"/>
<circle cx="51.3334" cy="19.4445" r="4.66667" fill="#2EC641"/>
<path d="M314.162 211V203.216H316.927V202.232H310.304V203.216H313.069V211H314.162ZM321.734 204.681H320.676V208.393C320.676 209.469 320.056 210.174 319.03 210.174C318.051 210.174 317.571 209.621 317.571 208.594V204.681H316.514V208.782C316.514 210.216 317.322 211.109 318.701 211.109C319.674 211.109 320.33 210.702 320.707 209.973H320.731V211H321.734V204.681ZM326.248 211.109C327.865 211.109 328.934 209.827 328.934 207.84C328.934 205.859 327.859 204.571 326.266 204.571C325.373 204.571 324.638 205.015 324.243 205.738H324.219V202.232H323.161V211H324.17V209.931H324.194C324.602 210.66 325.325 211.109 326.248 211.109ZM326.042 205.501C327.16 205.501 327.852 206.406 327.852 207.84C327.852 209.286 327.16 210.18 326.042 210.18C324.972 210.18 324.213 209.25 324.213 207.84C324.213 206.437 324.972 205.501 326.042 205.501ZM332.543 205.489C333.54 205.489 334.202 206.242 334.227 207.299H330.793C330.86 206.248 331.553 205.489 332.543 205.489ZM334.202 209.189C334.026 209.785 333.437 210.192 332.635 210.192C331.498 210.192 330.787 209.396 330.787 208.187V208.126H335.32V207.725C335.32 205.811 334.269 204.571 332.562 204.571C330.818 204.571 329.7 205.902 329.7 207.865C329.7 209.852 330.799 211.109 332.61 211.109C333.99 211.109 335.059 210.295 335.241 209.189H334.202ZM341.64 206.753C341.506 205.616 340.564 204.571 338.984 204.571C337.24 204.571 336.08 205.847 336.08 207.84C336.08 209.876 337.247 211.109 338.997 211.109C340.431 211.109 341.488 210.222 341.652 208.964H340.613C340.431 209.724 339.865 210.18 339.003 210.18C337.909 210.18 337.155 209.311 337.155 207.84C337.155 206.406 337.897 205.501 338.99 205.501C339.92 205.501 340.455 206.066 340.607 206.753H341.64ZM347.813 204.681H346.756V208.393C346.756 209.469 346.136 210.174 345.109 210.174C344.131 210.174 343.651 209.621 343.651 208.594V204.681H342.594V208.782C342.594 210.216 343.402 211.109 344.781 211.109C345.753 211.109 346.41 210.702 346.786 209.973H346.811V211H347.813V204.681ZM349.527 203.155V204.681H348.585V205.549H349.527V209.359C349.527 210.575 349.977 211.049 351.137 211.049C351.386 211.049 351.678 211.03 351.806 211V210.113C351.733 210.125 351.49 210.143 351.368 210.143C350.827 210.143 350.584 209.882 350.584 209.305V205.549H351.812V204.681H350.584V203.155H349.527ZM355.549 211H356.606V202.232H355.549V211ZM360.568 205.489C361.564 205.489 362.227 206.242 362.251 207.299H358.818C358.885 206.248 359.577 205.489 360.568 205.489ZM362.227 209.189C362.05 209.785 361.461 210.192 360.659 210.192C359.523 210.192 358.812 209.396 358.812 208.187V208.126H363.345V207.725C363.345 205.811 362.293 204.571 360.586 204.571C358.842 204.571 357.724 205.902 357.724 207.865C357.724 209.852 358.824 211.109 360.635 211.109C362.014 211.109 363.083 210.295 363.266 209.189H362.227ZM364.754 203.155V204.681H363.813V205.549H364.754V209.359C364.754 210.575 365.204 211.049 366.365 211.049C366.614 211.049 366.905 211.03 367.033 211V210.113C366.96 210.125 366.717 210.143 366.595 210.143C366.055 210.143 365.812 209.882 365.812 209.305V205.549H367.039V204.681H365.812V203.155H364.754ZM368.06 206.424C368.06 207.287 368.607 207.859 369.719 208.144L370.831 208.43C371.542 208.618 371.803 208.861 371.803 209.311C371.803 209.882 371.274 210.247 370.418 210.247C369.561 210.247 369.063 209.894 368.947 209.238H367.89C367.999 210.356 368.965 211.109 370.351 211.109C371.827 211.109 372.866 210.332 372.866 209.232C372.866 208.302 372.405 207.84 371.128 207.518L370.15 207.281C369.433 207.099 369.099 206.807 369.099 206.37C369.099 205.817 369.609 205.434 370.381 205.434C371.159 205.434 371.651 205.811 371.724 206.418H372.733C372.684 205.349 371.724 204.571 370.418 204.571C369.026 204.571 368.06 205.343 368.06 206.424ZM377.041 213.364C378.183 213.364 378.706 212.92 379.247 211.444L381.732 204.681H380.62L378.87 209.943H378.852L377.102 204.681H375.971L378.305 211.006L378.159 211.45C377.916 212.185 377.588 212.47 376.998 212.47C376.865 212.47 376.701 212.464 376.585 212.44V213.327C376.701 213.352 376.913 213.364 377.041 213.364ZM385.007 211.109C386.751 211.109 387.93 209.852 387.93 207.84C387.93 205.823 386.751 204.571 385.007 204.571C383.257 204.571 382.078 205.823 382.078 207.84C382.078 209.852 383.257 211.109 385.007 211.109ZM385.007 210.18C383.889 210.18 383.154 209.329 383.154 207.84C383.154 206.352 383.889 205.501 385.007 205.501C386.125 205.501 386.854 206.352 386.854 207.84C386.854 209.329 386.125 210.18 385.007 210.18ZM394.188 204.681H393.131V208.393C393.131 209.469 392.511 210.174 391.484 210.174C390.506 210.174 390.026 209.621 390.026 208.594V204.681H388.969V208.782C388.969 210.216 389.777 211.109 391.156 211.109C392.128 211.109 392.785 210.702 393.161 209.973H393.186V211H394.188V204.681ZM400.648 205.489C401.644 205.489 402.306 206.242 402.331 207.299H398.898C398.964 206.248 399.657 205.489 400.648 205.489ZM402.306 209.189C402.13 209.785 401.541 210.192 400.739 210.192C399.602 210.192 398.891 209.396 398.891 208.187V208.126H403.424V207.725C403.424 205.811 402.373 204.571 400.666 204.571C398.922 204.571 397.804 205.902 397.804 207.865C397.804 209.852 398.904 211.109 400.714 211.109C402.094 211.109 403.163 210.295 403.345 209.189H402.306ZM406.578 210.21C405.819 210.21 405.314 209.815 405.314 209.214C405.314 208.618 405.8 208.241 406.651 208.187L408.34 208.083V208.6C408.34 209.511 407.575 210.21 406.578 210.21ZM406.341 211.109C407.192 211.109 407.994 210.635 408.371 209.912H408.395V211H409.398V206.631C409.398 205.373 408.462 204.571 406.979 204.571C405.484 204.571 404.549 205.41 404.476 206.503H405.497C405.63 205.884 406.141 205.501 406.955 205.501C407.83 205.501 408.34 205.963 408.34 206.734V207.263L406.53 207.366C405.071 207.451 404.239 208.132 404.239 209.214C404.239 210.35 405.083 211.109 406.341 211.109ZM410.631 206.424C410.631 207.287 411.178 207.859 412.29 208.144L413.402 208.43C414.113 208.618 414.374 208.861 414.374 209.311C414.374 209.882 413.845 210.247 412.989 210.247C412.132 210.247 411.634 209.894 411.518 209.238H410.461C410.57 210.356 411.536 211.109 412.922 211.109C414.398 211.109 415.437 210.332 415.437 209.232C415.437 208.302 414.976 207.84 413.7 207.518L412.721 207.281C412.004 207.099 411.67 206.807 411.67 206.37C411.67 205.817 412.181 205.434 412.952 205.434C413.73 205.434 414.222 205.811 414.295 206.418H415.304C415.255 205.349 414.295 204.571 412.989 204.571C411.597 204.571 410.631 205.343 410.631 206.424ZM416.592 211H417.649V204.681H416.592V211ZM417.121 203.617C417.485 203.617 417.783 203.319 417.783 202.961C417.783 202.596 417.485 202.305 417.121 202.305C416.762 202.305 416.464 202.596 416.464 202.961C416.464 203.319 416.762 203.617 417.121 203.617ZM419.132 211H420.189V202.232H419.132V211ZM422.14 213.364C423.282 213.364 423.805 212.92 424.345 211.444L426.831 204.681H425.719L423.969 209.943H423.951L422.201 204.681H421.07L423.404 211.006L423.258 211.45C423.015 212.185 422.687 212.47 422.097 212.47C421.964 212.47 421.799 212.464 421.684 212.44V213.327C421.799 213.352 422.012 213.364 422.14 213.364ZM432.615 211.109C433.527 211.109 434.25 210.66 434.657 209.931H434.675V211H435.684V202.232H434.627V205.707H434.602C434.226 205.015 433.497 204.571 432.591 204.571C430.999 204.571 429.911 205.859 429.911 207.84C429.911 209.821 431.005 211.109 432.615 211.109ZM432.816 205.501C433.904 205.501 434.633 206.431 434.633 207.84C434.633 209.256 433.904 210.18 432.816 210.18C431.698 210.18 430.993 209.274 430.993 207.84C430.993 206.412 431.698 205.501 432.816 205.501ZM439.731 211.109C441.475 211.109 442.654 209.852 442.654 207.84C442.654 205.823 441.475 204.571 439.731 204.571C437.981 204.571 436.802 205.823 436.802 207.84C436.802 209.852 437.981 211.109 439.731 211.109ZM439.731 210.18C438.613 210.18 437.878 209.329 437.878 207.84C437.878 206.352 438.613 205.501 439.731 205.501C440.849 205.501 441.578 206.352 441.578 207.84C441.578 209.329 440.849 210.18 439.731 210.18ZM451.762 204.681H450.717L449.453 209.821H449.429L447.995 204.681H446.974L445.546 209.821H445.522L444.258 204.681H443.207L444.975 211H446.05L447.472 206.109H447.497L448.924 211H450L451.762 204.681ZM452.631 211H453.688V207.281C453.688 206.212 454.339 205.507 455.335 205.507C456.307 205.507 456.787 206.066 456.787 207.087V211H457.845V206.898C457.845 205.464 457.043 204.571 455.657 204.571C454.679 204.571 454.004 205.009 453.652 205.689H453.628V204.681H452.631V211ZM459.248 211H460.306V202.232H459.248V211ZM464.352 211.109C466.096 211.109 467.275 209.852 467.275 207.84C467.275 205.823 466.096 204.571 464.352 204.571C462.602 204.571 461.424 205.823 461.424 207.84C461.424 209.852 462.602 211.109 464.352 211.109ZM464.352 210.18C463.234 210.18 462.499 209.329 462.499 207.84C462.499 206.352 463.234 205.501 464.352 205.501C465.47 205.501 466.2 206.352 466.2 207.84C466.2 209.329 465.47 210.18 464.352 210.18ZM470.429 210.21C469.669 210.21 469.165 209.815 469.165 209.214C469.165 208.618 469.651 208.241 470.502 208.187L472.191 208.083V208.6C472.191 209.511 471.425 210.21 470.429 210.21ZM470.192 211.109C471.043 211.109 471.845 210.635 472.221 209.912H472.246V211H473.248V206.631C473.248 205.373 472.313 204.571 470.83 204.571C469.335 204.571 468.399 205.41 468.326 206.503H469.347C469.481 205.884 469.991 205.501 470.806 205.501C471.681 205.501 472.191 205.963 472.191 206.734V207.263L470.38 207.366C468.922 207.451 468.089 208.132 468.089 209.214C468.089 210.35 468.934 211.109 470.192 211.109ZM476.985 211.109C477.897 211.109 478.62 210.66 479.027 209.931H479.045V211H480.054V202.232H478.997V205.707H478.972C478.595 205.015 477.866 204.571 476.961 204.571C475.369 204.571 474.281 205.859 474.281 207.84C474.281 209.821 475.375 211.109 476.985 211.109ZM477.186 205.501C478.273 205.501 479.003 206.431 479.003 207.84C479.003 209.256 478.273 210.18 477.186 210.18C476.068 210.18 475.363 209.274 475.363 207.84C475.363 206.412 476.068 205.501 477.186 205.501ZM486.118 210.21C485.359 210.21 484.854 209.815 484.854 209.214C484.854 208.618 485.34 208.241 486.191 208.187L487.88 208.083V208.6C487.88 209.511 487.115 210.21 486.118 210.21ZM485.881 211.109C486.732 211.109 487.534 210.635 487.911 209.912H487.935V211H488.938V206.631C488.938 205.373 488.002 204.571 486.519 204.571C485.024 204.571 484.089 205.41 484.016 206.503H485.036C485.17 205.884 485.681 205.501 486.495 205.501C487.37 205.501 487.88 205.963 487.88 206.734V207.263L486.069 207.366C484.611 207.451 483.779 208.132 483.779 209.214C483.779 210.35 484.623 211.109 485.881 211.109ZM490.28 211H491.338V207.281C491.338 206.212 491.988 205.507 492.984 205.507C493.957 205.507 494.437 206.066 494.437 207.087V211H495.494V206.898C495.494 205.464 494.692 204.571 493.306 204.571C492.328 204.571 491.654 205.009 491.301 205.689H491.277V204.681H490.28V211ZM499.237 211.109C500.148 211.109 500.872 210.66 501.279 209.931H501.297V211H502.306V202.232H501.248V205.707H501.224C500.847 205.015 500.118 204.571 499.213 204.571C497.621 204.571 496.533 205.859 496.533 207.84C496.533 209.821 497.627 211.109 499.237 211.109ZM499.438 205.501C500.525 205.501 501.254 206.431 501.254 207.84C501.254 209.256 500.525 210.18 499.438 210.18C498.319 210.18 497.615 209.274 497.615 207.84C497.615 206.412 498.319 205.501 499.438 205.501ZM506.626 203.155V204.681H505.684V205.549H506.626V209.359C506.626 210.575 507.076 211.049 508.236 211.049C508.485 211.049 508.777 211.03 508.905 211V210.113C508.832 210.125 508.589 210.143 508.467 210.143C507.926 210.143 507.683 209.882 507.683 209.305V205.549H508.911V204.681H507.683V203.155H506.626ZM510.041 211H511.098V207.062C511.098 206.169 511.633 205.58 512.453 205.58C512.708 205.58 512.933 205.61 513.018 205.641V204.614C512.933 204.602 512.775 204.571 512.593 204.571C511.852 204.571 511.268 205.015 511.062 205.714H511.037V204.681H510.041V211ZM513.936 211H514.993V204.681H513.936V211ZM514.464 203.617C514.829 203.617 515.127 203.319 515.127 202.961C515.127 202.596 514.829 202.305 514.464 202.305C514.106 202.305 513.808 202.596 513.808 202.961C513.808 203.319 514.106 203.617 514.464 203.617ZM516.421 211H517.478V207.038C517.478 206.163 518.086 205.507 518.924 205.507C519.708 205.507 520.219 206.005 520.219 206.765V211H521.276V206.984C521.276 206.127 521.865 205.507 522.704 205.507C523.536 205.507 524.016 206.017 524.016 206.88V211H525.074V206.637C525.074 205.385 524.266 204.571 523.014 204.571C522.127 204.571 521.385 205.021 521.033 205.774H521.009C520.735 205.009 520.097 204.571 519.234 204.571C518.384 204.571 517.74 205.021 517.442 205.689H517.418V204.681H516.421V211ZM314.357 228V224.227L317.468 219.232H316.222L313.828 223.169H313.792L311.398 219.232H310.152L313.263 224.227V228H314.357ZM319.771 228.109C321.515 228.109 322.694 226.852 322.694 224.84C322.694 222.823 321.515 221.571 319.771 221.571C318.021 221.571 316.842 222.823 316.842 224.84C316.842 226.852 318.021 228.109 319.771 228.109ZM319.771 227.18C318.653 227.18 317.918 226.329 317.918 224.84C317.918 223.352 318.653 222.501 319.771 222.501C320.889 222.501 321.618 223.352 321.618 224.84C321.618 226.329 320.889 227.18 319.771 227.18ZM328.952 221.681H327.895V225.393C327.895 226.469 327.275 227.174 326.248 227.174C325.27 227.174 324.79 226.621 324.79 225.594V221.681H323.733V225.782C323.733 227.216 324.541 228.109 325.92 228.109C326.892 228.109 327.549 227.702 327.925 226.973H327.95V228H328.952V221.681ZM332.464 228V220.216H335.229V219.232H328.606V220.216H331.371V228H332.464ZM340.036 221.681H338.978V225.393C338.978 226.469 338.359 227.174 337.332 227.174C336.353 227.174 335.873 226.621 335.873 225.594V221.681H334.816V225.782C334.816 227.216 335.624 228.109 337.003 228.109C337.976 228.109 338.632 227.702 339.009 226.973H339.033V228H340.036V221.681ZM344.55 228.109C346.167 228.109 347.236 226.827 347.236 224.84C347.236 222.859 346.161 221.571 344.569 221.571C343.675 221.571 342.94 222.015 342.545 222.738H342.521V219.232H341.464V228H342.472V226.931H342.497C342.904 227.66 343.627 228.109 344.55 228.109ZM344.344 222.501C345.462 222.501 346.155 223.406 346.155 224.84C346.155 226.286 345.462 227.18 344.344 227.18C343.274 227.18 342.515 226.25 342.515 224.84C342.515 223.437 343.274 222.501 344.344 222.501ZM350.845 222.489C351.842 222.489 352.504 223.242 352.529 224.299H349.095C349.162 223.248 349.855 222.489 350.845 222.489ZM352.504 226.189C352.328 226.785 351.739 227.192 350.937 227.192C349.8 227.192 349.089 226.396 349.089 225.187V225.126H353.622V224.725C353.622 222.811 352.571 221.571 350.864 221.571C349.12 221.571 348.002 222.902 348.002 224.865C348.002 226.852 349.102 228.109 350.912 228.109C352.292 228.109 353.361 227.295 353.543 226.189H352.504ZM362.427 221.681H361.327L359.577 226.876H359.553L357.809 221.681H356.697L359.024 228H360.106L362.427 221.681ZM363.314 228H364.372V221.681H363.314V228ZM363.843 220.617C364.207 220.617 364.505 220.319 364.505 219.961C364.505 219.596 364.207 219.305 363.843 219.305C363.484 219.305 363.187 219.596 363.187 219.961C363.187 220.319 363.484 220.617 363.843 220.617ZM368.194 228.109C369.105 228.109 369.828 227.66 370.235 226.931H370.253V228H371.262V219.232H370.205V222.707H370.181C369.804 222.015 369.075 221.571 368.169 221.571C366.577 221.571 365.49 222.859 365.49 224.84C365.49 226.821 366.583 228.109 368.194 228.109ZM368.394 222.501C369.482 222.501 370.211 223.431 370.211 224.84C370.211 226.256 369.482 227.18 368.394 227.18C367.276 227.18 366.571 226.274 366.571 224.84C366.571 223.412 367.276 222.501 368.394 222.501ZM375.224 222.489C376.22 222.489 376.883 223.242 376.907 224.299H373.474C373.541 223.248 374.234 222.489 375.224 222.489ZM376.883 226.189C376.707 226.785 376.117 227.192 375.315 227.192C374.179 227.192 373.468 226.396 373.468 225.187V225.126H378.001V224.725C378.001 222.811 376.95 221.571 375.242 221.571C373.498 221.571 372.38 222.902 372.38 224.865C372.38 226.852 373.48 228.109 375.291 228.109C376.67 228.109 377.74 227.295 377.922 226.189H376.883ZM381.689 228.109C383.433 228.109 384.612 226.852 384.612 224.84C384.612 222.823 383.433 221.571 381.689 221.571C379.939 221.571 378.76 222.823 378.76 224.84C378.76 226.852 379.939 228.109 381.689 228.109ZM381.689 227.18C380.571 227.18 379.836 226.329 379.836 224.84C379.836 223.352 380.571 222.501 381.689 222.501C382.807 222.501 383.536 223.352 383.536 224.84C383.536 226.329 382.807 227.18 381.689 227.18ZM385.572 223.424C385.572 224.287 386.119 224.859 387.231 225.144L388.343 225.43C389.054 225.618 389.315 225.861 389.315 226.311C389.315 226.882 388.786 227.247 387.93 227.247C387.073 227.247 386.575 226.894 386.459 226.238H385.402C385.511 227.356 386.477 228.109 387.863 228.109C389.339 228.109 390.378 227.332 390.378 226.232C390.378 225.302 389.917 224.84 388.641 224.518L387.662 224.281C386.945 224.099 386.611 223.807 386.611 223.37C386.611 222.817 387.122 222.434 387.893 222.434C388.671 222.434 389.163 222.811 389.236 223.418H390.245C390.196 222.349 389.236 221.571 387.93 221.571C386.538 221.571 385.572 222.343 385.572 223.424ZM394.371 228H395.428V222.549H396.716V221.681H395.422V220.982C395.422 220.356 395.695 220.052 396.266 220.052C396.443 220.052 396.619 220.07 396.747 220.089V219.232C396.595 219.207 396.339 219.183 396.102 219.183C394.936 219.183 394.371 219.76 394.371 220.976V221.681H393.49V222.549H394.371V228ZM400.125 228.109C401.869 228.109 403.048 226.852 403.048 224.84C403.048 222.823 401.869 221.571 400.125 221.571C398.375 221.571 397.196 222.823 397.196 224.84C397.196 226.852 398.375 228.109 400.125 228.109ZM400.125 227.18C399.007 227.18 398.272 226.329 398.272 224.84C398.272 223.352 399.007 222.501 400.125 222.501C401.243 222.501 401.972 223.352 401.972 224.84C401.972 226.329 401.243 227.18 400.125 227.18ZM404.117 228H405.174V224.062C405.174 223.169 405.709 222.58 406.53 222.58C406.785 222.58 407.01 222.61 407.095 222.641V221.614C407.01 221.602 406.852 221.571 406.669 221.571C405.928 221.571 405.345 222.015 405.138 222.714H405.114V221.681H404.117V228ZM410.85 228H411.907V222.549H413.195V221.681H411.901V220.982C411.901 220.356 412.174 220.052 412.746 220.052C412.922 220.052 413.098 220.07 413.226 220.089V219.232C413.074 219.207 412.819 219.183 412.582 219.183C411.415 219.183 410.85 219.76 410.85 220.976V221.681H409.969V222.549H410.85V228ZM414.289 228H415.346V224.062C415.346 223.169 415.881 222.58 416.701 222.58C416.957 222.58 417.181 222.61 417.266 222.641V221.614C417.181 221.602 417.023 221.571 416.841 221.571C416.1 221.571 415.516 222.015 415.31 222.714H415.286V221.681H414.289V228ZM420.359 222.489C421.356 222.489 422.018 223.242 422.043 224.299H418.609C418.676 223.248 419.369 222.489 420.359 222.489ZM422.018 226.189C421.842 226.785 421.253 227.192 420.451 227.192C419.314 227.192 418.603 226.396 418.603 225.187V225.126H423.136V224.725C423.136 222.811 422.085 221.571 420.378 221.571C418.634 221.571 417.516 222.902 417.516 224.865C417.516 226.852 418.615 228.109 420.426 228.109C421.806 228.109 422.875 227.295 423.057 226.189H422.018ZM426.74 222.489C427.736 222.489 428.398 223.242 428.423 224.299H424.99C425.056 223.248 425.749 222.489 426.74 222.489ZM428.398 226.189C428.222 226.785 427.633 227.192 426.831 227.192C425.694 227.192 424.984 226.396 424.984 225.187V225.126H429.516V224.725C429.516 222.811 428.465 221.571 426.758 221.571C425.014 221.571 423.896 222.902 423.896 224.865C423.896 226.852 424.996 228.109 426.806 228.109C428.186 228.109 429.255 227.295 429.437 226.189H428.398ZM433.193 228H434.25V224.318C434.25 223.224 434.9 222.507 435.951 222.507C436.942 222.507 437.446 223.109 437.446 224.111V228H438.503V223.917C438.503 222.507 437.665 221.571 436.28 221.571C435.319 221.571 434.627 221.984 434.274 222.689H434.25V219.232H433.193V228ZM439.901 228H440.958V221.681H439.901V228ZM440.43 220.617C440.794 220.617 441.092 220.319 441.092 219.961C441.092 219.596 440.794 219.305 440.43 219.305C440.071 219.305 439.773 219.596 439.773 219.961C439.773 220.319 440.071 220.617 440.43 220.617ZM444.957 227.119C443.869 227.119 443.158 226.232 443.158 224.816C443.158 223.4 443.869 222.501 444.957 222.501C446.056 222.501 446.792 223.424 446.792 224.816C446.792 226.207 446.056 227.119 444.957 227.119ZM444.993 230.382C446.737 230.382 447.849 229.379 447.849 227.872V221.681H446.84V222.744H446.822C446.403 222.009 445.661 221.571 444.768 221.571C443.134 221.571 442.076 222.835 442.076 224.816C442.076 226.779 443.134 228.049 444.744 228.049C445.631 228.049 446.378 227.599 446.767 226.912H446.792V227.909C446.792 228.851 446.129 229.483 445.036 229.483C444.246 229.483 443.62 229.1 443.413 228.523H442.326C442.502 229.598 443.602 230.382 444.993 230.382ZM449.283 228H450.34V224.318C450.34 223.224 450.99 222.507 452.042 222.507C453.032 222.507 453.536 223.109 453.536 224.111V228H454.594V223.917C454.594 222.507 453.755 221.571 452.37 221.571C451.41 221.571 450.717 221.984 450.365 222.689H450.34V219.232H449.283V228ZM460.871 221.571C459.248 221.571 458.179 222.853 458.179 224.84C458.179 226.821 459.248 228.109 460.846 228.109C461.74 228.109 462.475 227.666 462.87 226.943H462.894V230.109H463.951V221.681H462.943V222.75H462.918C462.511 222.021 461.788 221.571 460.871 221.571ZM461.059 227.18C459.953 227.18 459.26 226.28 459.26 224.84C459.26 223.394 459.953 222.501 461.059 222.501C462.141 222.501 462.894 223.431 462.894 224.84C462.894 226.25 462.141 227.18 461.059 227.18ZM470.52 221.681H469.463V225.393C469.463 226.469 468.843 227.174 467.816 227.174C466.838 227.174 466.358 226.621 466.358 225.594V221.681H465.3V225.782C465.3 227.216 466.109 228.109 467.488 228.109C468.46 228.109 469.116 227.702 469.493 226.973H469.517V228H470.52V221.681ZM473.977 227.21C473.218 227.21 472.714 226.815 472.714 226.214C472.714 225.618 473.2 225.241 474.05 225.187L475.74 225.083V225.6C475.74 226.511 474.974 227.21 473.977 227.21ZM473.74 228.109C474.591 228.109 475.393 227.635 475.77 226.912H475.794V228H476.797V223.631C476.797 222.373 475.861 221.571 474.378 221.571C472.884 221.571 471.948 222.41 471.875 223.503H472.896C473.03 222.884 473.54 222.501 474.354 222.501C475.229 222.501 475.74 222.963 475.74 223.734V224.263L473.929 224.366C472.47 224.451 471.638 225.132 471.638 226.214C471.638 227.35 472.483 228.109 473.74 228.109ZM478.194 228H479.252V219.232H478.194V228ZM480.734 228H481.792V221.681H480.734V228ZM481.263 220.617C481.628 220.617 481.925 220.319 481.925 219.961C481.925 219.596 481.628 219.305 481.263 219.305C480.905 219.305 480.607 219.596 480.607 219.961C480.607 220.319 480.905 220.617 481.263 220.617ZM483.56 220.155V221.681H482.618V222.549H483.56V226.359C483.56 227.575 484.01 228.049 485.17 228.049C485.419 228.049 485.711 228.03 485.839 228V227.113C485.766 227.125 485.523 227.143 485.401 227.143C484.86 227.143 484.617 226.882 484.617 226.305V222.549H485.845V221.681H484.617V220.155H483.56ZM487.497 230.364C488.64 230.364 489.162 229.92 489.703 228.444L492.188 221.681H491.076L489.326 226.943H489.308L487.558 221.681H486.428L488.761 228.006L488.615 228.45C488.372 229.185 488.044 229.47 487.455 229.47C487.321 229.47 487.157 229.464 487.042 229.44V230.327C487.157 230.352 487.37 230.364 487.497 230.364ZM493.009 228.061C493.398 228.061 493.701 227.757 493.701 227.368C493.701 226.979 493.398 226.675 493.009 226.675C492.62 226.675 492.316 226.979 492.316 227.368C492.316 227.757 492.62 228.061 493.009 228.061Z" fill="#53515E"/>
<rect x="102.667" y="287.889" width="325.889" height="32.6667" rx="7.77778" fill="url(#paint0_linear_9_79)"/>
<rect x="137" y="51" width="259" height="145" rx="10" fill="#373737"/>
<path d="M145.762 179.013C145.596 179.121 145.427 179.127 145.256 179.032C145.086 178.936 145 178.788 145 178.588V173.413C145 173.213 145.085 173.065 145.256 172.969C145.427 172.873 145.596 172.879 145.762 172.988L149.837 175.575C149.987 175.675 150.062 175.817 150.062 176C150.062 176.183 149.987 176.325 149.837 176.425L145.762 179.013Z" fill="#B4B5B9"/>
<path d="M169.762 178.612C169.596 178.72 169.427 178.726 169.256 178.631C169.086 178.535 169 178.387 169 178.187V173.012C169 172.812 169.085 172.664 169.256 172.568C169.427 172.472 169.596 172.478 169.762 172.587L173.837 175.174C173.987 175.274 174.062 175.416 174.062 175.599C174.062 175.782 173.987 175.924 173.837 176.024L169.762 178.612Z" fill="#B4B5B9"/>
<rect x="174" y="171" width="1" height="9.5" rx="0.5" fill="#D9D9D9"/>
<path d="M196.675 180.15C196.508 180.217 196.354 180.196 196.213 180.087C196.071 179.979 196 179.829 196 179.637C196 179.546 196.027 179.465 196.082 179.394C196.136 179.323 196.205 179.271 196.288 179.237C196.954 178.971 197.49 178.546 197.894 177.962C198.298 177.379 198.5 176.721 198.5 175.987C198.5 175.254 198.298 174.596 197.894 174.012C197.489 173.429 196.954 173.004 196.288 172.737C196.196 172.704 196.125 172.65 196.075 172.575C196.025 172.5 196 172.417 196 172.325C196 172.142 196.071 171.996 196.213 171.887C196.354 171.779 196.508 171.758 196.675 171.825C197.525 172.167 198.208 172.712 198.725 173.462C199.242 174.212 199.5 175.054 199.5 175.987C199.5 176.921 199.242 177.762 198.725 178.512C198.208 179.262 197.525 179.808 196.675 180.15ZM191 177.5C190.858 177.5 190.74 177.452 190.644 177.356C190.548 177.26 190.5 177.141 190.5 177V175C190.5 174.858 190.548 174.739 190.644 174.643C190.74 174.547 190.859 174.5 191 174.5H192.5L194.15 172.85C194.308 172.692 194.49 172.656 194.694 172.743C194.898 172.831 195 172.987 195 173.212V178.787C195 179.012 194.898 179.169 194.694 179.256C194.489 179.344 194.308 179.309 194.15 179.15L192.5 177.5H191ZM196 178V173.975C196.375 174.15 196.677 174.421 196.907 174.787C197.136 175.154 197.25 175.558 197.25 176C197.25 176.442 197.135 176.842 196.906 177.2C196.677 177.558 196.375 177.825 196 178Z" fill="#B4B5B9"/>
<path d="M214.397 178.5H215.039V174.272H214.392L213.278 175.063V175.708L214.383 174.923H214.397V178.5ZM217.611 178.579C218.625 178.579 219.22 177.727 219.22 176.379C219.22 175.04 218.622 174.193 217.611 174.193C216.604 174.193 215.997 175.043 215.997 176.382C215.997 177.729 216.598 178.579 217.611 178.579ZM217.611 178.028C217.008 178.028 216.662 177.401 216.662 176.382C216.662 175.377 217.014 174.744 217.611 174.744C218.209 174.744 218.558 175.374 218.558 176.382C218.558 177.404 218.215 178.028 217.611 178.028ZM220.269 177.847C220.482 177.847 220.652 177.677 220.652 177.463C220.652 177.249 220.482 177.079 220.269 177.079C220.055 177.079 219.885 177.249 219.885 177.463C219.885 177.677 220.055 177.847 220.269 177.847ZM220.269 175.711C220.482 175.711 220.652 175.544 220.652 175.327C220.652 175.113 220.482 174.943 220.269 174.943C220.055 174.943 219.885 175.113 219.885 175.327C219.885 175.544 220.055 175.711 220.269 175.711ZM222.926 178.579C223.939 178.579 224.534 177.727 224.534 176.379C224.534 175.04 223.937 174.193 222.926 174.193C221.918 174.193 221.312 175.043 221.312 176.382C221.312 177.729 221.912 178.579 222.926 178.579ZM222.926 178.028C222.322 178.028 221.977 177.401 221.977 176.382C221.977 175.377 222.328 174.744 222.926 174.744C223.523 174.744 223.872 175.374 223.872 176.382C223.872 177.404 223.529 178.028 222.926 178.028ZM226.664 178.579C227.678 178.579 228.272 177.727 228.272 176.379C228.272 175.04 227.675 174.193 226.664 174.193C225.656 174.193 225.05 175.043 225.05 176.382C225.05 177.729 225.65 178.579 226.664 178.579ZM226.664 178.028C226.061 178.028 225.715 177.401 225.715 176.382C225.715 175.377 226.066 174.744 226.664 174.744C227.262 174.744 227.61 175.374 227.61 176.382C227.61 177.404 227.268 178.028 226.664 178.028ZM229.096 179.402L230.596 174.272H230.033L228.533 179.402H229.096ZM230.889 175.512V175.518H231.51V175.509C231.51 175.069 231.858 174.735 232.321 174.735C232.761 174.735 233.101 175.034 233.101 175.409C233.101 175.74 232.966 175.963 232.45 176.499L230.924 178.055V178.5H233.815V177.946H231.809V177.932L232.866 176.868C233.484 176.235 233.748 175.869 233.748 175.377C233.748 174.706 233.147 174.193 232.342 174.193C231.501 174.193 230.889 174.75 230.889 175.512ZM235.913 178.579C236.824 178.579 237.463 177.979 237.463 177.111C237.463 176.291 236.88 175.696 236.068 175.696C235.655 175.696 235.31 175.857 235.125 176.124H235.11L235.228 174.826H237.217V174.272H234.7L234.478 176.663H235.078C235.242 176.385 235.559 176.218 235.925 176.218C236.452 176.218 236.821 176.599 236.821 177.129C236.821 177.659 236.452 178.031 235.919 178.031C235.447 178.031 235.087 177.744 235.04 177.325H234.413C234.451 178.063 235.069 178.579 235.913 178.579ZM238.456 177.847C238.67 177.847 238.84 177.677 238.84 177.463C238.84 177.249 238.67 177.079 238.456 177.079C238.242 177.079 238.072 177.249 238.072 177.463C238.072 177.677 238.242 177.847 238.456 177.847ZM238.456 175.711C238.67 175.711 238.84 175.544 238.84 175.327C238.84 175.113 238.67 174.943 238.456 174.943C238.242 174.943 238.072 175.113 238.072 175.327C238.072 175.544 238.242 175.711 238.456 175.711ZM241.113 178.579C242.127 178.579 242.722 177.727 242.722 176.379C242.722 175.04 242.124 174.193 241.113 174.193C240.105 174.193 239.499 175.043 239.499 176.382C239.499 177.729 240.1 178.579 241.113 178.579ZM241.113 178.028C240.51 178.028 240.164 177.401 240.164 176.382C240.164 175.377 240.516 174.744 241.113 174.744C241.711 174.744 242.06 175.374 242.06 176.382C242.06 177.404 241.717 178.028 241.113 178.028ZM244.852 178.579C245.865 178.579 246.46 177.727 246.46 176.379C246.46 175.04 245.862 174.193 244.852 174.193C243.844 174.193 243.237 175.043 243.237 176.382C243.237 177.729 243.838 178.579 244.852 178.579ZM244.852 178.028C244.248 178.028 243.902 177.401 243.902 176.382C243.902 175.377 244.254 174.744 244.852 174.744C245.449 174.744 245.798 175.374 245.798 176.382C245.798 177.404 245.455 178.028 244.852 178.028Z" fill="#B4B5B9"/>
<path d="M264.5 180.5H265.5C265.5 177.467 263.033 175 260 175V176C262.481 176 264.5 178.019 264.5 180.5Z" fill="#B4B5B9"/>
<path d="M262.5 180.5H263.5C263.5 178.57 261.93 177 260 177V178C261.378 178 262.5 179.121 262.5 180.5Z" fill="#B4B5B9"/>
<path d="M260.75 180.5C261.164 180.5 261.5 180.164 261.5 179.75C261.5 179.336 261.164 179 260.75 179C260.336 179 260 179.336 260 179.75C260 180.164 260.336 180.5 260.75 180.5Z" fill="#B4B5B9"/>
<path d="M269 172H261C260.448 172 260 172.448 260 173V174.026C260.34 174.039 260.674 174.073 261 174.135V173H269V179.5H266.365C266.427 179.826 266.461 180.16 266.474 180.5H269C269.552 180.5 270 180.052 270 179.5V173C270 172.448 269.552 172 269 172Z" fill="#B4B5B9"/>
<rect x="141" y="153" width="250" height="2" fill="#D9D9D9"/>
<rect x="141" y="153" width="75" height="2" fill="#4E222C"/>
<rect x="160" y="251" width="212" height="29" rx="9" fill="#0D0E12" stroke="#17181C" stroke-width="2"/>
<path d="M171.795 269H173.078V260.545H171.783L169.557 262.127V263.416L171.766 261.846H171.795V269ZM179.16 269H180.42V267.33H181.58V266.229H180.42V260.545H178.521C176.617 263.299 175.656 264.816 174.93 266.182V267.33H179.16V269ZM176.154 266.217C176.828 264.992 177.684 263.674 179.148 261.559H179.172V266.246H176.154V266.217ZM186.613 269H187.873V267.33H189.033V266.229H187.873V260.545H185.975C184.07 263.299 183.109 264.816 182.383 266.182V267.33H186.613V269ZM183.607 266.217C184.281 264.992 185.137 263.674 186.602 261.559H186.625V266.246H183.607V266.217ZM193.229 262.736C192.338 262.736 191.629 263.188 191.266 263.896H191.242V262.836H190.018V271.039H191.283V267.986H191.312C191.664 268.672 192.367 269.105 193.252 269.105C194.799 269.105 195.824 267.869 195.824 265.918C195.824 263.967 194.793 262.736 193.229 262.736ZM192.895 268.033C191.922 268.033 191.277 267.201 191.277 265.918C191.277 264.646 191.928 263.803 192.895 263.803C193.896 263.803 194.523 264.629 194.523 265.918C194.523 267.213 193.896 268.033 192.895 268.033Z" fill="#D9D9D9"/>
<path d="M199.82 260.545V270.799H202.363V270.008H200.805V261.342H202.363V260.545H199.82ZM205.322 269H206.342V260.545H205.311L203.061 262.162V263.275L205.299 261.664H205.322V269ZM208.973 269H210.08L213.842 261.523V260.545H208.246V261.482H212.799V261.506L208.973 269ZM217.99 269.146C219.725 269.146 220.984 267.928 220.984 266.258C220.984 264.652 219.789 263.463 218.178 263.463C217.129 263.463 216.197 264.008 215.816 264.834H215.799C215.834 262.584 216.637 261.33 218.049 261.33C218.887 261.33 219.566 261.822 219.795 262.59H220.867C220.598 261.26 219.496 260.398 218.061 260.398C215.992 260.398 214.779 262.068 214.779 264.916C214.779 265.83 214.914 266.592 215.195 267.242C215.717 268.461 216.725 269.146 217.99 269.146ZM217.979 268.209C216.895 268.209 216.051 267.348 216.051 266.264C216.051 265.186 216.877 264.389 217.996 264.389C219.115 264.389 219.912 265.186 219.912 266.293C219.912 267.359 219.057 268.209 217.979 268.209ZM226.082 263.826L226.463 263.135L224.975 262.385L226.463 261.623L226.088 260.943L224.658 261.834L224.717 260.158H223.955L224.014 261.828L222.578 260.943L222.215 261.623L223.686 262.379L222.209 263.129L222.572 263.832L224.014 262.93L223.949 264.611H224.717L224.658 262.93L226.082 263.826ZM230.061 269H231.08V260.545H230.049L227.799 262.162V263.275L230.037 261.664H230.061V269ZM237.244 269H238.264V267.242H239.459V266.316H238.264V260.545H236.705C234.707 263.41 233.717 264.951 232.996 266.287V267.242H237.244V269ZM234.039 266.293C234.707 265.121 235.627 263.709 237.227 261.424H237.244V266.316H234.039V266.293ZM244.51 269H245.529V267.242H246.725V266.316H245.529V260.545H243.971C241.973 263.41 240.982 264.951 240.262 266.287V267.242H244.51V269ZM241.305 266.293C241.973 265.121 242.893 263.709 244.492 261.424H244.51V266.316H241.305V266.293ZM249.865 265.742C249.016 265.824 248.582 266.27 248.582 267.125V268.66C248.582 269.586 248.242 269.973 247.422 269.973H247.188V270.799H247.51C248.887 270.799 249.543 270.131 249.543 268.73V267.465C249.543 266.539 249.859 266.229 250.82 266.229V265.115C249.865 265.115 249.543 264.805 249.543 263.867V262.561C249.543 261.195 248.893 260.545 247.51 260.545H247.188V261.371H247.422C248.248 261.371 248.582 261.752 248.582 262.689V264.23C248.582 265.074 249.004 265.514 249.865 265.602V265.742Z" fill="#50505C"/>
<path d="M339.633 262.982V262.988H340.652V262.982C340.652 262.039 341.402 261.324 342.393 261.324C343.324 261.324 344.068 261.975 344.068 262.789C344.068 263.492 343.799 263.943 342.662 265.139L339.686 268.273V269H345.264V268.062H341.145V268.039L343.283 265.83C344.695 264.371 345.123 263.668 345.123 262.725C345.123 261.43 343.934 260.404 342.422 260.404C340.828 260.404 339.633 261.506 339.633 262.982ZM354.949 269V260.545H353.725L350.807 267.6H350.76L347.842 260.545H346.617V269H347.602V262.484H347.643L350.338 268.941H351.229L353.924 262.484H353.965V269H354.949ZM359.461 269.105C361.02 269.105 362.051 267.869 362.051 265.953C362.051 264.043 361.014 262.801 359.479 262.801C358.617 262.801 357.908 263.229 357.527 263.926H357.504V260.545H356.484V269H357.457V267.969H357.48C357.873 268.672 358.57 269.105 359.461 269.105ZM359.262 263.697C360.34 263.697 361.008 264.57 361.008 265.953C361.008 267.348 360.34 268.209 359.262 268.209C358.23 268.209 357.498 267.312 357.498 265.953C357.498 264.6 358.23 263.697 359.262 263.697Z" fill="#50505C"/>
<rect x="141" y="232" width="185" height="4" fill="url(#paint1_linear_9_79)"/>
<rect x="274" y="232" width="109" height="4" fill="#9EA1F0"/>
<rect x="379" y="228" width="5" height="12" stroke="white" stroke-width="2"/>
<rect x="273" y="228" width="5" height="12" stroke="white" stroke-width="2"/>
<path d="M134.773 205.614V204.364H143.5V205.614H139.841V216H138.432V205.614H134.773ZM149.805 212.432V207.273H151.146V216H149.805V214.523H149.714C149.51 214.966 149.192 215.343 148.76 215.653C148.328 215.96 147.783 216.114 147.124 216.114C146.578 216.114 146.093 215.994 145.669 215.756C145.245 215.513 144.911 215.15 144.669 214.665C144.427 214.176 144.305 213.561 144.305 212.818V207.273H145.646V212.727C145.646 213.364 145.824 213.871 146.18 214.25C146.54 214.629 146.999 214.818 147.555 214.818C147.889 214.818 148.228 214.733 148.572 214.562C148.921 214.392 149.213 214.131 149.447 213.778C149.686 213.426 149.805 212.977 149.805 212.432ZM153.784 216V204.364H155.125V208.659H155.239C155.337 208.508 155.473 208.314 155.648 208.08C155.826 207.841 156.08 207.629 156.409 207.443C156.742 207.254 157.193 207.159 157.761 207.159C158.496 207.159 159.144 207.343 159.705 207.71C160.265 208.078 160.703 208.598 161.017 209.273C161.331 209.947 161.489 210.742 161.489 211.659C161.489 212.583 161.331 213.384 161.017 214.062C160.703 214.737 160.267 215.259 159.71 215.631C159.153 215.998 158.511 216.182 157.784 216.182C157.223 216.182 156.775 216.089 156.438 215.903C156.1 215.714 155.841 215.5 155.659 215.261C155.477 215.019 155.337 214.818 155.239 214.659H155.08V216H153.784ZM155.102 211.636C155.102 212.295 155.199 212.877 155.392 213.381C155.585 213.881 155.867 214.273 156.239 214.557C156.61 214.837 157.064 214.977 157.602 214.977C158.163 214.977 158.631 214.83 159.006 214.534C159.384 214.235 159.669 213.833 159.858 213.33C160.051 212.822 160.148 212.258 160.148 211.636C160.148 211.023 160.053 210.47 159.864 209.977C159.678 209.481 159.396 209.089 159.017 208.801C158.642 208.509 158.17 208.364 157.602 208.364C157.057 208.364 156.598 208.502 156.227 208.778C155.856 209.051 155.576 209.434 155.386 209.926C155.197 210.415 155.102 210.985 155.102 211.636ZM167.199 216.182C166.358 216.182 165.633 215.996 165.023 215.625C164.417 215.25 163.949 214.727 163.619 214.057C163.294 213.383 163.131 212.598 163.131 211.705C163.131 210.811 163.294 210.023 163.619 209.341C163.949 208.655 164.407 208.121 164.994 207.739C165.585 207.352 166.275 207.159 167.062 207.159C167.517 207.159 167.966 207.235 168.409 207.386C168.852 207.538 169.256 207.784 169.619 208.125C169.983 208.462 170.273 208.909 170.489 209.466C170.705 210.023 170.812 210.708 170.812 211.523V212.091H164.085V210.932H169.449C169.449 210.439 169.35 210 169.153 209.614C168.96 209.227 168.684 208.922 168.324 208.699C167.968 208.475 167.547 208.364 167.062 208.364C166.528 208.364 166.066 208.496 165.676 208.761C165.29 209.023 164.992 209.364 164.784 209.784C164.576 210.205 164.472 210.655 164.472 211.136V211.909C164.472 212.568 164.585 213.127 164.812 213.585C165.044 214.04 165.364 214.386 165.773 214.625C166.182 214.86 166.657 214.977 167.199 214.977C167.551 214.977 167.869 214.928 168.153 214.83C168.441 214.727 168.689 214.576 168.898 214.375C169.106 214.17 169.267 213.917 169.381 213.614L170.676 213.977C170.54 214.417 170.311 214.803 169.989 215.136C169.667 215.466 169.269 215.723 168.795 215.909C168.322 216.091 167.79 216.182 167.199 216.182ZM176.398 216.182C175.58 216.182 174.875 215.989 174.284 215.602C173.693 215.216 173.239 214.684 172.92 214.006C172.602 213.328 172.443 212.553 172.443 211.682C172.443 210.795 172.606 210.013 172.932 209.335C173.261 208.653 173.72 208.121 174.307 207.739C174.898 207.352 175.587 207.159 176.375 207.159C176.989 207.159 177.542 207.273 178.034 207.5C178.527 207.727 178.93 208.045 179.244 208.455C179.559 208.864 179.754 209.341 179.83 209.886H178.489C178.386 209.489 178.159 209.136 177.807 208.83C177.458 208.519 176.989 208.364 176.398 208.364C175.875 208.364 175.417 208.5 175.023 208.773C174.633 209.042 174.328 209.422 174.108 209.915C173.892 210.403 173.784 210.977 173.784 211.636C173.784 212.311 173.89 212.898 174.102 213.398C174.318 213.898 174.621 214.286 175.011 214.562C175.405 214.839 175.867 214.977 176.398 214.977C176.746 214.977 177.062 214.917 177.347 214.795C177.631 214.674 177.871 214.5 178.068 214.273C178.265 214.045 178.405 213.773 178.489 213.455H179.83C179.754 213.97 179.566 214.434 179.267 214.847C178.972 215.256 178.58 215.581 178.091 215.824C177.606 216.062 177.042 216.182 176.398 216.182ZM187.29 212.432V207.273H188.631V216H187.29V214.523H187.199C186.994 214.966 186.676 215.343 186.244 215.653C185.813 215.96 185.267 216.114 184.608 216.114C184.062 216.114 183.578 215.994 183.153 215.756C182.729 215.513 182.396 215.15 182.153 214.665C181.911 214.176 181.79 213.561 181.79 212.818V207.273H183.131V212.727C183.131 213.364 183.309 213.871 183.665 214.25C184.025 214.629 184.483 214.818 185.04 214.818C185.373 214.818 185.712 214.733 186.057 214.562C186.405 214.392 186.697 214.131 186.932 213.778C187.17 213.426 187.29 212.977 187.29 212.432ZM194.882 207.273V208.409H190.359V207.273H194.882ZM191.678 205.182H193.018V213.5C193.018 213.879 193.073 214.163 193.183 214.352C193.297 214.538 193.441 214.663 193.615 214.727C193.793 214.788 193.981 214.818 194.178 214.818C194.325 214.818 194.446 214.811 194.541 214.795C194.636 214.777 194.712 214.761 194.768 214.75L195.041 215.955C194.95 215.989 194.823 216.023 194.661 216.057C194.498 216.095 194.291 216.114 194.041 216.114C193.662 216.114 193.291 216.032 192.928 215.869C192.568 215.706 192.268 215.458 192.03 215.125C191.795 214.792 191.678 214.371 191.678 213.864V205.182ZM201.399 216V207.273H202.74V216H201.399ZM202.081 205.818C201.82 205.818 201.594 205.729 201.405 205.551C201.219 205.373 201.126 205.159 201.126 204.909C201.126 204.659 201.219 204.445 201.405 204.267C201.594 204.089 201.82 204 202.081 204C202.342 204 202.566 204.089 202.751 204.267C202.941 204.445 203.036 204.659 203.036 204.909C203.036 205.159 202.941 205.373 202.751 205.551C202.566 205.729 202.342 205.818 202.081 205.818ZM211.378 209.227L210.173 209.568C210.098 209.367 209.986 209.172 209.838 208.983C209.694 208.79 209.497 208.631 209.247 208.506C208.997 208.381 208.677 208.318 208.287 208.318C207.753 208.318 207.308 208.441 206.952 208.688C206.599 208.93 206.423 209.239 206.423 209.614C206.423 209.947 206.545 210.21 206.787 210.403C207.029 210.597 207.408 210.758 207.923 210.886L209.219 211.205C209.999 211.394 210.58 211.684 210.963 212.074C211.346 212.46 211.537 212.958 211.537 213.568C211.537 214.068 211.393 214.515 211.105 214.909C210.821 215.303 210.423 215.614 209.912 215.841C209.401 216.068 208.806 216.182 208.128 216.182C207.238 216.182 206.501 215.989 205.918 215.602C205.334 215.216 204.965 214.652 204.81 213.909L206.082 213.591C206.204 214.061 206.433 214.413 206.77 214.648C207.111 214.883 207.556 215 208.105 215C208.73 215 209.226 214.867 209.594 214.602C209.965 214.333 210.151 214.011 210.151 213.636C210.151 213.333 210.045 213.08 209.832 212.875C209.62 212.667 209.295 212.511 208.855 212.409L207.401 212.068C206.601 211.879 206.014 211.585 205.639 211.188C205.268 210.786 205.082 210.284 205.082 209.682C205.082 209.189 205.221 208.754 205.497 208.375C205.777 207.996 206.158 207.699 206.639 207.483C207.124 207.267 207.673 207.159 208.287 207.159C209.151 207.159 209.829 207.348 210.321 207.727C210.817 208.106 211.17 208.606 211.378 209.227ZM220.624 216.205C220.071 216.205 219.569 216.1 219.118 215.892C218.667 215.68 218.309 215.375 218.044 214.977C217.779 214.576 217.646 214.091 217.646 213.523C217.646 213.023 217.745 212.617 217.942 212.307C218.139 211.992 218.402 211.746 218.732 211.568C219.061 211.39 219.425 211.258 219.822 211.17C220.224 211.08 220.627 211.008 221.033 210.955C221.563 210.886 221.993 210.835 222.322 210.801C222.656 210.763 222.898 210.701 223.05 210.614C223.205 210.527 223.283 210.375 223.283 210.159V210.114C223.283 209.553 223.129 209.117 222.822 208.807C222.519 208.496 222.059 208.341 221.442 208.341C220.802 208.341 220.3 208.481 219.936 208.761C219.572 209.042 219.317 209.341 219.169 209.659L217.896 209.205C218.124 208.674 218.427 208.261 218.805 207.966C219.188 207.667 219.605 207.458 220.055 207.341C220.51 207.22 220.957 207.159 221.396 207.159C221.677 207.159 221.999 207.193 222.362 207.261C222.73 207.326 223.084 207.46 223.425 207.665C223.769 207.869 224.055 208.178 224.283 208.591C224.51 209.004 224.624 209.557 224.624 210.25V216H223.283V214.818H223.214C223.124 215.008 222.972 215.21 222.76 215.426C222.548 215.642 222.266 215.826 221.913 215.977C221.561 216.129 221.131 216.205 220.624 216.205ZM220.828 215C221.358 215 221.805 214.896 222.169 214.688C222.536 214.479 222.813 214.21 222.999 213.881C223.188 213.551 223.283 213.205 223.283 212.841V211.614C223.226 211.682 223.101 211.744 222.908 211.801C222.718 211.854 222.499 211.902 222.249 211.943C222.002 211.981 221.762 212.015 221.527 212.045C221.296 212.072 221.108 212.095 220.964 212.114C220.616 212.159 220.29 212.233 219.987 212.335C219.688 212.434 219.446 212.583 219.26 212.784C219.078 212.981 218.987 213.25 218.987 213.591C218.987 214.057 219.16 214.409 219.504 214.648C219.853 214.883 220.294 215 220.828 215ZM231.753 204.364H233.435L237.389 214.023H237.526L241.48 204.364H243.162V216H241.844V207.159H241.73L238.094 216H236.821L233.185 207.159H233.071V216H231.753V204.364ZM248.374 216.205C247.821 216.205 247.319 216.1 246.868 215.892C246.417 215.68 246.059 215.375 245.794 214.977C245.529 214.576 245.396 214.091 245.396 213.523C245.396 213.023 245.495 212.617 245.692 212.307C245.889 211.992 246.152 211.746 246.482 211.568C246.811 211.39 247.175 211.258 247.572 211.17C247.974 211.08 248.377 211.008 248.783 210.955C249.313 210.886 249.743 210.835 250.072 210.801C250.406 210.763 250.648 210.701 250.8 210.614C250.955 210.527 251.033 210.375 251.033 210.159V210.114C251.033 209.553 250.879 209.117 250.572 208.807C250.269 208.496 249.809 208.341 249.192 208.341C248.552 208.341 248.05 208.481 247.686 208.761C247.322 209.042 247.067 209.341 246.919 209.659L245.646 209.205C245.874 208.674 246.177 208.261 246.555 207.966C246.938 207.667 247.355 207.458 247.805 207.341C248.26 207.22 248.707 207.159 249.146 207.159C249.427 207.159 249.749 207.193 250.112 207.261C250.48 207.326 250.834 207.46 251.175 207.665C251.519 207.869 251.805 208.178 252.033 208.591C252.26 209.004 252.374 209.557 252.374 210.25V216H251.033V214.818H250.964C250.874 215.008 250.722 215.21 250.51 215.426C250.298 215.642 250.016 215.826 249.663 215.977C249.311 216.129 248.881 216.205 248.374 216.205ZM248.578 215C249.108 215 249.555 214.896 249.919 214.688C250.286 214.479 250.563 214.21 250.749 213.881C250.938 213.551 251.033 213.205 251.033 212.841V211.614C250.976 211.682 250.851 211.744 250.658 211.801C250.468 211.854 250.249 211.902 249.999 211.943C249.752 211.981 249.512 212.015 249.277 212.045C249.046 212.072 248.858 212.095 248.714 212.114C248.366 212.159 248.04 212.233 247.737 212.335C247.438 212.434 247.196 212.583 247.01 212.784C246.828 212.981 246.737 213.25 246.737 213.591C246.737 214.057 246.91 214.409 247.254 214.648C247.603 214.883 248.044 215 248.578 215ZM258.366 216.182C257.548 216.182 256.844 215.989 256.253 215.602C255.662 215.216 255.207 214.684 254.889 214.006C254.571 213.328 254.412 212.553 254.412 211.682C254.412 210.795 254.575 210.013 254.901 209.335C255.23 208.653 255.688 208.121 256.276 207.739C256.866 207.352 257.556 207.159 258.344 207.159C258.957 207.159 259.51 207.273 260.003 207.5C260.495 207.727 260.899 208.045 261.213 208.455C261.527 208.864 261.723 209.341 261.798 209.886H260.457C260.355 209.489 260.128 209.136 259.776 208.83C259.427 208.519 258.957 208.364 258.366 208.364C257.844 208.364 257.385 208.5 256.991 208.773C256.601 209.042 256.296 209.422 256.077 209.915C255.861 210.403 255.753 210.977 255.753 211.636C255.753 212.311 255.859 212.898 256.071 213.398C256.287 213.898 256.59 214.286 256.98 214.562C257.374 214.839 257.836 214.977 258.366 214.977C258.715 214.977 259.031 214.917 259.315 214.795C259.599 214.674 259.84 214.5 260.037 214.273C260.234 214.045 260.374 213.773 260.457 213.455H261.798C261.723 213.97 261.535 214.434 261.236 214.847C260.94 215.256 260.548 215.581 260.06 215.824C259.575 216.062 259.01 216.182 258.366 216.182ZM268.918 216H267.44L271.713 204.364H273.168L277.44 216H275.963L272.486 206.205H272.395L268.918 216ZM269.463 211.455H275.418V212.705H269.463V211.455ZM279.071 219.273V207.273H280.366V208.659H280.526C280.624 208.508 280.76 208.314 280.935 208.08C281.113 207.841 281.366 207.629 281.696 207.443C282.029 207.254 282.48 207.159 283.048 207.159C283.783 207.159 284.431 207.343 284.991 207.71C285.552 208.078 285.99 208.598 286.304 209.273C286.618 209.947 286.776 210.742 286.776 211.659C286.776 212.583 286.618 213.384 286.304 214.062C285.99 214.737 285.554 215.259 284.997 215.631C284.44 215.998 283.798 216.182 283.071 216.182C282.51 216.182 282.062 216.089 281.724 215.903C281.387 215.714 281.128 215.5 280.946 215.261C280.764 215.019 280.624 214.818 280.526 214.659H280.412V219.273H279.071ZM280.389 211.636C280.389 212.295 280.486 212.877 280.679 213.381C280.872 213.881 281.154 214.273 281.526 214.557C281.897 214.837 282.351 214.977 282.889 214.977C283.45 214.977 283.918 214.83 284.293 214.534C284.671 214.235 284.955 213.833 285.145 213.33C285.338 212.822 285.435 212.258 285.435 211.636C285.435 211.023 285.34 210.47 285.151 209.977C284.965 209.481 284.683 209.089 284.304 208.801C283.929 208.509 283.457 208.364 282.889 208.364C282.344 208.364 281.885 208.502 281.514 208.778C281.143 209.051 280.863 209.434 280.673 209.926C280.484 210.415 280.389 210.985 280.389 211.636ZM288.821 219.273V207.273H290.116V208.659H290.276C290.374 208.508 290.51 208.314 290.685 208.08C290.863 207.841 291.116 207.629 291.446 207.443C291.779 207.254 292.23 207.159 292.798 207.159C293.533 207.159 294.181 207.343 294.741 207.71C295.302 208.078 295.74 208.598 296.054 209.273C296.368 209.947 296.526 210.742 296.526 211.659C296.526 212.583 296.368 213.384 296.054 214.062C295.74 214.737 295.304 215.259 294.747 215.631C294.19 215.998 293.548 216.182 292.821 216.182C292.26 216.182 291.812 216.089 291.474 215.903C291.137 215.714 290.878 215.5 290.696 215.261C290.514 215.019 290.374 214.818 290.276 214.659H290.162V219.273H288.821ZM290.139 211.636C290.139 212.295 290.236 212.877 290.429 213.381C290.622 213.881 290.904 214.273 291.276 214.557C291.647 214.837 292.101 214.977 292.639 214.977C293.2 214.977 293.668 214.83 294.043 214.534C294.421 214.235 294.705 213.833 294.895 213.33C295.088 212.822 295.185 212.258 295.185 211.636C295.185 211.023 295.09 210.47 294.901 209.977C294.715 209.481 294.433 209.089 294.054 208.801C293.679 208.509 293.207 208.364 292.639 208.364C292.094 208.364 291.635 208.502 291.264 208.778C290.893 209.051 290.613 209.434 290.423 209.926C290.234 210.415 290.139 210.985 290.139 211.636ZM306.866 207.273V208.409H302.344V207.273H306.866ZM303.662 205.182H305.003V213.5C305.003 213.879 305.058 214.163 305.168 214.352C305.281 214.538 305.425 214.663 305.599 214.727C305.777 214.788 305.965 214.818 306.162 214.818C306.31 214.818 306.431 214.811 306.526 214.795C306.62 214.777 306.696 214.761 306.753 214.75L307.026 215.955C306.935 215.989 306.808 216.023 306.645 216.057C306.482 216.095 306.276 216.114 306.026 216.114C305.647 216.114 305.276 216.032 304.912 215.869C304.552 215.706 304.253 215.458 304.014 215.125C303.779 214.792 303.662 214.371 303.662 213.864V205.182ZM310.412 210.75V216H309.071V204.364H310.412V208.636H310.526C310.73 208.186 311.037 207.828 311.446 207.562C311.859 207.294 312.408 207.159 313.094 207.159C313.688 207.159 314.209 207.278 314.656 207.517C315.103 207.752 315.45 208.114 315.696 208.602C315.946 209.087 316.071 209.705 316.071 210.455V216H314.73V210.545C314.73 209.852 314.55 209.316 314.19 208.938C313.834 208.555 313.34 208.364 312.707 208.364C312.268 208.364 311.874 208.456 311.526 208.642C311.181 208.828 310.908 209.098 310.707 209.455C310.51 209.811 310.412 210.242 310.412 210.75ZM321.092 216.205C320.539 216.205 320.037 216.1 319.587 215.892C319.136 215.68 318.778 215.375 318.513 214.977C318.248 214.576 318.115 214.091 318.115 213.523C318.115 213.023 318.214 212.617 318.411 212.307C318.607 211.992 318.871 211.746 319.2 211.568C319.53 211.39 319.893 211.258 320.291 211.17C320.693 211.08 321.096 211.008 321.501 210.955C322.032 210.886 322.462 210.835 322.791 210.801C323.125 210.763 323.367 210.701 323.518 210.614C323.674 210.527 323.751 210.375 323.751 210.159V210.114C323.751 209.553 323.598 209.117 323.291 208.807C322.988 208.496 322.528 208.341 321.911 208.341C321.27 208.341 320.768 208.481 320.405 208.761C320.041 209.042 319.786 209.341 319.638 209.659L318.365 209.205C318.592 208.674 318.895 208.261 319.274 207.966C319.657 207.667 320.073 207.458 320.524 207.341C320.979 207.22 321.426 207.159 321.865 207.159C322.145 207.159 322.467 207.193 322.831 207.261C323.198 207.326 323.553 207.46 323.893 207.665C324.238 207.869 324.524 208.178 324.751 208.591C324.979 209.004 325.092 209.557 325.092 210.25V216H323.751V214.818H323.683C323.592 215.008 323.441 215.21 323.229 215.426C323.017 215.642 322.734 215.826 322.382 215.977C322.03 216.129 321.6 216.205 321.092 216.205ZM321.297 215C321.827 215 322.274 214.896 322.638 214.688C323.005 214.479 323.282 214.21 323.467 213.881C323.657 213.551 323.751 213.205 323.751 212.841V211.614C323.695 211.682 323.57 211.744 323.376 211.801C323.187 211.854 322.967 211.902 322.717 211.943C322.471 211.981 322.231 212.015 321.996 212.045C321.765 212.072 321.577 212.095 321.433 212.114C321.085 212.159 320.759 212.233 320.456 212.335C320.157 212.434 319.914 212.583 319.729 212.784C319.547 212.981 319.456 213.25 319.456 213.591C319.456 214.057 319.628 214.409 319.973 214.648C320.321 214.883 320.763 215 321.297 215ZM331.335 207.273V208.409H326.812V207.273H331.335ZM328.131 205.182H329.472V213.5C329.472 213.879 329.527 214.163 329.636 214.352C329.75 214.538 329.894 214.663 330.068 214.727C330.246 214.788 330.434 214.818 330.631 214.818C330.778 214.818 330.9 214.811 330.994 214.795C331.089 214.777 331.165 214.761 331.222 214.75L331.494 215.955C331.403 215.989 331.277 216.023 331.114 216.057C330.951 216.095 330.744 216.114 330.494 216.114C330.116 216.114 329.744 216.032 329.381 215.869C329.021 215.706 328.722 215.458 328.483 215.125C328.248 214.792 328.131 214.371 328.131 213.864V205.182ZM340.42 216.205C339.867 216.205 339.366 216.1 338.915 215.892C338.464 215.68 338.106 215.375 337.841 214.977C337.576 214.576 337.443 214.091 337.443 213.523C337.443 213.023 337.542 212.617 337.739 212.307C337.936 211.992 338.199 211.746 338.528 211.568C338.858 211.39 339.222 211.258 339.619 211.17C340.021 211.08 340.424 211.008 340.83 210.955C341.36 210.886 341.79 210.835 342.119 210.801C342.453 210.763 342.695 210.701 342.847 210.614C343.002 210.527 343.08 210.375 343.08 210.159V210.114C343.08 209.553 342.926 209.117 342.619 208.807C342.316 208.496 341.856 208.341 341.239 208.341C340.598 208.341 340.097 208.481 339.733 208.761C339.369 209.042 339.114 209.341 338.966 209.659L337.693 209.205C337.92 208.674 338.223 208.261 338.602 207.966C338.985 207.667 339.402 207.458 339.852 207.341C340.307 207.22 340.754 207.159 341.193 207.159C341.473 207.159 341.795 207.193 342.159 207.261C342.527 207.326 342.881 207.46 343.222 207.665C343.566 207.869 343.852 208.178 344.08 208.591C344.307 209.004 344.42 209.557 344.42 210.25V216H343.08V214.818H343.011C342.92 215.008 342.769 215.21 342.557 215.426C342.345 215.642 342.063 215.826 341.71 215.977C341.358 216.129 340.928 216.205 340.42 216.205ZM340.625 215C341.155 215 341.602 214.896 341.966 214.688C342.333 214.479 342.61 214.21 342.795 213.881C342.985 213.551 343.08 213.205 343.08 212.841V211.614C343.023 211.682 342.898 211.744 342.705 211.801C342.515 211.854 342.295 211.902 342.045 211.943C341.799 211.981 341.559 212.015 341.324 212.045C341.093 212.072 340.905 212.095 340.761 212.114C340.413 212.159 340.087 212.233 339.784 212.335C339.485 212.434 339.242 212.583 339.057 212.784C338.875 212.981 338.784 213.25 338.784 213.591C338.784 214.057 338.956 214.409 339.301 214.648C339.65 214.883 340.091 215 340.625 215ZM348.209 204.364V216H346.868V204.364H348.209ZM352.006 204.364V216H350.665V204.364H352.006ZM358.007 216.182C357.219 216.182 356.528 215.994 355.933 215.619C355.342 215.244 354.88 214.72 354.547 214.045C354.217 213.371 354.053 212.583 354.053 211.682C354.053 210.773 354.217 209.979 354.547 209.301C354.88 208.623 355.342 208.097 355.933 207.722C356.528 207.347 357.219 207.159 358.007 207.159C358.795 207.159 359.484 207.347 360.075 207.722C360.67 208.097 361.132 208.623 361.462 209.301C361.795 209.979 361.962 210.773 361.962 211.682C361.962 212.583 361.795 213.371 361.462 214.045C361.132 214.72 360.67 215.244 360.075 215.619C359.484 215.994 358.795 216.182 358.007 216.182ZM358.007 214.977C358.606 214.977 359.098 214.824 359.484 214.517C359.871 214.21 360.157 213.807 360.342 213.307C360.528 212.807 360.621 212.265 360.621 211.682C360.621 211.098 360.528 210.555 360.342 210.051C360.157 209.547 359.871 209.14 359.484 208.83C359.098 208.519 358.606 208.364 358.007 208.364C357.409 208.364 356.916 208.519 356.53 208.83C356.143 209.14 355.857 209.547 355.672 210.051C355.486 210.555 355.393 211.098 355.393 211.682C355.393 212.265 355.486 212.807 355.672 213.307C355.857 213.807 356.143 214.21 356.53 214.517C356.916 214.824 357.409 214.977 358.007 214.977ZM365.689 216L363.03 207.273H364.439L366.325 213.955H366.416L368.28 207.273H369.712L371.553 213.932H371.643L373.53 207.273H374.939L372.28 216H370.962L369.053 209.295H368.916L367.007 216H365.689ZM382.893 209.227L381.689 209.568C381.613 209.367 381.501 209.172 381.354 208.983C381.21 208.79 381.013 208.631 380.763 208.506C380.513 208.381 380.193 208.318 379.803 208.318C379.268 208.318 378.823 208.441 378.467 208.688C378.115 208.93 377.939 209.239 377.939 209.614C377.939 209.947 378.06 210.21 378.303 210.403C378.545 210.597 378.924 210.758 379.439 210.886L380.734 211.205C381.515 211.394 382.096 211.684 382.479 212.074C382.861 212.46 383.053 212.958 383.053 213.568C383.053 214.068 382.909 214.515 382.621 214.909C382.337 215.303 381.939 215.614 381.428 215.841C380.916 216.068 380.321 216.182 379.643 216.182C378.753 216.182 378.017 215.989 377.433 215.602C376.85 215.216 376.481 214.652 376.325 213.909L377.598 213.591C377.719 214.061 377.948 214.413 378.286 214.648C378.626 214.883 379.071 215 379.621 215C380.246 215 380.742 214.867 381.109 214.602C381.481 214.333 381.666 214.011 381.666 213.636C381.666 213.333 381.56 213.08 381.348 212.875C381.136 212.667 380.81 212.511 380.371 212.409L378.916 212.068C378.117 211.879 377.53 211.585 377.155 211.188C376.784 210.786 376.598 210.284 376.598 209.682C376.598 209.189 376.736 208.754 377.013 208.375C377.293 207.996 377.674 207.699 378.155 207.483C378.64 207.267 379.189 207.159 379.803 207.159C380.666 207.159 381.344 207.348 381.837 207.727C382.333 208.106 382.685 208.606 382.893 209.227Z" fill="#B4B5B9"/>
<defs>
<linearGradient id="paint0_linear_9_79" x1="81.7166" y1="303.889" x2="428.555" y2="303.889" gradientUnits="userSpaceOnUse">
<stop stop-color="#4C497E"/>
<stop offset="0.0885417" stop-color="#9E9DFC"/>
<stop offset="0.233923" stop-color="#9494FE"/>
<stop offset="0.563354" stop-color="#B7AAFA"/>
<stop offset="1" stop-color="#C7BFFA"/>
</linearGradient>
<linearGradient id="paint1_linear_9_79" x1="321.795" y1="234" x2="175.691" y2="236.21" gradientUnits="userSpaceOnUse">
<stop stop-color="#1E1E28"/>
</linearGradient>
</defs>
</svg>
