<svg width="294" height="101" viewBox="0 0 294 101" fill="none" xmlns="http://www.w3.org/2000/svg">
<rect width="294" height="100.529" rx="18.9677" fill="url(#paint0_linear_2_67)"/>
<g clip-path="url(#clip0_2_67)">
<rect x="20.8645" y="7.5871" width="252.271" height="85.3548" rx="18.9677" fill="#10121E"/>
<rect x="19.9545" y="102.259" width="185.508" height="3" transform="rotate(-33.4521 19.9545 102.259)" fill="#202028"/>
<rect x="16.9451" y="90.3015" width="178.328" height="3" transform="rotate(-33.4521 16.9451 90.3015)" fill="#202028"/>
<rect x="54.1854" y="92.1965" width="167.253" height="3" transform="rotate(-33.4521 54.1854 92.1965)" fill="#202028"/>
<rect x="70.6938" y="93.8427" width="170.239" height="3" transform="rotate(-33.4521 70.6938 93.8427)" fill="#202028"/>
<rect x="88.1539" y="94.86" width="172.085" height="3" transform="rotate(-33.4521 88.1539 94.86)" fill="#202028"/>
<rect x="102.499" y="97.9355" width="177.664" height="3" transform="rotate(-33.4521 102.499 97.9355)" fill="#202028"/>
<rect x="122.884" y="97.0203" width="167.122" height="3" transform="rotate(-33.4521 122.884 97.0203)" fill="#202028"/>
<rect x="137.554" y="99.8815" width="160.989" height="3" transform="rotate(-33.4521 137.554 99.8815)" fill="#202028"/>
<rect x="159.099" y="98.2" width="178.144" height="3" transform="rotate(-33.4521 159.099 98.2)" fill="#202028"/>
<rect x="185.127" y="92.9756" width="154.153" height="3" transform="rotate(-33.4521 185.127 92.9756)" fill="#202028"/>
<rect x="202.264" y="93.6258" width="140.82" height="3" transform="rotate(-33.4521 202.264 93.6258)" fill="#202028"/>
<rect x="213.261" y="98.3325" width="134.846" height="3" transform="rotate(-33.4521 213.261 98.3325)" fill="#202028"/>
</g>
<rect x="280.723" y="28.4516" width="3.79355" height="45.5226" rx="1.89677" fill="#D9D9D9"/>
<rect x="9.48389" y="28.4516" width="3.79355" height="45.5226" rx="1.89677" fill="#D9D9D9"/>
<path d="M44.3125 28.3438V36.125H39.5312V41.4688H44.3125V60.3438C44.3125 66.6875 46.9062 69.2188 53.5625 69.2188C55.0625 69.2188 56.5625 69.0938 57.3125 68.9062V63.5625C56.875 63.6562 55.7812 63.7188 55.0938 63.7188C52.3438 63.7188 51.0938 62.4375 51.0938 59.5938V41.4688H57.3438V36.125H51.0938V28.3438H44.3125ZM91.0938 36.125H84.3438V55.2812C84.3438 60.4062 81.4062 63.7812 76.5312 63.7812C71.875 63.7812 69.5 61.0938 69.5 56.0938V36.125H62.75V57.4062C62.75 64.9375 67.125 69.5938 74.2812 69.5938C79.3125 69.5938 82.6562 67.375 84.4688 63.4375H84.625V69H91.0938V36.125ZM115.281 69.5625C123.625 69.5625 129 63 129 52.5625C129 42.1562 123.594 35.5938 115.312 35.5938C110.656 35.5938 106.906 37.9062 104.938 41.7188H104.781V23.9062H98.0312V69H104.594V63.4062H104.719C106.75 67.2188 110.469 69.5625 115.281 69.5625ZM113.469 41.2812C118.781 41.2812 122.062 45.6562 122.062 52.5625C122.062 59.5312 118.781 63.8438 113.469 63.8438C108.344 63.8438 104.75 59.4062 104.75 52.5625C104.75 45.7812 108.344 41.2812 113.469 41.2812ZM148.031 40.9688C152.75 40.9688 155.938 44.5 156.094 49.5312H139.656C140 44.5625 143.312 40.9688 148.031 40.9688ZM156.062 59.3438C155.156 62.2188 152.312 64.1562 148.469 64.1562C143.062 64.1562 139.625 60.375 139.625 54.6562V54.25H162.844V51.9375C162.844 41.9688 157.156 35.5312 148.031 35.5312C138.75 35.5312 132.812 42.4062 132.812 52.7188C132.812 63.0938 138.656 69.625 148.312 69.625C155.844 69.625 161.531 65.3438 162.469 59.3438H156.062ZM196.312 47.4375C195.719 40.9688 190.562 35.5312 182.094 35.5312C172.75 35.5312 166.625 42.125 166.625 52.5625C166.625 63.1875 172.75 69.625 182.156 69.625C190.062 69.625 195.656 64.875 196.375 57.875H189.875C189.094 61.6875 186.375 63.9688 182.219 63.9688C176.969 63.9688 173.5 59.7812 173.5 52.5625C173.5 45.5 176.938 41.1562 182.156 41.1562C186.562 41.1562 189.188 43.9375 189.875 47.4375H196.312ZM229.344 36.125H222.594V55.2812C222.594 60.4062 219.656 63.7812 214.781 63.7812C210.125 63.7812 207.75 61.0938 207.75 56.0938V36.125H201V57.4062C201 64.9375 205.375 69.5938 212.531 69.5938C217.562 69.5938 220.906 67.375 222.719 63.4375H222.875V69H229.344V36.125ZM238 28.3438V36.125H233.219V41.4688H238V60.3438C238 66.6875 240.594 69.2188 247.25 69.2188C248.75 69.2188 250.25 69.0938 251 68.9062V63.5625C250.562 63.6562 249.469 63.7188 248.781 63.7188C246.031 63.7188 244.781 62.4375 244.781 59.5938V41.4688H251.031V36.125H244.781V28.3438H238Z" fill="#B4B5B9"/>
<defs>
<linearGradient id="paint0_linear_2_67" x1="2.1199e-06" y1="49.3161" x2="312.968" y2="49.3161" gradientUnits="userSpaceOnUse">
<stop stop-color="#7978F6"/>
<stop offset="0.507385" stop-color="#8079AB"/>
<stop offset="1" stop-color="#D3B2E5"/>
</linearGradient>
<clipPath id="clip0_2_67">
<rect x="20.8645" y="7.5871" width="252.271" height="85.3548" rx="18.7" fill="white"/>
</clipPath>
</defs>
</svg>
