<svg width="261" height="220" viewBox="0 0 261 220" fill="none" xmlns="http://www.w3.org/2000/svg">
<g filter="url(#filter0_d_9_64)">
<path d="M8 5C8 2.23857 10.2386 0 13 0H248C250.761 0 253 2.23858 253 5V200C253 202.761 250.761 205 248 205H13C10.2386 205 8 202.761 8 200V5Z" fill="#C7BFFA"/>
<rect x="9" y="1" width="243" height="203" rx="5" fill="url(#paint0_linear_9_64)"/>
<path d="M42.9609 112.727H41.2109V120.039C41.2109 122.469 42.9453 124.188 45.7734 124.188C48.6016 124.188 50.3359 122.469 50.3359 120.039V112.727H48.5938V119.891C48.5938 121.5 47.5703 122.633 45.7734 122.633C43.9766 122.633 42.9609 121.5 42.9609 119.891V112.727ZM52.2109 124H53.8984V119.211C53.8984 117.938 54.6641 117.094 55.8516 117.094C57.0234 117.094 57.6016 117.773 57.6016 119.008V124H59.2969V118.68C59.2969 116.797 58.2578 115.641 56.4453 115.641C55.1797 115.641 54.3047 116.219 53.8594 117.156H53.8203V115.781H52.2109V124ZM60.9922 124H62.6797V112.727H60.9922V124ZM64.4688 124H66.1562V115.781H64.4688V124ZM65.3125 114.578C65.8594 114.578 66.2969 114.148 66.2969 113.617C66.2969 113.078 65.8594 112.648 65.3125 112.648C64.7734 112.648 64.3359 113.078 64.3359 113.617C64.3359 114.148 64.7734 114.578 65.3125 114.578ZM69.6484 119.305H69.6328V112.727H67.9453V124H69.6328V121.047L70.3359 120.352L73.125 124H75.0859L71.5469 119.32L74.9531 115.781H72.9688L69.6484 119.305ZM79.0078 116.992C80.1875 116.992 80.9844 117.875 81.0234 119.133H76.9141C77 117.891 77.8281 116.992 79.0078 116.992ZM81.0156 121.586C80.7891 122.305 80.0781 122.789 79.1172 122.789C77.7656 122.789 76.9062 121.844 76.9062 120.414V120.312H82.7109V119.734C82.7109 117.242 81.2891 115.633 79.0078 115.633C76.6875 115.633 75.2031 117.352 75.2031 119.93C75.2031 122.523 76.6641 124.156 79.0781 124.156C80.9609 124.156 82.3828 123.086 82.6172 121.586H81.0156ZM90.8047 124.156C93.1562 124.156 94.7031 122.539 94.7031 119.891C94.7031 117.25 93.1484 115.633 90.8047 115.633C88.4609 115.633 86.9062 117.25 86.9062 119.891C86.9062 122.539 88.4531 124.156 90.8047 124.156ZM90.8047 122.766C89.4844 122.766 88.625 121.719 88.625 119.891C88.625 118.07 89.4844 117.023 90.8047 117.023C92.125 117.023 92.9844 118.07 92.9844 119.891C92.9844 121.719 92.1328 122.766 90.8047 122.766ZM96.5 113.836V115.781H95.3047V117.117H96.5V121.836C96.5 123.422 97.1484 124.055 98.8125 124.055C99.1875 124.055 99.5625 124.023 99.75 123.977V122.641C99.6406 122.664 99.3672 122.68 99.1953 122.68C98.5078 122.68 98.1953 122.359 98.1953 121.648V117.117H99.7578V115.781H98.1953V113.836H96.5ZM101.211 124H102.898V119.25C102.898 117.953 103.664 117.094 104.914 117.094C106.102 117.094 106.711 117.82 106.711 119.031V124H108.406V118.703C108.406 116.844 107.328 115.641 105.523 115.641C104.273 115.641 103.375 116.195 102.922 117.156H102.883V112.727H101.211V124ZM113.477 116.992C114.656 116.992 115.453 117.875 115.492 119.133H111.383C111.469 117.891 112.297 116.992 113.477 116.992ZM115.484 121.586C115.258 122.305 114.547 122.789 113.586 122.789C112.234 122.789 111.375 121.844 111.375 120.414V120.312H117.18V119.734C117.18 117.242 115.758 115.633 113.477 115.633C111.156 115.633 109.672 117.352 109.672 119.93C109.672 122.523 111.133 124.156 113.547 124.156C115.43 124.156 116.852 123.086 117.086 121.586H115.484ZM118.492 124H120.18V119.078C120.18 117.914 120.852 117.188 121.938 117.188C122.266 117.188 122.562 117.227 122.695 117.281V115.711C122.57 115.688 122.359 115.648 122.117 115.648C121.148 115.648 120.414 116.219 120.141 117.18H120.102V115.781H118.492V124ZM130.078 124.141C131.273 124.141 132.211 123.539 132.695 122.602H132.727V124H134.367V112.727H132.672V117.148H132.641C132.18 116.242 131.242 115.648 130.062 115.648C128 115.648 126.625 117.297 126.625 119.891C126.625 122.484 128 124.141 130.078 124.141ZM130.523 117.07C131.82 117.07 132.688 118.188 132.688 119.891C132.688 121.609 131.82 122.711 130.523 122.711C129.188 122.711 128.352 121.625 128.352 119.891C128.352 118.164 129.188 117.07 130.523 117.07ZM139.633 124.156C141.984 124.156 143.531 122.539 143.531 119.891C143.531 117.25 141.977 115.633 139.633 115.633C137.289 115.633 135.734 117.25 135.734 119.891C135.734 122.539 137.281 124.156 139.633 124.156ZM139.633 122.766C138.312 122.766 137.453 121.719 137.453 119.891C137.453 118.07 138.312 117.023 139.633 117.023C140.953 117.023 141.812 118.07 141.812 119.891C141.812 121.719 140.961 122.766 139.633 122.766ZM155.648 115.781H153.977L152.477 122.25H152.438L150.719 115.781H149.094L147.383 122.25H147.352L145.852 115.781H144.164L146.422 124H148.164L149.875 117.844H149.914L151.641 124H153.398L155.648 115.781ZM156.68 124H158.367V119.211C158.367 117.938 159.133 117.094 160.32 117.094C161.492 117.094 162.07 117.773 162.07 119.008V124H163.766V118.68C163.766 116.797 162.727 115.641 160.914 115.641C159.648 115.641 158.773 116.219 158.328 117.156H158.289V115.781H156.68V124ZM165.461 124H167.148V112.727H165.461V124ZM172.414 124.156C174.766 124.156 176.312 122.539 176.312 119.891C176.312 117.25 174.758 115.633 172.414 115.633C170.07 115.633 168.516 117.25 168.516 119.891C168.516 122.539 170.062 124.156 172.414 124.156ZM172.414 122.766C171.094 122.766 170.234 121.719 170.234 119.891C170.234 118.07 171.094 117.023 172.414 117.023C173.734 117.023 174.594 118.07 174.594 119.891C174.594 121.719 173.742 122.766 172.414 122.766ZM180.492 122.805C179.586 122.805 178.992 122.336 178.992 121.617C178.992 120.914 179.562 120.469 180.57 120.398L182.594 120.273V120.922C182.594 121.992 181.672 122.805 180.492 122.805ZM180.023 124.141C181.102 124.141 182.141 123.562 182.617 122.648H182.656V124H184.273V118.336C184.273 116.688 183 115.633 181.008 115.633C178.977 115.633 177.711 116.727 177.617 118.211H179.211C179.359 117.477 179.969 117.008 180.945 117.008C181.977 117.008 182.594 117.555 182.594 118.469V119.102L180.344 119.234C178.391 119.344 177.289 120.227 177.289 121.664C177.289 123.141 178.414 124.141 180.023 124.141ZM189 124.141C190.195 124.141 191.133 123.539 191.617 122.602H191.648V124H193.289V112.727H191.594V117.148H191.562C191.102 116.242 190.164 115.648 188.984 115.648C186.922 115.648 185.547 117.297 185.547 119.891C185.547 122.484 186.922 124.141 189 124.141ZM189.445 117.07C190.742 117.07 191.609 118.188 191.609 119.891C191.609 121.609 190.742 122.711 189.445 122.711C188.109 122.711 187.273 121.625 187.273 119.891C187.273 118.164 188.109 117.07 189.445 117.07ZM198.461 116.992C199.641 116.992 200.438 117.875 200.477 119.133H196.367C196.453 117.891 197.281 116.992 198.461 116.992ZM200.469 121.586C200.242 122.305 199.531 122.789 198.57 122.789C197.219 122.789 196.359 121.844 196.359 120.414V120.312H202.164V119.734C202.164 117.242 200.742 115.633 198.461 115.633C196.141 115.633 194.656 117.352 194.656 119.93C194.656 122.523 196.117 124.156 198.531 124.156C200.414 124.156 201.836 123.086 202.07 121.586H200.469ZM203.477 124H205.164V119.078C205.164 117.914 205.836 117.188 206.922 117.188C207.25 117.188 207.547 117.227 207.68 117.281V115.711C207.555 115.688 207.344 115.648 207.102 115.648C206.133 115.648 205.398 116.219 205.125 117.18H205.086V115.781H203.477V124ZM208.578 118.109C208.578 119.258 209.328 120.031 210.812 120.391L212.281 120.75C213.141 120.969 213.453 121.258 213.453 121.781C213.453 122.445 212.828 122.867 211.812 122.867C210.781 122.867 210.172 122.43 210.039 121.641H208.367C208.5 123.148 209.789 124.156 211.734 124.156C213.75 124.156 215.148 123.125 215.148 121.625C215.148 120.414 214.523 119.789 212.867 119.391L211.484 119.07C210.633 118.859 210.227 118.516 210.227 118.008C210.227 117.359 210.836 116.914 211.75 116.914C212.695 116.914 213.297 117.375 213.375 118.117H214.961C214.906 116.656 213.625 115.633 211.797 115.633C209.875 115.633 208.578 116.641 208.578 118.109ZM217.727 124.086C218.297 124.086 218.75 123.633 218.75 123.062C218.75 122.492 218.297 122.039 217.727 122.039C217.156 122.039 216.703 122.492 216.703 123.062C216.703 123.633 217.156 124.086 217.727 124.086ZM73.1875 137.781H71.5156L70.0156 144.25H69.9766L68.2578 137.781H66.6328L64.9219 144.25H64.8906L63.3906 137.781H61.7031L63.9609 146H65.7031L67.4141 139.844H67.4531L69.1797 146H70.9375L73.1875 137.781ZM77.6094 138.992C78.7891 138.992 79.5859 139.875 79.625 141.133H75.5156C75.6016 139.891 76.4297 138.992 77.6094 138.992ZM79.6172 143.586C79.3906 144.305 78.6797 144.789 77.7188 144.789C76.3672 144.789 75.5078 143.844 75.5078 142.414V142.312H81.3125V141.734C81.3125 139.242 79.8906 137.633 77.6094 137.633C75.2891 137.633 73.8047 139.352 73.8047 141.93C73.8047 144.523 75.2656 146.156 77.6797 146.156C79.5625 146.156 80.9844 145.086 81.2188 143.586H79.6172ZM89.375 144.633C88.0781 144.633 87.2344 143.586 87.2344 141.867C87.2344 140.156 88.0781 139.07 89.375 139.07C90.6953 139.07 91.5625 140.18 91.5625 141.867C91.5625 143.562 90.6953 144.633 89.375 144.633ZM89.3906 149.094C91.7344 149.094 93.25 147.812 93.25 145.852V137.781H91.6094V139.188H91.5781C91.0781 138.234 90.125 137.648 88.9609 137.648C86.8516 137.648 85.5078 139.273 85.5078 141.859C85.5078 144.422 86.8594 146.031 88.9219 146.031C90.0938 146.031 91.0625 145.445 91.5234 144.555H91.5547V145.906C91.5547 147.031 90.7734 147.781 89.4531 147.781C88.4922 147.781 87.7422 147.328 87.5 146.641H85.8047C86.0156 148.062 87.4531 149.094 89.3906 149.094ZM94.9766 146H96.6641V137.781H94.9766V146ZM95.8203 136.578C96.3672 136.578 96.8047 136.148 96.8047 135.617C96.8047 135.078 96.3672 134.648 95.8203 134.648C95.2812 134.648 94.8438 135.078 94.8438 135.617C94.8438 136.148 95.2812 136.578 95.8203 136.578ZM105.406 137.781H103.641L101.578 144.352H101.547L99.4844 137.781H97.6875L100.648 146H102.461L105.406 137.781ZM109.578 138.992C110.758 138.992 111.555 139.875 111.594 141.133H107.484C107.57 139.891 108.398 138.992 109.578 138.992ZM111.586 143.586C111.359 144.305 110.648 144.789 109.688 144.789C108.336 144.789 107.477 143.844 107.477 142.414V142.312H113.281V141.734C113.281 139.242 111.859 137.633 109.578 137.633C107.258 137.633 105.773 139.352 105.773 141.93C105.773 144.523 107.234 146.156 109.648 146.156C111.531 146.156 112.953 145.086 113.188 143.586H111.586ZM118.656 149.062C120.367 149.062 121.172 148.422 121.875 146.43L124.961 137.781H123.18L121.094 144.469H121.07L118.984 137.781H117.156L120.125 146.008C120.125 146.016 119.977 146.5 119.977 146.516C119.719 147.359 119.305 147.688 118.516 147.688C118.375 147.688 118.094 147.688 117.969 147.656V149.023C118.094 149.047 118.523 149.062 118.656 149.062ZM129.25 146.156C131.602 146.156 133.148 144.539 133.148 141.891C133.148 139.25 131.594 137.633 129.25 137.633C126.906 137.633 125.352 139.25 125.352 141.891C125.352 144.539 126.898 146.156 129.25 146.156ZM129.25 144.766C127.93 144.766 127.07 143.719 127.07 141.891C127.07 140.07 127.93 139.023 129.25 139.023C130.57 139.023 131.43 140.07 131.43 141.891C131.43 143.719 130.578 144.766 129.25 144.766ZM141.5 137.781H139.812V142.57C139.812 143.852 139.078 144.695 137.859 144.695C136.695 144.695 136.102 144.023 136.102 142.773V137.781H134.414V143.102C134.414 144.984 135.508 146.148 137.297 146.148C138.555 146.148 139.391 145.594 139.844 144.609H139.883V146H141.5V137.781ZM149.297 144.805C148.391 144.805 147.797 144.336 147.797 143.617C147.797 142.914 148.367 142.469 149.375 142.398L151.398 142.273V142.922C151.398 143.992 150.477 144.805 149.297 144.805ZM148.828 146.141C149.906 146.141 150.945 145.562 151.422 144.648H151.461V146H153.078V140.336C153.078 138.688 151.805 137.633 149.812 137.633C147.781 137.633 146.516 138.727 146.422 140.211H148.016C148.164 139.477 148.773 139.008 149.75 139.008C150.781 139.008 151.398 139.555 151.398 140.469V141.102L149.148 141.234C147.195 141.344 146.094 142.227 146.094 143.664C146.094 145.141 147.219 146.141 148.828 146.141ZM162.344 146.141C164.43 146.141 165.773 144.5 165.773 141.891C165.773 139.289 164.422 137.648 162.352 137.648C161.188 137.648 160.25 138.227 159.758 139.18H159.719V134.727H158.031V146H159.672V144.602H159.703C160.211 145.555 161.141 146.141 162.344 146.141ZM161.891 139.07C163.219 139.07 164.039 140.164 164.039 141.891C164.039 143.633 163.219 144.711 161.891 144.711C160.609 144.711 159.711 143.602 159.711 141.891C159.711 140.195 160.609 139.07 161.891 139.07ZM170.531 138.992C171.711 138.992 172.508 139.875 172.547 141.133H168.438C168.523 139.891 169.352 138.992 170.531 138.992ZM172.539 143.586C172.312 144.305 171.602 144.789 170.641 144.789C169.289 144.789 168.43 143.844 168.43 142.414V142.312H174.234V141.734C174.234 139.242 172.812 137.633 170.531 137.633C168.211 137.633 166.727 139.352 166.727 141.93C166.727 144.523 168.188 146.156 170.602 146.156C172.484 146.156 173.906 145.086 174.141 143.586H172.539ZM176.039 135.836V137.781H174.844V139.117H176.039V143.836C176.039 145.422 176.688 146.055 178.352 146.055C178.727 146.055 179.102 146.023 179.289 145.977V144.641C179.18 144.664 178.906 144.68 178.734 144.68C178.047 144.68 177.734 144.359 177.734 143.648V139.117H179.297V137.781H177.734V135.836H176.039ZM181.18 135.836V137.781H179.984V139.117H181.18V143.836C181.18 145.422 181.828 146.055 183.492 146.055C183.867 146.055 184.242 146.023 184.43 145.977V144.641C184.32 144.664 184.047 144.68 183.875 144.68C183.188 144.68 182.875 144.359 182.875 143.648V139.117H184.438V137.781H182.875V135.836H181.18ZM189.062 138.992C190.242 138.992 191.039 139.875 191.078 141.133H186.969C187.055 139.891 187.883 138.992 189.062 138.992ZM191.07 143.586C190.844 144.305 190.133 144.789 189.172 144.789C187.82 144.789 186.961 143.844 186.961 142.414V142.312H192.766V141.734C192.766 139.242 191.344 137.633 189.062 137.633C186.742 137.633 185.258 139.352 185.258 141.93C185.258 144.523 186.719 146.156 189.133 146.156C191.016 146.156 192.438 145.086 192.672 143.586H191.07ZM194.078 146H195.766V141.078C195.766 139.914 196.438 139.188 197.523 139.188C197.852 139.188 198.148 139.227 198.281 139.281V137.711C198.156 137.688 197.945 137.648 197.703 137.648C196.734 137.648 196 138.219 195.727 139.18H195.688V137.781H194.078V146ZM96.1406 160.992C97.3203 160.992 98.1172 161.875 98.1562 163.133H94.0469C94.1328 161.891 94.9609 160.992 96.1406 160.992ZM98.1484 165.586C97.9219 166.305 97.2109 166.789 96.25 166.789C94.8984 166.789 94.0391 165.844 94.0391 164.414V164.312H99.8438V163.734C99.8438 161.242 98.4219 159.633 96.1406 159.633C93.8203 159.633 92.3359 161.352 92.3359 163.93C92.3359 166.523 93.7969 168.156 96.2109 168.156C98.0938 168.156 99.5156 167.086 99.75 165.586H98.1484ZM104.094 164.977L105.906 168H107.766L105.102 163.844L107.797 159.781H105.938L104.164 162.758H104.133L102.336 159.781H100.445L103.117 163.898L100.406 168H102.234L104.055 164.977H104.094ZM113.141 159.648C111.953 159.648 111.008 160.25 110.523 161.195H110.492V159.781H108.859V170.719H110.547V166.648H110.586C111.055 167.562 111.992 168.141 113.172 168.141C115.234 168.141 116.602 166.492 116.602 163.891C116.602 161.289 115.227 159.648 113.141 159.648ZM112.695 166.711C111.398 166.711 110.539 165.602 110.539 163.891C110.539 162.195 111.406 161.07 112.695 161.07C114.031 161.07 114.867 162.172 114.867 163.891C114.867 165.617 114.031 166.711 112.695 166.711ZM121.344 160.992C122.523 160.992 123.32 161.875 123.359 163.133H119.25C119.336 161.891 120.164 160.992 121.344 160.992ZM123.352 165.586C123.125 166.305 122.414 166.789 121.453 166.789C120.102 166.789 119.242 165.844 119.242 164.414V164.312H125.047V163.734C125.047 161.242 123.625 159.633 121.344 159.633C119.023 159.633 117.539 161.352 117.539 163.93C117.539 166.523 119 168.156 121.414 168.156C123.297 168.156 124.719 167.086 124.953 165.586H123.352ZM126.359 168H128.047V163.078C128.047 161.914 128.719 161.188 129.805 161.188C130.133 161.188 130.43 161.227 130.562 161.281V159.711C130.438 159.688 130.227 159.648 129.984 159.648C129.016 159.648 128.281 160.219 128.008 161.18H127.969V159.781H126.359V168ZM131.664 168H133.352V159.781H131.664V168ZM132.508 158.578C133.055 158.578 133.492 158.148 133.492 157.617C133.492 157.078 133.055 156.648 132.508 156.648C131.969 156.648 131.531 157.078 131.531 157.617C131.531 158.148 131.969 158.578 132.508 158.578ZM138.516 160.992C139.695 160.992 140.492 161.875 140.531 163.133H136.422C136.508 161.891 137.336 160.992 138.516 160.992ZM140.523 165.586C140.297 166.305 139.586 166.789 138.625 166.789C137.273 166.789 136.414 165.844 136.414 164.414V164.312H142.219V163.734C142.219 161.242 140.797 159.633 138.516 159.633C136.195 159.633 134.711 161.352 134.711 163.93C134.711 166.523 136.172 168.156 138.586 168.156C140.469 168.156 141.891 167.086 142.125 165.586H140.523ZM143.531 168H145.219V163.211C145.219 161.938 145.984 161.094 147.172 161.094C148.344 161.094 148.922 161.773 148.922 163.008V168H150.617V162.68C150.617 160.797 149.578 159.641 147.766 159.641C146.5 159.641 145.625 160.219 145.18 161.156H145.141V159.781H143.531V168ZM159.305 162.609C159.156 160.992 157.867 159.633 155.75 159.633C153.414 159.633 151.883 161.281 151.883 163.891C151.883 166.547 153.414 168.156 155.766 168.156C157.742 168.156 159.141 166.969 159.32 165.219H157.695C157.5 166.172 156.82 166.742 155.781 166.742C154.469 166.742 153.602 165.695 153.602 163.891C153.602 162.125 154.461 161.039 155.766 161.039C156.867 161.039 157.523 161.734 157.695 162.609H159.305ZM163.953 160.992C165.133 160.992 165.93 161.875 165.969 163.133H161.859C161.945 161.891 162.773 160.992 163.953 160.992ZM165.961 165.586C165.734 166.305 165.023 166.789 164.062 166.789C162.711 166.789 161.852 165.844 161.852 164.414V164.312H167.656V163.734C167.656 161.242 166.234 159.633 163.953 159.633C161.633 159.633 160.148 161.352 160.148 163.93C160.148 166.523 161.609 168.156 164.023 168.156C165.906 168.156 167.328 167.086 167.562 165.586H165.961Z" fill="#B4B5B9"/>
<path d="M57.1383 89V72.0898H54.0914L48.6305 85.4375H48.5367L43.0641 72.0898H40.0289V89H42.4195V76.5547H42.5016L47.6109 88.8711H49.5563L54.6539 76.5547H54.7359V89H57.1383ZM65.7277 89.2344C69.255 89.2344 71.5753 86.8086 71.5753 82.8359C71.5753 78.875 69.2433 76.4492 65.7277 76.4492C62.212 76.4492 59.88 78.875 59.88 82.8359C59.88 86.8086 62.2003 89.2344 65.7277 89.2344ZM65.7277 87.1484C63.7472 87.1484 62.4581 85.5781 62.4581 82.8359C62.4581 80.1055 63.7472 78.5352 65.7277 78.5352C67.7081 78.5352 68.9972 80.1055 68.9972 82.8359C68.9972 85.5781 67.7198 87.1484 65.7277 87.1484ZM78.6413 89.2109C80.4342 89.2109 81.8405 88.3086 82.567 86.9023H82.6139V89H85.0748V72.0898H82.5319V78.7227H82.485C81.7936 77.3633 80.3873 76.4727 78.6178 76.4727C75.5241 76.4727 73.4616 78.9453 73.4616 82.8359C73.4616 86.7266 75.5241 89.2109 78.6413 89.2109ZM79.3092 78.6055C81.2545 78.6055 82.5553 80.2812 82.5553 82.8359C82.5553 85.4141 81.2545 87.0664 79.3092 87.0664C77.3053 87.0664 76.0514 85.4375 76.0514 82.8359C76.0514 80.2461 77.3053 78.6055 79.3092 78.6055ZM93.3127 78.4883C95.0822 78.4883 96.2775 79.8125 96.3361 81.6992H90.172C90.3009 79.8359 91.5431 78.4883 93.3127 78.4883ZM96.3244 85.3789C95.9845 86.457 94.9181 87.1836 93.4767 87.1836C91.4494 87.1836 90.1603 85.7656 90.1603 83.6211V83.4688H98.8673V82.6016C98.8673 78.8633 96.7345 76.4492 93.3127 76.4492C89.8322 76.4492 87.6056 79.0273 87.6056 82.8945C87.6056 86.7852 89.797 89.2344 93.4181 89.2344C96.2423 89.2344 98.3752 87.6289 98.7267 85.3789H96.3244ZM101.316 89H103.847V81.6172C103.847 79.8711 104.855 78.7812 106.484 78.7812C106.976 78.7812 107.422 78.8398 107.621 78.9219V76.5664C107.433 76.5312 107.117 76.4727 106.754 76.4727C105.3 76.4727 104.199 77.3281 103.789 78.7695H103.73V76.6719H101.316V89ZM109.671 89H112.202V81.8164C112.202 79.9062 113.351 78.6406 115.132 78.6406C116.89 78.6406 117.757 79.6602 117.757 81.5117V89H120.3V81.0195C120.3 78.1953 118.741 76.4609 116.023 76.4609C114.124 76.4609 112.812 77.3281 112.144 78.7344H112.085V76.6719H109.671V89ZM131.514 89V72.0898H128.889V89H131.514ZM134.806 89H137.338V81.8164C137.338 79.9062 138.486 78.6406 140.267 78.6406C142.025 78.6406 142.892 79.6602 142.892 81.5117V89H145.435V81.0195C145.435 78.1953 143.877 76.4609 141.158 76.4609C139.26 76.4609 137.947 77.3281 137.279 78.7344H137.22V76.6719H134.806V89ZM149.103 73.7539V76.6719H147.31V78.6758H149.103V85.7539C149.103 88.1328 150.075 89.082 152.572 89.082C153.134 89.082 153.697 89.0352 153.978 88.9648V86.9609C153.814 86.9961 153.404 87.0195 153.146 87.0195C152.115 87.0195 151.646 86.5391 151.646 85.4727V78.6758H153.99V76.6719H151.646V73.7539H149.103ZM161.407 78.4883C163.177 78.4883 164.372 79.8125 164.43 81.6992H158.266C158.395 79.8359 159.638 78.4883 161.407 78.4883ZM164.419 85.3789C164.079 86.457 163.013 87.1836 161.571 87.1836C159.544 87.1836 158.255 85.7656 158.255 83.6211V83.4688H166.962V82.6016C166.962 78.8633 164.829 76.4492 161.407 76.4492C157.927 76.4492 155.7 79.0273 155.7 82.8945C155.7 86.7852 157.891 89.2344 161.513 89.2344C164.337 89.2344 166.47 87.6289 166.821 85.3789H164.419ZM169.41 89H171.942V81.6172C171.942 79.8711 172.95 78.7812 174.578 78.7812C175.071 78.7812 175.516 78.8398 175.715 78.9219V76.5664C175.528 76.5312 175.211 76.4727 174.848 76.4727C173.395 76.4727 172.293 77.3281 171.883 78.7695H171.825V76.6719H169.41V89ZM178.504 89H181.047V78.6758H183.508V76.6953H181.012V75.5352C181.012 74.4453 181.527 73.8945 182.629 73.8945C182.969 73.8945 183.308 73.918 183.555 73.9648V72.0898C183.226 72.0312 182.652 71.9727 182.137 71.9727C179.629 71.9727 178.504 73.0977 178.504 75.4883V76.6953H176.805V78.6758H178.504V89ZM189.613 87.207C188.253 87.207 187.363 86.5039 187.363 85.4258C187.363 84.3711 188.218 83.7031 189.73 83.5977L192.765 83.4102V84.3828C192.765 85.9883 191.382 87.207 189.613 87.207ZM188.91 89.2109C190.527 89.2109 192.085 88.3438 192.8 86.9727H192.859V89H195.285V80.5039C195.285 78.0312 193.374 76.4492 190.386 76.4492C187.339 76.4492 185.441 78.0898 185.3 80.3164H187.691C187.913 79.2148 188.828 78.5117 190.292 78.5117C191.839 78.5117 192.765 79.332 192.765 80.7031V81.6523L189.39 81.8516C186.46 82.0156 184.808 83.3398 184.808 85.4961C184.808 87.7109 186.495 89.2109 188.91 89.2109ZM208.807 80.9141C208.585 78.4883 206.651 76.4492 203.475 76.4492C199.972 76.4492 197.675 78.9219 197.675 82.8359C197.675 86.8203 199.972 89.2344 203.499 89.2344C206.464 89.2344 208.561 87.4531 208.831 84.8281H206.393C206.1 86.2578 205.081 87.1133 203.522 87.1133C201.554 87.1133 200.253 85.543 200.253 82.8359C200.253 80.1875 201.542 78.5586 203.499 78.5586C205.151 78.5586 206.136 79.6016 206.393 80.9141H208.807ZM216.26 78.4883C218.03 78.4883 219.225 79.8125 219.284 81.6992H213.12C213.248 79.8359 214.491 78.4883 216.26 78.4883ZM219.272 85.3789C218.932 86.457 217.866 87.1836 216.424 87.1836C214.397 87.1836 213.108 85.7656 213.108 83.6211V83.4688H221.815V82.6016C221.815 78.8633 219.682 76.4492 216.26 76.4492C212.78 76.4492 210.553 79.0273 210.553 82.8945C210.553 86.7852 212.745 89.2344 216.366 89.2344C219.19 89.2344 221.323 87.6289 221.674 85.3789H219.272Z" fill="url(#paint1_linear_9_64)"/>
</g>
<defs>
<filter id="filter0_d_9_64" x="0.53012" y="0" width="259.94" height="219.94" filterUnits="userSpaceOnUse" color-interpolation-filters="sRGB">
<feFlood flood-opacity="0" result="BackgroundImageFix"/>
<feColorMatrix in="SourceAlpha" type="matrix" values="0 0 0 0 0 0 0 0 0 0 0 0 0 0 0 0 0 0 127 0" result="hardAlpha"/>
<feOffset dy="7.46988"/>
<feGaussianBlur stdDeviation="3.73494"/>
<feComposite in2="hardAlpha" operator="out"/>
<feColorMatrix type="matrix" values="0 0 0 0 0 0 0 0 0 0 0 0 0 0 0 0 0 0 0.25 0"/>
<feBlend mode="normal" in2="BackgroundImageFix" result="effect1_dropShadow_9_64"/>
<feBlend mode="normal" in="SourceGraphic" in2="effect1_dropShadow_9_64" result="shape"/>
</filter>
<linearGradient id="paint0_linear_9_64" x1="51.5" y1="28.5" x2="237.5" y2="204" gradientUnits="userSpaceOnUse">
<stop stop-color="#101115"/>
<stop offset="1" stop-color="#161622"/>
</linearGradient>
<linearGradient id="paint1_linear_9_64" x1="44.4014" y1="90.2303" x2="172.787" y2="82.7295" gradientUnits="userSpaceOnUse">
<stop stop-color="#F9F6F6"/>
<stop offset="1" stop-color="#9E9FA5"/>
</linearGradient>
</defs>
</svg>
