<svg width="93" height="79" viewBox="0 0 93 79" fill="none" xmlns="http://www.w3.org/2000/svg">
<g filter="url(#filter0_d_2_120)">
<rect x="7" y="23.2574" width="68" height="44" rx="5" transform="rotate(-20 7 23.2574)" fill="url(#paint0_linear_2_120)"/>
<path d="M13.0583 30.3614L23.6291 59.6777C23.8572 60.3104 23.6316 61.0175 23.0791 61.4011C22.2702 61.9628 21.1486 61.5959 20.8251 60.6659C15.7173 45.9837 10.0519 31.4175 9.06651 28.6932C8.0703 25.9389 9.90371 22.1849 13.5059 20.5716L63.6149 2.0505C67.8923 0.712179 70.4316 1.08627 72.1065 3.01464C72.4079 3.36163 72.6069 3.78271 72.7565 4.21727L84.7032 38.9126C84.8659 39.3852 84.6948 39.9084 84.2842 40.1935C83.6743 40.617 82.8287 40.3385 82.5901 39.6354C77.5674 24.8291 71.7624 7.44897 70.4721 5.59081C69.3234 3.93646 67.4944 4.33617 66.2904 4.59931L66.2813 4.6013C65.9414 4.67559 65.6159 4.76618 65.2921 4.89361C50.2907 10.7974 19.936 21.8485 16.0761 23.8259C12.1747 25.8245 12.4387 29.0156 13.0583 30.3614Z" fill="url(#paint1_linear_2_120)"/>
<path d="M44.7882 36.8509L41.8964 28.9057L40.4648 29.4268L40.1816 36.632L40.1375 36.648L35.2836 31.3126L33.8576 31.8316L36.7494 39.7768L37.8726 39.368L35.7443 33.5206L35.7829 33.5066L40.2897 38.4196L41.2037 38.087L41.4926 31.4284L41.5312 31.4144L43.6594 37.2617L44.7882 36.8509ZM43.361 28.3727L46.2528 36.3178L47.4861 35.8689L46.4981 33.1545L48.205 32.5332C49.7632 31.9661 50.4701 30.4991 49.905 28.9464C49.3418 27.3992 47.8814 26.7274 46.3397 27.2885L43.361 28.3727ZM44.9731 28.9644L46.3936 28.4474C47.4618 28.0586 48.2814 28.4088 48.6461 29.4109C49.0108 30.413 48.6101 31.2135 47.5364 31.6043L46.1214 32.1193L44.9731 28.9644ZM53.2307 29.7064L54.2218 29.3456C55.2679 28.9649 56.11 29.257 56.4226 30.1159C56.7052 30.8923 56.2118 31.6954 55.2428 32.0481C54.2407 32.4128 53.4226 32.1182 53.069 31.3864L51.8852 31.8173C52.4613 33.1602 53.9052 33.701 55.6175 33.0777C57.2748 32.4745 58.189 31.063 57.684 29.6755C57.2792 28.5633 56.2418 28.1116 55.017 28.4638L55.0089 28.4418C55.9304 27.9069 56.3216 26.9602 55.9608 25.9691C55.516 24.7467 54.1096 24.2921 52.6065 24.8392C51.0318 25.4124 50.3068 26.6926 50.7202 28.1197L51.882 27.6969C51.669 26.8889 52.0612 26.185 52.9202 25.8724C53.8617 25.5297 54.5466 25.8353 54.8152 26.5731C55.0877 27.322 54.695 28.076 53.836 28.3886L52.878 28.7373L53.2307 29.7064Z" fill="#B4B5B9"/>
</g>
<defs>
<filter id="filter0_d_2_120" x="-0.46988" y="0" width="93.8878" height="79.5436" filterUnits="userSpaceOnUse" color-interpolation-filters="sRGB">
<feFlood flood-opacity="0" result="BackgroundImageFix"/>
<feColorMatrix in="SourceAlpha" type="matrix" values="0 0 0 0 0 0 0 0 0 0 0 0 0 0 0 0 0 0 127 0" result="hardAlpha"/>
<feOffset dy="7.46988"/>
<feGaussianBlur stdDeviation="3.73494"/>
<feComposite in2="hardAlpha" operator="out"/>
<feColorMatrix type="matrix" values="0 0 0 0 0 0 0 0 0 0 0 0 0 0 0 0 0 0 0.25 0"/>
<feBlend mode="normal" in2="BackgroundImageFix" result="effect1_dropShadow_2_120"/>
<feBlend mode="normal" in="SourceGraphic" in2="effect1_dropShadow_2_120" result="shape"/>
</filter>
<linearGradient id="paint0_linear_2_120" x1="40.2156" y1="42.4955" x2="53.1991" y2="70.2259" gradientUnits="userSpaceOnUse">
<stop stop-color="#1C1C28"/>
<stop offset="1" stop-color="#24242E"/>
</linearGradient>
<linearGradient id="paint1_linear_2_120" x1="28.0757" y1="9.14263" x2="55.5702" y2="54.1518" gradientUnits="userSpaceOnUse">
<stop stop-color="#50505C"/>
<stop offset="1" stop-color="#50505C" stop-opacity="0"/>
</linearGradient>
</defs>
</svg>
