<svg width="335" height="212" viewBox="0 0 335 212" fill="none" xmlns="http://www.w3.org/2000/svg">
<rect width="335" height="211.236" rx="9.30556" fill="#3C3C48"/>
<path d="M4.65283 13.9583C4.65283 8.81898 8.81907 4.65275 13.9584 4.65275H321.972C327.112 4.65275 331.278 8.81899 331.278 13.9583V197.278C331.278 202.417 327.112 206.583 321.972 206.583H13.9584C8.81906 206.583 4.65283 202.417 4.65283 197.278V13.9583Z" fill="url(#paint0_linear_10_92)"/>
<circle cx="167.965" cy="105.618" r="34.8958" fill="#3C3C48"/>
<circle cx="167.965" cy="105.618" r="33.0347" fill="url(#paint1_linear_10_92)"/>
<path d="M176.899 104.015C178.72 105.156 178.623 107.841 176.725 108.848L164.621 115.265C162.722 116.272 160.446 114.846 160.523 112.698L161.017 99.007C161.095 96.8594 163.468 95.601 165.289 96.7419L176.899 104.015Z" fill="#6B6B76"/>
<rect x="245" y="181" width="60" height="4" fill="#9EA1F0"/>
<rect x="301" y="177" width="5" height="12" stroke="white" stroke-width="2"/>
<rect x="69" y="181" width="179" height="4" fill="url(#paint2_linear_10_92)"/>
<rect x="249" y="177" width="5" height="12" stroke="white" stroke-width="2"/>
<defs>
<linearGradient id="paint0_linear_10_92" x1="167.965" y1="4.65275" x2="167.965" y2="206.583" gradientUnits="userSpaceOnUse">
<stop stop-color="#13131F"/>
<stop offset="1" stop-color="#20202A"/>
</linearGradient>
<linearGradient id="paint1_linear_10_92" x1="167.965" y1="72.5833" x2="167.965" y2="138.653" gradientUnits="userSpaceOnUse">
<stop stop-color="#1A1A22"/>
<stop offset="1" stop-color="#1A1A22" stop-opacity="0"/>
</linearGradient>
<linearGradient id="paint2_linear_10_92" x1="243.932" y1="183" x2="102.564" y2="185.069" gradientUnits="userSpaceOnUse">
<stop stop-color="#50505C"/>
</linearGradient>
</defs>
</svg>
