<svg width="214" height="143" viewBox="0 0 214 143" fill="none" xmlns="http://www.w3.org/2000/svg">
<rect x="1" y="7" width="212" height="29" rx="9" fill="#0D0E12" stroke="#17181C" stroke-width="2"/>
<path d="M12.7949 25H14.0781V16.5449H12.7832L10.5566 18.127V19.416L12.7656 17.8457H12.7949V25ZM20.1602 25H21.4199V23.3301H22.5801V22.2285H21.4199V16.5449H19.5215C17.6172 19.2988 16.6562 20.8164 15.9297 22.1816V23.3301H20.1602V25ZM17.1543 22.2168C17.8281 20.9922 18.6836 19.6738 20.1484 17.5586H20.1719V22.2461H17.1543V22.2168ZM27.6133 25H28.873V23.3301H30.0332V22.2285H28.873V16.5449H26.9746C25.0703 19.2988 24.1094 20.8164 23.3828 22.1816V23.3301H27.6133V25ZM24.6074 22.2168C25.2812 20.9922 26.1367 19.6738 27.6016 17.5586H27.625V22.2461H24.6074V22.2168ZM34.2285 18.7363C33.3379 18.7363 32.6289 19.1875 32.2656 19.8965H32.2422V18.8359H31.0176V27.0391H32.2832V23.9863H32.3125C32.6641 24.6719 33.3672 25.1055 34.252 25.1055C35.7988 25.1055 36.8242 23.8691 36.8242 21.918C36.8242 19.9668 35.793 18.7363 34.2285 18.7363ZM33.8945 24.0332C32.9219 24.0332 32.2773 23.2012 32.2773 21.918C32.2773 20.6465 32.9277 19.8027 33.8945 19.8027C34.8965 19.8027 35.5234 20.6289 35.5234 21.918C35.5234 23.2129 34.8965 24.0332 33.8945 24.0332Z" fill="#D9D9D9"/>
<path d="M40.8203 16.5449V26.7988H43.3633V26.0078H41.8047V17.3418H43.3633V16.5449H40.8203ZM46.3223 25H47.3418V16.5449H46.3105L44.0605 18.1621V19.2754L46.2988 17.6641H46.3223V25ZM49.9727 25H51.0801L54.8418 17.5234V16.5449H49.2461V17.4824H53.7988V17.5059L49.9727 25ZM58.9902 25.1465C60.7246 25.1465 61.9844 23.9277 61.9844 22.2578C61.9844 20.6523 60.7891 19.4629 59.1777 19.4629C58.1289 19.4629 57.1973 20.0078 56.8164 20.834H56.7988C56.834 18.584 57.6367 17.3301 59.0488 17.3301C59.8867 17.3301 60.5664 17.8223 60.7949 18.5898H61.8672C61.5977 17.2598 60.4961 16.3984 59.0605 16.3984C56.9922 16.3984 55.7793 18.0684 55.7793 20.916C55.7793 21.8301 55.9141 22.5918 56.1953 23.2422C56.7168 24.4609 57.7246 25.1465 58.9902 25.1465ZM58.9785 24.209C57.8945 24.209 57.0508 23.3477 57.0508 22.2637C57.0508 21.1855 57.877 20.3887 58.9961 20.3887C60.1152 20.3887 60.9121 21.1855 60.9121 22.293C60.9121 23.3594 60.0566 24.209 58.9785 24.209ZM67.082 19.8262L67.4629 19.1348L65.9746 18.3848L67.4629 17.623L67.0879 16.9434L65.6582 17.834L65.7168 16.1582H64.9551L65.0137 17.8281L63.5781 16.9434L63.2148 17.623L64.6855 18.3789L63.209 19.1289L63.5723 19.832L65.0137 18.9297L64.9492 20.6113H65.7168L65.6582 18.9297L67.082 19.8262ZM71.0605 25H72.0801V16.5449H71.0488L68.7988 18.1621V19.2754L71.0371 17.6641H71.0605V25ZM78.2441 25H79.2637V23.2422H80.459V22.3164H79.2637V16.5449H77.7051C75.707 19.4102 74.7168 20.9512 73.9961 22.2871V23.2422H78.2441V25ZM75.0391 22.293C75.707 21.1211 76.627 19.709 78.2266 17.4238H78.2441V22.3164H75.0391V22.293ZM85.5098 25H86.5293V23.2422H87.7246V22.3164H86.5293V16.5449H84.9707C82.9727 19.4102 81.9824 20.9512 81.2617 22.2871V23.2422H85.5098V25ZM82.3047 22.293C82.9727 21.1211 83.8926 19.709 85.4922 17.4238H85.5098V22.3164H82.3047V22.293ZM90.8652 21.7422C90.0156 21.8242 89.582 22.2695 89.582 23.125V24.6602C89.582 25.5859 89.2422 25.9727 88.4219 25.9727H88.1875V26.7988H88.5098C89.8867 26.7988 90.543 26.1309 90.543 24.7305V23.4648C90.543 22.5391 90.8594 22.2285 91.8203 22.2285V21.1152C90.8652 21.1152 90.543 20.8047 90.543 19.8672V18.5605C90.543 17.1953 89.8926 16.5449 88.5098 16.5449H88.1875V17.3711H88.4219C89.248 17.3711 89.582 17.752 89.582 18.6895V20.2305C89.582 21.0742 90.0039 21.5137 90.8652 21.6016V21.7422Z" fill="#50505C"/>
<path d="M180.633 18.9824V18.9883H181.652V18.9824C181.652 18.0391 182.402 17.3242 183.393 17.3242C184.324 17.3242 185.068 17.9746 185.068 18.7891C185.068 19.4922 184.799 19.9434 183.662 21.1387L180.686 24.2734V25H186.264V24.0625H182.145V24.0391L184.283 21.8301C185.695 20.3711 186.123 19.668 186.123 18.7246C186.123 17.4297 184.934 16.4043 183.422 16.4043C181.828 16.4043 180.633 17.5059 180.633 18.9824ZM195.949 25V16.5449H194.725L191.807 23.5996H191.76L188.842 16.5449H187.617V25H188.602V18.4844H188.643L191.338 24.9414H192.229L194.924 18.4844H194.965V25H195.949ZM200.461 25.1055C202.02 25.1055 203.051 23.8691 203.051 21.9531C203.051 20.043 202.014 18.8008 200.479 18.8008C199.617 18.8008 198.908 19.2285 198.527 19.9258H198.504V16.5449H197.484V25H198.457V23.9688H198.48C198.873 24.6719 199.57 25.1055 200.461 25.1055ZM200.262 19.6973C201.34 19.6973 202.008 20.5703 202.008 21.9531C202.008 23.3477 201.34 24.209 200.262 24.209C199.23 24.209 198.498 23.3125 198.498 21.9531C198.498 20.5996 199.23 19.6973 200.262 19.6973Z" fill="#50505C"/>
<g filter="url(#filter0_d_2_197)">
<path fill-rule="evenodd" clip-rule="evenodd" d="M68.1113 24.7259C66.9735 24.1319 65.6508 23.9982 64.4171 24.3526L35.2314 32.7353C32.5773 33.4976 31.0437 36.2672 31.806 38.9213L55.3386 120.854C56.1009 123.508 58.8705 125.041 61.5246 124.279L130.238 104.543C132.892 103.781 134.426 101.011 133.663 98.3573L120.939 54.0559C120.561 52.7404 119.661 51.6372 118.447 51.0038L68.1113 24.7259Z" fill="#2F3034"/>
<path fill-rule="evenodd" clip-rule="evenodd" d="M68.5377 26.4365C67.3999 25.8425 66.0772 25.7088 64.8435 26.0631L36.9472 34.0755C34.2931 34.8378 32.7595 37.6074 33.5218 40.2615L56.1104 118.907C56.8728 121.561 59.6423 123.095 62.2964 122.333L128.198 103.404C130.852 102.642 132.385 99.8726 131.623 97.2184L119.426 54.7541C119.049 53.4386 118.148 52.3355 116.935 51.7021L68.5377 26.4365Z" fill="url(#paint0_linear_2_197)"/>
<path d="M81.7088 78.227L79.1499 67.2478L77.1717 67.7089L75.6459 77.2014L75.585 77.2156L70.012 69.3776L68.0414 69.8369L70.6003 80.8161L72.1524 80.4543L70.2692 72.374L70.3224 72.3616L75.5035 79.585L76.7666 79.2907L78.2125 70.5227L78.2658 70.5102L80.1491 78.5906L81.7088 78.227ZM81.1738 66.7761L83.7327 77.7553L85.437 77.3581L84.5628 73.6071L86.9214 73.0573C89.0747 72.5555 90.2447 70.7265 89.7447 68.5809C89.2464 66.4429 87.4205 65.3203 85.29 65.8168L81.1738 66.7761ZM83.2133 67.8169L85.1763 67.3594C86.6524 67.0154 87.6813 67.6099 88.0041 68.9946C88.3268 70.3794 87.6685 71.3751 86.1848 71.7209L84.2294 72.1767L83.2133 67.8169ZM97.9684 74.4375L99.6042 74.0562L99.0988 71.8878L100.605 71.5366L100.272 70.1062L98.7654 70.4573L97.0453 63.077L94.5801 63.6516C92.9408 67.8039 92.1523 70.0654 91.622 72.0581L91.9696 73.5493L97.463 72.269L97.9684 74.4375ZM93.2228 71.7331C93.7272 69.939 94.439 67.9681 95.701 64.7781L95.7315 64.771L97.1501 70.8579L93.2317 71.7711L93.2228 71.7331Z" fill="#B4B5B9"/>
</g>
<g filter="url(#filter1_d_2_197)">
<path fill-rule="evenodd" clip-rule="evenodd" d="M163.021 26.6641C162.351 25.5698 161.285 24.7755 160.044 24.4455L130.699 16.6393C128.03 15.9294 125.291 17.5173 124.582 20.1859L102.667 102.566C101.958 105.235 103.545 107.973 106.214 108.683L175.303 127.062C177.971 127.772 180.71 126.184 181.42 123.515L193.269 78.9718C193.621 77.6491 193.415 76.2399 192.7 75.0731L163.021 26.6641Z" fill="#2F3034"/>
<path fill-rule="evenodd" clip-rule="evenodd" d="M162.508 28.3507C161.837 27.2564 160.771 26.4621 159.531 26.1321L131.482 18.6708C128.814 17.9609 126.075 19.5488 125.365 22.2174L104.33 101.293C103.62 103.961 105.208 106.7 107.876 107.41L174.138 125.036C176.806 125.746 179.545 124.158 180.255 121.49L191.613 78.7935C191.965 77.4708 191.759 76.0616 191.044 74.8948L162.508 28.3507Z" fill="url(#paint1_linear_2_197)"/>
<path d="M147.931 81.4162L150.455 70.4289L148.475 69.9741L142.935 77.8318L142.874 77.8178L141.31 68.3284L139.338 67.8754L136.814 78.8628L138.368 79.2196L140.225 71.1332L140.278 71.1455L141.76 79.9106L143.024 80.2009L148.174 72.9591L148.228 72.9713L146.37 81.0577L147.931 81.4162ZM152.48 70.8941L149.956 81.8814L151.662 82.2731L152.524 78.5193L154.885 79.0615C157.04 79.5564 158.894 78.4273 159.387 76.2801C159.879 74.1405 158.731 72.3299 156.599 71.8402L152.48 70.8941ZM153.855 72.7249L155.82 73.1761C157.297 73.5154 157.96 74.5014 157.642 75.8872C157.324 77.273 156.295 77.8784 154.81 77.5373L152.853 77.0879L153.855 72.7249ZM162.558 79.5414L163.928 79.8562C165.375 80.1885 166.106 81.1258 165.833 82.3137C165.586 83.3873 164.452 83.9283 163.112 83.6205C161.726 83.3022 161.024 82.3795 161.159 81.3042L159.522 80.9282C159.193 82.8487 160.417 84.5005 162.785 85.0444C165.077 85.5708 167.123 84.654 167.564 82.7353C167.917 81.1972 167.084 79.9396 165.458 79.4459L165.465 79.4155C166.883 79.4849 168.008 78.709 168.322 77.3384C168.711 75.6481 167.466 74.1198 165.388 73.6424C163.21 73.1422 161.471 74.0493 160.899 75.9459L162.505 76.315C162.853 75.2565 163.802 74.7531 164.99 75.0259C166.292 75.325 166.837 76.1635 166.602 77.1838C166.365 78.2194 165.378 78.7784 164.191 78.5056L162.866 78.2013L162.558 79.5414Z" fill="#B4B5B9"/>
</g>
<defs>
<filter id="filter0_d_2_197" x="2.53012" y="0" width="151.349" height="157.842" filterUnits="userSpaceOnUse" color-interpolation-filters="sRGB">
<feFlood flood-opacity="0" result="BackgroundImageFix"/>
<feColorMatrix in="SourceAlpha" type="matrix" values="0 0 0 0 0 0 0 0 0 0 0 0 0 0 0 0 0 0 127 0" result="hardAlpha"/>
<feOffset dy="7.46988"/>
<feGaussianBlur stdDeviation="3.73494"/>
<feComposite in2="hardAlpha" operator="out"/>
<feColorMatrix type="matrix" values="0 0 0 0 0 0 0 0 0 0 0 0 0 0 0 0 0 0 0.25 0"/>
<feBlend mode="normal" in2="BackgroundImageFix" result="effect1_dropShadow_2_197"/>
<feBlend mode="normal" in="SourceGraphic" in2="effect1_dropShadow_2_197" result="shape"/>
</filter>
<filter id="filter1_d_2_197" x="93.6508" y="15.471" width="108.037" height="127.868" filterUnits="userSpaceOnUse" color-interpolation-filters="sRGB">
<feFlood flood-opacity="0" result="BackgroundImageFix"/>
<feColorMatrix in="SourceAlpha" type="matrix" values="0 0 0 0 0 0 0 0 0 0 0 0 0 0 0 0 0 0 127 0" result="hardAlpha"/>
<feOffset dy="7.46988"/>
<feGaussianBlur stdDeviation="3.73494"/>
<feComposite in2="hardAlpha" operator="out"/>
<feColorMatrix type="matrix" values="0 0 0 0 0 0 0 0 0 0 0 0 0 0 0 0 0 0 0.25 0"/>
<feBlend mode="normal" in2="BackgroundImageFix" result="effect1_dropShadow_2_197"/>
<feBlend mode="normal" in="SourceGraphic" in2="effect1_dropShadow_2_197" result="shape"/>
</filter>
<linearGradient id="paint0_linear_2_197" x1="65.1404" y1="30.4752" x2="91.7011" y2="114.032" gradientUnits="userSpaceOnUse">
<stop stop-color="#101115"/>
<stop offset="1" stop-color="#24272E"/>
</linearGradient>
<linearGradient id="paint1_linear_2_197" x1="157.518" y1="30.0696" x2="137.367" y2="115.399" gradientUnits="userSpaceOnUse">
<stop stop-color="#101115"/>
<stop offset="1" stop-color="#24272E"/>
</linearGradient>
</defs>
</svg>
