<svg width="214" height="31" viewBox="0 0 214 31" fill="none" xmlns="http://www.w3.org/2000/svg">
<rect x="1" y="1" width="212" height="29" rx="9" fill="#0D0E12" stroke="#17181C" stroke-width="2"/>
<path d="M10.5859 13.0234V13.0352H11.8281V13.0176C11.8281 12.1387 12.5254 11.4707 13.4512 11.4707C14.3301 11.4707 15.0098 12.0684 15.0098 12.8184C15.0098 13.4805 14.7402 13.9258 13.709 14.998L10.6562 18.1094V19H16.4395V17.8926H12.4258V17.8633L14.541 15.7363C15.7773 14.4707 16.3047 13.7383 16.3047 12.7539C16.3047 11.4121 15.1035 10.3867 13.4922 10.3867C11.8105 10.3867 10.5859 11.5 10.5859 13.0234ZM19.7441 19H21.0273V10.5449H19.7324L17.5059 12.127V13.416L19.7148 11.8457H19.7441V19ZM26.2715 19.1641C28.0645 19.1641 29.3594 17.9336 29.3594 16.2402C29.3594 14.6348 28.1641 13.4453 26.5527 13.4453C25.498 13.4453 24.6016 13.9961 24.2324 14.8164H24.209C24.2148 12.6895 24.9883 11.4824 26.3184 11.4824C27.0918 11.4824 27.7246 11.9336 27.9297 12.625H29.2422C28.9844 11.2773 27.8242 10.3809 26.3301 10.3809C24.2148 10.3809 22.9492 12.0566 22.9492 14.8867C22.9492 15.877 23.125 16.709 23.4707 17.3828C24.0215 18.5254 25.0234 19.1641 26.2715 19.1641ZM26.2598 18.0566C25.252 18.0566 24.4727 17.2598 24.4727 16.2578C24.4727 15.2559 25.2402 14.5176 26.2715 14.5176C27.3086 14.5176 28.0527 15.2559 28.0527 16.2812C28.0527 17.2715 27.2559 18.0566 26.2598 18.0566ZM33.5547 19.1582C35.582 19.1582 36.7715 17.4531 36.7715 14.7578C36.7715 12.0801 35.5762 10.3867 33.5547 10.3867C31.5391 10.3867 30.3262 12.0859 30.3262 14.7637C30.3262 17.459 31.5273 19.1582 33.5547 19.1582ZM33.5547 18.0566C32.3477 18.0566 31.6562 16.8027 31.6562 14.7637C31.6562 12.7539 32.3594 11.4883 33.5547 11.4883C34.75 11.4883 35.4473 12.748 35.4473 14.7637C35.4473 16.8086 34.7617 18.0566 33.5547 18.0566ZM41.1309 12.7363C40.2402 12.7363 39.5312 13.1875 39.168 13.8965H39.1445V12.8359H37.9199V21.0391H39.1855V17.9863H39.2148C39.5664 18.6719 40.2695 19.1055 41.1543 19.1055C42.7012 19.1055 43.7266 17.8691 43.7266 15.918C43.7266 13.9668 42.6953 12.7363 41.1309 12.7363ZM40.7969 18.0332C39.8242 18.0332 39.1797 17.2012 39.1797 15.918C39.1797 14.6465 39.8301 13.8027 40.7969 13.8027C41.7988 13.8027 42.4258 14.6289 42.4258 15.918C42.4258 17.2129 41.7988 18.0332 40.7969 18.0332Z" fill="#D9D9D9"/>
<path d="M47.7227 10.5449V20.7988H50.2656V20.0078H48.707V11.3418H50.2656V10.5449H47.7227ZM52.791 15.0977H53.8516C55.0586 15.0977 55.8086 15.7129 55.8086 16.709C55.8086 17.5938 55.0059 18.2266 53.8867 18.2266C52.75 18.2266 52.0293 17.6289 51.9355 16.7617H50.9219C50.998 18.1621 52.1289 19.1406 53.8984 19.1406C55.5566 19.1406 56.8809 18.127 56.8809 16.6738C56.8809 15.4844 56.0605 14.6934 54.7832 14.6172V14.5938C55.8379 14.4062 56.5176 13.6445 56.5176 12.584C56.5176 11.3125 55.375 10.4043 53.8633 10.4043C52.2754 10.4043 51.209 11.3242 51.0918 12.7598H52.1055C52.1992 11.875 52.8438 11.3184 53.8164 11.3184C54.8887 11.3184 55.457 11.8867 55.457 12.7246C55.457 13.5801 54.7773 14.207 53.8047 14.207H52.791V15.0977ZM61.0762 19.1406C62.8691 19.1406 64.1465 18.1328 64.1465 16.7148C64.1465 15.666 63.4199 14.7988 62.3242 14.541V14.5176C63.2441 14.2246 63.8008 13.5098 63.8008 12.6309C63.8008 11.3418 62.6582 10.4043 61.0762 10.4043C59.5059 10.4043 58.3457 11.3477 58.3457 12.625C58.3457 13.5156 58.9141 14.2363 59.8281 14.5176V14.541C58.7383 14.793 58.0117 15.6602 58.0117 16.7148C58.0117 18.127 59.2891 19.1406 61.0762 19.1406ZM61.0762 18.2207C59.916 18.2207 59.084 17.5586 59.084 16.6387C59.084 15.7129 59.916 15.0508 61.0762 15.0508C62.2422 15.0508 63.0684 15.707 63.0684 16.6387C63.0684 17.5586 62.2422 18.2207 61.0762 18.2207ZM61.0762 14.125C60.0859 14.125 59.3945 13.5449 59.3945 12.7246C59.3945 11.8984 60.0859 11.3125 61.0762 11.3125C62.0664 11.3125 62.7578 11.8926 62.7578 12.7246C62.7578 13.5449 62.0605 14.125 61.0762 14.125ZM69.3848 19H70.4043V17.2422H71.5996V16.3164H70.4043V10.5449H68.8457C66.8477 13.4102 65.8574 14.9512 65.1367 16.2871V17.2422H69.3848V19ZM66.1797 16.293C66.8477 15.1211 67.7676 13.709 69.3672 11.4238H69.3848V16.3164H66.1797V16.293ZM75.5898 19.1406C77.5586 19.1406 78.6953 17.4355 78.6953 14.7637C78.6953 12.1094 77.5527 10.4043 75.5898 10.4043C73.627 10.4043 72.4727 12.1211 72.4727 14.7695C72.4727 17.4414 73.6152 19.1406 75.5898 19.1406ZM75.5898 18.2207C74.2656 18.2207 73.5332 16.873 73.5332 14.7637C73.5332 12.7012 74.2832 11.3301 75.5898 11.3301C76.8965 11.3301 77.6348 12.6895 77.6348 14.7695C77.6348 16.8789 76.9082 18.2207 75.5898 18.2207ZM83.875 13.8262L84.2559 13.1348L82.7676 12.3848L84.2559 11.623L83.8809 10.9434L82.4512 11.834L82.5098 10.1582H81.748L81.8066 11.8281L80.3711 10.9434L80.0078 11.623L81.4785 12.3789L80.002 13.1289L80.3652 13.832L81.8066 12.9297L81.7422 14.6113H82.5098L82.4512 12.9297L83.875 13.8262ZM85.6445 12.9824V12.9883H86.6641V12.9824C86.6641 12.0391 87.4141 11.3242 88.4043 11.3242C89.3359 11.3242 90.0801 11.9746 90.0801 12.7891C90.0801 13.4922 89.8105 13.9434 88.6738 15.1387L85.6973 18.2734V19H91.2754V18.0625H87.1562V18.0391L89.2949 15.8301C90.707 14.3711 91.1348 13.668 91.1348 12.7246C91.1348 11.4297 89.9453 10.4043 88.4336 10.4043C86.8398 10.4043 85.6445 11.5059 85.6445 12.9824ZM94.6504 19H95.6699V10.5449H94.6387L92.3887 12.1621V13.2754L94.627 11.6641H94.6504V19ZM100.873 19.1465C102.607 19.1465 103.867 17.9277 103.867 16.2578C103.867 14.6523 102.672 13.4629 101.061 13.4629C100.012 13.4629 99.0801 14.0078 98.6992 14.834H98.6816C98.7168 12.584 99.5195 11.3301 100.932 11.3301C101.77 11.3301 102.449 11.8223 102.678 12.5898H103.75C103.48 11.2598 102.379 10.3984 100.943 10.3984C98.875 10.3984 97.6621 12.0684 97.6621 14.916C97.6621 15.8301 97.7969 16.5918 98.0781 17.2422C98.5996 18.4609 99.6074 19.1465 100.873 19.1465ZM100.861 18.209C99.7773 18.209 98.9336 17.3477 98.9336 16.2637C98.9336 15.1855 99.7598 14.3887 100.879 14.3887C101.998 14.3887 102.795 15.1855 102.795 16.293C102.795 17.3594 101.939 18.209 100.861 18.209ZM107.957 19.1406C109.926 19.1406 111.062 17.4355 111.062 14.7637C111.062 12.1094 109.92 10.4043 107.957 10.4043C105.994 10.4043 104.84 12.1211 104.84 14.7695C104.84 17.4414 105.982 19.1406 107.957 19.1406ZM107.957 18.2207C106.633 18.2207 105.9 16.873 105.9 14.7637C105.9 12.7012 106.65 11.3301 107.957 11.3301C109.264 11.3301 110.002 12.6895 110.002 14.7695C110.002 16.8789 109.275 18.2207 107.957 18.2207ZM114.385 15.7422C113.535 15.8242 113.102 16.2695 113.102 17.125V18.6602C113.102 19.5859 112.762 19.9727 111.941 19.9727H111.707V20.7988H112.029C113.406 20.7988 114.062 20.1309 114.062 18.7305V17.4648C114.062 16.5391 114.379 16.2285 115.34 16.2285V15.1152C114.385 15.1152 114.062 14.8047 114.062 13.8672V12.5605C114.062 11.1953 113.412 10.5449 112.029 10.5449H111.707V11.3711H111.941C112.768 11.3711 113.102 11.752 113.102 12.6895V14.2305C113.102 15.0742 113.523 15.5137 114.385 15.6016V15.7422Z" fill="#50505C"/>
<path d="M165.494 16.0469V15.0977H161.65V16.0469H165.494ZM168.553 15.0977H169.613C170.82 15.0977 171.57 15.7129 171.57 16.709C171.57 17.5938 170.768 18.2266 169.648 18.2266C168.512 18.2266 167.791 17.6289 167.697 16.7617H166.684C166.76 18.1621 167.891 19.1406 169.66 19.1406C171.318 19.1406 172.643 18.127 172.643 16.6738C172.643 15.4844 171.822 14.6934 170.545 14.6172V14.5938C171.6 14.4062 172.279 13.6445 172.279 12.584C172.279 11.3125 171.137 10.4043 169.625 10.4043C168.037 10.4043 166.971 11.3242 166.854 12.7598H167.867C167.961 11.875 168.605 11.3184 169.578 11.3184C170.65 11.3184 171.219 11.8867 171.219 12.7246C171.219 13.5801 170.539 14.207 169.566 14.207H168.553V15.0977ZM176.621 19.1406C178.689 19.1406 179.896 17.4766 179.896 14.6289C179.896 13.709 179.762 12.9473 179.48 12.2969C178.965 11.084 177.957 10.3984 176.686 10.3984C174.951 10.3984 173.691 11.6172 173.691 13.2871C173.691 14.8926 174.887 16.082 176.498 16.082C177.576 16.082 178.502 15.5371 178.859 14.6992C178.865 14.6992 178.865 14.6992 178.871 14.6992H178.877C178.848 16.9434 178.039 18.2207 176.633 18.2207C175.795 18.2207 175.109 17.7168 174.887 16.9492H173.814C174.072 18.2734 175.18 19.1406 176.621 19.1406ZM176.68 15.1562C175.572 15.1562 174.758 14.3535 174.758 13.252C174.758 12.1914 175.613 11.3477 176.697 11.3477C177.787 11.3477 178.631 12.1973 178.631 13.2812C178.631 14.3594 177.799 15.1562 176.68 15.1562ZM184.174 19.1465C185.908 19.1465 187.168 17.9277 187.168 16.2578C187.168 14.6523 185.973 13.4629 184.361 13.4629C183.312 13.4629 182.381 14.0078 182 14.834H181.982C182.018 12.584 182.82 11.3301 184.232 11.3301C185.07 11.3301 185.75 11.8223 185.979 12.5898H187.051C186.781 11.2598 185.68 10.3984 184.244 10.3984C182.176 10.3984 180.963 12.0684 180.963 14.916C180.963 15.8301 181.098 16.5918 181.379 17.2422C181.9 18.4609 182.908 19.1465 184.174 19.1465ZM184.162 18.209C183.078 18.209 182.234 17.3477 182.234 16.2637C182.234 15.1855 183.061 14.3887 184.18 14.3887C185.299 14.3887 186.096 15.1855 186.096 16.293C186.096 17.3594 185.24 18.209 184.162 18.209ZM188.275 19H189.295V15.1797C189.295 14.3359 189.881 13.7031 190.689 13.7031C191.445 13.7031 191.938 14.1836 191.938 14.916V19H192.957V15.127C192.957 14.3008 193.525 13.7031 194.334 13.7031C195.137 13.7031 195.6 14.1953 195.6 15.0273V19H196.619V14.793C196.619 13.5859 195.84 12.8008 194.633 12.8008C193.777 12.8008 193.062 13.2344 192.723 13.9609H192.699C192.436 13.2227 191.82 12.8008 190.988 12.8008C190.168 12.8008 189.547 13.2344 189.26 13.8789H189.236V12.9062H188.275V19ZM200.949 19.1055C202.508 19.1055 203.539 17.8691 203.539 15.9531C203.539 14.043 202.502 12.8008 200.967 12.8008C200.105 12.8008 199.396 13.2285 199.016 13.9258H198.992V10.5449H197.973V19H198.945V17.9688H198.969C199.361 18.6719 200.059 19.1055 200.949 19.1055ZM200.75 13.6973C201.828 13.6973 202.496 14.5703 202.496 15.9531C202.496 17.3477 201.828 18.209 200.75 18.209C199.719 18.209 198.986 17.3125 198.986 15.9531C198.986 14.5996 199.719 13.6973 200.75 13.6973Z" fill="#50505C"/>
</svg>
