<svg width="143" height="35" viewBox="0 0 143 35" fill="none" xmlns="http://www.w3.org/2000/svg">
<rect width="30" height="35" rx="6.60377" fill="url(#paint0_linear_2_128)"/>
<g clip-path="url(#clip0_2_128)">
<rect x="2" y="3" width="87.8302" height="29.717" rx="6.60377" fill="#10121E"/>
<path d="M19.3812 15.8521C20.1906 16.3592 20.1475 17.5523 19.3037 17.9997L13.9241 20.852C13.0803 21.2994 12.0685 20.6656 12.103 19.7111L12.3226 13.6261C12.357 12.6716 13.4118 12.1124 14.2212 12.6194L19.3812 15.8521Z" fill="#6B6B76"/>
</g>
<path d="M43.3242 10.2129V13.6172H41.2324V15.9551H43.3242V24.2129C43.3242 26.9883 44.459 28.0957 47.3711 28.0957C48.0273 28.0957 48.6836 28.041 49.0117 27.959V25.6211C48.8203 25.6621 48.3418 25.6895 48.041 25.6895C46.8379 25.6895 46.291 25.1289 46.291 23.8848V15.9551H49.0254V13.6172H46.291V10.2129H43.3242ZM63.791 13.6172H60.8379V21.998C60.8379 24.2402 59.5527 25.7168 57.4199 25.7168C55.3828 25.7168 54.3438 24.541 54.3438 22.3535V13.6172H51.3906V22.9277C51.3906 26.2227 53.3047 28.2598 56.4355 28.2598C58.6367 28.2598 60.0996 27.2891 60.8926 25.5664H60.9609V28H63.791V13.6172ZM74.373 28.2461C78.0234 28.2461 80.375 25.375 80.375 20.8086C80.375 16.2559 78.0098 13.3848 74.3867 13.3848C72.3496 13.3848 70.709 14.3965 69.8477 16.0645H69.7793V8.27148H66.8262V28H69.6973V25.5527H69.752C70.6406 27.2207 72.2676 28.2461 74.373 28.2461ZM73.5801 15.873C75.9043 15.873 77.3398 17.7871 77.3398 20.8086C77.3398 23.8574 75.9043 25.7441 73.5801 25.7441C71.3379 25.7441 69.7656 23.8027 69.7656 20.8086C69.7656 17.8418 71.3379 15.873 73.5801 15.873ZM88.7012 15.7363C90.7656 15.7363 92.1602 17.2812 92.2285 19.4824H85.0371C85.1875 17.3086 86.6367 15.7363 88.7012 15.7363ZM92.2148 23.7754C91.8184 25.0332 90.5742 25.8809 88.8926 25.8809C86.5273 25.8809 85.0234 24.2266 85.0234 21.7246V21.5469H95.1816V20.5352C95.1816 16.1738 92.6934 13.3574 88.7012 13.3574C84.6406 13.3574 82.043 16.3652 82.043 20.877C82.043 25.416 84.5996 28.2734 88.8242 28.2734C92.1191 28.2734 94.6074 26.4004 95.0176 23.7754H92.2148ZM109.824 18.5664C109.564 15.7363 107.309 13.3574 103.604 13.3574C99.5156 13.3574 96.8359 16.2422 96.8359 20.8086C96.8359 25.457 99.5156 28.2734 103.631 28.2734C107.09 28.2734 109.537 26.1953 109.852 23.1328H107.008C106.666 24.8008 105.477 25.7988 103.658 25.7988C101.361 25.7988 99.8438 23.9668 99.8438 20.8086C99.8438 17.7188 101.348 15.8184 103.631 15.8184C105.559 15.8184 106.707 17.0352 107.008 18.5664H109.824ZM124.275 13.6172H121.322V21.998C121.322 24.2402 120.037 25.7168 117.904 25.7168C115.867 25.7168 114.828 24.541 114.828 22.3535V13.6172H111.875V22.9277C111.875 26.2227 113.789 28.2598 116.92 28.2598C119.121 28.2598 120.584 27.2891 121.377 25.5664H121.445V28H124.275V13.6172ZM128.062 10.2129V13.6172H125.971V15.9551H128.062V24.2129C128.062 26.9883 129.197 28.0957 132.109 28.0957C132.766 28.0957 133.422 28.041 133.75 27.959V25.6211C133.559 25.6621 133.08 25.6895 132.779 25.6895C131.576 25.6895 131.029 25.1289 131.029 23.8848V15.9551H133.764V13.6172H131.029V10.2129H128.062ZM138.412 28.1504C139.41 28.1504 140.203 27.3574 140.203 26.3594C140.203 25.3613 139.41 24.5684 138.412 24.5684C137.414 24.5684 136.621 25.3613 136.621 26.3594C136.621 27.3574 137.414 28.1504 138.412 28.1504Z" fill="url(#paint1_linear_2_128)"/>
<defs>
<linearGradient id="paint0_linear_2_128" x1="2.16316e-07" y1="17.1698" x2="31.9355" y2="17.1698" gradientUnits="userSpaceOnUse">
<stop stop-color="#7978F6"/>
<stop offset="0.507385" stop-color="#8079AB"/>
<stop offset="1" stop-color="#D3B2E5"/>
</linearGradient>
<linearGradient id="paint1_linear_2_128" x1="49.3534" y1="28.0526" x2="134.179" y2="18.2621" gradientUnits="userSpaceOnUse">
<stop stop-color="#BBBFC0"/>
<stop offset="1" stop-color="#7B7C80"/>
</linearGradient>
<clipPath id="clip0_2_128">
<rect x="2" y="3" width="26" height="29" rx="6.51056" fill="white"/>
</clipPath>
</defs>
</svg>
