<svg width="985" height="753" viewBox="0 0 985 753" fill="none" xmlns="http://www.w3.org/2000/svg">
<g filter="url(#filter0_f_9_160)">
<circle cx="308" cy="445" r="108" fill="#515486"/>
</g>
<g filter="url(#filter1_f_9_160)">
<circle cx="677" cy="308" r="108" fill="#515486"/>
</g>
<rect x="160.25" y="145.25" width="683.5" height="440.5" fill="#0D0D15" fill-opacity="0.6" stroke="#D9D9D9" stroke-width="0.5"/>
<rect x="430" y="222" width="30" height="35" rx="6.60377" fill="url(#paint0_linear_9_160)"/>
<g clip-path="url(#clip0_9_160)">
<rect x="432" y="225" width="87.8302" height="29.717" rx="6.60377" fill="#10121E"/>
<path d="M449.381 237.852C450.191 238.359 450.148 239.552 449.304 240L443.924 242.852C443.08 243.299 442.069 242.666 442.103 241.711L442.323 235.626C442.357 234.672 443.412 234.112 444.221 234.619L449.381 237.852Z" fill="#6B6B76"/>
</g>
<path d="M473.324 232.213V235.617H471.232V237.955H473.324V246.213C473.324 248.988 474.459 250.096 477.371 250.096C478.027 250.096 478.684 250.041 479.012 249.959V247.621C478.82 247.662 478.342 247.689 478.041 247.689C476.838 247.689 476.291 247.129 476.291 245.885V237.955H479.025V235.617H476.291V232.213H473.324ZM493.791 235.617H490.838V243.998C490.838 246.24 489.553 247.717 487.42 247.717C485.383 247.717 484.344 246.541 484.344 244.354V235.617H481.391V244.928C481.391 248.223 483.305 250.26 486.436 250.26C488.637 250.26 490.1 249.289 490.893 247.566H490.961V250H493.791V235.617ZM504.373 250.246C508.023 250.246 510.375 247.375 510.375 242.809C510.375 238.256 508.01 235.385 504.387 235.385C502.35 235.385 500.709 236.396 499.848 238.064H499.779V230.271H496.826V250H499.697V247.553H499.752C500.641 249.221 502.268 250.246 504.373 250.246ZM503.58 237.873C505.904 237.873 507.34 239.787 507.34 242.809C507.34 245.857 505.904 247.744 503.58 247.744C501.338 247.744 499.766 245.803 499.766 242.809C499.766 239.842 501.338 237.873 503.58 237.873ZM518.701 237.736C520.766 237.736 522.16 239.281 522.229 241.482H515.037C515.188 239.309 516.637 237.736 518.701 237.736ZM522.215 245.775C521.818 247.033 520.574 247.881 518.893 247.881C516.527 247.881 515.023 246.227 515.023 243.725V243.547H525.182V242.535C525.182 238.174 522.693 235.357 518.701 235.357C514.641 235.357 512.043 238.365 512.043 242.877C512.043 247.416 514.6 250.273 518.824 250.273C522.119 250.273 524.607 248.4 525.018 245.775H522.215ZM539.824 240.566C539.564 237.736 537.309 235.357 533.604 235.357C529.516 235.357 526.836 238.242 526.836 242.809C526.836 247.457 529.516 250.273 533.631 250.273C537.09 250.273 539.537 248.195 539.852 245.133H537.008C536.666 246.801 535.477 247.799 533.658 247.799C531.361 247.799 529.844 245.967 529.844 242.809C529.844 239.719 531.348 237.818 533.631 237.818C535.559 237.818 536.707 239.035 537.008 240.566H539.824ZM554.275 235.617H551.322V243.998C551.322 246.24 550.037 247.717 547.904 247.717C545.867 247.717 544.828 246.541 544.828 244.354V235.617H541.875V244.928C541.875 248.223 543.789 250.26 546.92 250.26C549.121 250.26 550.584 249.289 551.377 247.566H551.445V250H554.275V235.617ZM558.062 232.213V235.617H555.971V237.955H558.062V246.213C558.062 248.988 559.197 250.096 562.109 250.096C562.766 250.096 563.422 250.041 563.75 249.959V247.621C563.559 247.662 563.08 247.689 562.779 247.689C561.576 247.689 561.029 247.129 561.029 245.885V237.955H563.764V235.617H561.029V232.213H558.062ZM568.412 250.15C569.41 250.15 570.203 249.357 570.203 248.359C570.203 247.361 569.41 246.568 568.412 246.568C567.414 246.568 566.621 247.361 566.621 248.359C566.621 249.357 567.414 250.15 568.412 250.15Z" fill="url(#paint1_linear_9_160)"/>
<line x1="160" y1="193.25" x2="844" y2="193.25" stroke="#D9D9D9" stroke-width="0.5"/>
<path d="M347.328 164.836V166.781H346.133V168.117H347.328V172.836C347.328 174.422 347.977 175.055 349.641 175.055C350.016 175.055 350.391 175.023 350.578 174.977V173.641C350.469 173.664 350.195 173.68 350.023 173.68C349.336 173.68 349.023 173.359 349.023 172.648V168.117H350.586V166.781H349.023V164.836H347.328ZM359.023 166.781H357.336V171.57C357.336 172.852 356.602 173.695 355.383 173.695C354.219 173.695 353.625 173.023 353.625 171.773V166.781H351.938V172.102C351.938 173.984 353.031 175.148 354.82 175.148C356.078 175.148 356.914 174.594 357.367 173.609H357.406V175H359.023V166.781ZM365.07 175.141C367.156 175.141 368.5 173.5 368.5 170.891C368.5 168.289 367.148 166.648 365.078 166.648C363.914 166.648 362.977 167.227 362.484 168.18H362.445V163.727H360.758V175H362.398V173.602H362.43C362.938 174.555 363.867 175.141 365.07 175.141ZM364.617 168.07C365.945 168.07 366.766 169.164 366.766 170.891C366.766 172.633 365.945 173.711 364.617 173.711C363.336 173.711 362.438 172.602 362.438 170.891C362.438 169.195 363.336 168.07 364.617 168.07ZM373.258 167.992C374.438 167.992 375.234 168.875 375.273 170.133H371.164C371.25 168.891 372.078 167.992 373.258 167.992ZM375.266 172.586C375.039 173.305 374.328 173.789 373.367 173.789C372.016 173.789 371.156 172.844 371.156 171.414V171.312H376.961V170.734C376.961 168.242 375.539 166.633 373.258 166.633C370.938 166.633 369.453 168.352 369.453 170.93C369.453 173.523 370.914 175.156 373.328 175.156C375.211 175.156 376.633 174.086 376.867 172.586H375.266ZM385.328 169.609C385.18 167.992 383.891 166.633 381.773 166.633C379.438 166.633 377.906 168.281 377.906 170.891C377.906 173.547 379.438 175.156 381.789 175.156C383.766 175.156 385.164 173.969 385.344 172.219H383.719C383.523 173.172 382.844 173.742 381.805 173.742C380.492 173.742 379.625 172.695 379.625 170.891C379.625 169.125 380.484 168.039 381.789 168.039C382.891 168.039 383.547 168.734 383.719 169.609H385.328ZM393.586 166.781H391.898V171.57C391.898 172.852 391.164 173.695 389.945 173.695C388.781 173.695 388.188 173.023 388.188 171.773V166.781H386.5V172.102C386.5 173.984 387.594 175.148 389.383 175.148C390.641 175.148 391.477 174.594 391.93 173.609H391.969V175H393.586V166.781ZM395.75 164.836V166.781H394.555V168.117H395.75V172.836C395.75 174.422 396.398 175.055 398.062 175.055C398.438 175.055 398.812 175.023 399 174.977V173.641C398.891 173.664 398.617 173.68 398.445 173.68C397.758 173.68 397.445 173.359 397.445 172.648V168.117H399.008V166.781H397.445V164.836H395.75ZM408.844 171.188V169.664H403.719V171.188H408.844ZM418.586 175V165.234H422.031V163.727H413.383V165.234H416.836V175H418.586ZM421.727 175H423.414V170.078C423.414 168.914 424.086 168.188 425.172 168.188C425.5 168.188 425.797 168.227 425.93 168.281V166.711C425.805 166.688 425.594 166.648 425.352 166.648C424.383 166.648 423.648 167.219 423.375 168.18H423.336V166.781H421.727V175ZM427.031 175H428.719V166.781H427.031V175ZM427.875 165.578C428.422 165.578 428.859 165.148 428.859 164.617C428.859 164.078 428.422 163.648 427.875 163.648C427.336 163.648 426.898 164.078 426.898 164.617C426.898 165.148 427.336 165.578 427.875 165.578ZM430.445 175H432.133V169.922C432.133 168.867 432.844 168.086 433.844 168.086C434.797 168.086 435.398 168.688 435.398 169.633V175H437.055V169.867C437.055 168.828 437.75 168.086 438.75 168.086C439.75 168.086 440.32 168.695 440.32 169.758V175H442.016V169.352C442.016 167.719 440.953 166.641 439.328 166.641C438.156 166.641 437.188 167.25 436.766 168.25H436.727C436.398 167.227 435.57 166.641 434.43 166.641C433.32 166.641 432.461 167.25 432.094 168.164H432.055V166.781H430.445V175ZM449.773 173.805C448.867 173.805 448.273 173.336 448.273 172.617C448.273 171.914 448.844 171.469 449.852 171.398L451.875 171.273V171.922C451.875 172.992 450.953 173.805 449.773 173.805ZM449.305 175.141C450.383 175.141 451.422 174.562 451.898 173.648H451.938V175H453.555V169.336C453.555 167.688 452.281 166.633 450.289 166.633C448.258 166.633 446.992 167.727 446.898 169.211H448.492C448.641 168.477 449.25 168.008 450.227 168.008C451.258 168.008 451.875 168.555 451.875 169.469V170.102L449.625 170.234C447.672 170.344 446.57 171.227 446.57 172.664C446.57 174.141 447.695 175.141 449.305 175.141ZM455.195 175H456.883V170.211C456.883 168.938 457.648 168.094 458.836 168.094C460.008 168.094 460.586 168.773 460.586 170.008V175H462.281V169.68C462.281 167.797 461.242 166.641 459.43 166.641C458.164 166.641 457.289 167.219 456.844 168.156H456.805V166.781H455.195V175ZM467 175.141C468.195 175.141 469.133 174.539 469.617 173.602H469.648V175H471.289V163.727H469.594V168.148H469.562C469.102 167.242 468.164 166.648 466.984 166.648C464.922 166.648 463.547 168.297 463.547 170.891C463.547 173.484 464.922 175.141 467 175.141ZM467.445 168.07C468.742 168.07 469.609 169.188 469.609 170.891C469.609 172.609 468.742 173.711 467.445 173.711C466.109 173.711 465.273 172.625 465.273 170.891C465.273 169.164 466.109 168.07 467.445 168.07ZM476.477 163.727V175H480.453C483.812 175 485.789 172.906 485.789 169.344C485.789 165.789 483.805 163.727 480.453 163.727H476.477ZM478.227 165.234H480.289C482.672 165.234 484 166.703 484 169.359C484 172.023 482.68 173.484 480.289 173.484H478.227V165.234ZM490.789 175.156C493.141 175.156 494.688 173.539 494.688 170.891C494.688 168.25 493.133 166.633 490.789 166.633C488.445 166.633 486.891 168.25 486.891 170.891C486.891 173.539 488.438 175.156 490.789 175.156ZM490.789 173.766C489.469 173.766 488.609 172.719 488.609 170.891C488.609 169.07 489.469 168.023 490.789 168.023C492.109 168.023 492.969 169.07 492.969 170.891C492.969 172.719 492.117 173.766 490.789 173.766ZM506.805 166.781H505.133L503.633 173.25H503.594L501.875 166.781H500.25L498.539 173.25H498.508L497.008 166.781H495.32L497.578 175H499.32L501.031 168.844H501.07L502.797 175H504.555L506.805 166.781ZM507.836 175H509.523V170.211C509.523 168.938 510.289 168.094 511.477 168.094C512.648 168.094 513.227 168.773 513.227 170.008V175H514.922V169.68C514.922 167.797 513.883 166.641 512.07 166.641C510.805 166.641 509.93 167.219 509.484 168.156H509.445V166.781H507.836V175ZM516.617 175H518.305V163.727H516.617V175ZM523.57 175.156C525.922 175.156 527.469 173.539 527.469 170.891C527.469 168.25 525.914 166.633 523.57 166.633C521.227 166.633 519.672 168.25 519.672 170.891C519.672 173.539 521.219 175.156 523.57 175.156ZM523.57 173.766C522.25 173.766 521.391 172.719 521.391 170.891C521.391 169.07 522.25 168.023 523.57 168.023C524.891 168.023 525.75 169.07 525.75 170.891C525.75 172.719 524.898 173.766 523.57 173.766ZM531.648 173.805C530.742 173.805 530.148 173.336 530.148 172.617C530.148 171.914 530.719 171.469 531.727 171.398L533.75 171.273V171.922C533.75 172.992 532.828 173.805 531.648 173.805ZM531.18 175.141C532.258 175.141 533.297 174.562 533.773 173.648H533.812V175H535.43V169.336C535.43 167.688 534.156 166.633 532.164 166.633C530.133 166.633 528.867 167.727 528.773 169.211H530.367C530.516 168.477 531.125 168.008 532.102 168.008C533.133 168.008 533.75 168.555 533.75 169.469V170.102L531.5 170.234C529.547 170.344 528.445 171.227 528.445 172.664C528.445 174.141 529.57 175.141 531.18 175.141ZM540.156 175.141C541.352 175.141 542.289 174.539 542.773 173.602H542.805V175H544.445V163.727H542.75V168.148H542.719C542.258 167.242 541.32 166.648 540.141 166.648C538.078 166.648 536.703 168.297 536.703 170.891C536.703 173.484 538.078 175.141 540.156 175.141ZM540.602 168.07C541.898 168.07 542.766 169.188 542.766 170.891C542.766 172.609 541.898 173.711 540.602 173.711C539.266 173.711 538.43 172.625 538.43 170.891C538.43 169.164 539.266 168.07 540.602 168.07ZM554.516 175V170.383L558.492 163.727H556.555L553.68 168.703H553.625L550.75 163.727H548.797L552.766 170.383V175H554.516ZM561.492 175.156C563.844 175.156 565.391 173.539 565.391 170.891C565.391 168.25 563.836 166.633 561.492 166.633C559.148 166.633 557.594 168.25 557.594 170.891C557.594 173.539 559.141 175.156 561.492 175.156ZM561.492 173.766C560.172 173.766 559.312 172.719 559.312 170.891C559.312 169.07 560.172 168.023 561.492 168.023C562.812 168.023 563.672 169.07 563.672 170.891C563.672 172.719 562.82 173.766 561.492 173.766ZM573.742 166.781H572.055V171.57C572.055 172.852 571.32 173.695 570.102 173.695C568.938 173.695 568.344 173.023 568.344 171.773V166.781H566.656V172.102C566.656 173.984 567.75 175.148 569.539 175.148C570.797 175.148 571.633 174.594 572.086 173.609H572.125V175H573.742V166.781ZM575.906 164.836V166.781H574.711V168.117H575.906V172.836C575.906 174.422 576.555 175.055 578.219 175.055C578.594 175.055 578.969 175.023 579.156 174.977V173.641C579.047 173.664 578.773 173.68 578.602 173.68C577.914 173.68 577.602 173.359 577.602 172.648V168.117H579.164V166.781H577.602V164.836H575.906ZM587.602 166.781H585.914V171.57C585.914 172.852 585.18 173.695 583.961 173.695C582.797 173.695 582.203 173.023 582.203 171.773V166.781H580.516V172.102C580.516 173.984 581.609 175.148 583.398 175.148C584.656 175.148 585.492 174.594 585.945 173.609H585.984V175H587.602V166.781ZM593.648 175.141C595.734 175.141 597.078 173.5 597.078 170.891C597.078 168.289 595.727 166.648 593.656 166.648C592.492 166.648 591.555 167.227 591.062 168.18H591.023V163.727H589.336V175H590.977V173.602H591.008C591.516 174.555 592.445 175.141 593.648 175.141ZM593.195 168.07C594.523 168.07 595.344 169.164 595.344 170.891C595.344 172.633 594.523 173.711 593.195 173.711C591.914 173.711 591.016 172.602 591.016 170.891C591.016 169.195 591.914 168.07 593.195 168.07ZM601.836 167.992C603.016 167.992 603.812 168.875 603.852 170.133H599.742C599.828 168.891 600.656 167.992 601.836 167.992ZM603.844 172.586C603.617 173.305 602.906 173.789 601.945 173.789C600.594 173.789 599.734 172.844 599.734 171.414V171.312H605.539V170.734C605.539 168.242 604.117 166.633 601.836 166.633C599.516 166.633 598.031 168.352 598.031 170.93C598.031 173.523 599.492 175.156 601.906 175.156C603.789 175.156 605.211 174.086 605.445 172.586H603.844ZM615.406 175L619.43 163.727H617.562L614.484 173.031H614.438L611.367 163.727H609.469L613.492 175H615.406ZM620.328 175H622.016V166.781H620.328V175ZM621.172 165.578C621.719 165.578 622.156 165.148 622.156 164.617C622.156 164.078 621.719 163.648 621.172 163.648C620.633 163.648 620.195 164.078 620.195 164.617C620.195 165.148 620.633 165.578 621.172 165.578ZM626.828 175.141C628.023 175.141 628.961 174.539 629.445 173.602H629.477V175H631.117V163.727H629.422V168.148H629.391C628.93 167.242 627.992 166.648 626.812 166.648C624.75 166.648 623.375 168.297 623.375 170.891C623.375 173.484 624.75 175.141 626.828 175.141ZM627.273 168.07C628.57 168.07 629.438 169.188 629.438 170.891C629.438 172.609 628.57 173.711 627.273 173.711C625.938 173.711 625.102 172.625 625.102 170.891C625.102 169.164 625.938 168.07 627.273 168.07ZM636.289 167.992C637.469 167.992 638.266 168.875 638.305 170.133H634.195C634.281 168.891 635.109 167.992 636.289 167.992ZM638.297 172.586C638.07 173.305 637.359 173.789 636.398 173.789C635.047 173.789 634.188 172.844 634.188 171.414V171.312H639.992V170.734C639.992 168.242 638.57 166.633 636.289 166.633C633.969 166.633 632.484 168.352 632.484 170.93C632.484 173.523 633.945 175.156 636.359 175.156C638.242 175.156 639.664 174.086 639.898 172.586H638.297ZM644.836 175.156C647.188 175.156 648.734 173.539 648.734 170.891C648.734 168.25 647.18 166.633 644.836 166.633C642.492 166.633 640.938 168.25 640.938 170.891C640.938 173.539 642.484 175.156 644.836 175.156ZM644.836 173.766C643.516 173.766 642.656 172.719 642.656 170.891C642.656 169.07 643.516 168.023 644.836 168.023C646.156 168.023 647.016 169.07 647.016 170.891C647.016 172.719 646.164 173.766 644.836 173.766ZM649.891 169.109C649.891 170.258 650.641 171.031 652.125 171.391L653.594 171.75C654.453 171.969 654.766 172.258 654.766 172.781C654.766 173.445 654.141 173.867 653.125 173.867C652.094 173.867 651.484 173.43 651.352 172.641H649.68C649.812 174.148 651.102 175.156 653.047 175.156C655.062 175.156 656.461 174.125 656.461 172.625C656.461 171.414 655.836 170.789 654.18 170.391L652.797 170.07C651.945 169.859 651.539 169.516 651.539 169.008C651.539 168.359 652.148 167.914 653.062 167.914C654.008 167.914 654.609 168.375 654.688 169.117H656.273C656.219 167.656 654.938 166.633 653.109 166.633C651.188 166.633 649.891 167.641 649.891 169.109Z" fill="#D9D9D9"/>
<circle cx="188" cy="170" r="6" fill="#F6615A"/>
<circle cx="207" cy="170" r="6" fill="#F6BC45"/>
<circle cx="226" cy="170" r="6" fill="#2EC641"/>
<path d="M398.819 325V310.352H403.987V308.09H391.014V310.352H396.194V325H398.819ZM407.549 323.207C406.19 323.207 405.299 322.504 405.299 321.426C405.299 320.371 406.154 319.703 407.666 319.598L410.701 319.41V320.383C410.701 321.988 409.318 323.207 407.549 323.207ZM406.846 325.211C408.463 325.211 410.022 324.344 410.736 322.973H410.795V325H413.221V316.504C413.221 314.031 411.311 312.449 408.322 312.449C405.275 312.449 403.377 314.09 403.236 316.316H405.627C405.85 315.215 406.764 314.512 408.229 314.512C409.775 314.512 410.701 315.332 410.701 316.703V317.652L407.326 317.852C404.397 318.016 402.744 319.34 402.744 321.496C402.744 323.711 404.432 325.211 406.846 325.211ZM418.81 317.957H418.787V308.09H416.255V325H418.787V320.57L419.841 319.527L424.025 325H426.966L421.658 317.98L426.767 312.672H423.791L418.81 317.957ZM433.329 314.488C435.099 314.488 436.294 315.812 436.353 317.699H430.189C430.318 315.836 431.56 314.488 433.329 314.488ZM436.341 321.379C436.001 322.457 434.935 323.184 433.493 323.184C431.466 323.184 430.177 321.766 430.177 319.621V319.469H438.884V318.602C438.884 314.863 436.751 312.449 433.329 312.449C429.849 312.449 427.622 315.027 427.622 318.895C427.622 322.785 429.814 325.234 433.435 325.234C436.259 325.234 438.392 323.629 438.743 321.379H436.341ZM454.317 325V318.074L460.281 308.09H457.375L453.063 315.555H452.981L448.668 308.09H445.738L451.692 318.074V325H454.317ZM465.261 325.234C468.789 325.234 471.109 322.809 471.109 318.836C471.109 314.875 468.777 312.449 465.261 312.449C461.746 312.449 459.414 314.875 459.414 318.836C459.414 322.809 461.734 325.234 465.261 325.234ZM465.261 323.148C463.281 323.148 461.992 321.578 461.992 318.836C461.992 316.105 463.281 314.535 465.261 314.535C467.242 314.535 468.531 316.105 468.531 318.836C468.531 321.578 467.254 323.148 465.261 323.148ZM484.116 312.672H481.585V319.855C481.585 321.777 480.484 323.043 478.655 323.043C476.909 323.043 476.019 322.035 476.019 320.16V312.672H473.488V320.652C473.488 323.477 475.128 325.223 477.812 325.223C479.698 325.223 480.952 324.391 481.632 322.914H481.691V325H484.116V312.672ZM487.842 309.754V312.672H486.05V314.676H487.842V321.754C487.842 324.133 488.815 325.082 491.311 325.082C491.874 325.082 492.436 325.035 492.717 324.965V322.961C492.553 322.996 492.143 323.02 491.885 323.02C490.854 323.02 490.385 322.539 490.385 321.473V314.676H492.729V312.672H490.385V309.754H487.842ZM505.865 312.672H503.334V319.855C503.334 321.777 502.233 323.043 500.405 323.043C498.658 323.043 497.768 322.035 497.768 320.16V312.672H495.237V320.652C495.237 323.477 496.877 325.223 499.561 325.223C501.448 325.223 502.701 324.391 503.381 322.914H503.44V325H505.865V312.672ZM515.416 325.211C518.545 325.211 520.56 322.75 520.56 318.836C520.56 314.934 518.533 312.473 515.428 312.473C513.681 312.473 512.275 313.34 511.537 314.77H511.478V308.09H508.947V325H511.408V322.902H511.455C512.217 324.332 513.611 325.211 515.416 325.211ZM514.736 314.605C516.728 314.605 517.959 316.246 517.959 318.836C517.959 321.449 516.728 323.066 514.736 323.066C512.814 323.066 511.467 321.402 511.467 318.836C511.467 316.293 512.814 314.605 514.736 314.605ZM528.177 314.488C529.947 314.488 531.142 315.812 531.2 317.699H525.036C525.165 315.836 526.408 314.488 528.177 314.488ZM531.189 321.379C530.849 322.457 529.783 323.184 528.341 323.184C526.314 323.184 525.025 321.766 525.025 319.621V319.469H533.732V318.602C533.732 314.863 531.599 312.449 528.177 312.449C524.697 312.449 522.47 315.027 522.47 318.895C522.47 322.785 524.661 325.234 528.283 325.234C531.107 325.234 533.24 323.629 533.591 321.379H531.189ZM549.153 307.809C544.278 307.809 541.231 311.172 541.231 316.551C541.231 321.93 544.278 325.281 549.153 325.281C554.016 325.281 557.075 321.93 557.075 316.551C557.075 311.172 554.016 307.809 549.153 307.809ZM549.153 310.117C552.364 310.117 554.379 312.602 554.379 316.551C554.379 320.488 552.364 322.973 549.153 322.973C545.942 322.973 543.914 320.488 543.914 316.551C543.914 312.602 545.942 310.117 549.153 310.117ZM560.496 325H563.039V314.676H565.5V312.695H563.004V311.535C563.004 310.445 563.519 309.895 564.621 309.895C564.961 309.895 565.301 309.918 565.547 309.965V308.09C565.219 308.031 564.644 307.973 564.129 307.973C561.621 307.973 560.496 309.098 560.496 311.488V312.695H558.797V314.676H560.496V325ZM568.71 325H571.253V314.676H573.714V312.695H571.218V311.535C571.218 310.445 571.734 309.895 572.835 309.895C573.175 309.895 573.515 309.918 573.761 309.965V308.09C573.433 308.031 572.859 307.973 572.343 307.973C569.835 307.973 568.71 309.098 568.71 311.488V312.695H567.011V314.676H568.71V325ZM576.28 325H578.811V308.09H576.28V325ZM581.975 325H584.506V312.672H581.975V325ZM583.241 310.867C584.061 310.867 584.717 310.223 584.717 309.426C584.717 308.617 584.061 307.973 583.241 307.973C582.432 307.973 581.776 308.617 581.776 309.426C581.776 310.223 582.432 310.867 583.241 310.867ZM587.576 325H590.107V317.816C590.107 315.906 591.256 314.641 593.037 314.641C594.795 314.641 595.662 315.66 595.662 317.512V325H598.205V317.02C598.205 314.195 596.646 312.461 593.928 312.461C592.029 312.461 590.717 313.328 590.049 314.734H589.99V312.672H587.576V325ZM606.29 314.488C608.06 314.488 609.255 315.812 609.314 317.699H603.15C603.279 315.836 604.521 314.488 606.29 314.488ZM609.302 321.379C608.962 322.457 607.896 323.184 606.455 323.184C604.427 323.184 603.138 321.766 603.138 319.621V319.469H611.845V318.602C611.845 314.863 609.712 312.449 606.29 312.449C602.81 312.449 600.583 315.027 600.583 318.895C600.583 322.785 602.775 325.234 606.396 325.234C609.22 325.234 611.353 323.629 611.705 321.379H609.302Z" fill="url(#paint2_linear_9_160)"/>
<path d="M368.164 354V343.992H371.719V342.727H363.203V343.992H366.758V354H368.164ZM377.898 345.875H376.539V350.648C376.539 352.031 375.742 352.938 374.422 352.938C373.164 352.938 372.547 352.227 372.547 350.906V345.875H371.188V351.148C371.188 352.992 372.227 354.141 374 354.141C375.25 354.141 376.094 353.617 376.578 352.68H376.609V354H377.898V345.875ZM383.703 354.141C385.781 354.141 387.156 352.492 387.156 349.938C387.156 347.391 385.773 345.734 383.727 345.734C382.578 345.734 381.633 346.305 381.125 347.234H381.094V342.727H379.734V354H381.031V352.625H381.062C381.586 353.562 382.516 354.141 383.703 354.141ZM383.438 346.93C384.875 346.93 385.766 348.094 385.766 349.938C385.766 351.797 384.875 352.945 383.438 352.945C382.062 352.945 381.086 351.75 381.086 349.938C381.086 348.133 382.062 346.93 383.438 346.93ZM391.797 346.914C393.078 346.914 393.93 347.883 393.961 349.242H389.547C389.633 347.891 390.523 346.914 391.797 346.914ZM393.93 351.672C393.703 352.438 392.945 352.961 391.914 352.961C390.453 352.961 389.539 351.938 389.539 350.383V350.305H395.367V349.789C395.367 347.328 394.016 345.734 391.82 345.734C389.578 345.734 388.141 347.445 388.141 349.969C388.141 352.523 389.555 354.141 391.883 354.141C393.656 354.141 395.031 353.094 395.266 351.672H393.93ZM403.492 348.539C403.32 347.078 402.109 345.734 400.078 345.734C397.836 345.734 396.344 347.375 396.344 349.938C396.344 352.555 397.844 354.141 400.094 354.141C401.938 354.141 403.297 353 403.508 351.383H402.172C401.938 352.359 401.211 352.945 400.102 352.945C398.695 352.945 397.727 351.828 397.727 349.938C397.727 348.094 398.68 346.93 400.086 346.93C401.281 346.93 401.969 347.656 402.164 348.539H403.492ZM411.43 345.875H410.07V350.648C410.07 352.031 409.273 352.938 407.953 352.938C406.695 352.938 406.078 352.227 406.078 350.906V345.875H404.719V351.148C404.719 352.992 405.758 354.141 407.531 354.141C408.781 354.141 409.625 353.617 410.109 352.68H410.141V354H411.43V345.875ZM413.633 343.914V345.875H412.422V346.992H413.633V351.891C413.633 353.453 414.211 354.062 415.703 354.062C416.023 354.062 416.398 354.039 416.562 354V352.859C416.469 352.875 416.156 352.898 416 352.898C415.305 352.898 414.992 352.562 414.992 351.82V346.992H416.57V345.875H414.992V343.914H413.633ZM421.375 354H422.734V342.727H421.375V354ZM427.828 346.914C429.109 346.914 429.961 347.883 429.992 349.242H425.578C425.664 347.891 426.555 346.914 427.828 346.914ZM429.961 351.672C429.734 352.438 428.977 352.961 427.945 352.961C426.484 352.961 425.57 351.938 425.57 350.383V350.305H431.398V349.789C431.398 347.328 430.047 345.734 427.852 345.734C425.609 345.734 424.172 347.445 424.172 349.969C424.172 352.523 425.586 354.141 427.914 354.141C429.688 354.141 431.062 353.094 431.297 351.672H429.961ZM433.211 343.914V345.875H432V346.992H433.211V351.891C433.211 353.453 433.789 354.062 435.281 354.062C435.602 354.062 435.977 354.039 436.141 354V352.859C436.047 352.875 435.734 352.898 435.578 352.898C434.883 352.898 434.57 352.562 434.57 351.82V346.992H436.148V345.875H434.57V343.914H433.211ZM437.461 348.117C437.461 349.227 438.164 349.961 439.594 350.328L441.023 350.695C441.938 350.938 442.273 351.25 442.273 351.828C442.273 352.562 441.594 353.031 440.492 353.031C439.391 353.031 438.75 352.578 438.602 351.734H437.242C437.383 353.172 438.625 354.141 440.406 354.141C442.305 354.141 443.641 353.141 443.641 351.727C443.641 350.531 443.047 349.938 441.406 349.523L440.148 349.219C439.227 348.984 438.797 348.609 438.797 348.047C438.797 347.336 439.453 346.844 440.445 346.844C441.445 346.844 442.078 347.328 442.172 348.109H443.469C443.406 346.734 442.172 345.734 440.492 345.734C438.703 345.734 437.461 346.727 437.461 348.117ZM449.008 357.039C450.477 357.039 451.148 356.469 451.844 354.57L455.039 345.875H453.609L451.359 352.641H451.336L449.086 345.875H447.633L450.633 354.008L450.445 354.578C450.133 355.523 449.711 355.891 448.953 355.891C448.781 355.891 448.57 355.883 448.422 355.852V356.992C448.57 357.023 448.844 357.039 449.008 357.039ZM459.25 354.141C461.492 354.141 463.008 352.523 463.008 349.938C463.008 347.344 461.492 345.734 459.25 345.734C457 345.734 455.484 347.344 455.484 349.938C455.484 352.523 457 354.141 459.25 354.141ZM459.25 352.945C457.812 352.945 456.867 351.852 456.867 349.938C456.867 348.023 457.812 346.93 459.25 346.93C460.688 346.93 461.625 348.023 461.625 349.938C461.625 351.852 460.688 352.945 459.25 352.945ZM471.055 345.875H469.695V350.648C469.695 352.031 468.898 352.938 467.578 352.938C466.32 352.938 465.703 352.227 465.703 350.906V345.875H464.344V351.148C464.344 352.992 465.383 354.141 467.156 354.141C468.406 354.141 469.25 353.617 469.734 352.68H469.766V354H471.055V345.875ZM479.359 346.914C480.641 346.914 481.492 347.883 481.523 349.242H477.109C477.195 347.891 478.086 346.914 479.359 346.914ZM481.492 351.672C481.266 352.438 480.508 352.961 479.477 352.961C478.016 352.961 477.102 351.938 477.102 350.383V350.305H482.93V349.789C482.93 347.328 481.578 345.734 479.383 345.734C477.141 345.734 475.703 347.445 475.703 349.969C475.703 352.523 477.117 354.141 479.445 354.141C481.219 354.141 482.594 353.094 482.828 351.672H481.492ZM486.984 352.984C486.008 352.984 485.359 352.477 485.359 351.703C485.359 350.938 485.984 350.453 487.078 350.383L489.25 350.25V350.914C489.25 352.086 488.266 352.984 486.984 352.984ZM486.68 354.141C487.773 354.141 488.805 353.531 489.289 352.602H489.32V354H490.609V348.383C490.609 346.766 489.406 345.734 487.5 345.734C485.578 345.734 484.375 346.812 484.281 348.219H485.594C485.766 347.422 486.422 346.93 487.469 346.93C488.594 346.93 489.25 347.523 489.25 348.516V349.195L486.922 349.328C485.047 349.438 483.977 350.312 483.977 351.703C483.977 353.164 485.062 354.141 486.68 354.141ZM492.195 348.117C492.195 349.227 492.898 349.961 494.328 350.328L495.758 350.695C496.672 350.938 497.008 351.25 497.008 351.828C497.008 352.562 496.328 353.031 495.227 353.031C494.125 353.031 493.484 352.578 493.336 351.734H491.977C492.117 353.172 493.359 354.141 495.141 354.141C497.039 354.141 498.375 353.141 498.375 351.727C498.375 350.531 497.781 349.938 496.141 349.523L494.883 349.219C493.961 348.984 493.531 348.609 493.531 348.047C493.531 347.336 494.188 346.844 495.18 346.844C496.18 346.844 496.812 347.328 496.906 348.109H498.203C498.141 346.734 496.906 345.734 495.227 345.734C493.438 345.734 492.195 346.727 492.195 348.117ZM499.859 354H501.219V345.875H499.859V354ZM500.539 344.508C501.008 344.508 501.391 344.125 501.391 343.664C501.391 343.195 501.008 342.82 500.539 342.82C500.078 342.82 499.695 343.195 499.695 343.664C499.695 344.125 500.078 344.508 500.539 344.508ZM503.125 354H504.484V342.727H503.125V354ZM506.992 357.039C508.461 357.039 509.133 356.469 509.828 354.57L513.023 345.875H511.594L509.344 352.641H509.32L507.07 345.875H505.617L508.617 354.008L508.43 354.578C508.117 355.523 507.695 355.891 506.938 355.891C506.766 355.891 506.555 355.883 506.406 355.852V356.992C506.555 357.023 506.828 357.039 506.992 357.039ZM520.461 354.141C521.633 354.141 522.562 353.562 523.086 352.625H523.109V354H524.406V342.727H523.047V347.195H523.016C522.531 346.305 521.594 345.734 520.43 345.734C518.383 345.734 516.984 347.391 516.984 349.938C516.984 352.484 518.391 354.141 520.461 354.141ZM520.719 346.93C522.117 346.93 523.055 348.125 523.055 349.938C523.055 351.758 522.117 352.945 520.719 352.945C519.281 352.945 518.375 351.781 518.375 349.938C518.375 348.102 519.281 346.93 520.719 346.93ZM529.609 354.141C531.852 354.141 533.367 352.523 533.367 349.938C533.367 347.344 531.852 345.734 529.609 345.734C527.359 345.734 525.844 347.344 525.844 349.938C525.844 352.523 527.359 354.141 529.609 354.141ZM529.609 352.945C528.172 352.945 527.227 351.852 527.227 349.938C527.227 348.023 528.172 346.93 529.609 346.93C531.047 346.93 531.984 348.023 531.984 349.938C531.984 351.852 531.047 352.945 529.609 352.945ZM545.078 345.875H543.734L542.109 352.484H542.078L540.234 345.875H538.922L537.086 352.484H537.055L535.43 345.875H534.078L536.352 354H537.734L539.562 347.711H539.594L541.43 354H542.812L545.078 345.875ZM546.195 354H547.555V349.219C547.555 347.844 548.391 346.938 549.672 346.938C550.922 346.938 551.539 347.656 551.539 348.969V354H552.898V348.727C552.898 346.883 551.867 345.734 550.086 345.734C548.828 345.734 547.961 346.297 547.508 347.172H547.477V345.875H546.195V354ZM554.703 354H556.062V342.727H554.703V354ZM561.266 354.141C563.508 354.141 565.023 352.523 565.023 349.938C565.023 347.344 563.508 345.734 561.266 345.734C559.016 345.734 557.5 347.344 557.5 349.938C557.5 352.523 559.016 354.141 561.266 354.141ZM561.266 352.945C559.828 352.945 558.883 351.852 558.883 349.938C558.883 348.023 559.828 346.93 561.266 346.93C562.703 346.93 563.641 348.023 563.641 349.938C563.641 351.852 562.703 352.945 561.266 352.945ZM569.078 352.984C568.102 352.984 567.453 352.477 567.453 351.703C567.453 350.938 568.078 350.453 569.172 350.383L571.344 350.25V350.914C571.344 352.086 570.359 352.984 569.078 352.984ZM568.773 354.141C569.867 354.141 570.898 353.531 571.383 352.602H571.414V354H572.703V348.383C572.703 346.766 571.5 345.734 569.594 345.734C567.672 345.734 566.469 346.812 566.375 348.219H567.688C567.859 347.422 568.516 346.93 569.562 346.93C570.688 346.93 571.344 347.523 571.344 348.516V349.195L569.016 349.328C567.141 349.438 566.07 350.312 566.07 351.703C566.07 353.164 567.156 354.141 568.773 354.141ZM577.508 354.141C578.68 354.141 579.609 353.562 580.133 352.625H580.156V354H581.453V342.727H580.094V347.195H580.062C579.578 346.305 578.641 345.734 577.477 345.734C575.43 345.734 574.031 347.391 574.031 349.938C574.031 352.484 575.438 354.141 577.508 354.141ZM577.766 346.93C579.164 346.93 580.102 348.125 580.102 349.938C580.102 351.758 579.164 352.945 577.766 352.945C576.328 352.945 575.422 351.781 575.422 349.938C575.422 348.102 576.328 346.93 577.766 346.93ZM589.25 352.984C588.273 352.984 587.625 352.477 587.625 351.703C587.625 350.938 588.25 350.453 589.344 350.383L591.516 350.25V350.914C591.516 352.086 590.531 352.984 589.25 352.984ZM588.945 354.141C590.039 354.141 591.07 353.531 591.555 352.602H591.586V354H592.875V348.383C592.875 346.766 591.672 345.734 589.766 345.734C587.844 345.734 586.641 346.812 586.547 348.219H587.859C588.031 347.422 588.688 346.93 589.734 346.93C590.859 346.93 591.516 347.523 591.516 348.516V349.195L589.188 349.328C587.312 349.438 586.242 350.312 586.242 351.703C586.242 353.164 587.328 354.141 588.945 354.141ZM594.602 354H595.961V349.219C595.961 347.844 596.797 346.938 598.078 346.938C599.328 346.938 599.945 347.656 599.945 348.969V354H601.305V348.727C601.305 346.883 600.273 345.734 598.492 345.734C597.234 345.734 596.367 346.297 595.914 347.172H595.883V345.875H594.602V354ZM606.117 354.141C607.289 354.141 608.219 353.562 608.742 352.625H608.766V354H610.062V342.727H608.703V347.195H608.672C608.188 346.305 607.25 345.734 606.086 345.734C604.039 345.734 602.641 347.391 602.641 349.938C602.641 352.484 604.047 354.141 606.117 354.141ZM606.375 346.93C607.773 346.93 608.711 348.125 608.711 349.938C608.711 351.758 607.773 352.945 606.375 352.945C604.938 352.945 604.031 351.781 604.031 349.938C604.031 348.102 604.938 346.93 606.375 346.93ZM615.617 343.914V345.875H614.406V346.992H615.617V351.891C615.617 353.453 616.195 354.062 617.688 354.062C618.008 354.062 618.383 354.039 618.547 354V352.859C618.453 352.875 618.141 352.898 617.984 352.898C617.289 352.898 616.977 352.562 616.977 351.82V346.992H618.555V345.875H616.977V343.914H615.617ZM620.008 354H621.367V348.938C621.367 347.789 622.055 347.031 623.109 347.031C623.438 347.031 623.727 347.07 623.836 347.109V345.789C623.727 345.773 623.523 345.734 623.289 345.734C622.336 345.734 621.586 346.305 621.32 347.203H621.289V345.875H620.008V354ZM625.016 354H626.375V345.875H625.016V354ZM625.695 344.508C626.164 344.508 626.547 344.125 626.547 343.664C626.547 343.195 626.164 342.82 625.695 342.82C625.234 342.82 624.852 343.195 624.852 343.664C624.852 344.125 625.234 344.508 625.695 344.508ZM628.211 354H629.57V348.906C629.57 347.781 630.352 346.938 631.43 346.938C632.438 346.938 633.094 347.578 633.094 348.555V354H634.453V348.836C634.453 347.734 635.211 346.938 636.289 346.938C637.359 346.938 637.977 347.594 637.977 348.703V354H639.336V348.391C639.336 346.781 638.297 345.734 636.688 345.734C635.547 345.734 634.594 346.312 634.141 347.281H634.109C633.758 346.297 632.938 345.734 631.828 345.734C630.734 345.734 629.906 346.312 629.523 347.172H629.492V345.875H628.211V354ZM388.438 376V371.148L392.438 364.727H390.836L387.758 369.789H387.711L384.633 364.727H383.031L387.031 371.148V376H388.438ZM395.398 376.141C397.641 376.141 399.156 374.523 399.156 371.938C399.156 369.344 397.641 367.734 395.398 367.734C393.148 367.734 391.633 369.344 391.633 371.938C391.633 374.523 393.148 376.141 395.398 376.141ZM395.398 374.945C393.961 374.945 393.016 373.852 393.016 371.938C393.016 370.023 393.961 368.93 395.398 368.93C396.836 368.93 397.773 370.023 397.773 371.938C397.773 373.852 396.836 374.945 395.398 374.945ZM407.203 367.875H405.844V372.648C405.844 374.031 405.047 374.938 403.727 374.938C402.469 374.938 401.852 374.227 401.852 372.906V367.875H400.492V373.148C400.492 374.992 401.531 376.141 403.305 376.141C404.555 376.141 405.398 375.617 405.883 374.68H405.914V376H407.203V367.875ZM411.719 376V365.992H415.273V364.727H406.758V365.992H410.312V376H411.719ZM421.453 367.875H420.094V372.648C420.094 374.031 419.297 374.938 417.977 374.938C416.719 374.938 416.102 374.227 416.102 372.906V367.875H414.742V373.148C414.742 374.992 415.781 376.141 417.555 376.141C418.805 376.141 419.648 375.617 420.133 374.68H420.164V376H421.453V367.875ZM427.258 376.141C429.336 376.141 430.711 374.492 430.711 371.938C430.711 369.391 429.328 367.734 427.281 367.734C426.133 367.734 425.188 368.305 424.68 369.234H424.648V364.727H423.289V376H424.586V374.625H424.617C425.141 375.562 426.07 376.141 427.258 376.141ZM426.992 368.93C428.43 368.93 429.32 370.094 429.32 371.938C429.32 373.797 428.43 374.945 426.992 374.945C425.617 374.945 424.641 373.75 424.641 371.938C424.641 370.133 425.617 368.93 426.992 368.93ZM435.352 368.914C436.633 368.914 437.484 369.883 437.516 371.242H433.102C433.188 369.891 434.078 368.914 435.352 368.914ZM437.484 373.672C437.258 374.438 436.5 374.961 435.469 374.961C434.008 374.961 433.094 373.938 433.094 372.383V372.305H438.922V371.789C438.922 369.328 437.57 367.734 435.375 367.734C433.133 367.734 431.695 369.445 431.695 371.969C431.695 374.523 433.109 376.141 435.438 376.141C437.211 376.141 438.586 375.094 438.82 373.672H437.484ZM450.242 367.875H448.828L446.578 374.555H446.547L444.305 367.875H442.875L445.867 376H447.258L450.242 367.875ZM451.383 376H452.742V367.875H451.383V376ZM452.062 366.508C452.531 366.508 452.914 366.125 452.914 365.664C452.914 365.195 452.531 364.82 452.062 364.82C451.602 364.82 451.219 365.195 451.219 365.664C451.219 366.125 451.602 366.508 452.062 366.508ZM457.656 376.141C458.828 376.141 459.758 375.562 460.281 374.625H460.305V376H461.602V364.727H460.242V369.195H460.211C459.727 368.305 458.789 367.734 457.625 367.734C455.578 367.734 454.18 369.391 454.18 371.938C454.18 374.484 455.586 376.141 457.656 376.141ZM457.914 368.93C459.312 368.93 460.25 370.125 460.25 371.938C460.25 373.758 459.312 374.945 457.914 374.945C456.477 374.945 455.57 373.781 455.57 371.938C455.57 370.102 456.477 368.93 457.914 368.93ZM466.695 368.914C467.977 368.914 468.828 369.883 468.859 371.242H464.445C464.531 369.891 465.422 368.914 466.695 368.914ZM468.828 373.672C468.602 374.438 467.844 374.961 466.812 374.961C465.352 374.961 464.438 373.938 464.438 372.383V372.305H470.266V371.789C470.266 369.328 468.914 367.734 466.719 367.734C464.477 367.734 463.039 369.445 463.039 371.969C463.039 374.523 464.453 376.141 466.781 376.141C468.555 376.141 469.93 375.094 470.164 373.672H468.828ZM475.008 376.141C477.25 376.141 478.766 374.523 478.766 371.938C478.766 369.344 477.25 367.734 475.008 367.734C472.758 367.734 471.242 369.344 471.242 371.938C471.242 374.523 472.758 376.141 475.008 376.141ZM475.008 374.945C473.57 374.945 472.625 373.852 472.625 371.938C472.625 370.023 473.57 368.93 475.008 368.93C476.445 368.93 477.383 370.023 477.383 371.938C477.383 373.852 476.445 374.945 475.008 374.945ZM480 370.117C480 371.227 480.703 371.961 482.133 372.328L483.562 372.695C484.477 372.938 484.812 373.25 484.812 373.828C484.812 374.562 484.133 375.031 483.031 375.031C481.93 375.031 481.289 374.578 481.141 373.734H479.781C479.922 375.172 481.164 376.141 482.945 376.141C484.844 376.141 486.18 375.141 486.18 373.727C486.18 372.531 485.586 371.938 483.945 371.523L482.688 371.219C481.766 370.984 481.336 370.609 481.336 370.047C481.336 369.336 481.992 368.844 482.984 368.844C483.984 368.844 484.617 369.328 484.711 370.109H486.008C485.945 368.734 484.711 367.734 483.031 367.734C481.242 367.734 480 368.727 480 370.117ZM491.312 376H492.672V368.992H494.328V367.875H492.664V366.977C492.664 366.172 493.016 365.781 493.75 365.781C493.977 365.781 494.203 365.805 494.367 365.828V364.727C494.172 364.695 493.844 364.664 493.539 364.664C492.039 364.664 491.312 365.406 491.312 366.969V367.875H490.18V368.992H491.312V376ZM498.711 376.141C500.953 376.141 502.469 374.523 502.469 371.938C502.469 369.344 500.953 367.734 498.711 367.734C496.461 367.734 494.945 369.344 494.945 371.938C494.945 374.523 496.461 376.141 498.711 376.141ZM498.711 374.945C497.273 374.945 496.328 373.852 496.328 371.938C496.328 370.023 497.273 368.93 498.711 368.93C500.148 368.93 501.086 370.023 501.086 371.938C501.086 373.852 500.148 374.945 498.711 374.945ZM503.844 376H505.203V370.938C505.203 369.789 505.891 369.031 506.945 369.031C507.273 369.031 507.562 369.07 507.672 369.109V367.789C507.562 367.773 507.359 367.734 507.125 367.734C506.172 367.734 505.422 368.305 505.156 369.203H505.125V367.875H503.844V376ZM512.5 376H513.859V368.992H515.516V367.875H513.852V366.977C513.852 366.172 514.203 365.781 514.938 365.781C515.164 365.781 515.391 365.805 515.555 365.828V364.727C515.359 364.695 515.031 364.664 514.727 364.664C513.227 364.664 512.5 365.406 512.5 366.969V367.875H511.367V368.992H512.5V376ZM516.922 376H518.281V370.938C518.281 369.789 518.969 369.031 520.023 369.031C520.352 369.031 520.641 369.07 520.75 369.109V367.789C520.641 367.773 520.438 367.734 520.203 367.734C519.25 367.734 518.5 368.305 518.234 369.203H518.203V367.875H516.922V376ZM524.727 368.914C526.008 368.914 526.859 369.883 526.891 371.242H522.477C522.562 369.891 523.453 368.914 524.727 368.914ZM526.859 373.672C526.633 374.438 525.875 374.961 524.844 374.961C523.383 374.961 522.469 373.938 522.469 372.383V372.305H528.297V371.789C528.297 369.328 526.945 367.734 524.75 367.734C522.508 367.734 521.07 369.445 521.07 371.969C521.07 374.523 522.484 376.141 524.812 376.141C526.586 376.141 527.961 375.094 528.195 373.672H526.859ZM532.93 368.914C534.211 368.914 535.062 369.883 535.094 371.242H530.68C530.766 369.891 531.656 368.914 532.93 368.914ZM535.062 373.672C534.836 374.438 534.078 374.961 533.047 374.961C531.586 374.961 530.672 373.938 530.672 372.383V372.305H536.5V371.789C536.5 369.328 535.148 367.734 532.953 367.734C530.711 367.734 529.273 369.445 529.273 371.969C529.273 374.523 530.688 376.141 533.016 376.141C534.789 376.141 536.164 375.094 536.398 373.672H535.062ZM541.227 376H542.586V371.266C542.586 369.859 543.422 368.938 544.773 368.938C546.047 368.938 546.695 369.711 546.695 371V376H548.055V370.75C548.055 368.938 546.977 367.734 545.195 367.734C543.961 367.734 543.07 368.266 542.617 369.172H542.586V364.727H541.227V376ZM549.852 376H551.211V367.875H549.852V376ZM550.531 366.508C551 366.508 551.383 366.125 551.383 365.664C551.383 365.195 551 364.82 550.531 364.82C550.07 364.82 549.688 365.195 549.688 365.664C549.688 366.125 550.07 366.508 550.531 366.508ZM556.352 374.867C554.953 374.867 554.039 373.727 554.039 371.906C554.039 370.086 554.953 368.93 556.352 368.93C557.766 368.93 558.711 370.117 558.711 371.906C558.711 373.695 557.766 374.867 556.352 374.867ZM556.398 379.062C558.641 379.062 560.07 377.773 560.07 375.836V367.875H558.773V369.242H558.75C558.211 368.297 557.258 367.734 556.109 367.734C554.008 367.734 552.648 369.359 552.648 371.906C552.648 374.43 554.008 376.062 556.078 376.062C557.219 376.062 558.18 375.484 558.68 374.602H558.711V375.883C558.711 377.094 557.859 377.906 556.453 377.906C555.438 377.906 554.633 377.414 554.367 376.672H552.969C553.195 378.055 554.609 379.062 556.398 379.062ZM561.914 376H563.273V371.266C563.273 369.859 564.109 368.938 565.461 368.938C566.734 368.938 567.383 369.711 567.383 371V376H568.742V370.75C568.742 368.938 567.664 367.734 565.883 367.734C564.648 367.734 563.758 368.266 563.305 369.172H563.273V364.727H561.914V376ZM576.812 367.734C574.727 367.734 573.352 369.383 573.352 371.938C573.352 374.484 574.727 376.141 576.781 376.141C577.93 376.141 578.875 375.57 579.383 374.641H579.414V378.711H580.773V367.875H579.477V369.25H579.445C578.922 368.312 577.992 367.734 576.812 367.734ZM577.055 374.945C575.633 374.945 574.742 373.789 574.742 371.938C574.742 370.078 575.633 368.93 577.055 368.93C578.445 368.93 579.414 370.125 579.414 371.938C579.414 373.75 578.445 374.945 577.055 374.945ZM589.219 367.875H587.859V372.648C587.859 374.031 587.062 374.938 585.742 374.938C584.484 374.938 583.867 374.227 583.867 372.906V367.875H582.508V373.148C582.508 374.992 583.547 376.141 585.32 376.141C586.57 376.141 587.414 375.617 587.898 374.68H587.93V376H589.219V367.875ZM593.664 374.984C592.688 374.984 592.039 374.477 592.039 373.703C592.039 372.938 592.664 372.453 593.758 372.383L595.93 372.25V372.914C595.93 374.086 594.945 374.984 593.664 374.984ZM593.359 376.141C594.453 376.141 595.484 375.531 595.969 374.602H596V376H597.289V370.383C597.289 368.766 596.086 367.734 594.18 367.734C592.258 367.734 591.055 368.812 590.961 370.219H592.273C592.445 369.422 593.102 368.93 594.148 368.93C595.273 368.93 595.93 369.523 595.93 370.516V371.195L593.602 371.328C591.727 371.438 590.656 372.312 590.656 373.703C590.656 375.164 591.742 376.141 593.359 376.141ZM599.086 376H600.445V364.727H599.086V376ZM602.352 376H603.711V367.875H602.352V376ZM603.031 366.508C603.5 366.508 603.883 366.125 603.883 365.664C603.883 365.195 603.5 364.82 603.031 364.82C602.57 364.82 602.188 365.195 602.188 365.664C602.188 366.125 602.57 366.508 603.031 366.508ZM605.984 365.914V367.875H604.773V368.992H605.984V373.891C605.984 375.453 606.562 376.062 608.055 376.062C608.375 376.062 608.75 376.039 608.914 376V374.859C608.82 374.875 608.508 374.898 608.352 374.898C607.656 374.898 607.344 374.562 607.344 373.82V368.992H608.922V367.875H607.344V365.914H605.984ZM611.047 379.039C612.516 379.039 613.188 378.469 613.883 376.57L617.078 367.875H615.648L613.398 374.641H613.375L611.125 367.875H609.672L612.672 376.008L612.484 376.578C612.172 377.523 611.75 377.891 610.992 377.891C610.82 377.891 610.609 377.883 610.461 377.852V378.992C610.609 379.023 610.883 379.039 611.047 379.039ZM618.133 376.078C618.633 376.078 619.023 375.688 619.023 375.188C619.023 374.688 618.633 374.297 618.133 374.297C617.633 374.297 617.242 374.688 617.242 375.188C617.242 375.688 617.633 376.078 618.133 376.078Z" fill="#53515E"/>
<rect x="292" y="483" width="419" height="42" rx="10" fill="url(#paint3_linear_9_160)"/>
<rect x="292.25" y="423.25" width="418.5" height="41.5" rx="9.75" fill="url(#paint4_linear_9_160)"/>
<path d="M304.898 450H306.586V445.25C306.586 443.953 307.352 443.094 308.602 443.094C309.789 443.094 310.398 443.82 310.398 445.031V450H312.094V444.703C312.094 442.844 311.016 441.641 309.211 441.641C307.961 441.641 307.062 442.195 306.609 443.156H306.57V438.727H304.898V450ZM314.219 439.836V441.781H313.023V443.117H314.219V447.836C314.219 449.422 314.867 450.055 316.531 450.055C316.906 450.055 317.281 450.023 317.469 449.977V448.641C317.359 448.664 317.086 448.68 316.914 448.68C316.227 448.68 315.914 448.359 315.914 447.648V443.117H317.477V441.781H315.914V439.836H314.219ZM319.359 439.836V441.781H318.164V443.117H319.359V447.836C319.359 449.422 320.008 450.055 321.672 450.055C322.047 450.055 322.422 450.023 322.609 449.977V448.641C322.5 448.664 322.227 448.68 322.055 448.68C321.367 448.68 321.055 448.359 321.055 447.648V443.117H322.617V441.781H321.055V439.836H319.359ZM328.289 441.648C327.102 441.648 326.156 442.25 325.672 443.195H325.641V441.781H324.008V452.719H325.695V448.648H325.734C326.203 449.562 327.141 450.141 328.32 450.141C330.383 450.141 331.75 448.492 331.75 445.891C331.75 443.289 330.375 441.648 328.289 441.648ZM327.844 448.711C326.547 448.711 325.688 447.602 325.688 445.891C325.688 444.195 326.555 443.07 327.844 443.07C329.18 443.07 330.016 444.172 330.016 445.891C330.016 447.617 329.18 448.711 327.844 448.711ZM332.906 444.109C332.906 445.258 333.656 446.031 335.141 446.391L336.609 446.75C337.469 446.969 337.781 447.258 337.781 447.781C337.781 448.445 337.156 448.867 336.141 448.867C335.109 448.867 334.5 448.43 334.367 447.641H332.695C332.828 449.148 334.117 450.156 336.062 450.156C338.078 450.156 339.477 449.125 339.477 447.625C339.477 446.414 338.852 445.789 337.195 445.391L335.812 445.07C334.961 444.859 334.555 444.516 334.555 444.008C334.555 443.359 335.164 442.914 336.078 442.914C337.023 442.914 337.625 443.375 337.703 444.117H339.289C339.234 442.656 337.953 441.633 336.125 441.633C334.203 441.633 332.906 442.641 332.906 444.109ZM342.055 450.086C342.625 450.086 343.078 449.633 343.078 449.062C343.078 448.492 342.625 448.039 342.055 448.039C341.484 448.039 341.031 448.492 341.031 449.062C341.031 449.633 341.484 450.086 342.055 450.086ZM342.055 444.391C342.625 444.391 343.078 443.945 343.078 443.367C343.078 442.797 342.625 442.344 342.055 442.344C341.484 442.344 341.031 442.797 341.031 443.367C341.031 443.945 341.484 444.391 342.055 444.391ZM355.836 441.781H354.164L352.664 448.25H352.625L350.906 441.781H349.281L347.57 448.25H347.539L346.039 441.781H344.352L346.609 450H348.352L350.062 443.844H350.102L351.828 450H353.586L355.836 441.781ZM367.711 441.781H366.039L364.539 448.25H364.5L362.781 441.781H361.156L359.445 448.25H359.414L357.914 441.781H356.227L358.484 450H360.227L361.938 443.844H361.977L363.703 450H365.461L367.711 441.781ZM379.586 441.781H377.914L376.414 448.25H376.375L374.656 441.781H373.031L371.32 448.25H371.289L369.789 441.781H368.102L370.359 450H372.102L373.812 443.844H373.852L375.578 450H377.336L379.586 441.781ZM380.945 450.086C381.516 450.086 381.969 449.633 381.969 449.062C381.969 448.492 381.516 448.039 380.945 448.039C380.375 448.039 379.922 448.492 379.922 449.062C379.922 449.633 380.375 450.086 380.945 450.086ZM383.555 453.062C385.266 453.062 386.07 452.422 386.773 450.43L389.859 441.781H388.078L385.992 448.469H385.969L383.883 441.781H382.055L385.023 450.008C385.023 450.016 384.875 450.5 384.875 450.516C384.617 451.359 384.203 451.688 383.414 451.688C383.273 451.688 382.992 451.688 382.867 451.656V453.023C382.992 453.047 383.422 453.062 383.555 453.062ZM394.148 450.156C396.5 450.156 398.047 448.539 398.047 445.891C398.047 443.25 396.492 441.633 394.148 441.633C391.805 441.633 390.25 443.25 390.25 445.891C390.25 448.539 391.797 450.156 394.148 450.156ZM394.148 448.766C392.828 448.766 391.969 447.719 391.969 445.891C391.969 444.07 392.828 443.023 394.148 443.023C395.469 443.023 396.328 444.07 396.328 445.891C396.328 447.719 395.477 448.766 394.148 448.766ZM406.398 441.781H404.711V446.57C404.711 447.852 403.977 448.695 402.758 448.695C401.594 448.695 401 448.023 401 446.773V441.781H399.312V447.102C399.312 448.984 400.406 450.148 402.195 450.148C403.453 450.148 404.289 449.594 404.742 448.609H404.781V450H406.398V441.781ZM408.562 439.836V441.781H407.367V443.117H408.562V447.836C408.562 449.422 409.211 450.055 410.875 450.055C411.25 450.055 411.625 450.023 411.812 449.977V448.641C411.703 448.664 411.43 448.68 411.258 448.68C410.57 448.68 410.258 448.359 410.258 447.648V443.117H411.82V441.781H410.258V439.836H408.562ZM420.258 441.781H418.57V446.57C418.57 447.852 417.836 448.695 416.617 448.695C415.453 448.695 414.859 448.023 414.859 446.773V441.781H413.172V447.102C413.172 448.984 414.266 450.148 416.055 450.148C417.312 450.148 418.148 449.594 418.602 448.609H418.641V450H420.258V441.781ZM426.305 450.141C428.391 450.141 429.734 448.5 429.734 445.891C429.734 443.289 428.383 441.648 426.312 441.648C425.148 441.648 424.211 442.227 423.719 443.18H423.68V438.727H421.992V450H423.633V448.602H423.664C424.172 449.555 425.102 450.141 426.305 450.141ZM425.852 443.07C427.18 443.07 428 444.164 428 445.891C428 447.633 427.18 448.711 425.852 448.711C424.57 448.711 423.672 447.602 423.672 445.891C423.672 444.195 424.57 443.07 425.852 443.07ZM434.492 442.992C435.672 442.992 436.469 443.875 436.508 445.133H432.398C432.484 443.891 433.312 442.992 434.492 442.992ZM436.5 447.586C436.273 448.305 435.562 448.789 434.602 448.789C433.25 448.789 432.391 447.844 432.391 446.414V446.312H438.195V445.734C438.195 443.242 436.773 441.633 434.492 441.633C432.172 441.633 430.688 443.352 430.688 445.93C430.688 448.523 432.148 450.156 434.562 450.156C436.445 450.156 437.867 449.086 438.102 447.586H436.5ZM440.172 452.406L444.172 438.727H442.672L438.672 452.406H440.172ZM452.031 444.609C451.883 442.992 450.594 441.633 448.477 441.633C446.141 441.633 444.609 443.281 444.609 445.891C444.609 448.547 446.141 450.156 448.492 450.156C450.469 450.156 451.867 448.969 452.047 447.219H450.422C450.227 448.172 449.547 448.742 448.508 448.742C447.195 448.742 446.328 447.695 446.328 445.891C446.328 444.125 447.188 443.039 448.492 443.039C449.594 443.039 450.25 443.734 450.422 444.609H452.031ZM456.117 448.805C455.211 448.805 454.617 448.336 454.617 447.617C454.617 446.914 455.188 446.469 456.195 446.398L458.219 446.273V446.922C458.219 447.992 457.297 448.805 456.117 448.805ZM455.648 450.141C456.727 450.141 457.766 449.562 458.242 448.648H458.281V450H459.898V444.336C459.898 442.688 458.625 441.633 456.633 441.633C454.602 441.633 453.336 442.727 453.242 444.211H454.836C454.984 443.477 455.594 443.008 456.57 443.008C457.602 443.008 458.219 443.555 458.219 444.469V445.102L455.969 445.234C454.016 445.344 452.914 446.227 452.914 447.664C452.914 449.141 454.039 450.141 455.648 450.141ZM461.539 450H463.227V445.211C463.227 443.938 463.992 443.094 465.18 443.094C466.352 443.094 466.93 443.773 466.93 445.008V450H468.625V444.68C468.625 442.797 467.586 441.641 465.773 441.641C464.508 441.641 463.633 442.219 463.188 443.156H463.148V441.781H461.539V450ZM477.312 444.609C477.164 442.992 475.875 441.633 473.758 441.633C471.422 441.633 469.891 443.281 469.891 445.891C469.891 448.547 471.422 450.156 473.773 450.156C475.75 450.156 477.148 448.969 477.328 447.219H475.703C475.508 448.172 474.828 448.742 473.789 448.742C472.477 448.742 471.609 447.695 471.609 445.891C471.609 444.125 472.469 443.039 473.773 443.039C474.875 443.039 475.531 443.734 475.703 444.609H477.312ZM481.398 448.805C480.492 448.805 479.898 448.336 479.898 447.617C479.898 446.914 480.469 446.469 481.477 446.398L483.5 446.273V446.922C483.5 447.992 482.578 448.805 481.398 448.805ZM480.93 450.141C482.008 450.141 483.047 449.562 483.523 448.648H483.562V450H485.18V444.336C485.18 442.688 483.906 441.633 481.914 441.633C479.883 441.633 478.617 442.727 478.523 444.211H480.117C480.266 443.477 480.875 443.008 481.852 443.008C482.883 443.008 483.5 443.555 483.5 444.469V445.102L481.25 445.234C479.297 445.344 478.195 446.227 478.195 447.664C478.195 449.141 479.32 450.141 480.93 450.141ZM486.672 444.109C486.672 445.258 487.422 446.031 488.906 446.391L490.375 446.75C491.234 446.969 491.547 447.258 491.547 447.781C491.547 448.445 490.922 448.867 489.906 448.867C488.875 448.867 488.266 448.43 488.133 447.641H486.461C486.594 449.148 487.883 450.156 489.828 450.156C491.844 450.156 493.242 449.125 493.242 447.625C493.242 446.414 492.617 445.789 490.961 445.391L489.578 445.07C488.727 444.859 488.32 444.516 488.32 444.008C488.32 443.359 488.93 442.914 489.844 442.914C490.789 442.914 491.391 443.375 491.469 444.117H493.055C493 442.656 491.719 441.633 489.891 441.633C487.969 441.633 486.672 442.641 486.672 444.109ZM505.398 441.781H503.727L502.227 448.25H502.188L500.469 441.781H498.844L497.133 448.25H497.102L495.602 441.781H493.914L496.172 450H497.914L499.625 443.844H499.664L501.391 450H503.148L505.398 441.781ZM506.484 450H508.172V441.781H506.484V450ZM507.328 440.578C507.875 440.578 508.312 440.148 508.312 439.617C508.312 439.078 507.875 438.648 507.328 438.648C506.789 438.648 506.352 439.078 506.352 439.617C506.352 440.148 506.789 440.578 507.328 440.578ZM510.391 439.836V441.781H509.195V443.117H510.391V447.836C510.391 449.422 511.039 450.055 512.703 450.055C513.078 450.055 513.453 450.023 513.641 449.977V448.641C513.531 448.664 513.258 448.68 513.086 448.68C512.398 448.68 512.086 448.359 512.086 447.648V443.117H513.648V441.781H512.086V439.836H510.391ZM521.891 444.609C521.742 442.992 520.453 441.633 518.336 441.633C516 441.633 514.469 443.281 514.469 445.891C514.469 448.547 516 450.156 518.352 450.156C520.328 450.156 521.727 448.969 521.906 447.219H520.281C520.086 448.172 519.406 448.742 518.367 448.742C517.055 448.742 516.188 447.695 516.188 445.891C516.188 444.125 517.047 443.039 518.352 443.039C519.453 443.039 520.109 443.734 520.281 444.609H521.891ZM523.164 450H524.852V445.25C524.852 443.953 525.617 443.094 526.867 443.094C528.055 443.094 528.664 443.82 528.664 445.031V450H530.359V444.703C530.359 442.844 529.281 441.641 527.477 441.641C526.227 441.641 525.328 442.195 524.875 443.156H524.836V438.727H523.164V450ZM531.586 441.75H533.203C533.273 440.719 533.969 440.07 535.047 440.07C536.117 440.07 536.812 440.719 536.812 441.602C536.812 442.406 536.477 442.859 535.531 443.43C534.461 444.07 533.984 444.773 534.023 445.875L534.031 446.5H535.648V446.023C535.648 445.219 535.938 444.805 536.945 444.211C537.977 443.594 538.586 442.742 538.586 441.531C538.586 439.859 537.195 438.633 535.133 438.633C532.867 438.633 531.656 439.977 531.586 441.75ZM534.852 450.117C535.438 450.117 535.883 449.68 535.883 449.109C535.883 448.539 535.438 448.102 534.852 448.102C534.281 448.102 533.828 448.539 533.828 449.109C533.828 449.68 534.281 450.117 534.852 450.117ZM544.461 450.141C546.547 450.141 547.891 448.5 547.891 445.891C547.891 443.289 546.539 441.648 544.469 441.648C543.305 441.648 542.367 442.227 541.875 443.18H541.836V438.727H540.148V450H541.789V448.602H541.82C542.328 449.555 543.258 450.141 544.461 450.141ZM544.008 443.07C545.336 443.07 546.156 444.164 546.156 445.891C546.156 447.633 545.336 448.711 544.008 448.711C542.727 448.711 541.828 447.602 541.828 445.891C541.828 444.195 542.727 443.07 544.008 443.07ZM550.953 441.781H549.266V450.383C549.266 451.211 548.953 451.523 548.117 451.523C548.086 451.523 547.906 451.516 547.875 451.516V452.844C547.922 452.859 548.188 452.859 548.266 452.859C550.086 452.859 550.953 452.062 550.953 450.391V441.781ZM550.109 440.578C550.656 440.578 551.094 440.148 551.094 439.617C551.094 439.078 550.656 438.648 550.109 438.648C549.57 438.648 549.133 439.078 549.133 439.617C549.133 440.148 549.57 440.578 550.109 440.578ZM553.172 450H554.867V443.117H556.508V441.797H554.844V441.023C554.844 440.297 555.188 439.93 555.922 439.93C556.148 439.93 556.375 439.945 556.539 439.977V438.727C556.32 438.688 555.938 438.648 555.594 438.648C553.922 438.648 553.172 439.398 553.172 440.992V441.797H552.039V443.117H553.172V450ZM558.328 450H560.023V443.117H561.664V441.797H560V441.023C560 440.297 560.344 439.93 561.078 439.93C561.305 439.93 561.531 439.945 561.695 439.977V438.727C561.477 438.688 561.094 438.648 560.75 438.648C559.078 438.648 558.328 439.398 558.328 440.992V441.797H557.195V443.117H558.328V450ZM562.992 450H564.68V445.211C564.68 443.938 565.445 443.094 566.633 443.094C567.805 443.094 568.383 443.773 568.383 445.008V450H570.078V444.68C570.078 442.797 569.039 441.641 567.227 441.641C565.961 441.641 565.086 442.219 564.641 443.156H564.602V441.781H562.992V450ZM575.148 442.992C576.328 442.992 577.125 443.875 577.164 445.133H573.055C573.141 443.891 573.969 442.992 575.148 442.992ZM577.156 447.586C576.93 448.305 576.219 448.789 575.258 448.789C573.906 448.789 573.047 447.844 573.047 446.414V446.312H578.852V445.734C578.852 443.242 577.43 441.633 575.148 441.633C572.828 441.633 571.344 443.352 571.344 445.93C571.344 448.523 572.805 450.156 575.219 450.156C577.102 450.156 578.523 449.086 578.758 447.586H577.156ZM580.656 450H582.352V443.117H583.992V441.797H582.328V441.023C582.328 440.297 582.672 439.93 583.406 439.93C583.633 439.93 583.859 439.945 584.023 439.977V438.727C583.805 438.688 583.422 438.648 583.078 438.648C581.406 438.648 580.656 439.398 580.656 440.992V441.797H579.523V443.117H580.656V450ZM585.375 450H587.062V441.781H585.375V450ZM586.219 440.578C586.766 440.578 587.203 440.148 587.203 439.617C587.203 439.078 586.766 438.648 586.219 438.648C585.68 438.648 585.242 439.078 585.242 439.617C585.242 440.148 585.68 440.578 586.219 440.578ZM590.555 445.305H590.539V438.727H588.852V450H590.539V447.047L591.242 446.352L594.031 450H595.992L592.453 445.32L595.859 441.781H593.875L590.555 445.305ZM596.867 450H598.555V445.078C598.555 443.914 599.227 443.188 600.312 443.188C600.641 443.188 600.938 443.227 601.07 443.281V441.711C600.945 441.688 600.734 441.648 600.492 441.648C599.523 441.648 598.789 442.219 598.516 443.18H598.477V441.781H596.867V450Z" fill="#50505C"/>
<rect x="292.25" y="423.25" width="418.5" height="41.5" rx="9.75" stroke="white" stroke-width="0.5"/>
<g filter="url(#filter2_d_9_160)">
<rect x="667.325" y="254.592" width="44" height="44" rx="5" transform="rotate(-17.5488 667.325 254.592)" fill="url(#paint5_linear_9_160)"/>
<path d="M671.197 259.837L681.152 290.496C681.288 290.915 681.121 291.374 680.747 291.608C680.212 291.942 679.507 291.683 679.318 291.081C675.92 280.207 669.213 260.403 668.599 258.513C667.982 256.611 669.022 253.531 671.406 252.629L704.316 242.071C707.061 241.407 708.876 242.266 709.989 243.665C710.254 243.998 710.423 244.395 710.55 244.801L720.856 277.679C720.954 277.992 720.829 278.333 720.55 278.507C720.147 278.759 719.616 278.562 719.478 278.108C716.223 267.433 710.018 247.416 709.193 246.097C708.515 245.013 707.295 244.669 706.454 244.611C706.09 244.586 705.739 244.669 705.392 244.782C695.411 248.025 675.804 254.471 673.262 255.597C670.676 256.742 670.808 258.901 671.197 259.837Z" fill="url(#paint6_linear_9_160)"/>
<path d="M685.429 268.135L684.422 268.456C684.27 268.185 684.085 267.964 683.866 267.792C683.65 267.619 683.413 267.492 683.154 267.411C682.898 267.325 682.63 267.285 682.352 267.291C682.073 267.296 681.796 267.342 681.519 267.43C681.016 267.591 680.6 267.863 680.273 268.248C679.948 268.631 679.743 269.109 679.66 269.681C679.58 270.253 679.654 270.898 679.883 271.618C680.112 272.338 680.425 272.908 680.821 273.328C681.22 273.746 681.662 274.018 682.15 274.144C682.639 274.268 683.136 274.25 683.639 274.09C683.916 274.002 684.169 273.879 684.399 273.723C684.629 273.566 684.825 273.38 684.986 273.164C685.149 272.946 685.269 272.703 685.345 272.438C685.423 272.168 685.447 271.88 685.415 271.575L686.422 271.254C686.481 271.703 686.464 272.127 686.371 272.527C686.277 272.926 686.119 273.291 685.896 273.622C685.673 273.949 685.395 274.233 685.063 274.473C684.733 274.712 684.359 274.898 683.939 275.032C683.23 275.257 682.544 275.285 681.882 275.114C681.219 274.944 680.628 274.589 680.108 274.051C679.588 273.513 679.188 272.806 678.909 271.928C678.629 271.051 678.547 270.243 678.66 269.503C678.773 268.764 679.051 268.133 679.493 267.61C679.935 267.088 680.51 266.714 681.22 266.488C681.639 266.355 682.052 266.29 682.459 266.295C682.869 266.299 683.26 266.371 683.633 266.511C684.005 266.649 684.344 266.854 684.652 267.126C684.958 267.396 685.217 267.732 685.429 268.135ZM689.473 266.276L689.732 267.088L686.5 268.117L686.241 267.305L689.473 266.276ZM686.707 265.51L687.666 265.205L689.558 271.15C689.644 271.421 689.748 271.611 689.87 271.722C689.993 271.828 690.125 271.885 690.264 271.891C690.405 271.894 690.546 271.873 690.686 271.828C690.792 271.795 690.877 271.762 690.941 271.729C691.005 271.694 691.055 271.666 691.093 271.645L691.562 272.444C691.505 272.489 691.422 272.542 691.313 272.604C691.206 272.668 691.062 272.728 690.884 272.785C690.613 272.871 690.329 272.898 690.032 272.864C689.738 272.829 689.468 272.72 689.221 272.536C688.978 272.351 688.798 272.078 688.683 271.715L686.707 265.51ZM692.9 272.054L690.915 265.817L691.841 265.522L692.141 266.464L692.205 266.443C692.221 266.098 692.347 265.783 692.584 265.496C692.82 265.209 693.125 265.006 693.499 264.887C693.569 264.864 693.658 264.838 693.764 264.807C693.87 264.776 693.952 264.754 694.007 264.743L694.318 265.717C694.283 265.719 694.204 265.731 694.083 265.752C693.963 265.769 693.84 265.798 693.712 265.838C693.409 265.935 693.159 266.085 692.961 266.288C692.765 266.487 692.633 266.72 692.566 266.986C692.501 267.248 692.513 267.52 692.602 267.802L693.859 271.749L692.9 272.054ZM695.466 262.078L698.113 270.394L697.155 270.699L694.507 262.383L695.466 262.078ZM708.086 260.923L707.079 261.243C706.927 260.973 706.742 260.751 706.523 260.579C706.307 260.407 706.07 260.279 705.811 260.198C705.555 260.113 705.287 260.073 705.008 260.078C704.73 260.083 704.453 260.129 704.176 260.217C703.673 260.378 703.257 260.65 702.93 261.035C702.604 261.418 702.4 261.896 702.317 262.468C702.237 263.04 702.311 263.685 702.54 264.405C702.769 265.125 703.082 265.695 703.478 266.115C703.877 266.534 704.319 266.805 704.806 266.931C705.296 267.055 705.793 267.037 706.296 266.877C706.573 266.789 706.826 266.666 707.056 266.51C707.286 266.353 707.482 266.167 707.643 265.952C707.806 265.733 707.926 265.49 708.002 265.225C708.08 264.955 708.103 264.668 708.072 264.362L709.079 264.041C709.138 264.49 709.121 264.915 709.028 265.314C708.934 265.713 708.776 266.078 708.553 266.409C708.33 266.736 708.052 267.02 707.72 267.26C707.39 267.499 707.016 267.685 706.596 267.819C705.887 268.045 705.201 268.072 704.539 267.901C703.876 267.731 703.285 267.376 702.765 266.838C702.245 266.3 701.845 265.593 701.566 264.716C701.286 263.839 701.203 263.03 701.317 262.29C701.43 261.551 701.708 260.92 702.15 260.397C702.592 259.875 703.167 259.501 703.877 259.275C704.296 259.142 704.709 259.077 705.116 259.082C705.526 259.086 705.917 259.158 706.29 259.299C706.662 259.437 707.001 259.642 707.308 259.913C707.615 260.183 707.874 260.519 708.086 260.923Z" fill="#D9D9D9"/>
</g>
<g filter="url(#filter3_d_9_160)">
<rect x="711.999" y="260" width="44" height="44" rx="5" transform="rotate(14.4762 711.999 260)" fill="url(#paint7_linear_9_160)"/>
<path d="M712.5 266.5L704.682 297.772C704.575 298.2 704.191 298.5 703.75 298.5C703.119 298.5 702.658 297.906 702.818 297.296C705.702 286.274 710.518 265.927 711 264C711.485 262.06 714 260 716.5 260.5L750 269C752.679 269.893 753.763 271.584 753.965 273.36C754.012 273.783 753.946 274.209 753.838 274.621L745.141 307.96C745.058 308.278 744.771 308.5 744.442 308.5C743.967 308.5 743.621 308.052 743.745 307.593C746.646 296.817 752 276.555 752 275C752 273.721 751.148 272.783 750.466 272.288C750.171 272.074 749.829 271.957 749.475 271.869C739.294 269.326 719.252 264.393 716.5 264C713.7 263.6 712.667 265.5 712.5 266.5Z" fill="url(#paint8_linear_9_160)"/>
<path d="M720.516 284.963L719.505 284.655C719.534 284.346 719.507 284.059 719.424 283.793C719.345 283.529 719.221 283.289 719.055 283.075C718.892 282.859 718.694 282.674 718.462 282.52C718.23 282.367 717.975 282.247 717.698 282.163C717.192 282.009 716.696 281.997 716.207 282.128C715.722 282.259 715.283 282.537 714.889 282.96C714.499 283.385 714.193 283.959 713.973 284.682C713.753 285.404 713.687 286.051 713.775 286.621C713.865 287.192 714.075 287.667 714.405 288.047C714.738 288.427 715.157 288.695 715.662 288.849C715.939 288.933 716.217 288.976 716.496 288.978C716.775 288.979 717.041 288.937 717.296 288.852C717.554 288.764 717.791 288.632 718.004 288.457C718.222 288.28 718.404 288.056 718.552 287.786L719.563 288.094C719.357 288.497 719.102 288.837 718.798 289.113C718.494 289.389 718.157 289.599 717.786 289.745C717.416 289.887 717.026 289.963 716.616 289.972C716.21 289.982 715.796 289.923 715.374 289.794C714.662 289.578 714.082 289.211 713.633 288.694C713.185 288.177 712.899 287.55 712.777 286.812C712.654 286.074 712.727 285.264 712.995 284.384C713.263 283.503 713.654 282.791 714.167 282.246C714.68 281.701 715.267 281.34 715.927 281.161C716.588 280.982 717.274 281 717.986 281.217C718.407 281.345 718.784 281.527 719.116 281.762C719.451 281.998 719.732 282.279 719.959 282.607C720.187 282.931 720.35 283.293 720.449 283.691C720.548 284.087 720.571 284.511 720.516 284.963ZM724.901 285.728L724.653 286.544L721.408 285.556L721.656 284.74L724.901 285.728ZM723.059 283.528L724.021 283.821L722.204 289.789C722.121 290.061 722.098 290.277 722.136 290.437C722.177 290.595 722.253 290.716 722.364 290.8C722.478 290.882 722.606 290.945 722.747 290.988C722.853 291.02 722.942 291.041 723.013 291.051C723.085 291.058 723.143 291.064 723.186 291.068L723.119 291.992C723.046 291.997 722.947 291.993 722.823 291.982C722.698 291.974 722.546 291.942 722.366 291.888C722.095 291.805 721.846 291.665 721.621 291.469C721.398 291.274 721.238 291.03 721.139 290.739C721.044 290.448 721.051 290.121 721.162 289.757L723.059 283.528ZM724.442 292.431L726.348 286.169L727.278 286.452L726.99 287.398L727.055 287.418C727.264 287.142 727.547 286.954 727.904 286.852C728.262 286.75 728.628 286.756 729.003 286.87C729.074 286.892 729.162 286.92 729.267 286.955C729.372 286.99 729.451 287.019 729.504 287.041L729.206 288.019C729.176 288.001 729.105 287.966 728.993 287.914C728.885 287.86 728.767 287.814 728.639 287.775C728.334 287.682 728.043 287.663 727.765 287.718C727.491 287.771 727.25 287.888 727.044 288.069C726.841 288.248 726.696 288.478 726.61 288.761L725.404 292.723L724.442 292.431ZM732.217 285.675L729.675 294.024L728.713 293.731L731.255 285.382L732.217 285.675ZM737.681 287.339L738.019 295.121L738.117 295.151L742.736 288.878L743.796 289.201L738.188 296.616L737.144 296.298L736.621 287.016L737.681 287.339Z" fill="#D9D9D9"/>
</g>
<defs>
<filter id="filter0_f_9_160" x="0" y="137" width="616" height="616" filterUnits="userSpaceOnUse" color-interpolation-filters="sRGB">
<feFlood flood-opacity="0" result="BackgroundImageFix"/>
<feBlend mode="normal" in="SourceGraphic" in2="BackgroundImageFix" result="shape"/>
<feGaussianBlur stdDeviation="100" result="effect1_foregroundBlur_9_160"/>
</filter>
<filter id="filter1_f_9_160" x="369" y="0" width="616" height="616" filterUnits="userSpaceOnUse" color-interpolation-filters="sRGB">
<feFlood flood-opacity="0" result="BackgroundImageFix"/>
<feBlend mode="normal" in="SourceGraphic" in2="BackgroundImageFix" result="shape"/>
<feGaussianBlur stdDeviation="100" result="effect1_foregroundBlur_9_160"/>
</filter>
<filter id="filter2_d_9_160" x="650.53" y="232" width="88.8091" height="88.8091" filterUnits="userSpaceOnUse" color-interpolation-filters="sRGB">
<feFlood flood-opacity="0" result="BackgroundImageFix"/>
<feColorMatrix in="SourceAlpha" type="matrix" values="0 0 0 0 0 0 0 0 0 0 0 0 0 0 0 0 0 0 127 0" result="hardAlpha"/>
<feOffset dy="7.46988"/>
<feGaussianBlur stdDeviation="3.73494"/>
<feComposite in2="hardAlpha" operator="out"/>
<feColorMatrix type="matrix" values="0 0 0 0 0 0 0 0 0 0 0 0 0 0 0 0 0 0 0.25 0"/>
<feBlend mode="normal" in2="BackgroundImageFix" result="effect1_dropShadow_9_160"/>
<feBlend mode="normal" in="SourceGraphic" in2="effect1_dropShadow_9_160" result="shape"/>
</filter>
<filter id="filter3_d_9_160" x="693.53" y="260" width="68.5419" height="68.5419" filterUnits="userSpaceOnUse" color-interpolation-filters="sRGB">
<feFlood flood-opacity="0" result="BackgroundImageFix"/>
<feColorMatrix in="SourceAlpha" type="matrix" values="0 0 0 0 0 0 0 0 0 0 0 0 0 0 0 0 0 0 127 0" result="hardAlpha"/>
<feOffset dy="7.46988"/>
<feGaussianBlur stdDeviation="3.73494"/>
<feComposite in2="hardAlpha" operator="out"/>
<feColorMatrix type="matrix" values="0 0 0 0 0 0 0 0 0 0 0 0 0 0 0 0 0 0 0.25 0"/>
<feBlend mode="normal" in2="BackgroundImageFix" result="effect1_dropShadow_9_160"/>
<feBlend mode="normal" in="SourceGraphic" in2="effect1_dropShadow_9_160" result="shape"/>
</filter>
<linearGradient id="paint0_linear_9_160" x1="430" y1="239.17" x2="461.935" y2="239.17" gradientUnits="userSpaceOnUse">
<stop stop-color="#7978F6"/>
<stop offset="0.507385" stop-color="#8079AB"/>
<stop offset="1" stop-color="#D3B2E5"/>
</linearGradient>
<linearGradient id="paint1_linear_9_160" x1="479.353" y1="250.053" x2="564.179" y2="240.262" gradientUnits="userSpaceOnUse">
<stop stop-color="#BBBFC0"/>
<stop offset="1" stop-color="#7B7C80"/>
</linearGradient>
<linearGradient id="paint2_linear_9_160" x1="397.716" y1="326.23" x2="552.235" y2="315.348" gradientUnits="userSpaceOnUse">
<stop stop-color="#F9F6F6"/>
<stop offset="1" stop-color="#9E9FA5"/>
</linearGradient>
<linearGradient id="paint3_linear_9_160" x1="265.064" y1="503.571" x2="711" y2="503.571" gradientUnits="userSpaceOnUse">
<stop stop-color="#4C497E"/>
<stop offset="0.0885417" stop-color="#9E9DFC"/>
<stop offset="0.233923" stop-color="#9494FE"/>
<stop offset="0.563354" stop-color="#B7AAFA"/>
<stop offset="1" stop-color="#C7BFFA"/>
</linearGradient>
<linearGradient id="paint4_linear_9_160" x1="501.5" y1="423" x2="501.5" y2="465" gradientUnits="userSpaceOnUse">
<stop offset="0.0256434" stop-color="#181822"/>
<stop offset="0.890742" stop-color="#202028"/>
</linearGradient>
<linearGradient id="paint5_linear_9_160" x1="688.818" y1="273.83" x2="704.875" y2="296.021" gradientUnits="userSpaceOnUse">
<stop stop-color="#1C1C28"/>
<stop offset="1" stop-color="#24242E"/>
</linearGradient>
<linearGradient id="paint6_linear_9_160" x1="681.328" y1="246.334" x2="698.551" y2="278.113" gradientUnits="userSpaceOnUse">
<stop stop-color="#50505C"/>
<stop offset="1" stop-color="#50505C" stop-opacity="0"/>
</linearGradient>
<linearGradient id="paint7_linear_9_160" x1="733.491" y1="279.238" x2="749.548" y2="301.429" gradientUnits="userSpaceOnUse">
<stop stop-color="#1C1C28"/>
<stop offset="1" stop-color="#24242E"/>
</linearGradient>
<linearGradient id="paint8_linear_9_160" x1="728.25" y1="260.424" x2="726" y2="296.5" gradientUnits="userSpaceOnUse">
<stop stop-color="#50505C"/>
<stop offset="1" stop-color="#50505C" stop-opacity="0"/>
</linearGradient>
<clipPath id="clip0_9_160">
<rect x="432" y="225" width="26" height="29" rx="6.51056" fill="white"/>
</clipPath>
</defs>
</svg>
