<svg width="137" height="143" viewBox="0 0 137 143" fill="none" xmlns="http://www.w3.org/2000/svg">
<g filter="url(#filter0_d_2_201)">
<path fill-rule="evenodd" clip-rule="evenodd" d="M58.1113 24.7259C56.9735 24.1319 55.6508 23.9982 54.4171 24.3526L25.2314 32.7353C22.5773 33.4976 21.0437 36.2672 21.806 38.9213L45.3386 120.854C46.1009 123.508 48.8705 125.041 51.5246 124.279L120.238 104.543C122.892 103.781 124.426 101.011 123.663 98.3573L110.939 54.0559C110.561 52.7404 109.661 51.6372 108.447 51.0038L58.1113 24.7259Z" fill="#2F3034"/>
<path fill-rule="evenodd" clip-rule="evenodd" d="M58.5377 26.4365C57.3999 25.8425 56.0772 25.7088 54.8435 26.0631L26.9472 34.0755C24.2931 34.8378 22.7595 37.6074 23.5218 40.2615L46.1104 118.907C46.8728 121.561 49.6423 123.095 52.2964 122.333L118.198 103.404C120.852 102.642 122.385 99.8725 121.623 97.2184L109.426 54.7541C109.049 53.4386 108.148 52.3355 106.935 51.7021L58.5377 26.4365Z" fill="url(#paint0_linear_2_201)"/>
<path d="M71.7088 78.227L69.1499 67.2478L67.1717 67.7089L65.6459 77.2014L65.585 77.2156L60.012 69.3776L58.0414 69.8369L60.6003 80.8161L62.1524 80.4543L60.2692 72.374L60.3224 72.3616L65.5035 79.585L66.7666 79.2907L68.2125 70.5227L68.2658 70.5102L70.1491 78.5906L71.7088 78.227ZM71.1738 66.7761L73.7327 77.7553L75.437 77.3581L74.5628 73.6071L76.9214 73.0573C79.0747 72.5555 80.2447 70.7265 79.7447 68.5809C79.2464 66.4429 77.4205 65.3203 75.29 65.8168L71.1738 66.7761ZM73.2133 67.8169L75.1763 67.3594C76.6524 67.0154 77.6813 67.6099 78.0041 68.9946C78.3268 70.3794 77.6685 71.3751 76.1848 71.7209L74.2294 72.1767L73.2133 67.8169ZM87.9684 74.4375L89.6042 74.0562L89.0988 71.8878L90.6053 71.5366L90.2719 70.1062L88.7654 70.4573L87.0453 63.077L84.5801 63.6516C82.9408 67.8039 82.1523 70.0654 81.622 72.0581L81.9696 73.5493L87.463 72.269L87.9684 74.4375ZM83.2228 71.7331C83.7272 69.939 84.439 67.9681 85.701 64.7781L85.7315 64.771L87.1501 70.8579L83.2317 71.7711L83.2228 71.7331Z" fill="#B4B5B9"/>
</g>
<defs>
<filter id="filter0_d_2_201" x="-7.46988" y="0" width="151.349" height="157.842" filterUnits="userSpaceOnUse" color-interpolation-filters="sRGB">
<feFlood flood-opacity="0" result="BackgroundImageFix"/>
<feColorMatrix in="SourceAlpha" type="matrix" values="0 0 0 0 0 0 0 0 0 0 0 0 0 0 0 0 0 0 127 0" result="hardAlpha"/>
<feOffset dy="7.46988"/>
<feGaussianBlur stdDeviation="3.73494"/>
<feComposite in2="hardAlpha" operator="out"/>
<feColorMatrix type="matrix" values="0 0 0 0 0 0 0 0 0 0 0 0 0 0 0 0 0 0 0.25 0"/>
<feBlend mode="normal" in2="BackgroundImageFix" result="effect1_dropShadow_2_201"/>
<feBlend mode="normal" in="SourceGraphic" in2="effect1_dropShadow_2_201" result="shape"/>
</filter>
<linearGradient id="paint0_linear_2_201" x1="55.1404" y1="30.4752" x2="81.7011" y2="114.032" gradientUnits="userSpaceOnUse">
<stop stop-color="#101115"/>
<stop offset="1" stop-color="#24272E"/>
</linearGradient>
</defs>
</svg>
