<svg width="222" height="39" viewBox="0 0 222 39" fill="none" xmlns="http://www.w3.org/2000/svg">
<g filter="url(#filter0_d_2_189)">
<rect x="5" y="1" width="212" height="29" rx="9" fill="#0D0E12" stroke="#17181C" stroke-width="2"/>
<path d="M16.7949 19H18.0781V10.5449H16.7832L14.5566 12.127V13.416L16.7656 11.8457H16.7949V19ZM24.1602 19H25.4199V17.3301H26.5801V16.2285H25.4199V10.5449H23.5215C21.6172 13.2988 20.6562 14.8164 19.9297 16.1816V17.3301H24.1602V19ZM21.1543 16.2168C21.8281 14.9922 22.6836 13.6738 24.1484 11.5586H24.1719V16.2461H21.1543V16.2168ZM31.6133 19H32.873V17.3301H34.0332V16.2285H32.873V10.5449H30.9746C29.0703 13.2988 28.1094 14.8164 27.3828 16.1816V17.3301H31.6133V19ZM28.6074 16.2168C29.2812 14.9922 30.1367 13.6738 31.6016 11.5586H31.625V16.2461H28.6074V16.2168ZM38.2285 12.7363C37.3379 12.7363 36.6289 13.1875 36.2656 13.8965H36.2422V12.8359H35.0176V21.0391H36.2832V17.9863H36.3125C36.6641 18.6719 37.3672 19.1055 38.252 19.1055C39.7988 19.1055 40.8242 17.8691 40.8242 15.918C40.8242 13.9668 39.793 12.7363 38.2285 12.7363ZM37.8945 18.0332C36.9219 18.0332 36.2773 17.2012 36.2773 15.918C36.2773 14.6465 36.9277 13.8027 37.8945 13.8027C38.8965 13.8027 39.5234 14.6289 39.5234 15.918C39.5234 17.2129 38.8965 18.0332 37.8945 18.0332Z" fill="#D9D9D9"/>
<path d="M44.8203 10.5449V20.7988H47.3633V20.0078H45.8047V11.3418H47.3633V10.5449H44.8203ZM50.3223 19H51.3418V10.5449H50.3105L48.0605 12.1621V13.2754L50.2988 11.6641H50.3223V19ZM53.9727 19H55.0801L58.8418 11.5234V10.5449H53.2461V11.4824H57.7988V11.5059L53.9727 19ZM62.9902 19.1465C64.7246 19.1465 65.9844 17.9277 65.9844 16.2578C65.9844 14.6523 64.7891 13.4629 63.1777 13.4629C62.1289 13.4629 61.1973 14.0078 60.8164 14.834H60.7988C60.834 12.584 61.6367 11.3301 63.0488 11.3301C63.8867 11.3301 64.5664 11.8223 64.7949 12.5898H65.8672C65.5977 11.2598 64.4961 10.3984 63.0605 10.3984C60.9922 10.3984 59.7793 12.0684 59.7793 14.916C59.7793 15.8301 59.9141 16.5918 60.1953 17.2422C60.7168 18.4609 61.7246 19.1465 62.9902 19.1465ZM62.9785 18.209C61.8945 18.209 61.0508 17.3477 61.0508 16.2637C61.0508 15.1855 61.877 14.3887 62.9961 14.3887C64.1152 14.3887 64.9121 15.1855 64.9121 16.293C64.9121 17.3594 64.0566 18.209 62.9785 18.209ZM71.082 13.8262L71.4629 13.1348L69.9746 12.3848L71.4629 11.623L71.0879 10.9434L69.6582 11.834L69.7168 10.1582H68.9551L69.0137 11.8281L67.5781 10.9434L67.2148 11.623L68.6855 12.3789L67.209 13.1289L67.5723 13.832L69.0137 12.9297L68.9492 14.6113H69.7168L69.6582 12.9297L71.082 13.8262ZM75.0605 19H76.0801V10.5449H75.0488L72.7988 12.1621V13.2754L75.0371 11.6641H75.0605V19ZM82.2441 19H83.2637V17.2422H84.459V16.3164H83.2637V10.5449H81.7051C79.707 13.4102 78.7168 14.9512 77.9961 16.2871V17.2422H82.2441V19ZM79.0391 16.293C79.707 15.1211 80.627 13.709 82.2266 11.4238H82.2441V16.3164H79.0391V16.293ZM89.5098 19H90.5293V17.2422H91.7246V16.3164H90.5293V10.5449H88.9707C86.9727 13.4102 85.9824 14.9512 85.2617 16.2871V17.2422H89.5098V19ZM86.3047 16.293C86.9727 15.1211 87.8926 13.709 89.4922 11.4238H89.5098V16.3164H86.3047V16.293ZM94.8652 15.7422C94.0156 15.8242 93.582 16.2695 93.582 17.125V18.6602C93.582 19.5859 93.2422 19.9727 92.4219 19.9727H92.1875V20.7988H92.5098C93.8867 20.7988 94.543 20.1309 94.543 18.7305V17.4648C94.543 16.5391 94.8594 16.2285 95.8203 16.2285V15.1152C94.8652 15.1152 94.543 14.8047 94.543 13.8672V12.5605C94.543 11.1953 93.8926 10.5449 92.5098 10.5449H92.1875V11.3711H92.4219C93.248 11.3711 93.582 11.752 93.582 12.6895V14.2305C93.582 15.0742 94.0039 15.5137 94.8652 15.6016V15.7422Z" fill="#50505C"/>
<path d="M184.633 12.9824V12.9883H185.652V12.9824C185.652 12.0391 186.402 11.3242 187.393 11.3242C188.324 11.3242 189.068 11.9746 189.068 12.7891C189.068 13.4922 188.799 13.9434 187.662 15.1387L184.686 18.2734V19H190.264V18.0625H186.145V18.0391L188.283 15.8301C189.695 14.3711 190.123 13.668 190.123 12.7246C190.123 11.4297 188.934 10.4043 187.422 10.4043C185.828 10.4043 184.633 11.5059 184.633 12.9824ZM199.949 19V10.5449H198.725L195.807 17.5996H195.76L192.842 10.5449H191.617V19H192.602V12.4844H192.643L195.338 18.9414H196.229L198.924 12.4844H198.965V19H199.949ZM204.461 19.1055C206.02 19.1055 207.051 17.8691 207.051 15.9531C207.051 14.043 206.014 12.8008 204.479 12.8008C203.617 12.8008 202.908 13.2285 202.527 13.9258H202.504V10.5449H201.484V19H202.457V17.9688H202.48C202.873 18.6719 203.57 19.1055 204.461 19.1055ZM204.262 13.6973C205.34 13.6973 206.008 14.5703 206.008 15.9531C206.008 17.3477 205.34 18.209 204.262 18.209C203.23 18.209 202.498 17.3125 202.498 15.9531C202.498 14.5996 203.23 13.6973 204.262 13.6973Z" fill="#50505C"/>
</g>
<defs>
<filter id="filter0_d_2_189" x="0" y="0" width="222" height="39" filterUnits="userSpaceOnUse" color-interpolation-filters="sRGB">
<feFlood flood-opacity="0" result="BackgroundImageFix"/>
<feColorMatrix in="SourceAlpha" type="matrix" values="0 0 0 0 0 0 0 0 0 0 0 0 0 0 0 0 0 0 127 0" result="hardAlpha"/>
<feOffset dy="4"/>
<feGaussianBlur stdDeviation="2"/>
<feComposite in2="hardAlpha" operator="out"/>
<feColorMatrix type="matrix" values="0 0 0 0 0 0 0 0 0 0 0 0 0 0 0 0 0 0 0.25 0"/>
<feBlend mode="normal" in2="BackgroundImageFix" result="effect1_dropShadow_2_189"/>
<feBlend mode="normal" in="SourceGraphic" in2="effect1_dropShadow_2_189" result="shape"/>
</filter>
</defs>
</svg>
