<svg width="172" height="98" viewBox="0 0 172 98" fill="none" xmlns="http://www.w3.org/2000/svg">
<g filter="url(#filter0_d_2_94)">
<path d="M13.7556 9.52967C14.7742 4.32809 19.9134 1.01655 25.0711 2.23826L157.006 33.49C162.161 34.711 165.269 39.9715 163.85 45.0757L155.86 73.8321C154.511 78.6878 149.552 81.5967 144.655 80.4048L15.1327 48.8789C10.2821 47.6983 7.21824 42.9111 8.17768 38.012L13.7556 9.52967Z" fill="#686870"/>
</g>
<g filter="url(#filter1_d_2_94)">
<rect x="17.0085" y="2.24762" width="151.265" height="48.5542" rx="9.33735" transform="rotate(13.3261 17.0085 2.24762)" fill="#0E0F13"/>
</g>
<path d="M32.6579 38.1039L26.5588 36.6269L27.5849 32.39L33.3679 33.7905L33.6989 32.4237L27.9159 31.0233L28.8736 27.0682L34.9727 28.5453L35.3079 27.1614L27.6712 25.3121L24.6861 37.6384L32.3228 39.4878L32.6579 38.1039ZM34.1252 39.9243L35.6115 40.2842L36.8775 35.0564C37.2416 33.553 38.3956 32.7834 39.7965 33.1227C41.1632 33.4537 41.6478 34.403 41.3002 35.8381L39.968 41.3392L41.4543 41.6992L42.8507 35.9332C43.3389 33.9173 42.5154 32.3885 40.5678 31.9169C39.1925 31.5838 38.0954 31.9692 37.3683 32.806L37.3341 32.7977L37.6775 31.3797L36.2766 31.0404L34.1252 39.9243ZM46.6791 43.1272C47.9604 43.4375 49.13 43.0516 49.9505 42.1651L49.9762 42.1713L49.6121 43.6747L51.0301 44.0181L54.0152 31.6918L52.5288 31.3319L51.3455 36.218L51.3114 36.2097C51.0176 35.1076 50.1435 34.2358 48.8708 33.9276C46.6327 33.3856 44.6651 34.8263 43.9907 37.611C43.3164 40.3957 44.4154 42.579 46.6791 43.1272ZM48.8703 35.3111C50.3994 35.6814 51.1079 37.2366 50.628 39.2183C50.146 41.2087 48.8065 42.2588 47.2774 41.8885C45.7057 41.5079 45.023 39.9952 45.5112 37.9792C45.9974 35.9718 47.2986 34.9305 48.8703 35.3111Z" fill="#6A6B6F"/>
<path d="M67.3761 48.4076C70.3355 49.1077 72.6605 47.0295 73.5913 43.0951C74.516 39.1864 73.356 36.3018 70.4052 35.6038C67.463 34.9077 65.1057 36.9692 64.181 40.8779C63.2502 44.8123 64.4168 47.7075 67.3761 48.4076ZM67.7565 46.7996C65.9946 46.3828 65.4184 44.3137 66.1225 41.3373C66.8166 38.4036 68.28 36.7989 70.0248 37.2117C71.7696 37.6245 72.3524 39.7042 71.6563 42.6464C70.9501 45.6314 69.5184 47.2164 67.7565 46.7996ZM76.8305 50.4004L78.7036 50.8435L81.6234 38.5016L79.7332 38.0544L75.9367 39.5948L75.4916 41.4764L79.2583 39.9471L79.3011 39.9572L76.8305 50.4004ZM83.5083 49.9661C84.1326 50.1138 84.7461 49.7351 84.8938 49.1107C85.0415 48.4864 84.6628 47.8729 84.0384 47.7252C83.414 47.5775 82.8006 47.9562 82.6529 48.5806C82.5052 49.205 82.8839 49.8184 83.5083 49.9661ZM84.9833 43.731C85.6077 43.8787 86.2191 43.5085 86.3688 42.8756C86.5166 42.2512 86.1378 41.6378 85.5135 41.4901C84.8891 41.3424 84.2757 41.7211 84.128 42.3455C83.9782 42.9784 84.359 43.5833 84.9833 43.731ZM88.277 43.896L88.2729 43.9131L90.0862 44.3421L90.0922 44.3164C90.3957 43.0335 91.6442 42.2992 92.9956 42.6189C94.2785 42.9224 95.0643 44.0296 94.8053 45.1243C94.5767 46.0908 94.0294 46.6478 92.1538 47.8569L86.6233 51.3443L86.3157 52.6443L94.7575 54.6415L95.1399 53.0249L89.2812 51.6389L89.2913 51.5961L93.1134 49.2219C95.3551 47.8014 96.3778 46.9143 96.7178 45.4774C97.1811 43.5188 95.7819 41.6072 93.4298 41.0508C90.9751 40.4701 88.8031 41.6722 88.277 43.896ZM101.047 56.3823C103.664 57.0015 105.98 55.6525 106.564 53.1807C107.119 50.8372 105.785 48.6882 103.433 48.1317C101.893 47.7675 100.394 48.2619 99.5721 49.3319L99.5379 49.3238C100.281 46.2211 101.827 44.7262 103.768 45.1855C104.897 45.4526 105.665 46.3297 105.726 47.4098L107.642 47.8631C107.731 45.8068 106.347 44.0976 104.166 43.5816C101.078 42.8512 98.652 44.8603 97.6747 48.9914C97.3328 50.4368 97.302 51.712 97.574 52.815C97.9834 54.673 99.2254 55.9513 101.047 56.3823ZM101.412 54.7617C99.9414 54.4137 99.079 52.9814 99.425 51.5188C99.771 50.0563 101.146 49.2437 102.652 49.5998C104.166 49.9579 104.997 51.2926 104.643 52.7894C104.301 54.2348 102.867 55.1057 101.412 54.7617ZM109.03 56.004C109.655 56.1517 110.268 55.773 110.416 55.1486C110.564 54.5242 110.185 53.9108 109.56 53.7631C108.936 53.6154 108.323 53.9941 108.175 54.6185C108.027 55.2428 108.406 55.8563 109.03 56.004ZM110.505 49.7689C111.13 49.9166 111.741 49.5464 111.891 48.9135C112.039 48.2891 111.66 47.6757 111.036 47.528C110.411 47.3803 109.798 47.759 109.65 48.3833C109.5 49.0163 109.881 49.6211 110.505 49.7689ZM116.171 59.9512C118.831 60.5804 121.11 59.2682 121.709 56.7365C122.276 54.3417 120.984 52.2027 118.615 51.6423C117.409 51.357 116.289 51.5886 115.566 52.2395L115.523 52.2293L116.761 48.5213L122.569 49.8952L122.951 48.2787L115.604 46.5406L113.303 53.366L115.057 53.7808C115.728 53.0816 116.767 52.8126 117.836 53.0655C119.375 53.4298 120.19 54.7966 119.824 56.3447C119.458 57.8928 118.123 58.7241 116.566 58.3558C115.189 58.03 114.336 56.943 114.488 55.6875L112.658 55.2545C112.259 57.4361 113.708 59.3684 116.171 59.9512Z" fill="#A0A1A5"/>
<defs>
<filter id="filter0_d_2_94" x="0.532196" y="1.98444" width="171.132" height="93.627" filterUnits="userSpaceOnUse" color-interpolation-filters="sRGB">
<feFlood flood-opacity="0" result="BackgroundImageFix"/>
<feColorMatrix in="SourceAlpha" type="matrix" values="0 0 0 0 0 0 0 0 0 0 0 0 0 0 0 0 0 0 127 0" result="hardAlpha"/>
<feOffset dy="7.46988"/>
<feGaussianBlur stdDeviation="3.73494"/>
<feComposite in2="hardAlpha" operator="out"/>
<feColorMatrix type="matrix" values="0 0 0 0 0 0 0 0 0 0 0 0 0 0 0 0 0 0 0.25 0"/>
<feBlend mode="normal" in2="BackgroundImageFix" result="effect1_dropShadow_2_94"/>
<feBlend mode="normal" in="SourceGraphic" in2="effect1_dropShadow_2_94" result="shape"/>
</filter>
<filter id="filter1_d_2_94" x="0.245941" y="4.1463" width="169.526" height="93.2549" filterUnits="userSpaceOnUse" color-interpolation-filters="sRGB">
<feFlood flood-opacity="0" result="BackgroundImageFix"/>
<feColorMatrix in="SourceAlpha" type="matrix" values="0 0 0 0 0 0 0 0 0 0 0 0 0 0 0 0 0 0 127 0" result="hardAlpha"/>
<feOffset dy="7.46988"/>
<feGaussianBlur stdDeviation="3.73494"/>
<feComposite in2="hardAlpha" operator="out"/>
<feColorMatrix type="matrix" values="0 0 0 0 0 0 0 0 0 0 0 0 0 0 0 0 0 0 0.25 0"/>
<feBlend mode="normal" in2="BackgroundImageFix" result="effect1_dropShadow_2_94"/>
<feBlend mode="normal" in="SourceGraphic" in2="effect1_dropShadow_2_94" result="shape"/>
</filter>
</defs>
</svg>
